<?xml version="1.0" encoding="utf-8"?>
<!-- Generator: Adobe Illustrator 27.1.1, SVG Export Plug-In . SVG Version: 6.00 Build 0)  -->
<svg version="1.1" xmlns="http://www.w3.org/2000/svg" xmlns:xlink="http://www.w3.org/1999/xlink" x="0px" y="0px"
	 viewBox="0 0 390.67 390.67" style="enable-background:new 0 0 390.67 390.67;" xml:space="preserve">
<style type="text/css">
	.st0{fill:#545454;}
	.st1{fill:#3C3C3C;}
	.st2{fill:#202020;}
</style>
<g id="behind">
	<g>
		<g>
			<path d="M147.56,213.32c0.96,1.15,2.03,2.23,2.86,3.46c5.07,7.54,10.14,15.09,15.09,22.72c1.02,1.58,1.7,3.44,2.19,5.27
				c0.27,0.99-0.2,2.19-0.33,3.29c-0.46,0.1-0.91,0.21-1.37,0.31c-2.67-4.87-5.34-9.74-8.22-14.99
				c-9.46,3.85-18.47,7.53-27.71,11.29c1.48,2.42,3.24,4.6,4.22,7.09c0.99,2.5,1.22,5.31,1.8,8.08
				c9.27,2.04,10.55,10.67,10.42,21.26c6.76,5.8,7.99,13.55,7.27,22.01c-0.11,1.27,0.46,2.8,1.18,3.92
				c3.67,5.76,2.8,11.92,1.74,18.07c-0.16,0.95-1.29,1.74-1.98,2.6c-0.39-0.05-0.78-0.1-1.17-0.15c-0.19-1.06-0.57-2.13-0.53-3.18
				c0.15-3.57,0.76-7.14,0.62-10.69c-0.19-5.03-2.83-7.46-7.83-7.94c-0.12-0.01-0.24-0.02-0.36-0.03c-7.07-0.73-7.97-2.45-4.16-8.82
				c-0.78-1.06-1.65-2.29-2.57-3.48c-1.69-2.21-1.87-4.19,0.3-6.33c5.17-5.07,5.61-16.36,0.78-21.72c-0.9-1-2.7-1.8-4.01-1.69
				c-2.7,0.22-5.37,1.02-8,1.76c-4.2,1.16-6.03,0.14-7.81-3.87c-1-2.25-2.96-4.07-3.96-6.32c-0.8-1.78-1.49-4.08-1.03-5.85
				c1.55-5.97,1.33-8.24-2.81-13.71c-2.66,0-5.61,0.03-8.57-0.01c-3.58-0.04-6.23-1.36-7.29-5.11c-0.32-1.12-1.02-2.17-1.71-3.13
				c-2.09-2.9-2.58-5.66,0.43-8.11c0-1.35,0-2.53,0-4.08c-5.34-0.89-9.28,2.83-14.08,4c0-1.49,0-2.86,0-4.24
				c13.36-8.72,36.51-4.21,32.92,16.88c1.76,2.8,3.48,5.53,5.25,8.34c2.4,0.42,4.97,0.86,7.54,1.31c0.07,0.24,0.13,0.49,0.2,0.73
				c9.43-3.95,18.87-7.89,28.29-11.84c-2.24-6-7.68-10.16-9.14-16.27C146.53,213.87,147.04,213.59,147.56,213.32z M109.89,226
				c-2.08,0.52-3.88,0.97-6.14,1.54c-0.96-2.09-2.33-3.93-2.57-5.9c-0.24-2,0.62-4.13,1.08-6.63c-1.59-0.13-2.9-0.23-3.88-0.31
				c-0.54,3.29-1.01,6.12-1.6,9.68c1.09,1.95,2.6,4.63,4.15,7.38c2.99,0,5.87,0,8.97,0C109.89,229.71,109.89,228.08,109.89,226z
				 M131.47,257.59c-3.84,0.94-6.27-0.82-8.83-3.4c-3.21-3.24-0.43-6.51-0.82-9.91c-0.91,0.07-1.66,0.13-2.3,0.18
				c-0.63,2.68-1.2,5.09-1.68,7.12c2.37,3.78,4.56,7.28,6.97,11.12c2.23-0.7,4.66-1.46,7.24-2.27
				C131.85,259.4,131.69,258.64,131.47,257.59z M145.54,284.76c-1.74,2.15-3.14,3.87-4.72,5.82c3.17,3.01,5.68,6.28,2.44,10.94
				c1.35,0.2,2.27,0.39,3.19,0.46c1.03,0.07,2.06,0.02,3.3,0.02c0.08-1.13,0.15-2.16,0.21-3.08c-5.17-3.22-5.1-7.87-2.33-11.76
				C147,286.42,146.33,285.66,145.54,284.76z"/>
			<path d="M255.61,296.95c0.8,1.14,1.31,1.8,1.74,2.5c1.7,2.8,0.94,4.77-2.26,5.66c-1.26,0.35-2.59,0.49-3.89,0.62
				c-4.84,0.49-7.46,2.8-7.73,7.65c-0.19,3.55,0.37,7.13,0.5,10.7c0.04,1.14-0.22,2.29-0.35,3.43c-0.59,0.08-1.19,0.16-1.78,0.25
				c-0.71-1.71-1.94-3.4-2.02-5.15c-0.28-5.68-1.13-11.53,2.92-16.53c0.62-0.77,0.41-2.23,0.55-3.37c0.57-4.69,0.64-9.52,1.85-14.04
				c0.75-2.81,3.22-5.17,5.28-8.27c0.91-7.57-0.85-17.26,11.05-20.63c-0.73-5.68,2.22-10.43,5.72-15.04
				c-9.41-3.83-18.43-7.51-27.9-11.36c-2.83,5.22-5.45,10.05-8.06,14.88c-0.4-0.02-0.8-0.04-1.2-0.06
				c-0.27-1.04-0.92-2.15-0.72-3.09c0.36-1.73,0.97-3.52,1.93-4.99c5.57-8.5,11.26-16.92,16.94-25.35c0.37-0.54,1.03-0.89,1.55-1.33
				c0.37,0.12,0.75,0.25,1.12,0.37c-0.36,1.32-0.44,2.81-1.12,3.93c-2.55,4.15-5.3,8.19-8.14,12.52
				c9.68,4.07,19.01,7.98,27.49,11.54c3.57-0.64,6.14-1.09,8.9-1.59c1.65-2.62,3.43-5.42,5.25-8.3
				c-3.56-20.78,18.87-25.21,31.48-17.61c0,1.3,0,2.69,0,4.1c-4.11-1.31-8.08-2.58-12.48-3.99c-0.17,2.16-0.25,3.32-0.36,4.73
				c3.53,2.66,1.81,5.34,0.53,8.73c-2.7,7.17-7.55,8.92-14.38,7.57c-0.34-0.07-0.72-0.01-1.07,0.04c-0.7,0.1-1.4,0.25-2.09,0.37
				c-3.67,3.89-4.67,8.31-2.68,13.24c1.03,2.55,0.43,4.48-1.22,6.58c-1.67,2.12-2.99,4.55-4.2,6.98c-1.45,2.91-3.5,3.81-7.18,2.83
				c-2.53-0.68-5.06-1.38-7.63-1.89c-2.57-0.51-4.29,0.77-5.59,2.95c-3.92,6.54-3.13,15.29,2.03,20.83c1.82,1.95,1.62,3.83,0.16,5.8
				C257.61,294.39,256.66,295.58,255.61,296.95z M287.22,231.87c3.29,0,6.1,0,8.9,0c1.67-3.01,3.2-5.79,4.09-7.39
				c-0.6-4.07-1.02-6.89-1.48-10.01c-1.31,0.27-2.6,0.54-4.16,0.86c1.7,4.58,2.24,8.59-1.86,12.05c-1.7-0.43-3.5-0.88-5.49-1.38
				C287.22,227.97,287.22,229.68,287.22,231.87z M279.26,251.51c-0.56-2.26-1.15-4.66-1.8-7.28c-0.79,0.09-1.55,0.17-2.31,0.26
				c1.36,9.97-0.79,12.97-9.65,13.41c-0.11,0.81-0.23,1.67-0.36,2.58c2.59,0.8,4.94,1.53,7.12,2.21
				C274.65,258.88,276.84,255.38,279.26,251.51z M251.59,284.8c-0.73,0.79-1.48,1.59-2.17,2.33c3.08,5.12,2.44,8.36-2.35,11.86
				c0.12,0.97,0.26,2.07,0.41,3.34c2.3-0.29,4.22-0.54,6.53-0.84c-3.63-4.89-0.5-7.93,2.15-11.04
				C254.65,288.6,253.25,286.87,251.59,284.8z"/>
			<path d="M190,129.22c1.49,0.56,2.79,1.06,4.35,1.65c1.05,3.44,2.15,7.04,3.24,10.63c0.62,0.01,1.24,0.02,1.87,0.03
				c1.06-3.47,2.12-6.95,3.24-10.59c1.29-0.53,2.7-1.11,4.69-1.93c0.4,1.54,0.96,2.93,1.1,4.35c0.57,5.98-1.67,11-5.65,15.3
				c-1.88,2.03-4.19,2.75-6.8,1.38C190.01,146.91,186.59,135.53,190,129.22z"/>
			<path d="M231.35,148.9c-6.48-1.45-10.54-5.64-14.31-10.94c0.7-0.87,1.31-1.61,2.12-2.61c1.95,1.49,3.61,2.74,5.66,4.3
				c-1.62-6.42-2.62-12.54-9.18-16.51c2.45-1.33,3.92-2.13,5.26-2.86C229.01,122.83,235.3,139.31,231.35,148.9z"/>
			<path d="M165.45,148.24c-3.53-8.55,2.41-24.65,10.41-27.97c1.37,0.63,2.91,1.35,4.88,2.26c-2.17,2.87-4.43,5.15-5.8,7.88
				c-1.34,2.68-1.76,5.82-2.77,9.41c2.07-1.66,3.61-2.9,5.43-4.36c0.85,0.73,1.57,1.36,2.2,1.9
				C177.3,143.3,170.3,148.57,165.45,148.24z"/>
			<path d="M194.21,294.38c0.38,8.59-1.27,16.77-6.23,23.99c-7.11,10.36-17.01,17.7-27.53,24.21c-1.57,0.97-3.58,1.35-5.44,1.7
				c-0.79,0.14-1.72-0.52-3.63-1.19c1.91-1.29,2.84-2.1,3.91-2.61c18.14-8.68,33.16-19.99,35.86-41.89c0.2-1.63,0.98-3.19,1.49-4.78
				C193.16,294,193.68,294.19,194.21,294.38z"/>
			<path d="M204.07,293.39c0.67,1.46,1.53,2.48,1.58,3.53c0.82,16.58,10.68,27.42,23.27,36.36c4.11,2.92,8.88,4.89,13.34,7.32
				c0.8,0.44,1.55,0.97,3.42,2.16c-1.83,0.77-2.85,1.62-3.69,1.47c-1.97-0.35-4.08-0.83-5.75-1.87
				c-9.67-6.04-18.71-12.88-25.76-22.02c-5.57-7.22-7.61-15.56-7.71-24.51c0-0.35,0.04-0.72,0.15-1.06
				C202.97,294.57,203.2,294.42,204.07,293.39z"/>
			<path d="M107,280.08c1.8,9.24,3.42,18.5-1.46,27.43c-0.78,1.42-1.97,2.73-3.25,3.73c-0.72,0.56-2.02,0.36-3.4,0
				c7.84-8.31,7.93-17.73,5.43-28.77c-4.02,2.75-7.64,5.24-11.36,7.78C92.72,285.26,100.51,279.7,107,280.08z"/>
			<path d="M297.64,311.91c-1.17-0.38-2.66-0.42-3.47-1.18c-3.96-3.72-5.49-8.81-5.75-13.87c-0.28-5.52,0.75-11.1,1.19-16.5
				c5.94-1.11,14.1,4.33,14.8,10.06c-3.93-2.71-7.53-5.18-11.61-8c-2.47,10.87-2.62,20.28,5.59,28.11
				C298.14,311,297.89,311.46,297.64,311.91z"/>
			<path d="M235.47,130.28c2.44,0.31,4.89,0.62,7.96,1.01c-1.54-2.15-2.76-3.85-4.37-6.09c2.14-0.47,3.58-0.79,5.87-1.29
				c1.99,3.23,4.03,6.55,6.21,10.09c-4,3.69-8.04,4-12.13,3.55c-1.35-2.21-2.51-4.1-3.66-5.98
				C235.39,131.13,235.43,130.71,235.47,130.28z"/>
			<path d="M161.79,131.46c-1.15,1.88-2.3,3.75-3.72,6.06c-3.88,0.6-7.78,0.05-12.12-3.26c2.08-3.54,4.09-6.97,6.06-10.32
				c2.31,0.46,3.77,0.75,6.1,1.21c-1.62,2.17-2.82,3.78-4.5,6.03c3.01-0.33,5.5-0.61,7.99-0.88
				C161.67,130.68,161.73,131.07,161.79,131.46z"/>
			<path d="M105.28,316.09c1.46-3.25,3.82-3.7,6.4-3.64c4.13,0.1,14.16,4.17,17.69,7.13c-1.92,5.47-13.98,12.42-18.56,9.83
				c5.01-2.89,9.69-5.59,15.19-8.77C119.09,317.01,113.16,313.41,105.28,316.09z"/>
			<path d="M267.64,319.75c6.81-6.57,20.17-9.02,24.27-3.75c-7.87-2.52-13.85,0.99-20.91,4.6c5.4,3.1,10.1,5.8,14.87,8.53
				C282.52,332.36,270.32,325.8,267.64,319.75z"/>
			<path d="M167.87,116.94c-1.87,0-3.64,0-5.41,0c-0.06,0.24-0.13,0.49-0.19,0.73c-1.23-1.06-2.46-2.13-3.69-3.2
				c0-1.83,0-3.58,0-4.81c2.64-1.63,4.85-3,7.46-4.62C170.25,105.99,171.54,112.72,167.87,116.94z"/>
			<path d="M238.56,109.73c0.05,1.11,0.14,2.75,0.22,4.4c-1.33,1.23-2.53,2.33-3.4,3.13c-2.19-0.19-3.94-0.35-6.29-0.56
				c-3.26-2.88-2.47-9.62,1.89-11.87C233.28,106.32,235.56,107.79,238.56,109.73z"/>
			<path d="M193.09,122.38c1.76-2.22,3.56-4.48,5.58-7.02c2.04,2.74,3.62,4.87,5.18,6.96c-0.54,2.83-2.65,2.92-4.68,2.92
				C196.88,125.23,194.29,125.69,193.09,122.38z"/>
			<path d="M119.58,310.7c0.59-3.75,1.09-6.93,1.63-10.32c-2.89-0.26-5.44-0.49-8-0.71c0.03-0.51,0.06-1.01,0.09-1.52
				c3.2,0,6.4,0,9.58,0C125.24,302.19,123.99,308.62,119.58,310.7z"/>
			<path d="M274.08,298.18c3.34,0,6.53,0,9.72,0c0.01,0.51,0.03,1.02,0.04,1.53c-2.46,0.19-4.92,0.39-7.88,0.62
				c0.48,3.34,0.94,6.6,1.49,10.45C273.19,308.56,271.92,302.54,274.08,298.18z"/>
			<path d="M84.29,302.13c-1.25-5.59-2.46-10.99-3.75-16.74C86.33,289.18,88.2,298.56,84.29,302.13z"/>
			<path d="M314.97,287.39c-0.58,4.87-1.16,9.74-1.74,14.61C309.25,300.22,309.73,293.36,314.97,287.39z"/>
		</g>
	</g>
	<g>
		<g>
			<path class="st0" d="M307.42,183.79c3.71,2.46,8.03,4.05,8.73,9.41c-0.99-0.81-2.04-1.55-2.96-2.44
				c-6.1-5.88-13.74-6.42-18.83-1.27c-4.35,4.4-4.39,10.95-0.16,15.57c0.58,0.64,0.81,1.6,1.16,2.31c3.62,0.43,6.51-0.08,8.35-3.75
				c1.02-2.05,3.04-3.6,4.61-5.38c-1.46-2.82-3.47-4.47-6.42-3.54c-1.35,0.42-2.34,1.96-3.49,3c0.21,0.33,0.41,0.66,0.62,0.99
				c0.77,0.13,1.57,0.16,2.3,0.42c0.8,0.28,1.53,0.76,2.29,1.15c-0.71,0.67-1.33,1.72-2.16,1.95c-3.21,0.86-5.69-1.56-5.19-4.87
				c0.73-4.81,6.74-7.15,10.99-4.2c1.25,0.87,2.26,2.1,3.44,3.22c1.85-0.19,3.82-0.4,6.41-0.67c-4.6,3.91-8.5,7.24-12.83,10.92
				c5.22,2.33,10.51,2.36,12.62,7.47c-5.69-2.54-11.38-4.12-17.64-3.83c-9.31,0.43-13.97,4.82-14.48,14.2
				c-0.06,1.19,0.02,2.4-0.13,3.58c-0.73,6.12,0.99,10.69,7.3,13c2.15,0.79,3.93,2.6,5.49,3.68c2.1-0.99,3.98-1.81,5.79-2.76
				c0.45-0.24,0.81-0.82,1.03-1.33c2.03-4.87,6.69-6.09,10.92-7.87c0.33-0.14,0.86,0.18,1.81,1.24c-1.89,1.18-3.77,2.38-5.68,3.53
				c-4.65,2.79-4.69,2.86-3.32,7.95c1.84,6.85,0.3,10.63-6.53,14.41c-4.09,2.26-7.08,5.19-8.55,9.82c2.03,2.28,3.44,1.94,4.96-0.8
				c1.25-2.25,2.68-4.81,4.74-6.12c6.32-4.02,8.99-9.8,9.89-16.9c0.57-4.46,2.4-6.07,7.87-7.31c-2.22,2.19-3.98,3.92-5.73,5.65
				c0.25,0.26,0.5,0.52,0.76,0.78c0.36-0.43,0.65-0.98,1.1-1.27c0.83-0.54,1.95-1.46,2.58-1.23c0.69,0.26,1.37,1.64,1.36,2.52
				c-0.03,2.38-0.07,4.86-0.77,7.1c-1.53,4.88-3.48,9.62-5.25,14.41c3.67,1.69,3.6,2.17,1.03,4.9c-2.84,3.01-5.64,6.15-7.88,9.6
				c-4.09,6.3-3.3,12.89,0.58,18.92c2.62,4.09,5.95,7.73,9.1,11.46c0.73,0.87,2.01,1.26,3.04,1.88c-0.48,0.24-0.96,0.49-1.44,0.73
				c-0.47,1.58-1.05,3.14-1.37,4.76c-0.68,3.36-0.86,6.86-1.9,10.09c-1.72,5.34-7.29,6.64-11.88,3.35c-1.53-1.09-3.55-1.54-5.4-2.13
				c-2.34-0.75-4.69-1.55-7.09-1.94c-1.78-0.29-4.11-0.65-5.4,0.2c-2.6,1.72-5.04,3.98-6.88,6.5c-2.94,4.03-4.97,8.48-11.2,8.68
				c-3.16,0.1-6.09,2.44-7.11,6.37c5.07,1.28,10.63,0.14,14.93,3.3c-0.08,0.56-0.16,1.12-0.25,1.68
				c-8.49-0.41-17.14,0.06-25.44-1.42c-14.03-2.5-26.67-8.84-38.42-16.89c-5.02-3.43-9.21-7.58-11.8-13.19
				c-0.43-0.94-1.12-1.76-1.89-2.94c-0.62,0.75-1.19,1.19-1.44,1.78c-3.77,8.73-10.94,14.18-18.82,18.54
				c-10.87,6.02-22.04,11.84-34.61,13.19c-7.52,0.81-15.21,0.15-23.21,0.15c1.3-3.48,4.53-2.45,6.87-2.99
				c2.53-0.59,5.17-0.74,7.76-1.08c-0.44-3.4-3.43-6.64-7.51-6.73c-4.47-0.1-6.52-2.72-8.7-5.83c-1.97-2.8-3.99-5.67-6.49-7.96
				c-2.5-2.29-5.61-3.07-8.81-0.62c-0.87,0.66-2.23,0.84-3.39,0.94c-3.19,0.28-6.1,0.57-8.89,2.88c-3.56,2.95-9.1,1.09-10.54-3.28
				c-1.13-3.45-1.42-7.17-2.13-10.76c-0.3-1.48-0.74-2.94-1.11-4.41c-0.74-0.42-1.49-0.84-2.23-1.26c1.22-0.54,2.71-0.81,3.63-1.68
				c4.8-4.56,8.87-9.62,11.19-15.99c2.8-7.69-0.53-13.73-4.89-19.5c-1.35-1.79-3.22-3.19-4.86-4.75c-2.39-2.28-2.23-3.02,0.38-3.99
				c0-1.98,0.07-3.71-0.04-5.44c-0.04-0.65-0.36-1.38-0.78-1.88c-3.34-4.01-4.14-8.81-4.19-13.78c-0.01-1.22,0.86-2.45,1.32-3.67
				c0.99,0.69,1.99,1.35,2.94,2.09c0.22,0.18,0.23,0.63,0.33,0.96c0.38-0.38,0.76-0.75,1.15-1.13c-1.77-1.73-3.54-3.46-5.46-5.34
				c4.55,0.28,6.6,2.3,7.62,6.68c0.75,3.21,1.4,6.58,2.93,9.43c1.39,2.59,3.93,4.55,5.92,6.82c2.63,3.01,5.21,6.07,8.09,9.43
				c0.59-0.28,1.61-0.76,2.71-1.27c-1.4-4.28-3.71-7.34-7.48-9.45c-8.36-4.68-9.56-7.45-7.23-16.55c0.68-2.65,0.03-4.32-2.3-5.65
				c-2.27-1.29-4.42-2.8-6.6-4.24c-0.13-0.08-0.07-0.44-0.17-1.26c1.04,0.09,2.14-0.13,2.86,0.29c3.6,2.12,8.19,3.05,9.68,7.88
				c0.17,0.56,1.56,0.68,2.3,1.14c1.28,0.8,2.49,1.72,3.8,2.63c3.47-2.11,7.27-4.09,10.66-6.62c1.31-0.98,2.27-3.16,2.38-4.86
				c0.27-4.03,0.32-8.16-0.24-12.15c-0.74-5.28-3.83-8.94-9.25-10.17c-7.79-1.77-15.14-0.58-21.99,3.6
				c-0.93-3.15,1.79-4.91,11.34-7.4c-2.94-4.65-6.26-8.57-12.09-9.84c0.2-0.49,0.39-0.98,0.59-1.47c1.92,0.14,3.84,0.27,6.08,0.43
				c2.42-3.45,5.75-5.61,10.48-3.73c2.81,1.12,4.25,3.49,3.6,6.25c-0.33,1.38-2.29,2.75-3.81,3.34c-0.81,0.31-2.26-1.04-3.42-1.63
				c1.03-0.47,2.05-0.97,3.1-1.41c0.42-0.18,0.89-0.23,2.34-0.57c-1.26-1.55-1.95-3.1-3.12-3.69c-2.48-1.26-4.41-0.23-6.89,3.09
				c2.16,2.88,4.07,6.11,6.68,8.6c1.2,1.15,3.79,0.85,5.59,1.17c5.26-5.6,7.38-11.82,1.87-17.65c-8.25-8.74-15.41-2.55-22.43,2.98
				c0.94-5.18,5.37-6.79,8.96-9.16c-1-5.15-4.91-7.18-8.87-8.35c2.83-1.86,5.18-4.03,7.96-5.02c2.06-0.74,4.99-0.61,6.95,0.34
				c2.66,1.29,3.18,4.36,2.62,7.23c-0.14,0.7-1.19,1.22-1.82,1.83c-0.37-0.72-1.15-1.53-1.03-2.15c0.47-2.37,0.32-4.79-2.21-5.25
				c-1.82-0.33-3.93,0.94-6.24,1.59c2.27,3.52,3.43,6.74,5.73,8.45c1.92,1.43,5.34,1.87,7.74,1.29c1.67-0.4,3.37-3.09,3.97-5.08
				c1.7-5.64-0.81-11.03-6.08-14.41c-3.28-2.1-8.05-1.23-12.59,2.23c-1.14,0.87-2.41,1.57-3.92,1.89c2.37-4.34,5.88-6.99,10.82-7.71
				c6.42-0.94,10.37,3.03,13.07,7.66c3.5,6,2.51,12.16-2.23,17.44c6.86,9.46,7.35,16.57,1.35,22.2
				c13.26,5.91,10.69,17.54,10.47,29.02c8.56-1.38,16.63,0,20.76,8.69c3.67,7.73,3.68,15.89-0.51,23.65
				c0.18,0.17,0.26,0.3,0.34,0.31c4.9,0.36,9.94,0.4,13.21,4.99c4.53,6.35,8.83,12.79,8.7,21.1c-0.09,5.23-2.6,9.18-6.56,12.16
				c-2.83,2.13-6.06,3.72-9.24,5.62c1.79,2,3.94,4.17,5.81,6.56c1.31,1.67,2.59,3.51,3.3,5.48c1.16,3.21,3,3.31,5.52,1.88
				c8.18-4.65,15.86-10.09,20.82-18.21c2.52-4.14,3.48-9.23,5.54-15c-3.15,1.08-5.25,1.71-7.29,2.52c-1.92,0.76-3.21,0.34-4.06-1.56
				c-1.73-3.87-3.76-7.64-5.06-11.66c-0.31-0.97,1.48-3.5,2.77-3.94c4.04-1.39,8.3-2.13,12.48-3.1c1.38-0.32,2.78-0.57,4.17-0.85
				c0.15-0.37,0.29-0.75,0.44-1.12c-1.7-0.79-3.34-2.07-5.12-2.29c-11.54-1.42-18.37-15.4-11.93-24.72c1.35-1.96,2.91-3.49,5.82-1.7
				c-1.25,1.14-2.56,1.96-3.36,3.13c-3.6,5.32-1.7,13.91,3.83,17.89c5.58,4.02,11.71,2.89,16.29-3.01c2.89-3.72,2.56-5.16-1.43-7.85
				c-2.16,1.9-4.02,3.98-6.31,5.38c-1.09,0.67-3.03,0.3-4.47-0.06c-2.51-0.63-4.34-2.14-4.04-5.08c0.19-1.88,0.61-3.75,3.49-3.82
				c-0.14,0.8-0.34,1.34-0.3,1.86c0.1,1.39-0.11,3.7,0.53,3.97c1.44,0.62,3.54,0.77,4.96,0.16c2.85-1.24,3.46-4.73,1.93-7.58
				c-0.73-1.36-1.16-2.88-1.08-4.58c2.65,2.77,4.99,5.99,8.04,8.22c4.28,3.12,5.26,7.15,4.84,11.91c-0.28,3.2-1.47,3.49-4.52,3.03
				c-1.98-0.3-4.19,0.94-6.29,1.48c-0.06,0.42-0.12,0.84-0.18,1.26c2.84,1.68,5.68,3.36,9.46,5.59c-2.3,0.98-3.75,1.85-5.32,2.22
				c-6.7,1.59-13.43,3.04-20.78,4.69c1.41,3.67,2.53,6.59,3.64,9.47c3.89-1.05,7.29-2.06,10.75-2.87c3.32-0.78,6.62-2.4,10.02-1.25
				c-0.97,3.49-2.18,6.37-2.53,9.35c-1.15,9.74-6.55,17.12-13.09,23.71c-6.35,6.39-13.65,11.78-22.24,14.75
				c-4.5,1.56-5.25,4.39-5.08,8.51c10.14-2.49,19.2-6.81,27.02-13.53c6.53-5.61,12.93-11.34,16.81-19.31
				c1.51-3.09,2.6-0.42,3.7,0.73c1.23-1.89,2.23-3.33,3.94-0.38c8.16,14.05,20.12,23.72,35.05,29.83c2.43,0.99,4.97,1.7,7.47,2.52
				c0.22,0.07,0.46,0.04,0.7,0.05c0.71-5.09,0.1-6.23-4.22-8.06c-10.74-4.56-19.95-11.13-27.33-20.28
				c-4.46-5.53-7.53-11.53-8.54-18.63c-0.42-2.98-1.55-5.86-2.59-9.62c7.07-0.03,13.55,2.54,20.7,4.6c1.14-2.82,2.32-5.74,3.86-9.54
				c-7.35-1.65-14.17-3.13-20.96-4.73c-1.5-0.35-2.9-1.15-5.33-2.15c3.81-2.24,6.67-3.92,10.09-5.92c-3.09-1.31-4.71-4.46-8.15-2.3
				c-0.51,0.32-2.91-0.95-2.94-1.54c-0.1-2.59,0.64-5.22,0.55-7.81c-0.16-4.33,3.84-5,5.93-7.35c1.96-2.2,3.83-4.47,6.6-6.41
				c-0.69,1.69-1.06,3.63-2.14,5.01c-2.04,2.58-0.27,4.6,1.16,5.8c1.36,1.14,4.24,1.91,5.58,1.2c1.2-0.64,1.21-3.52,1.93-6.08
				c0.66,0.91,1.92,1.96,2.25,3.24c0.81,3.2-1.17,4.86-3.97,5.76c-4.27,1.37-7.48-0.48-10.01-5.73c-4.92,2.87-5.21,4.48-1.62,8.81
				c4.55,5.47,10.84,6.29,16.13,2.11c5.45-4.31,7.08-13.07,3.24-18c-0.75-0.97-1.92-1.61-3.33-2.76c2.83-1.59,4.45-0.49,5.88,1.48
				c6.59,9.08-0.12,23.45-11.52,24.92c-1.86,0.24-3.6,1.38-5.39,2.1c0.11,0.38,0.22,0.77,0.34,1.15c4.95,1.14,9.92,2.18,14.83,3.45
				c5.67,1.46,5.94,2.55,3.08,7.76c-1.31,2.38-2.07,5.07-3.01,7.64c-0.97,2.68-2.54,3.48-5.24,2.17c-1.67-0.81-3.54-1.22-5.86-1.98
				c1.74,7.89,3.27,15.3,9.27,20.46c5.05,4.34,10.4,8.37,15.9,12.13c3.52,2.41,4.34,1.78,6.19-1.94c1.11-2.22,2.55-4.31,4.09-6.27
				c1.54-1.95,3.38-3.65,4.87-5.22c-3.41-2.17-7.06-3.98-10.1-6.52c-5.87-4.89-7.39-12.13-4.42-19.17c1.25-2.97,2.71-5.85,4.19-8.71
				c3.45-6.7,8.77-10.29,17.09-9.22c-4.37-8.24-4.5-16.36-0.92-24.09c4.09-8.82,12.09-10.35,20.86-8.9
				c-0.12-11.24-2.91-22.98,10.33-28.94c-5.92-6.49-5.41-13.85,1.44-21.98c-6.44-10.72-4.89-19.31,4.39-24.39
				c5.55-3.04,14.37,0.2,17.99,7.38c-1.77-0.92-2.81-1.42-3.81-1.99c-1.95-1.11-3.76-2.65-5.85-3.33
				c-5.81-1.88-8.49,0.02-12.88,6.29c-2.54,3.63-1.28,9.77,1.96,12.79c1.26,1.18,8.48,0.79,9.43-0.6c1.6-2.33,3.1-4.74,4.79-7.36
				c-1.3-2.02-3.1-3.55-5.78-2.59c-2.29,0.82-2.56,2.83-2.17,5.07c0.13,0.73-0.45,1.59-0.7,2.39c-0.73-0.63-2.16-1.41-2.06-1.85
				c0.56-2.44,0.86-5.53,2.5-6.97c1.43-1.26,4.78-1.38,6.81-0.67c2.88,1.01,5.34,3.25,8.5,5.29
				C312.2,176.38,308.81,178.85,307.42,183.79z M123.06,273.49c9.15-3.5,11.5-10.74,10.15-20.99c-0.85-6.47-5.25-11.85-10.75-12.83
				c-8.01-1.43-19.79,2.76-22.61,8.22c4.73,0.04,7.5,2.65,9.15,6.78c0.28,0.69,0.9,1.44,1.56,1.75c3.08,1.44,4.12,4.02,4.57,7.15
				c0.16,1.11,0.92,2.23,1.67,3.12C118.68,268.88,120.7,270.94,123.06,273.49z M272.82,273.91c0.87-1.61,1.32-3.44,2.48-4.41
				c2.93-2.46,5.32-4.93,5.73-9.09c0.14-1.38,2.18-2.6,3.39-3.84c0.47-0.49,1.35-0.75,1.55-1.29c1.64-4.48,4.49-7.44,9.85-7.89
				c-2.61-2.2-5.04-4.16-7.8-5.36c-5.89-2.56-12.15-4.06-18.28-1.11c-7.94,3.83-8.21,11.35-7.95,18.8
				C262.06,267.01,266.56,271.14,272.82,273.91z M269.54,276.55c-4.95-3.6-13.22-4.63-16.89-1.44c-5.6,4.86-9.5,11.21-10.43,18.59
				c-1,7.95,5.61,14.95,14.71,16.78c2.26-6.7,2.96-13.94,7.03-20.02c0.16-0.24,0.09-0.69,0.02-1.01
				C262.73,283.93,265.46,280.09,269.54,276.55z M138.84,310.85c2.32-1.22,5.08-2.36,7.48-4c6.31-4.3,8.62-10.83,5.91-17.04
				c-1.61-3.69-3.57-7.3-5.83-10.63c-4.77-7.04-13.58-8.09-19.9-3.19c1.71,3.31,4.59,6.45,4.66,9.66c0.08,3.65,1.8,6.58,2.37,9.93
				C134.41,300.67,136.89,305.48,138.84,310.85z M285.65,269.01c-7.63,13.49-0.3,34.85,7.27,41.74c5.96-5.4,12.24-3.15,19.12-0.08
				c-2.42-3.12-4.37-5.64-6.39-8.24c-0.61,0.88-1.16,1.67-1.71,2.47c-7.36-5.76-10-10.89-7.46-14.98c1.66,1.77,3.26,3.48,5.03,5.36
				c0.33-4.1,0.21-7.68,1.01-11.04c0.62-2.63,0.29-4.59-1.78-5.94C295.79,275.09,290.7,272.1,285.65,269.01z M83.67,310.05
				c6.63-2.79,12.88-4.43,18.86,0.72c8.33-9.23,14.25-28.52,7.15-41.65c-4.79,2.8-9.65,5.5-14.34,8.44
				c-2.68,1.68-3.51,4.01-2.43,7.36c0.77,2.38,0.34,5.15,0.43,7.75c0.03,0.72,0,1.44,0,2.17c0.39,0.24,0.79,0.48,1.18,0.73
				c1.35-1.97,2.7-3.95,4.34-6.34c2.08,5.75-3.61,15.87-7.89,15.46c-0.37-0.66-0.79-1.43-1.3-2.34
				C87.59,305.02,85.63,307.54,83.67,310.05z M106.48,324.18c2.68,1.31,5.67,2.05,7.61,3.89c3.08,2.93,5.51,1.92,8.06-0.2
				c2.56-2.13,5.08-4.35,7.37-6.77c1.78-1.87,3.22-4.08,4.74-6.19c1.13-1.57,0.51-2.67-1.16-3.32c-5.79-2.23-11.52-4.64-17.4-6.57
				c-1.66-0.54-4.35-0.31-5.57,0.73c-2.02,1.71-3.31,4.32-4.72,6.66c-0.41,0.68-0.48,1.84-0.19,2.58c0.16,0.41,1.36,0.51,2.11,0.59
				c1.53,0.15,3.11,0.02,4.59,0.35c0.92,0.21,1.7,1.05,2.54,1.61c-0.53,0.74-0.91,1.67-1.6,2.2
				C110.7,321.37,108.45,322.83,106.48,324.18z M288.51,324.04c-1.94-1.36-4.4-2.97-6.72-4.75c-1.61-1.23-1.35-2.58,0.56-3.09
				c1.69-0.46,3.52-0.41,5.28-0.64c0.86-0.11,2.32-0.2,2.42-0.58c0.22-0.88,0.02-2.06-0.44-2.87c-0.88-1.54-2.4-2.78-3.06-4.38
				c-1.47-3.54-4.21-3.71-7.06-2.73c-5.86,2.03-11.6,4.39-17.38,6.63c-1.7,0.66-2.04,1.71-1.11,3.36
				c3.55,6.33,9.19,10.51,14.97,14.47c0.79,0.54,2.64,0.1,3.73-0.44C282.69,327.52,285.56,325.73,288.51,324.04z M289.71,268.57
				c1.97-5.98,5.96-9.47,11.01-12.12c3.09-1.62,5.44-4.11,4.6-8.04c-0.32-1.49-1.31-2.84-1.99-4.26c-1.15,1.16-2.9,2.15-3.31,3.53
				c-0.73,2.48-1.99,3.24-4.36,2.99c-3.54-0.36-5.61,1.64-6.71,4.71c-0.71,1.96-1.33,3.53-3.73,4.26c-1.05,0.32-1.75,2.61-2.05,4.11
				c-0.11,0.58,1.24,1.6,2.09,2.19C286.5,266.84,287.88,267.52,289.71,268.57z M105.53,268.64c1.78-1.06,3.01-1.6,4-2.43
				c1.02-0.86,2.67-2.22,2.49-2.98c-0.36-1.48-1.79-2.7-2.81-4.02c-0.88-1.13-2.04-2.12-2.64-3.38c-1.17-2.46-2.4-5.18-5.39-5.01
				c-3.76,0.21-5.7-1.01-6.55-4.65c-0.19-0.83-1.67-1.36-2.56-2.03c-0.65,0.9-1.61,1.7-1.91,2.7c-1.17,4.01-0.28,6.81,3.65,9.1
				C98.97,258.96,103.61,262.26,105.53,268.64z M283.58,301.44c-0.92-3.02-1.85-6.48-3.1-9.81c-0.29-0.77-1.74-1.71-2.5-1.59
				c-4.3,0.68-8.54,1.66-13.29,2.64c1.19,5.01,2.2,9.23,3.22,13.54C273.18,304.62,278.12,303.11,283.58,301.44z M115.36,289.23
				c-1.48,4.96-2.65,8.88-3.65,12.23c5.45,1.66,10.38,3.17,15.62,4.77c1.03-4.34,2.02-8.57,3.17-13.43
				C125.24,291.56,120.45,290.43,115.36,289.23z M297.21,326.46c-1.27-4.97-0.49-8.13,2.19-9.51c2.52-1.3,7.13-0.49,8.96,1.57
				c2.7,3.05,2.26,4.96-2.52,12.12c2.07-0.08,5.17-0.01,5.8-1.22c1.53-2.94,2.82-6.56,2.54-9.76c-0.51-5.78-8.45-10.15-15.07-9.08
				c-4.38,0.71-7.79,6.88-6.91,12.56C292.61,325.84,294.09,327.08,297.21,326.46z M97.76,327.46c2.11-1.05,4.32-1.54,4.42-2.3
				c0.39-2.96,0.8-6.24-0.12-8.95c-0.97-2.88-3.03-5.58-6.97-5.73c-10.57-0.4-16.26,6.97-12.78,16.76c1.32,3.71,3.11,4.42,7.61,2.68
				c-3.63-3.15-7.07-6.44-3.06-11.37c1.74-2.13,6.39-2.91,8.94-1.62C98.52,318.29,99.31,321.49,97.76,327.46z M147.74,330.07
				c-1.87-6.76-5.64-11.07-10.3-14.99c-1.97,2.27-2.92,4.13-1.62,6.95c1.53,3.35,0.71,6.49-2.33,8.91c-0.64,0.51-1.24,1.41-1.35,2.2
				c-0.38,2.56-0.52,5.16-0.78,8.06c2.69,1.83,4.84,1.33,4.49-1.89c-0.48-4.49,3.07-6.7,3.97-10.14
				C142.43,329.47,144.8,329.74,147.74,330.07z M263.98,341.15c-0.37-2.78-0.58-5.06-1-7.29c-0.19-1.02-0.51-2.29-1.23-2.88
				c-3.14-2.59-3.81-5.81-2.22-9.27c1.34-2.92,0.04-4.59-1.86-6.6c-4.52,4.06-8.4,8.24-10.11,14.95c2.97-0.32,5.44-0.58,7.94-0.85
				c1.17,3.59,4.35,6.06,3.96,10.44C259.2,342.6,261.26,342.98,263.98,341.15z M128.65,289.24c0.86-5.27-1.85-10.35-5.7-10.1
				c-3.14,0.2-3.7-1.1-3.58-3.67c0.16-3.65-1.57-5.96-6.03-7.43c1.08,6.7,2.06,12.74,3.03,18.75
				C120.33,287.58,124.37,288.39,128.65,289.24z M281.83,268.18c-4.82,1.8-5.76,3.14-5.99,7.44c-0.08,1.59,0.35,3.41-2.27,3.58
				c-5.52,0.36-8.14,4.27-6.92,10.02c4.13-0.82,8.27-1.64,12.24-2.43C279.86,280.69,280.81,274.66,281.83,268.18z M119.35,334.13
				c0.67,0.96,1.53,2.09,2.26,3.29c1.35,2.21,2.95,2.56,5.39,1.55c2.6-1.07,3.14-2.82,2.43-5.1c-0.74-2.36-0.09-3.69,2.06-4.92
				c3.24-1.83,3.64-3.85,1.89-7.63C128.79,325.52,124.27,329.65,119.35,334.13z M261.48,321c-1.08,3.63-1.02,6.32,1.97,7.8
				c2.54,1.26,3.12,2.85,2.29,5.46c-0.64,2.01-0.04,3.67,2.2,4.59c2.19,0.9,4.06,1.35,5.5-1.15c0.8-1.39,1.8-2.68,2.42-3.59
				C270.96,329.63,266.43,325.51,261.48,321z M141.24,331.73c-0.97,2.28-1.9,4.28-2.67,6.34c-0.81,2.17-1.47,4.4-2.32,6.96
				c2.86,5.32,3.36,5.51,8.26,2.37c-2.77-3.13-5.23-6.44-0.85-10.26c1.27,0.65,2.48,1.26,4.21,2.14c0-2.65,0-4.78,0-6.92
				C145.61,332.14,143.61,331.95,141.24,331.73z M251.53,337.11c4.67,4.11,1.49,7.4-0.85,10.59c5.53,2.49,5.53,2.49,8.4-2.84
				c-1.7-4.53-3.32-8.85-4.94-13.16c-2.6,0.27-4.69,0.49-7.22,0.75c0.15,2.31,0.28,4.41,0.44,6.97
				C249.24,338.38,250.36,337.76,251.53,337.11z M94.06,319.13c-3.54,0.08-5.85,0.98-5.49,3.76c0.19,1.47,2.14,2.72,3.3,4.07
				c1.37-1.56,3.09-2.96,3.94-4.76C96.14,321.49,94.52,319.87,94.06,319.13z M302.55,317.56c-1.63,2.19-3.4,3.71-3.12,4.37
				c0.77,1.85,2.39,3.34,3.67,4.98c1.25-1.36,3.46-2.71,3.47-4.09C306.59,321.39,304.49,319.93,302.55,317.56z M134.89,308.75
				c-0.78-3.4-1.48-6.47-2.26-9.89C128.9,306.18,129.31,307.95,134.89,308.75z M260.32,308.7c5.47-0.64,6.18-4.07,2.24-9.43
				C261.84,302.33,261.11,305.37,260.32,308.7z"/>
			<path class="st0" d="M258.26,114.76c1.44-1.18,2.81-2.46,4.33-3.52c7.48-5.26,10.86-15.49,7.59-24.12
				c-0.56,2.78-1.04,5.16-1.51,7.54c-1.23,6.21-5.83,9.73-10.72,12.79c-1.03,0.64-3.68,0.05-4.66-0.92
				c-1.67-1.64-3.19-3.63-2.09-6.65c1.2-3.27,1.87-6.79,2.29-10.27c0.34-2.83-1.23-4.78-4.21-5.27c-2.62-0.42-6.59,1.72-7.46,3.89
				c-3.27,8.12-12.96,14.03-21.16,13.76c-10-0.33-17.71-5.46-20.71-14.24c-0.57-1.66-1.22-3.29-2.22-5.96
				c-1.01,2.37-1.77,3.77-2.22,5.27c-4.87,16.34-26.47,19.73-37.53,7.79c-1.94-2.1-2.77-5.32-4.88-7.15c-1.97-1.7-4.91-2.95-7.5-3.1
				c-2.98-0.17-4.22,2.62-3.88,5.36c0.39,3.25,0.89,6.61,2.14,9.59c1.4,3.32-0.34,5.29-2.12,7.28c-1.92,2.15-3.89,1.16-6.01-0.24
				c-6.48-4.27-9.96-10.11-10.18-17.89c-0.01-0.4-0.28-0.79-0.74-2c-3.47,13.22,2.66,21.55,12.25,28.52
				c-7.19,0.22-10.59,4.31-13.39,9.82c4.7,0.69,9.08,2.47,12.88-1.67c0.7-0.77,2.21-0.79,3.34-1.16c0.17,0.34,0.34,0.67,0.51,1.01
				c-1.74,1.24-4.07,2.14-5.05,3.82c-0.91,1.56-0.37,3.97-0.47,6.18c2.21-0.76,3.94-1.35,5.66-1.94c0.34,0.3,0.69,0.6,1.03,0.9
				c-4.41,2.29-4.93,5.83-4.02,9.78c2.67,0.44,5.35,0.89,8.04,1.34c-0.06,0.46-0.12,0.92-0.18,1.38c-1.25-0.16-2.5-0.29-3.75-0.47
				c-4.09-0.57-7.53,1.45-8.1,4.64c-0.4,2.22,0.11,3.78,2.51,4.26c1.63,0.33,3.31,0.47,4.91,0.9c1.01,0.27,1.92,0.91,2.87,1.38
				c-1.04,0.47-2.14,1.43-3.12,1.32c-2.58-0.29-5.13-0.95-7.63-1.65c-1.59-0.45-3.08-1.25-4.61-1.89
				c-1.97,3.99-0.36,10.09,3.05,13.41c1.08,1.05,2.08,2.97,1.9,4.33c-0.17,1.31-1.82,3.3-2.98,3.41c-1.92,0.18-4.31,1.06-5.93-1.68
				c-5.35-9.03-8.19-19.01-11.4-28.84c-1.33-4.07-2.43-8.28-2.99-12.52c-0.68-5.17-1.59-10.59-0.71-15.61
				c0.81-4.65,4.6-8.21,9.21-10.26c0.45-0.2,1.56-0.04,1.59,0.11c0.17,0.85,0.32,1.8,0.08,2.6c-1.43,4.78-1.14,9.33,1.17,13.62
				c3.09-2.87,6.01-5.59,9.12-8.49c-8.2-7.81-12.27-17.51-6.8-28.76c6.14-12.62,16.38-17.45,30.28-12.65
				c0.92-3.39,1.77-7.02,5.4-6.57c2.36,0.29,4.45,2.74,6.89,4.39c2.24-0.55,5.37-1.11,8.34-2.13c1.53-0.53,3.06-1.66,4.09-2.92
				c2.13-2.63,2.86-2.74,4.68,0.06c0.26,0.4,0.48,0.82,0.73,1.23c2.22,3.68,3.25,3.9,6.05,0.71c2.37-2.7,5.27-4.02,8.59-3.2
				c2.26,0.56,4.47,2.01,6.29,3.55c2.85,2.42,3.76,2.47,5.71-0.75c0.37-0.61,0.74-1.23,1.1-1.85c1.4-2.4,3-2.37,4.2,0
				c1.26,2.49,3.25,3.09,5.76,3.49c2.63,0.42,5.18,1.43,6.83,1.91c2.57-1.73,4.66-4.19,7.02-4.48c3.62-0.45,4.5,3.16,5.39,6.57
				c14.72-5.07,25.12,0.64,30.89,13.93c4.61,10.61,0.67,20.02-7.48,27.43c3.04,2.81,6.04,5.59,9.19,8.5
				c2.3-3.98,2.5-8.33,1.42-12.89c-0.25-1.06-0.16-2.2-0.23-3.3c1.19,0.29,2.53,0.33,3.55,0.92c7.71,4.46,8.81,11.82,7.55,19.54
				c-1.85,11.31-4.56,22.45-9.21,33.01c-2.01,4.56-4.16,9.05-6.15,13.61c-1.29,2.95-3.96,1.9-5.88,1.72
				c-1.16-0.11-2.81-2.1-2.99-3.41c-0.18-1.36,0.81-3.27,1.89-4.33c3.22-3.16,4.87-8.77,3.28-13.48c-1.94,0.8-3.82,1.78-5.82,2.33
				c-2.39,0.65-4.87,1.06-7.34,1.28c-0.76,0.07-1.61-0.85-2.42-1.32c0.83-0.47,1.61-1.15,2.5-1.37c1.61-0.41,3.38-0.29,4.89-0.88
				c1.15-0.44,2.81-1.63,2.82-2.5c0.01-1.58-0.6-3.89-1.74-4.59c-1.87-1.15-4.36-1.38-6.63-1.72c-1.04-0.16-2.17,0.34-3.26,0.55
				c-0.1-0.51-0.21-1.02-0.31-1.53c2.68-0.48,5.35-0.95,8.03-1.43c0.29-5.3,0.29-5.3-3.05-10.54c1.67,0.52,3.33,1.03,5.43,1.68
				c0-1.97,0.67-4.4-0.19-6.02c-0.87-1.64-3.25-2.48-4.96-3.66c0.12-0.35,0.23-0.7,0.35-1.06c1.16,0.33,2.73,0.28,3.42,1.04
				c3.8,4.16,8.19,2.34,12.9,1.69C268.77,119.54,265.37,115.44,258.26,114.76z M194.35,79.43c-2.63,0.93-6.08,1.08-7.16,2.76
				c-2.02,3.15-4.48,4.23-7.4,3.08c-1.62-0.64-2.51-3.15-4.25-5.53c-6.28,2.32-13.86,4.27-18.09,11.71
				c6.69,8.22,16.6,10.46,26.22,6.73C189.04,96.11,195.55,85.7,194.35,79.43z M200.89,79.89c-1.43,5.4,5.24,16.31,10.9,18.41
				c9.74,3.61,20.32,1.05,25.91-6.98c-4.24-7.52-11.92-9.2-18.21-11.56c-1.49,2.38-2.24,5.03-3.57,5.36
				c-1.99,0.5-5.65,0.08-6.37-1.2C207.47,80.18,204.2,80.6,200.89,79.89z M187.98,77.58c3.07-0.83,6.35-2.43,9.63-2.41
				c3.38,0.02,6.76,1.61,9.64,2.39c2.09-1.81,4.07-3.52,6.24-5.4c-4.67-1.07-9.25-2.07-12.88-5.84c-1.83-1.9-5.32-1.46-7.17,0.73
				c-2.46,2.9-5.49,3.92-8.97,4.43c-0.94,0.14-1.82,0.63-2.45,0.86C184.06,74.13,185.95,75.8,187.98,77.58z M181.13,78.51
				c-1.18,1.49-2.2,2.55-2.85,3.81c-0.11,0.22,1.46,1.89,2.07,1.8c1.72-0.27,4.07-0.64,4.87-1.84c2.11-3.16,0.08-6.82-3.75-7.38
				c-4.96-0.73-9.42,0.58-13.56,3.39c-1.18,0.8-2.67,1.34-4.08,1.53c-4.57,0.63-8.97,5.76-7.87,11.17c2.48-5.61,7.04-6.98,11.1-9.37
				C171.76,78.86,176.26,78.42,181.13,78.51z M213.96,78.46c10.46-0.58,18.64,3.94,25.77,11.59c0.31-4.83-3.91-9.57-8.22-10.24
				c-1.52-0.23-3.11-0.84-4.4-1.69c-4.06-2.67-8.42-3.93-13.25-3.25c-3.85,0.54-5.91,4.06-3.87,7.31c0.76,1.21,3.11,1.67,4.81,1.91
				c0.65,0.09,2.31-1.74,2.16-2.05C216.38,80.87,215.27,79.94,213.96,78.46z M273.75,130.19c0.17-1.49-0.25-3.25-3.43-2.76
				c-1.3,0.2-2.6,0.33-3.91,0.48c-2.67,0.3-3.96,1.59-3.86,4.48c0.05,1.55-0.85,3.1-1.11,4.69c-0.28,1.72-0.88,3.69-0.34,5.19
				c0.99,2.79,2.71,5.32,4.31,8.3c1.46-1.18,3.03-2.45,5.34-4.32c-7.69-2.2-6.13-7.53-4.67-11.73
				C266.74,132.59,270.67,131.82,273.75,130.19z M121.64,131.74c6.36-1.37,7.88,2.37,8.78,7.29c0.79,4.27-3,5.16-5.22,7.88
				c1.72,1.32,3.32,2.56,4.7,3.62c1.53-2.89,3.04-5.27,4.04-7.84c0.58-1.51,0.62-3.37,0.39-5c-0.28-1.89-1.58-3.69-1.62-5.55
				c-0.06-2.76-1.3-3.89-3.76-4.21c-1.3-0.17-2.61-0.27-3.9-0.49C121.98,126.92,121.28,128.51,121.64,131.74z"/>
			<path class="st0" d="M148.96,211.52c-2.72,1.33-5.45,2.51-8.02,3.96c-2.64,1.49-4.45,1.26-6.35-1.36
				c-4.24-5.85-4.37-5.76,1.92-9.68c1.62-1.01,3.21-2.07,4.86-3.05c1.63-0.97,3.31-1.86,5.25-2.95c-2.43-4.15-3.25-8.31-0.63-12.28
				c-2.63-2.51-5.37-4.66-7.54-7.29c-3.63-4.39-2.28-9.58,3.11-11.58c2.37-0.88,3.68-2.13,4.77-4.28c1.33-2.62,4.17-3.98,7.44-3.89
				c-2.43,2.25-4.62,4.29-7.19,6.66c2.16,1.22,3.56,2.01,5.42,3.05c2.89-3.52,5.73-6.98,8.86-10.78c0.07,1.21,0.24,2.19,0.16,3.16
				c-0.2,2.52,0.64,4.16,3.01,5.5c1.39,0.79,2.04,2.88,3.05,4.38c0.8,1.2,1.37,2.82,2.49,3.5c3.97,2.42,4.05,2.3,4.85,7.08
				c0.92,0.11,2,0.07,2.95,0.4c0.86,0.3,1.59,0.99,2.38,1.51c-0.85,0.49-1.75,1.45-2.55,1.37c-2.23-0.22-4.41-0.87-7.15-1.46
				c-2.41,1.29-5.68,2.97-8.87,4.81c-0.69,0.4-1.46,1.29-1.53,2.02c-0.3,3.05-0.34,6.12-0.48,9.13c4.86,0.69,7.55-0.93,9.29-4.9
				c1.43-3.27,3.82-5.53,7.62-5.58c0.72-0.01,1.46,0.75,2.19,1.15c-0.59,0.47-1.15,1.27-1.79,1.34c-2.95,0.35-4.76,1.85-5.79,5.43
				c7-1.3,7.78,5.58,12.45,8.06c-2.72,2.03-4,0.29-5.16-1.01c-5.14-5.78-5.41-5.86-12.29-2.77c-1.51,0.68-3.12,1.11-5.17,1.83
				c0.96,1.67,1.9,3.29,2.77,4.8c0.81-0.25,1.08-0.26,1.24-0.39c1.42-1.15,2.82-2.33,4.22-3.49c0.85,1.58,1.67,3.18,2.57,4.73
				c0.2,0.35,0.64,0.7,1.02,0.79c3.07,0.74,1.58,2.53,1,4.13c-0.7,1.92-1.43,3.82-2.07,5.76c-0.91,2.79-2.27,5.57-2.46,8.42
				c-0.24,3.64,0.62,7.35,0.73,11.04c0.04,1.34-0.72,2.71-1.12,4.07c-1.52-0.59-3.57-0.77-4.46-1.87c-1.77-2.2-2.99-4.86-4.28-7.41
				c-2.69-5.31-5.3-10.66-7.92-16.01C150.88,215.77,150.08,213.94,148.96,211.52z M157.17,176.16c-0.4,1.66-0.91,3.13-1.09,4.64
				c-0.16,1.44-0.42,3.95,0.15,4.2c1.46,0.64,3.61,0.85,5.02,0.21c3.38-1.56,6.5-3.7,9.99-5.77c-2.84-1.95-5.24-3.59-7.63-5.22
				C161.59,174.82,159.45,175.47,157.17,176.16z M156.98,189.17c-2.51-0.64-4.64-1.14-6.76-1.72c-2.05-0.56-2.77,0.47-3.11,2.29
				c-0.96,5.21,2.06,8.17,8.73,8.43C156.24,195.04,156.64,191.91,156.98,189.17z M140.27,178.28c3.12,2.17,5.91,4.11,8.69,6.05
				c3.14-4.4,3.12-5.84,0.09-8.47C146.81,173.91,144.38,174.48,140.27,178.28z M158.48,165.92c-1.93,1.85-5.48,2.6-4.09,5.93
				c1.08,2.59,4.83,2.13,10.02-1.03C162.44,169.19,160.61,167.68,158.48,165.92z"/>
			<path class="st0" d="M241.07,158.74c4.36,0.26,6.46,2.25,8.36,4.93c0.93,1.32,2.31,2.61,3.78,3.22
				c5.66,2.36,7.36,7.42,3.53,12.07c-2.09,2.54-4.76,4.6-7.4,7.1c2.04,3.78,2.27,7.85-0.85,12.1c2.62,1.58,5.14,3.07,7.62,4.61
				c2.03,1.26,4.02,2.58,6.03,3.87c1.83,1.18,2.41,2.58,0.81,4.4c-0.63,0.72-1.16,1.51-1.75,2.27c-3.1,3.96-3.46,3.97-7.91,1.56
				c-2.28-1.24-4.7-2.21-7.14-3.34c-4.45,9.19-8.65,18.11-13.09,26.9c-1.16,2.29-2.4,5.72-5.94,4.39c-3.38-1.27-1.28-4.42-1.06-6.64
				c0.5-5.01,1.13-9.74-1.54-14.6c-1.47-2.68-0.59-6.49-3.08-9.12c-0.37-0.39-0.27-1.94-0.12-1.98c2.96-0.8,2.56-3.83,3.96-5.58
				c0.43-0.54,2.31-0.47,3.13,0c1.05,0.6,1.71,1.88,3.08,3.51c1.26-2.03,2.26-3.63,3.24-5.22c-2.73-1.16-5.11-2.18-7.49-3.19
				c-3.94-1.66-6.3-0.94-8.94,2.59c-1.34,1.79-2.53,4.05-6.46,2.7c4.83-2.82,5.67-9.51,12.58-8.41c-0.67-3.43-2.46-4.92-5.38-5.4
				c-0.74-0.12-1.37-0.97-2.04-1.48c0.77-0.36,1.55-1.06,2.31-1.04c3.8,0.1,6.15,2.4,7.55,5.68c1.58,3.7,4.1,5.28,9.23,4.95
				c-0.14-3.23-0.21-6.5-0.5-9.75c-0.05-0.59-0.93-1.25-1.58-1.61c-3.1-1.75-6.25-3.4-8.67-4.7c-3,0.54-5.53,1.09-8.08,1.36
				c-0.52,0.06-1.16-0.93-1.74-1.43c0.59-0.47,1.22-1.39,1.77-1.35c2.8,0.23,4.15-0.66,4.24-3.7c0.03-0.99,1.54-1.94,2.39-2.88
				c0.15-0.16,0.41-0.28,0.64-0.31c4.57-0.7,2.55-6.09,5.26-7.64c3.32-1.9,5.19-4,4.35-7.92c-0.08-0.4,0.18-0.87,1.17-1.65
				c0.89,1.91,1.44,4.1,2.74,5.66c1.49,1.77,3.65,2.97,5.85,4.68c1.01-0.52,2.45-1.25,4.78-2.45
				C246.15,163.52,243.95,161.45,241.07,158.74z M223.92,179.52c3.87,2.18,7.21,4.5,10.88,6.01c3.73,1.53,5.49-0.33,4.54-4.2
				c-0.42-1.72-0.86-3.43-1.3-5.17c-2.18-0.66-4.43-1.34-6.39-1.94C229.15,175.94,226.77,177.57,223.92,179.52z M239.41,198.27
				c0.76-0.05,1.55-0.08,2.33-0.14c4.72-0.34,7.77-4.66,6.17-9.02c-0.28-0.78-1.69-1.71-2.48-1.63c-2.39,0.26-4.74,0.98-7.19,1.54
				C238.6,191.88,239,195,239.41,198.27z M254.97,178.22c-4.2-3.78-6.67-4.29-8.89-2.25c-3.04,2.79-3.01,4.19,0.34,8.31
				C249.17,182.33,251.94,180.37,254.97,178.22z M230.21,171.27c2.99,0.98,4.87,2.02,6.77,2.07c1.42,0.04,2.86-1.22,4.3-1.9
				c-0.64-1.2-1.13-2.51-1.96-3.55c-0.63-0.79-1.69-1.25-2.59-1.87C234.74,167.61,232.89,169.11,230.21,171.27z"/>
			<path class="st0" d="M168.37,155.26c5.41,4.61,10.55,8.99,15.67,13.39c0.35,0.3,0.61,0.75,0.79,1.19c0.81,2,2.83,4.17,0.24,6.07
				c-2.41,1.77-4.11-0.07-5.82-1.74c-1.15-1.12-2.61-1.96-4.01-2.79c-2.17-1.27-4.54-2.21-4.44-5.43c0.02-0.7-0.91-1.53-1.56-2.13
				C166.52,161.28,166.21,159.5,168.37,155.26z"/>
			<path class="st0" d="M227.42,154.9c0.41,2.29,1.4,4.36,0.8,5.05c-3.24,3.72-3.14,9.94-8.99,11.76c-1.55,0.48-2.82,2.07-4.07,3.31
				c-1.55,1.55-3.46,2.37-4.99,0.76c-0.81-0.85-0.99-3.32-0.34-4.34c1.56-2.44,3.63-4.64,5.79-6.61
				C219.13,161.62,222.88,158.69,227.42,154.9z"/>
			<path class="st0" d="M201.02,239.43c1.56,1.64,3.23,3.2,4.61,4.99c0.29,0.38-0.24,1.89-0.81,2.34c-1.17,0.92-2.6,1.58-4.01,2.06
				c-0.18,0.06-1.32-1.57-1.36-2.46c-0.1-2.1,0.18-4.21,0.31-6.32C200.17,239.84,200.59,239.64,201.02,239.43z"/>
			<path class="st0" d="M195.34,239.94c0.19,1.72,0.61,3.45,0.51,5.15c-0.08,1.28-0.82,2.53-1.26,3.79c-1.6-0.9-3.34-1.64-4.69-2.83
				c-0.34-0.3,0.38-2.21,1.02-3.08c0.96-1.32,2.27-2.38,3.43-3.55C194.68,239.6,195.01,239.77,195.34,239.94z"/>
			<path class="st0" d="M318.43,285.18c0.14,1.7,0.27,2.34,0.23,2.98c-0.22,3.51-0.41,7.02-0.8,10.5c-0.1,0.86-0.9,1.64-1.38,2.46
				c-0.56-0.67-1.47-1.28-1.62-2.03C313.91,294.34,314.91,289.99,318.43,285.18z"/>
			<path class="st0" d="M77.04,285.45c3.28,4.56,4.31,8.92,3.33,13.67c-0.15,0.75-1.08,1.33-1.65,1.99
				c-0.47-0.71-1.28-1.38-1.36-2.13c-0.4-3.84-0.64-7.7-0.89-11.56C76.45,287.02,76.7,286.6,77.04,285.45z"/>
		</g>
	</g>
	<g>
		<g>
			<path class="st1" d="M79.51,144.59c-1.12-2.17-1.86-3.61-2.47-4.79c0.28-1.69,0.41-3.32,0.86-4.86c0.2-0.69,0.95-1.37,1.63-1.74
				c5.64-3.12,11.32-6.17,16.4-8.93c-0.11-1.37-0.61-2.76-0.24-3.85c2.27-6.74,7.38-11.35,12.55-15.83
				c2.89-2.51,5.91-4.89,9.01-7.14c3.27-2.37,4.72-5.25,4.44-9.42c-0.48-6.96,1.3-13.38,6.77-18.15c1.21-1.05,3.43-1.72,4.98-1.44
				c3.97,0.72,8.26,1.47,9.85,6.05c0.36,1.04,0.38,2.94-0.26,3.48c-2.87,2.43-1.97,5.02-1.02,7.84c4.79-0.5,4.81-7.67,10.33-7.1
				c-2.61,3.17-5.08,6.25-7.63,9.27c-2.23,2.65-3.04,5.59-2.13,9.53c0.75-1.03,1.16-1.8,1.76-2.39c2.78-2.73,5.46-5.6,8.48-8.04
				c1.98-1.59,4.04-2.21,6.18,0.78c1.17,1.64,4.04,2.37,6.29,2.88c4.91,1.11,5.62,1.72,5.78,6.87c0.22,6.84,6.53,13.39,13.21,13.71
				c5.29,0.25,8.54-1.91,10.41-6.84c0.34-0.89,0.72-1.78,1.2-2.6c1.25-2.14,2.5-1.95,3.65,0.11c0.35,0.63,0.69,1.26,0.96,1.92
				c3.21,7.83,11.67,9.99,18.36,4.71c3.58-2.83,5.72-6.24,5.6-11.03c-0.1-4.29,1-5.28,5.36-6.03c3.1-0.53,6.04-1.21,7.81-4.32
				c0.3-0.53,2.38-0.76,3.01-0.29c3.4,2.53,6.65,5.26,9.84,8.05c0.84,0.74,1.27,1.95,1.96,3.07c1.54-4.03,0.57-7.23-2.62-10.3
				c-1.18-1.14-1.83-2.82-2.88-4.12c-1.15-1.42-2.5-2.68-3.93-4.19c5.52-0.54,5.6,6.48,10.31,7.15c0.89-2.76,1.88-5.32-0.92-7.79
				c-1.69-1.48-0.81-5.26,2.05-6.85c2.86-1.58,6.2-2.4,9.42-3.18c0.82-0.2,2.11,0.88,2.96,1.62c5.35,4.73,7.33,11.02,6.86,17.79
				c-0.36,5.19,2.11,8.06,5.69,11.02c4.85,4.02,9.57,8.24,13.89,12.81c2.4,2.54,4,5.9,5.67,9.04c0.51,0.96,0.08,2.43,0.08,4.05
				c4.7,2.55,10.3,5.51,15.79,8.66c0.82,0.47,1.17,1.83,1.64,2.82c0.53,1.13,0.94,2.31,1.41,3.5c-0.75,1.39-1.55,2.87-2.74,5.08
				c0.36-0.12-0.2,0.22-0.74,0.22c-5.22-0.07-6.76,3.35-7.73,7.64c-0.24,1.08-1.6,2.47-2.67,2.72c-10.71,2.44-11.4,6.76-11.12,14.12
				c0.08,1.92,1.47,3.9,2.59,5.64c1.02,1.59,1.19,2.67-0.38,3.98c-7.41,6.19-7.5,12.37-0.36,18.83c0.41,0.37,0.71,0.86,1.31,1.61
				c-1.12,0.47-1.92,0.86-2.77,1.14c-5.22,1.74-8.97,5.02-10.5,10.39c-0.8,2.82-1.85,5.17-4.44,7.01c-3.18,2.26-4.51,5.83-4.51,9.75
				c0,3.47-0.99,5.53-5.12,5.6c-4.33,0.08-8.67,3.91-8.79,8.58c-0.12,4.55-2.28,7.06-5.64,8.93c-4.38,2.43-5.51,6.19-4.75,10.6
				c0.75,4.38-0.28,7.43-3.71,10.63c-7.26,6.75-8.24,15.7-3.92,24.89c0.5,1.07,0.31,2.81-0.19,3.96
				c-2.48,5.68-1.64,10.83,1.75,15.87c0.67,0.99,0.8,2.65,0.56,3.89c-1.79,9.36,0.83,17.39,7.01,24.82c3.65-3.1,7.04-6.07,10.54-8.9
				c1.18-0.95,2.69-2.25,3.97-2.16c3.58,0.24,5.07-1.77,7.02-4.29c3.81-4.94,7.3-10.55,14.41-11.67c0.66-0.1,1.29-1.9,1.52-3
				c0.73-3.47,0.77-7.16,1.99-10.43c1.29-3.46,3.9-6,8.31-5.47c0.8,0.1,1.85-0.67,2.58-1.28c2.08-1.74,3.87-3.9,6.13-5.36
				c3.9-2.51,7.5-1.42,9.77,2.28c-1.98,5.36-2.83,10.55-1.35,15.97c0.22,0.79,0.49,1.62,0.47,2.43c-0.23,10.41-0.5,20.81-0.79,31.21
				c-0.02,0.69-0.3,1.37-0.5,2.24c-13.61,0-27.15,0-40.68,0c-7.43,0-14.91-0.5-22.29,0.12c-10.54,0.89-19.72-2.66-28.86-7.04
				c-10.9-5.22-19.57-12.81-25.54-23.36c-0.16-0.28-0.51-0.46-0.95-0.84c-4.54,7.99-10.26,14.88-18.07,19.66
				c-10.1,6.17-20.62,10.96-32.96,10.81c-21.21-0.26-42.43-0.07-63.65-0.07c-1.29,0-2.58,0-4.53,0c0-9.94-0.1-19.56,0.04-29.18
				c0.09-6.48,0.87-12.96,0.63-19.42c-0.09-2.32-1.31-4.49,1.36-5.85c2.73-1.39,5.54-1.31,8.15,0.54c0.68,0.48,1.51,0.8,2.1,1.38
				c2.7,2.64,5.06,5.11,9.4,5.9c3.59,0.65,5.2,5.03,5.8,8.83c0.46,2.92,0.53,5.91,0.78,9.03c8.47,1,12.28,7.68,16.87,13.45
				c0.75,0.95,1.91,2.39,2.76,2.31c3.98-0.35,6.5,1.99,9.14,4.26c2.7,2.33,5.4,4.68,8.29,7.18c6.12-7.03,8.75-14.89,7.2-23.95
				c-0.38-2.23-0.15-3.77,1.17-5.85c2.77-4.37,3.31-9.35,1.27-14.41c-0.52-1.29-0.99-3.11-0.47-4.22
				c4.42-9.46,3.24-18.63-4.28-25.45c-3.16-2.87-4.05-5.59-3.35-9.66c1.11-6.5-0.88-9.72-6.56-13.14c-1.2-0.72-2.31-2.43-2.52-3.82
				c-0.96-6.43-3.37-9.44-9.81-11.16c-3.03-0.81-4.71-2.24-4.67-5.69c0.05-4.32-2.08-7.69-5.47-10.42c-1.21-0.97-2.4-2.46-2.75-3.92
				c-1.66-6.83-5.69-11.15-12.52-12.87c-0.41-0.1-0.75-0.5-1.25-0.85c1.57-1.91,3.26-3.57,4.48-5.52c3.31-5.3,2.07-11.56-3.04-15.11
				c-2.32-1.61-2.15-2.92-0.62-4.96c5.71-7.57,1.26-17.71-8.22-19.17c-1.2-0.19-3.08-1.17-3.23-2.02
				C87.32,147.72,84.98,144.19,79.51,144.59z M155.64,245.63c2.21,5.22,4.46,9.98,6.25,14.9c2.73,7.52,5.18,15.14,7.65,22.75
				c0.55,1.7,1.33,2.25,3.14,1.88c4.88-1.01,9.78-1.97,14.71-2.67c1.84-0.26,3.8,0.23,5.26,0.35c-1.39,2.94-2.55,4.97-3.32,7.14
				c-0.99,2.8-1.31,5.87-2.54,8.55c-6.14,13.37-17.39,21.62-29.59,28.86c-0.9,0.53-2.23,0.99-2.52,1.78
				c-1.82,5.11-3.4,10.3-5.07,15.51c0.59,0,1.45,0.16,2.23-0.02c17.58-4.11,32.45-12.21,41.65-28.5c0.85-1.5,1.47-2.21,3.46-2.21
				c1.96,0.01,2.5,0.83,3.52,2.15c3.94,5.06,7.52,10.71,12.43,14.64c6.09,4.86,13.22,8.52,20.22,12.09
				c3.42,1.74,7.55,2.1,11.34,3.08c-1.8-5.63-3.29-10.5-4.96-15.31c-0.3-0.86-1.27-1.6-2.09-2.16c-4.92-3.39-10.08-6.46-14.78-10.12
				c-9.11-7.11-15.95-15.78-17.97-27.63c-0.43-2.54-2.03-4.89-3.36-7.94c1.48-0.09,3.43-0.59,5.23-0.26c4.71,0.87,9.39,1.96,14,3.23
				c2.47,0.68,3.34-0.18,4.1-2.41c4.26-12.61,8.67-25.18,13.03-37.77c-4.89-2.61-10.44-5.58-15.99-8.55
				c-0.95-0.28-2.25,0.34-3.62,0.75c-5.32,1.62-10.46,1.18-15.19-1.84c-3.73-2.39-4.62-8.42-1.89-10.82
				c3.68-3.23,7.2-6.63,10.73-10.02c0.71-0.68,1.17-1.62,1.24-1.72c-3.42-2.08-6.57-3.83-9.55-5.85c-1.95-1.32-2.99-7.76-1.77-9.77
				c0.29-0.48,0.78-0.92,1.28-1.16c5.28-2.5,8.29-6.91,10.22-12.16c0.49-1.33,0.37-2.88,0.51-4.2c-2.18,0.3-3.93,0.39-5.6,0.8
				c-1.45,0.35-3.13,0.71-4.17,1.66c-4.48,4.11-8.09,4.11-12.52-0.2c-0.76-0.74-1.83-1.42-2.84-1.58c-2.12-0.33-4.31-0.3-6.48-0.41
				c-0.63,5.94,4.4,14.17,9.85,15.98c0.54,0.18,1.16,0.46,1.47,0.89c0.84,1.17-0.31,8.86-1.57,9.7c-3.27,2.18-6.65,4.18-10.61,6.64
				c3.53,3.51,7.45,7.28,11.19,11.2c0.95,1,1.87,2.49,1.92,3.79c0.22,5.6-3.36,9.31-10.1,9.67c-4.17,0.22-8.41-0.84-12.51-1.31
				c-2.35,1.38-4.9,3-7.56,4.42C161.29,242.97,158.37,244.3,155.64,245.63z M169.96,235.54c-4.43-5.47-4.75-16.93,0.4-21.55
				c3.62-3.24,7.37-6.1,9.62-10.5c0.1-0.19,0.44-0.27,0.54-0.46c0.52-1.02,1.13-2.01,1.47-3.09c0.59-1.9,1.01-3.85,1.65-6.36
				c-0.82-1.59-2.14-3.87-3.19-6.27c-2.92-6.69-1.11-11.4,5.32-14.8c0.87-0.46,1.64-1.78,1.79-2.79c0.52-3.6-0.18-6.88-3.31-9.29
				c-2.84-2.2-5.94-4.2-8.3-6.84c-4.66-5.21-10.48-3.92-15.82-2.81c-6.85,1.42-8.45,0.77-8.82-6.09c-0.01-0.17-0.3-0.33-0.85-0.9
				c-0.94,1.23-1.81,2.4-2.72,3.53c-0.57,0.71-1.12,1.8-1.85,1.98c-7.44,1.81-9.17,7.2-9.14,13.89c0,0.99-0.63,2.41-1.42,2.89
				c-4.99,3-10.12,5.78-15.18,8.67c-0.87,0.5-1.61,1.21-2.38,1.8c2.61,4.63,4.79,9.04,7.47,13.12c3.28,4.98,6.92,9.73,10.55,14.47
				c0.6,0.78,2.27,1.68,2.89,1.38c4.61-2.21,9.09-4.68,13.58-7.14c1.71-0.94,3.34-2.04,5-3.06c0.34,0.56,0.68,1.11,1.02,1.67
				c-5.37,3.39-10.73,6.79-15.93,10.07c6.31,10.84,12.69,21.8,19.08,32.77C164.43,238.32,167.18,236.94,169.96,235.54z
				 M244.17,144.36c-0.07,0.66-0.2,1.43-0.24,2.21c-0.18,4.02-2.88,5.76-6.78,4.88c-3.8-0.86-7.71-1.26-11.6-1.72
				c-0.69-0.08-1.59,0.43-2.2,0.91c-4.05,3.18-7.97,6.51-12.07,9.62c-3.31,2.51-3.97,5.88-3.39,9.59c0.16,1.04,1.21,2.37,2.18,2.79
				c6.28,2.7,6.94,7.45,4.93,12.61c-1.25,3.2-2.93,6.22-4.04,8.53c0.71,2.45,0.99,4.38,1.82,6.03c1.8,3.6,3.86,7.07,5.89,10.55
				c0.18,0.3,0.88,0.3,1.34,0.44c3.35,1.08,5.53,3.46,6.52,6.68c1.93,6.3,3.1,12.61-2.66,17.98c3.03,1.53,5.77,2.9,9.07,4.57
				c6.56-11.14,13.06-22.19,19.78-33.6c-6.16-2.01-11.37-5.6-16.23-10.17c0.71-0.4,0.95-0.65,1.11-0.61
				c0.56,0.14,1.13,0.32,1.64,0.6c4.91,2.68,9.97,5.12,14.63,8.18c2.59,1.7,4.22,1.18,5.64-0.89c6.05-8.82,11.98-17.73,17.97-26.63
				c-1.34-1.07-1.84-1.6-2.45-1.94c-4.87-2.75-9.7-5.58-14.67-8.13c-2.18-1.12-2.43-2.69-2.73-4.85c-0.43-3.1-0.78-6.84-2.66-8.98
				c-2.92-3.31-7.48-5.05-10.19-8.84C244.75,144.17,244.56,144.26,244.17,144.36z M148.17,143.31c-0.42-0.34-0.85-0.67-1.27-1.01
				c-0.48-2.23-0.88-4.48-1.46-6.67c-0.27-1-0.73-2.59-1.39-2.75c-3.65-0.89-5.01-2.8-3.85-6.48c0.23-0.71-0.14-1.62-0.24-2.43
				c-0.31-2.56-0.65-5.11-0.93-7.67c-0.09-0.8,0.33-1.92-0.08-2.39c-3.27-3.76-0.39-7.05,0.33-10.68c0.72-3.67,0.14-7.61-0.04-11.43
				c-0.02-0.46-0.96-1.04-1.59-1.27c-3.52-1.28-9.55,0.84-11.65,3.83c-1.14,1.62-2.44,3.18-3.92,4.48
				c-3.14,2.76-6.65,5.14-9.64,8.05c-3.32,3.23-6.35,6.77-9.23,10.39c-0.7,0.89-0.79,2.77-0.4,3.93c2.69,7.88,5.65,15.67,8.4,23.54
				c3.14,8.99,6.13,18.03,9.44,27.77c3.8-2.43,7.23-4.75,10.78-6.86c2.2-1.3,3.03-2.94,2.98-5.53c-0.1-5.25,1.82-9.48,6.8-12.09
				C143.7,146.76,145.87,144.91,148.17,143.31z M247.71,143.16c1.24,1.27,2.4,3.02,4.02,4c5.11,3.12,8.7,7.02,8.65,13.41
				c-0.01,1.14-0.02,2.82,0.66,3.32c4.08,2.99,8.37,5.71,12.96,8.76c2.71-7.62,5.12-14.33,7.48-21.06
				c3.44-9.78,6.92-19.55,10.19-29.4c0.45-1.37,0.33-3.52-0.48-4.6c-2.83-3.77-5.86-7.46-9.24-10.75
				c-3.76-3.66-8.73-6.29-11.79-10.4c-3.1-4.16-6.51-5.66-11.22-5.31c-0.95,0.07-2.61,0.75-2.66,1.26
				c-0.33,3.79-0.95,7.73-0.26,11.4c0.7,3.72,3.83,7.13,0.3,10.96c-0.31,0.33-0.1,1.14-0.13,1.72c-0.24,4.68-0.44,9.37-0.75,14.05
				c-0.04,0.6-0.61,1.61-1.04,1.68c-4.59,0.68-4.93,3.85-4.87,7.54C249.55,140.75,248.49,141.77,247.71,143.16z M182.99,115.53
				c-3.29,14.93-0.65,26.75,12.86,35.81c0.87,0.59,2.84,0.53,3.75-0.07c6.45-4.26,11.28-9.83,13.19-17.55
				c1.53-6.21,0.94-12.28-0.38-18.32c-4.22,2.63-8.05,5.01-11.56,7.2c-0.84,3.61-1.66,7.15-2.48,10.69
				c-0.5-0.03-1.01-0.06-1.51-0.09c-0.59-2.87-1.12-5.75-1.82-8.6c-0.24-0.99-0.69-2.23-1.46-2.73
				C190.2,119.67,186.68,117.71,182.99,115.53z M236.05,314.19c0.84-5.29,1.6-9.99,2.29-14.7c0.08-0.53-0.22-1.14-0.44-1.68
				c-4.65-11.5-0.89-22.39,6.64-28.65c0.84-0.7,1.61-2.22,1.48-3.23c-0.74-5.67-1.15-11.2,3.6-16.1c-2.94-1.07-5.23-1.91-7.65-2.79
				c-3.29,8.44-6.74,16.45-9.53,24.69c-2.95,8.7-5.33,17.59-7.79,26.45c-0.38,1.39-0.44,3.54,0.37,4.46
				C228.56,306.73,232.47,310.5,236.05,314.19z M157.23,313.93c3.6-3.53,6.72-6.74,10.01-9.76c2.25-2.06,2.48-4.46,1.95-7.18
				c-3.37-17.22-11.11-32.95-16.94-49.32c-0.06-0.17-0.38-0.25-0.75-0.48c-1.93,0.85-3.94,1.73-5.96,2.62
				c0.38,0.09,0.76,0.17,1.14,0.26c0.44,4.61,1.14,9.22,1.21,13.84c0.03,2.19,0.2,3.64,2.02,5.18c7.37,6.26,9.44,14.67,7.58,23.67
				c-0.8,3.88-1.55,7.21-0.41,11.17C157.88,306.72,157.23,309.94,157.23,313.93z M178.55,125.94c-1.26,1-2.36,2.18-3.71,2.81
				c-0.71,0.33-2.5-0.02-2.73-0.54c-1.46-3.3,0.31-10.03,3.07-12.55c1.02-0.93,2.1-1.8,3.24-2.77c-2.42-2.02-4.6-3.84-6.74-5.62
				c-1.15,2.05-2.03,4.15-3.36,5.9c-6.85,9.05-8.34,19.54-8.57,30.43c-0.06,2.6,0.87,3.75,3.5,3.66c6.82-0.24,13.02-2.35,18.51-5.34
				C180.64,136.37,179.62,131.31,178.55,125.94z M216.73,125.85c-1.07,5.53-2.08,10.72-3.13,16.11c5.73,2.96,11.85,5.18,18.61,5.3
				c2.13,0.04,3.3-0.62,3.31-3.08c0.06-10.61-1.5-20.72-8-29.57c-1.49-2.03-2.53-4.4-3.77-6.6c-2.07,1.59-4.27,3.28-6.8,5.22
				c5.91,2.99,7.12,8.07,6.64,13.95c-0.19,2.3-1.25,2.77-3.04,1.65C219.16,127.97,217.95,126.82,216.73,125.85z M263.78,230.94
				c-5.05-2.46-9.52-4.72-14.08-6.77c-0.67-0.3-2.28,0.09-2.63,0.66c-3.43,5.65-6.68,11.41-10.24,17.59
				c4.83,2.01,8.78,4.18,13.01,5.15c1.64,0.38,5.39-1.69,5.62-3.06C256.39,238.98,259.05,234.8,263.78,230.94z M130.81,230.98
				c4.82,3.83,7.69,7.87,8.09,13.39c0.14,1.97,3.79,4.22,5.75,3.46c4.18-1.62,8.25-3.53,13.08-5.63c-3.6-6.2-6.75-11.77-10.08-17.23
				c-0.37-0.61-1.94-1.13-2.57-0.85C140.43,226.21,135.87,228.51,130.81,230.98z M157.2,115.25c-1.81-0.51-4.29-0.95-6.54-1.92
				c-1.96-0.85-3.11-0.29-4.3,1.16c-3.33,4.06-3.44,9.02-3.87,13.87c-0.04,0.5,0.6,1.41,1.1,1.57c3.73,1.2,7.48,2.34,11.28,3.28
				c0.76,0.19,2.4-0.43,2.57-0.99c1.03-3.48,1.76-7.04,2.53-10.3c-2.21-0.19-4.05-0.35-5.9-0.5
				C155.08,119.4,156.1,117.4,157.2,115.25z M235.37,122.73c0.65,2.67,1.42,5.54,2.04,8.44c0.46,2.16,1.79,3.23,3.83,2.71
				c3.57-0.9,7.07-2.06,10.56-3.24c0.5-0.17,1.18-1.13,1.08-1.56c-1.13-4.55-2.25-9.11-3.76-13.54c-0.31-0.9-2.33-1.92-3.36-1.73
				c-2.83,0.5-5.54,1.61-7.73,2.3c1.13,1.92,2.29,3.88,3.44,5.84C239.55,122.19,237.63,122.43,235.37,122.73z M87.29,143.13
				c2.24,5.13,3.52,9.85,9.44,10.67c2.54,0.35,10.24-1.23,11.66-3.27c0.24-0.35,0.43-0.92,0.32-1.29
				c-1.14-4.07-2.35-8.12-3.66-12.57C98.84,138.92,93.16,140.99,87.29,143.13z M285.77,150.68c3.28,2.65,8.83,4.5,11.22,4.13
				c5.96-0.92,8.5-5.04,10.12-11.06c-5.63-2.04-11.46-4.14-17.62-6.37C288.11,142.31,286.93,146.52,285.77,150.68z M125.42,214.92
				c-5.52-10.22-10.97-20.29-16.42-30.37c-0.35,0.1-0.7,0.2-1.05,0.29c1.82,5.34-0.49,9.77-3.27,14.18
				c5.83,3.1,9.31,7.42,11.05,13.44C117.05,217.06,121.24,218.09,125.42,214.92z M269.26,214.89c3.91,3.07,8.29,2.26,9.53-2.06
				c1.81-6.27,5.43-10.76,10.32-13.43c-1.31-4.92-2.5-9.37-3.79-14.25C280.03,194.94,274.69,204.83,269.26,214.89z M134.51,210.38
				c-10.02-9.14-12.89-22.22-20.43-32.69c-1.63,0.77-3.28,1.56-5,2.37c6.52,11.36,12.79,22.29,19.17,33.4
				C130.27,212.47,132.16,211.54,134.51,210.38z M266.38,213.49c6.42-11.19,12.62-22,18.95-33.03c-1.72-1.02-3.32-1.97-4.77-2.83
				c-7.49,10.69-10.52,23.62-20.33,32.74C262.4,211.48,264.28,212.43,266.38,213.49z M205.8,225.33c-3.74,1.86-4.82,4.37-2.6,6.85
				c2.83,3.16,6.85,3.95,10.89,3.28c4.12-0.68,8.29-1.68,10.45-5.96c0.1-0.21,0.18-0.46,0.17-0.69c-0.12-3.21,0.18-6.51-0.53-9.58
				c-0.47-2.01-2.12-4.02-3.77-5.4c-2.16-1.8-3-1.25-3.98,1.73c3.82,2.87,4.82,5.46,3.56,9.88c-0.76,2.65-2.2,4.82-5.25,5.21
				C210.62,231.18,208.04,229.67,205.8,225.33z M188.35,224.35c-1.59,5.2-4.85,6.95-8.83,6.15c-1.95-0.39-4.64-2.43-5.02-4.15
				c-0.93-4.18-0.95-8.7,3.96-10.83c-0.73-3.15-2.86-3.28-4.23-1.64c-1.89,2.26-3.37,5.05-4.29,7.85c-0.68,2.05-0.38,4.51-0.15,6.74
				c0.13,1.26,0.69,2.79,1.6,3.61c4.22,3.81,11.67,4.51,16.87,2.04c2.38-1.13,3.71-2.91,3.26-5.32
				C191.26,227.4,189.75,226.24,188.35,224.35z M103.64,177.33c0.28,0.08,1.64,0.96,2.64,0.66c2.83-0.86,5.55-2.13,8.23-3.41
				c0.56-0.27,1.23-1.34,1.11-1.88c-0.92-4.13-2.03-8.23-3.12-12.48c-1.23,0.25-2.25,0.5-3.29,0.67c-3.1,0.5-4.62,1.76-4.29,5.42
				C105.21,169.55,104.21,172.91,103.64,177.33z M291.15,178.24c-0.7-4.35-1.52-7.41-1.6-10.5c-0.13-5.09,0.07-5.1-5.08-6.33
				c-0.77-0.18-1.57-0.23-2.59-0.37c-0.49,2.53-0.83,4.87-1.39,7.16c-1.7,6.87-1.73,6.86,4.79,9.56c0.66,0.27,1.34,0.66,2.02,0.68
				C288.81,178.46,290.34,178.29,291.15,178.24z M186.54,114.1c7.32,7.29,15.36,7.27,22.11,0.06c-5.21-1.49-9.53-3.95-10.99-9.91
				C196.21,110.17,192.09,112.67,186.54,114.1z M138.36,75.47c-2.87-0.84-6.01-1.8-9.18-2.62c-0.32-0.08-0.97,0.62-1.27,1.09
				c-2.65,4.11-3.84,8.55-3.21,13.47c3.5-1.08,6.73-2.08,9.42-2.91C135.48,81.59,136.71,78.97,138.36,75.47z M270.57,88.1
				c0.53-4.68-0.2-8.93-2.71-12.77c-0.48-0.73-1.45-1.86-1.95-1.74c-3.1,0.73-6.13,1.75-8.97,2.62c1.67,3.46,2.97,6.15,4.34,8.99
				C263.98,86.04,267.11,87.02,270.57,88.1z M192.39,170.13c-0.44-0.23-0.89-0.45-1.33-0.68c-1.53,1.91-3.17,3.74-4.56,5.75
				c-1.19,1.72-0.61,2.74,1.52,3.26c1.72,0.42,3.43,1.19,4.91,2.17c2.4,1.58,7.16,1.56,9.54-0.02c1.47-0.98,3.21-1.68,4.92-2.15
				c1.79-0.49,2.72-1.35,1.63-2.98c-1.42-2.12-3.18-4.01-4.79-6c-0.39,0.18-0.78,0.37-1.17,0.55c0.61,1.7,1.22,3.4,1.69,4.72
				c-4.72,5.46-9.58,5.38-14.21,0.03C191.07,173.42,191.73,171.78,192.39,170.13z M159.26,100.45c0.12,0.62,0.23,1.24,0.35,1.86
				c3.11,0.51,6.23,1.02,9.5,1.56c-0.16-3.47-0.27-5.9-0.42-9.28C165.13,96.8,162.2,98.63,159.26,100.45z M226.29,104.81
				c3.41-0.69,6.51-1.32,9.62-1.95c0.09-0.54,0.18-1.08,0.28-1.62c-2.98-1.85-5.96-3.69-9.47-5.86
				C226.56,98.88,226.44,101.36,226.29,104.81z M179.68,147.91c-0.28,0.42-0.57,0.83-0.85,1.25c2.59,2.25,5.15,4.54,7.83,6.69
				c0.32,0.25,1.23-0.23,1.87-0.38c-0.17-0.63-0.13-1.46-0.53-1.86c-1.7-1.66-3.46-3.29-5.35-4.72
				C181.86,148.3,180.68,148.22,179.68,147.91z M217.1,148.58c-1.69-0.42-2.32-0.77-2.54-0.6c-2.61,2.02-5.19,4.09-7.71,6.22
				c-0.22,0.19-0.22,1.07,0,1.26c0.39,0.33,1.29,0.7,1.53,0.51C211.13,153.75,213.79,151.42,217.1,148.58z M255.94,108.61
				c-2.87,1.37-4.82,2.3-6.91,3.3c1.71,2.26,3.12,4.14,4.25,5.64C254.08,114.89,254.85,112.29,255.94,108.61z M139.68,108.11
				c0.88,3.55,1.59,6.44,2.26,9.12c1.19-1.68,2.67-3.76,4.37-6.15C144.13,110.1,142.17,109.22,139.68,108.11z"/>
			<path class="st1" d="M176.12,97.05c-0.76-3.06,2.38-2.96,4-3.64c1.25-0.53,3.26,0.06,4.66,0.71c1.34,0.62,2.68,1.78,3.39,3.05
				c0.96,1.73,2.32,4.25,1.69,5.59c-0.74,1.59-3.33,3.03-5.25,3.23C179.97,106.48,176.17,102.26,176.12,97.05z"/>
			<path class="st1" d="M211.79,106.37c-1.38-0.31-2.98-0.29-4.07-1.03c-1.14-0.77-2.1-2.16-2.57-3.48
				c-0.52-1.44,4.2-7.92,6.42-8.05c2.39-0.14,4.96,0.97,7.23,2.02c0.57,0.27,0.56,2.42,0.35,3.63
				C218.44,103.77,215.5,106.36,211.79,106.37z"/>
		</g>
	</g>
</g>
<g id="front">
	<g>
		<g>
			<path d="M299.02,390.58c-8.03-11.15-13.63-23.05-10.3-37.26c1.1-4.68,2.8-9.26,4.72-13.67c2.02-4.63,4.89-8.72,10.22-10.22
				c0.64-0.18,1.17-0.7,1.76-1.07c-0.51-0.48-1.01-0.96-1.52-1.43c-4.85-4.42-10.26-8.38-14.46-13.35
				c-9.44-11.18-9.39-24.22-4.16-36.91c5.32-12.92,16.3-19.06,29.94-20.63c1.01-0.12,2.01-0.25,3.01-0.38
				c-0.58-0.94-1.32-1.82-1.7-2.84c-1.83-4.86-4.78-9.69-5.08-14.66c-0.73-11.95,1.47-23.28,11.16-31.96
				c6.21-5.57,13.16-8.58,21.49-8.46c2.05,0.03,4.1-0.06,6.15-0.05c5.21,0.03,5.49-0.04,4.01-5.16
				c-4.68-16.17,2.58-29.2,14.87-38.13c0.86-0.63,1.39-2.58,1.14-3.71c-0.69-3.13-2.19-6.08-2.81-9.22
				c-3.02-15.29,7.4-27.9,23.12-28.18c0,3.81,0,7.63,0,11.44c-1.64,0.6-3.37,1.02-4.91,1.82c-5.81,3.01-8.44,9.61-5.68,15.17
				c0.82,1.66,3.02,3.28,4.81,3.58c1.08,0.18,2.81-2.06,3.81-3.51c0.49-0.71-0.04-2.11-0.11-3.2c-0.82,0.58-1.64,1.16-2.46,1.75
				c-0.64,0.46-1.28,0.93-1.92,1.4c-0.47-0.69-1.15-1.33-1.36-2.09c-1.36-4.94,1.65-8.94,7.83-10.51c0,19.07,0,38.15,0,57.22
				c-4.12-1.36-7.9-1.9-10.61,2.74c-0.83,1.41-2.46,2.58-3.99,3.31c-4.54,2.18-4.66,2.25-1.83,6.46c0.9,1.33,1.96,2.55,2.92,3.85
				c1.54,2.07,3.02,2.52,5.5,0.94c2.38-1.53,5.32-2.18,8.01-3.22c0,62.21-0.03,124.42,0.08,186.63c0.01,3.01-0.59,3.65-3.61,3.61
				c-16.14-0.19-32.28-0.09-48.42-0.09c0.4-1.23,0.81-2.46,1.2-3.69c0.29-0.91,0.54-1.83,0.81-2.74c-1.02,0.17-2.16,0.12-3.05,0.56
				c-7.05,3.51-14.48,4.72-22.12,3c-3.37-0.76-5.29,0.08-6.77,2.87C305.48,390.58,302.25,390.58,299.02,390.58z M336.89,219.85
				c-0.02,0.12-0.12,1.15-0.39,2.13c-1.99,7.32-6.24,8.54-11.58,3.18c-1.73-1.74-2.94-3.99-4.54-5.89
				c-0.41-0.48-1.35-0.51-2.05-0.75c-0.15,2.09-1.24,4.93-0.28,6.14c4.42,5.57,9.9,9.97,17.08,11.63c0.83,0.19,1.8,0.29,2.61,0.07
				c5.67-1.6,10.19-12.27,7.22-17.37c-2.31-3.97-3.43-8.05-2.57-12.59c0.26-1.35,0.66-2.68,1-4.01c-1.87,0.02-4.03-0.53-5.52,0.23
				c-1.32,0.68-2.71,2.83-2.66,4.29C335.34,210.94,336.2,214.95,336.89,219.85z M384.8,172.47c-0.43-0.1-0.86-0.21-1.29-0.31
				c0.59-4.12,1.38-8.22,1.67-12.35c0.12-1.67-1-4.91-1.29-4.88c-2.64,0.28-6.03-0.48-6.4,4.02c-0.38,4.65-1.36,9.25-2.22,13.85
				c-0.89,4.72-3.04,6.31-7.72,5.48c-1.96-0.35-3.78-1.47-5.71-2.12c-1.18-0.4-2.45-0.57-3.67-0.84c0.01,2.31-0.94,5.62,0.22,6.73
				c2.78,2.67,6.4,4.62,9.96,6.27c4.34,2.01,7.48,0.64,9.96-3.55c1.49-2.52,3.04-5,4.44-7.57
				C383.57,175.68,384.13,174.05,384.8,172.47z M300.93,291.48c-0.74,6.14-2.97,7.53-8.01,4.77c-1.26-0.69-2.34-1.72-3.52-2.59
				c-0.77-0.57-1.56-1.13-2.34-1.7c-0.14,1.11-0.52,2.26-0.36,3.33c0.14,0.93,0.79,1.85,1.41,2.61c3.65,4.41,12.2,6.74,17.6,4.7
				c1.1-0.42,2.42-1.31,2.84-2.32c1.71-4.14-2.25-16.93-5.49-20.08c-2.46-2.39-4.31-5.4-6.41-8.15c-0.54-0.71-1.03-1.45-1.55-2.18
				c-0.53,1.07-1.72,2.33-1.48,3.19c0.84,3.05,2.14,5.98,3.33,8.93C298.24,285.17,299.6,288.32,300.93,291.48z M292.16,363.7
				c-0.32,3.04,0.35,4.93,4.31,3.06c3.83-1.81,6.86-0.31,8.98,3.11c2.16,3.49,1.85,6.66-1.56,9.28c-0.93,0.71-1.78,1.52-2.64,2.32
				c-3.12,2.9,0.32,4.34,1.54,6.06c1.63,2.3,2.58,0.24,3.57-0.94c1.98-2.36,3.98-4.7,5.95-7.06c3.01-3.6,5.94-7.21,2.14-12.06
				c-0.52-0.66-0.72-1.6-0.98-2.44c-0.79-2.61-2.39-3.55-5.22-3.52c-4.37,0.05-8.82-0.13-13.1-0.93
				C292.14,360.02,291.83,361.06,292.16,363.7z M325.16,267.4c1.46,0,3.02,0.32,4.35-0.1c1.19-0.37,2.94-1.53,2.96-2.38
				c0.03-1.17-1.18-3.25-2.14-3.42c-8.84-1.65-17.69-2.1-26.2,1.67c-2.98,1.32-3.83,3.83-3.31,6.86c0.43,2.47,1.47,3.75,4.15,2.06
				C311.15,268.21,318.1,267.51,325.16,267.4z M351.29,221.39c-0.16,0.59-0.46,1.34-0.57,2.12c-1.08,7.59-5.88,12.75-12.03,16.3
				c-2.76,1.6-2.57,2.58-1.33,4.48c0.86,1.33,1.98,2.52,3.1,3.65c1.66,1.67,2.85,2.03,4.07-0.78c1.2-2.75,2.7-5.95,5.04-7.51
				c4.08-2.74,5.91-6.48,7.54-10.72C358.54,225.2,356.11,221.44,351.29,221.39z M320.2,281.1c-1.39,0.27-3.71,0.16-4,0.87
				c-1.55,3.83-2.95,7.8-3.69,11.85c-0.56,3.06-0.21,6.32,0.08,9.47c0.09,1.02,1.27,1.94,1.95,2.9c0.66-0.63,1.45-1.17,1.95-1.91
				c1.44-2.13,2.3-5.53,4.23-6.29c5.22-2.05,4.78-5.58,3.94-9.67c-0.18-0.85-0.34-1.78-0.17-2.6
				C325.23,282.09,323.71,280.82,320.2,281.1z M320.39,351.39c-2.72,1.15-4.46,1.64-5.92,2.57c-1.93,1.22-5.87,2.51-0.37,4.65
				c1.13,0.44,1.86,2.19,2.52,3.46c1.74,3.37,3.14,6.93,5.14,10.14c0.55,0.87,2.76,1.06,4.13,0.91c0.63-0.07,1.67-1.84,1.52-2.66
				c-0.69-3.82-1.44-7.68-2.75-11.32C323.67,356.37,321.81,353.9,320.39,351.39z M292.45,354.38c0.48,0.59,1.19,1.44,1.89,2.3
				c0.69-0.8,1.56-1.51,2.03-2.43c1.84-3.59,3-7.7,5.47-10.76c2.5-3.09,6.39-5.01,9.39-7.76c0.95-0.87,0.99-2.73,1.45-4.14
				c-1.13-0.22-2.36-0.83-3.37-0.59C297.43,333.88,295.67,344.22,292.45,354.38z M357.08,188.05c1.74,4.63,2.36,8.83,4.65,11.72
				c3.01,3.81,7.28,6.64,11.11,9.77c0.76,0.62,1.96,0.71,2.96,1.04c-0.3-1.1-0.35-2.34-0.93-3.26c-2.01-3.18-5.75-6.12-6-9.38
				c-0.49-6.25-5.26-7.36-8.94-9.98C359.49,187.66,358.6,187.98,357.08,188.05z M350.36,206.63c5.45-0.71,9.05,0.95,12.05,4.06
				c1.72,1.78,3.17,3.88,5.08,5.41c0.94,0.75,2.66,0.53,4.02,0.76c-0.27-1.14-0.18-2.61-0.88-3.35c-2.59-2.77-5.13-5.78-8.28-7.77
				c-3.08-1.95-6.8-3.17-10.41-3.87c-1.19-0.23-2.9,2.16-4.36,3.35C348.77,205.82,349.95,206.42,350.36,206.63z M313.4,323.27
				c0.03-0.57,0.06-1.14,0.09-1.71c-0.9-0.62-1.72-1.44-2.71-1.82c-6.26-2.41-11.72-5.74-15.31-11.71
				c-0.71-1.19-2.49-1.77-3.84-2.51c-0.41-0.22-1.06-0.02-1.6-0.02c0.16,0.55,0.18,1.19,0.49,1.62
				c5.13,7.16,10.78,13.79,19.22,17.18C310.68,324.68,312.17,323.65,313.4,323.27z M327.06,256.34c-0.82-1.72-1.56-2.94-2-4.25
				c-1.72-5.22-3.3-10.49-5.03-15.71c-0.68-2.06-1.59-4.05-2.5-6.02c-0.03-0.06-1.77,0.33-1.87,0.71
				C313.34,240.53,317.86,250.8,327.06,256.34z M326.55,242.3c2.82,4.08,5.77,8.48,8.93,12.72c0.27,0.36,2.06-0.06,2.84-0.58
				c0.46-0.31,0.72-1.97,0.4-2.24c-3.5-2.97-5.46-6.62-6.33-11.16c-0.19-1.01-2.73-1.58-4.18-2.35
				C327.82,239.53,327.44,240.37,326.55,242.3z M311.85,285.6c1.66-7.13,2.58-7.87,9.76-7.83c1.03,0.01,2.2,0.38,3.04-0.01
				c1.03-0.47,1.78-1.56,2.65-2.38c-0.83-0.33-1.7-1.02-2.49-0.94c-4.06,0.38-8.17,0.65-12.12,1.56c-2.92,0.67-5.26,2.3-2.23,5.8
				C311.26,282.73,311.38,284.23,311.85,285.6z M305.93,357.77c0.57-0.26,0.78-0.29,0.82-0.39c2.26-4.92,6.83-6.94,11.28-9.17
				c0.39-0.2,0.38-1.65,0.18-2.43c-0.11-0.44-0.98-0.98-1.5-0.98c-3.99,0-11.08,6.87-11.4,11.04
				C305.26,356.45,305.7,357.1,305.93,357.77z M350.71,212.88c-1.73,0.89-2.42,1.24-3.1,1.59c0.57,0.96,0.92,2.39,1.75,2.79
				c3.55,1.68,7.23,3.08,10.9,4.48c0.5,0.19,1.23-0.2,1.85-0.32c-0.19-0.51-0.23-1.24-0.59-1.48
				C357.84,217.47,354.12,215.09,350.71,212.88z M322.97,379.93c0.08,0.23,0.16,0.46,0.25,0.68c3.07-1.15,6.19-2.2,9.19-3.53
				c0.61-0.27,0.76-1.56,1.13-2.38c-0.92-0.14-1.93-0.59-2.76-0.38c-3.46,0.88-6.89,1.9-10.29,3c-0.69,0.22-1.19,1.01-1.79,1.53
				c0.69,0.36,1.36,0.84,2.09,1.03C321.48,380.07,322.24,379.93,322.97,379.93z"/>
		</g>
	</g>
	<rect y="10.74" width="390.67" height="16.82"/>
	<rect y="45.81" width="390.67" height="16.82"/>
	<path class="st2" d="M390.67,196.41c-4.14,1.47-8.78,2.19-12.3,4.56c-7.13,4.8-15.17,8.57-20.42,15.84
		c-0.65,0.9-1.54,1.75-2.5,2.28c-3.78,2.09-7.64,4.02-11.45,6.07c-3.11,1.68-5.38,3.88-5.48,7.83c-0.03,1.07-1.19,2.31-2.14,3.11
		c-4.28,3.63-6.78,7.92-6.37,13.77c0.06,0.91-1.55,2.24-2.68,2.87c-3.38,1.9-6.99,3.4-10.31,5.4c-1.12,0.67-2.35,2.36-2.32,3.55
		c0.13,5.51-3.01,8.74-6.62,12.38c-3.72,3.74-4.28,9.24-3.35,14.49c0.53,2.96-0.13,4.85-2.11,7.38c-2.37,3.02-2.99,7.39-4.42,11.16
		c-0.74,1.94-1.61,3.83-2.39,5.76c-0.91,2.25-2.8,4.66-2.49,6.73c0.87,5.86,1.03,12.03,5.43,16.97c1.25,1.41,1.69,4.33,1.26,6.29
		c-0.96,4.39-1.07,8.32,1.72,12.13c0.8,1.09,1.35,2.74,1.24,4.07c-0.71,8.58,3.85,14.13,10.46,18.42c3.28,2.13,6.86,3.8,10.9,6
		c-2.1,2.67-3.95,5.02-5.81,7.38c10.85,0,21.7,0,32.56,0c-3.66-2.06-7.22-4.35-11.01-6.12c-7.38-3.45-14.89-6.6-22.35-9.88
		c-0.04-0.53-0.08-1.06-0.12-1.59c1.58-0.29,3.43-1.26,4.7-0.76c7.42,2.98,14.75,6.19,22,9.55c3.44,1.59,6.5,4.01,9.98,5.48
		c2.99,1.27,6.3,1.6,9.21-2.09c-1.88-0.55-3.09-0.65-4.01-1.23c-1.35-0.85-3.41-1.98-3.49-3.11c-0.09-1.32,1.33-3.15,2.6-4.08
		c2.69-1.99,10.03-1.56,12.05,0.52c3.25,3.34,2.89,7.09,0.94,10.93c-0.4,0.78-0.76,1.58-1.14,2.37c1.76,0,3.52,0,5.28,0
		c0.74-3.47,2.29-7.01,2.01-10.39c-0.37-4.44-3.28-8.13-8-8.76c-6.42-0.85-13.14-1.26-17.56,4.96c-1.58,2.22-2.87,2.43-5.02,1.18
		c-3.29-1.9-6.59-3.83-10.03-5.42c-4.19-1.94-8.53-3.55-14.22-5.89c4.48-2.75,7.8-5.31,11.52-6.96c8.59-3.8,17.41-5.22,26.76-2.21
		c10.2,3.28,17.62,10.08,24.61,17.7c1.17,1.28,3.24,1.74,4.89,2.58c0-1.47,0-2.93,0-4.4c-5.19-6.08-10.39-12.15-15.46-18.09
		c5.01-2.05,5.44-6.96,2.61-13.02c-2.53-5.43-10.3-7.82-14.74-3.83c-1.47,1.32-1.69,4.29-1.91,6.56c-0.04,0.47,2.9,2.02,3.73,1.6
		c1.65-0.83,2.79-2.68,4.47-4.45c0.07,0.87,0.64,2.51,0.2,3.82c-1.14,3.47-4.44,4-7.24,3.34c-1.82-0.43-4.01-2.49-4.59-4.28
		c-1.45-4.49,1.27-8.81,5.76-10.41c6.68-2.37,14.42,1.2,16.97,7.83c2.74,7.15,2.74,7.15,9.43,3.19c0.25-0.15,0.52-0.27,0.78-0.41
		c0-5.87,0-11.73,0-17.6c-3.43-1.81-6.89-3.56-10.28-5.45c-1.28-0.72-3.12-1.6-3.37-2.71c-0.27-1.18,0.66-3.34,1.73-3.99
		c3.82-2.35,7.92-4.25,11.92-6.33c0-1.47,0-2.93,0-4.4c-3.87,1.06-7.75,2.12-12,3.29c-4.21-9.43-6.46-19.61-1.82-29.23
		c3.11-6.45,9.11-11.5,13.82-17.17c0-6.16,0-12.32,0-18.48c-5,5.96-11.43,9.53-18.94,11.22c-4.64,1.04-8.37,3.18-10.94,7.38
		c-1.5,2.45-1.17,3.91,1.17,5.42c2.7,1.74,5.41,3.56,7.76,5.72c1.04,0.95,1.87,2.94,1.67,4.29c-0.95,6.37-2.3,12.68-3.45,18.72
		c-0.04-0.05-0.56-1.03-1.37-1.47c-2.01-1.09-4.15-1.94-6.23-2.88c-0.34,2.18-1.5,4.66-0.85,6.49c1.9,5.35,4.5,10.45,6.87,15.63
		c0.81,1.76,1.74,3.46,2.44,4.83c-6.54,1.93-12.5,3.83-18.56,5.35c-1.01,0.25-2.99-0.82-3.55-1.83c-1.57-2.79-2.41-5.99-3.91-8.83
		c-8.55-16.14-9.63-33.59-8.95-51.3c0.05-1.26,2.14-3.51,3.24-3.48c4.62,0.1,9.32,0.47,13.8,1.57c2.81,0.69,4.46,0.23,6.68-1.48
		c3.19-2.46,6.69-5.2,10.47-6.09c9.42-2.22,17.25-6.35,22.67-14.54C390.67,223.97,390.67,210.19,390.67,196.41z M299.1,330.45
		c1.82-1.07,2.5-1.61,3.27-1.9c9.15-3.43,18.26-6.96,27.48-10.19c7.73-2.7,7.75-2.53,10.55,4.93c0.77,2.05,1.85,3.98,2.65,6.02
		c1.1,2.8,0.06,4.6-2.87,5.1c-2.59,0.44-5.25,0.5-7.82,1.01c-1,0.2-2.39,0.99-2.62,1.79c-0.23,0.8,0.52,2.25,1.28,2.89
		c2.23,1.87,4.8,3.33,6.99,5.23c1.09,0.94,2.31,2.52,2.25,3.75c-0.06,1.15-1.53,2.55-2.73,3.24c-2.51,1.45-5.16,2.88-7.94,3.62
		c-1.98,0.52-5.13,0.78-6.28-0.35C315.14,347.56,307.36,339.13,299.1,330.45z M335.11,247.15c1.81-2.62,3.62-5.24,5.42-7.86
		c1.12-1.63,2.96-3.17,3.21-4.92c0.88-6.34,5.8-8.72,10.59-10.23c3.22-1.01,5.47-2.01,6.93-5.02c0.68-1.41,1.85-2.63,2.99-3.75
		c4.94-4.83,12.71-2.38,14.92,4.27c2.59,7.78-2.44,17.57-10.27,19.33c-8.24,1.86-16.28,4.76-22.45,11.23
		c-1.19,1.25-3.32,1.87-5.12,2.21C337.17,253.2,336.08,252.12,335.11,247.15z M306.84,300.47c0.48-0.62,0.83-1.54,1.47-1.83
		c5.45-2.51,10.89-5.06,16.49-7.2c0.98-0.38,3.48,0.78,3.91,1.81c2.1,4.98,3.71,10.17,5.56,15.26c0.85,2.34,0.11,3.55-2.28,4.14
		c-3.55,0.88-7.06,1.93-10.58,2.92c-6.28,1.76-6.28,1.76-9.2-4.21C310.46,307.81,308.71,304.27,306.84,300.47z M328.29,257.54
		c-0.24,4.41-0.25,8.32-3.83,11.45c-1.67,1.46-2.73,3.78-3.67,5.89c-1.97,4.42-3.54,9.01-5.58,13.39c-0.52,1.12-2.12,1.84-3.37,2.43
		c-0.31,0.15-1.48-0.8-1.77-1.46c-1.72-3.87,0.12-12.13,3.73-14.01c4.13-2.15,4.81-5.26,4.8-9.36
		C318.59,260.42,321.77,257.71,328.29,257.54z M304.29,345.64c0.62-0.28,1.24-0.56,1.85-0.84c1.44,2.39,3.07,4.69,4.26,7.2
		c1.4,2.95,2.74,6.01,3.5,9.16c0.62,2.55,0.4,5.32,0.39,7.99c0,0.23-1.66,0.76-1.73,0.64c-1.32-2.13-2.51-4.34-3.72-6.54
		c-0.06-0.11,0.01-0.29-0.03-0.43c-1.01-3.86-2.03-7.71-3.04-11.56C305.29,349.38,304.79,347.51,304.29,345.64z M298.67,323.19
		c0-1.82-0.5-3.83,0.1-5.43c1.53-4.12,3.54-8.06,5.31-11.97C306.85,312.33,301.59,317.43,298.67,323.19z"/>
	<path class="st2" d="M64.28,26.08c-2.49,0-4.62,0-7.24,0c0-3.34,0-6.47,0-9.4c-6.91,6.9-13.67,13.67-20.27,20.27
		c6.88,6.74,14.32,14.05,21.82,21.39c0-3.42,0-7.16,0-11.26c2.03,0,3.69,0,5.64,0c0,6.64,0,13.33,0,20.39c-9.51,0-19.08,0-29.11,0
		c0-2.46,0-5.02,0-7.81c-1.35-0.23-2.28-0.39-3.8-0.64c0,2.97,0,5.66,0,8.58c-9.84,0-19.13,0-28.65,0c0-6.9,0-13.58,0-20.57
		c1.46,0,2.82,0,4.57,0c0,3.88,0,7.66,0,10.73c7.18-7.15,14.53-14.47,21.56-21.47c-5.91-5.93-12.67-12.7-19.53-19.57
		c-0.13,2.78-0.27,5.89-0.43,9.28c-2.09,0-3.92,0-6.08,0c0-6.92,0-13.88,0-21.12c9.3,0,18.59,0,28.28,0c0,3.21,0,6.38,0,9.88
		c1.4,0.07,2.43,0.13,3.87,0.2c0-3.51,0-6.68,0-10.1c9.98,0,19.55,0,29.37,0C64.28,11.88,64.28,18.72,64.28,26.08z M33.97,39.77
		c0,3.66,0,7.59,0,11.33c5.61,5.81,11.01,11.52,19.56,8.24C47.11,52.91,40.55,46.35,33.97,39.77z M32.18,40.19
		c-6.42,6.44-13.02,13.06-19.34,19.4c8.38,2.72,13.99-2.71,19.34-8.76C32.18,47.05,32.18,43.26,32.18,40.19z M34.01,32.41
		c5.56-5.64,11.39-11.57,16.85-17.11c-2.63,0-6.21,0-10.2,0c-2.21,2.6-4.56,5.36-6.64,7.81C34.01,26.9,34.01,30.2,34.01,32.41z
		 M32.14,33.83c0-3.69,0-7.02,0-10.59c-2.25-2.63-4.6-5.39-6.57-7.69c-4.3,0-7.94,0-11.5,0C20.1,21.65,25.91,27.54,32.14,33.83z"/>
	<path class="st2" d="M129.64,26.08c-2.49,0-4.62,0-7.24,0c0-3.34,0-6.47,0-9.4c-6.91,6.9-13.67,13.67-20.27,20.27
		c6.88,6.74,14.32,14.05,21.82,21.39c0-3.42,0-7.16,0-11.26c2.03,0,3.69,0,5.64,0c0,6.64,0,13.33,0,20.39c-9.51,0-19.08,0-29.11,0
		c0-2.46,0-5.02,0-7.81c-1.35-0.23-2.28-0.39-3.8-0.64c0,2.97,0,5.66,0,8.58c-9.84,0-19.13,0-28.65,0c0-6.9,0-13.58,0-20.57
		c1.46,0,2.82,0,4.57,0c0,3.88,0,7.66,0,10.73c7.18-7.15,14.53-14.47,21.56-21.47c-5.91-5.93-12.67-12.7-19.53-19.57
		c-0.13,2.78-0.27,5.89-0.43,9.28c-2.09,0-3.92,0-6.08,0c0-6.92,0-13.88,0-21.12c9.3,0,18.59,0,28.28,0c0,3.21,0,6.38,0,9.88
		c1.4,0.07,2.43,0.13,3.87,0.2c0-3.51,0-6.68,0-10.1c9.98,0,19.55,0,29.37,0C129.64,11.88,129.64,18.72,129.64,26.08z M99.32,39.77
		c0,3.66,0,7.59,0,11.33c5.61,5.81,11.01,11.52,19.56,8.24C112.46,52.91,105.91,46.35,99.32,39.77z M97.53,40.19
		c-6.42,6.44-13.02,13.06-19.34,19.4c8.38,2.72,13.99-2.71,19.34-8.76C97.53,47.05,97.53,43.26,97.53,40.19z M99.37,32.41
		c5.56-5.64,11.39-11.57,16.85-17.11c-2.63,0-6.21,0-10.2,0c-2.21,2.6-4.56,5.36-6.64,7.81C99.37,26.9,99.37,30.2,99.37,32.41z
		 M97.49,33.83c0-3.69,0-7.02,0-10.59c-2.25-2.63-4.6-5.39-6.57-7.69c-4.3,0-7.94,0-11.5,0C85.45,21.65,91.27,27.54,97.49,33.83z"/>
	<path class="st2" d="M193.6,26.08c-2.49,0-4.62,0-7.24,0c0-3.34,0-6.47,0-9.4c-6.91,6.9-13.67,13.67-20.27,20.27
		c6.88,6.74,14.32,14.05,21.82,21.39c0-3.42,0-7.16,0-11.26c2.03,0,3.69,0,5.64,0c0,6.64,0,13.33,0,20.39c-9.51,0-19.08,0-29.11,0
		c0-2.46,0-5.02,0-7.81c-1.35-0.23-2.28-0.39-3.8-0.64c0,2.97,0,5.66,0,8.58c-9.84,0-19.13,0-28.65,0c0-6.9,0-13.58,0-20.57
		c1.46,0,2.82,0,4.57,0c0,3.88,0,7.66,0,10.73c7.18-7.15,14.53-14.47,21.56-21.47c-5.91-5.93-12.67-12.7-19.53-19.57
		c-0.13,2.78-0.27,5.89-0.43,9.28c-2.09,0-3.92,0-6.08,0c0-6.92,0-13.88,0-21.12c9.3,0,18.59,0,28.28,0c0,3.21,0,6.38,0,9.88
		c1.4,0.07,2.43,0.13,3.87,0.2c0-3.51,0-6.68,0-10.1c9.98,0,19.55,0,29.37,0C193.6,11.88,193.6,18.72,193.6,26.08z M163.28,39.77
		c0,3.66,0,7.59,0,11.33c5.61,5.81,11.01,11.52,19.56,8.24C176.43,52.91,169.87,46.35,163.28,39.77z M161.5,40.19
		c-6.42,6.44-13.02,13.06-19.34,19.4c8.38,2.72,13.99-2.71,19.34-8.76C161.5,47.05,161.5,43.26,161.5,40.19z M163.33,32.41
		c5.56-5.64,11.39-11.57,16.85-17.11c-2.63,0-6.21,0-10.2,0c-2.21,2.6-4.56,5.36-6.64,7.81C163.33,26.9,163.33,30.2,163.33,32.41z
		 M161.46,33.83c0-3.69,0-7.02,0-10.59c-2.25-2.63-4.6-5.39-6.57-7.69c-4.3,0-7.94,0-11.5,0C149.41,21.65,155.23,27.54,161.46,33.83
		z"/>
	<path class="st2" d="M258.68,26.08c-2.49,0-4.62,0-7.24,0c0-3.34,0-6.47,0-9.4c-6.91,6.9-13.67,13.67-20.27,20.27
		c6.88,6.74,14.32,14.05,21.82,21.39c0-3.42,0-7.16,0-11.26c2.03,0,3.69,0,5.64,0c0,6.64,0,13.33,0,20.39c-9.51,0-19.08,0-29.11,0
		c0-2.46,0-5.02,0-7.81c-1.35-0.23-2.28-0.39-3.8-0.64c0,2.97,0,5.66,0,8.58c-9.84,0-19.13,0-28.65,0c0-6.9,0-13.58,0-20.57
		c1.46,0,2.82,0,4.57,0c0,3.88,0,7.66,0,10.73c7.18-7.15,14.53-14.47,21.56-21.47c-5.91-5.93-12.67-12.7-19.53-19.57
		c-0.13,2.78-0.27,5.89-0.43,9.28c-2.09,0-3.92,0-6.08,0c0-6.92,0-13.88,0-21.12c9.3,0,18.59,0,28.28,0c0,3.21,0,6.38,0,9.88
		c1.4,0.07,2.43,0.13,3.87,0.2c0-3.51,0-6.68,0-10.1c9.98,0,19.55,0,29.37,0C258.68,11.88,258.68,18.72,258.68,26.08z M228.37,39.77
		c0,3.66,0,7.59,0,11.33c5.61,5.81,11.01,11.52,19.56,8.24C241.51,52.91,234.95,46.35,228.37,39.77z M226.58,40.19
		c-6.42,6.44-13.02,13.06-19.34,19.4c8.38,2.72,13.99-2.71,19.34-8.76C226.58,47.05,226.58,43.26,226.58,40.19z M228.42,32.41
		c5.56-5.64,11.39-11.57,16.85-17.11c-2.63,0-6.21,0-10.2,0c-2.21,2.6-4.56,5.36-6.64,7.81C228.42,26.9,228.42,30.2,228.42,32.41z
		 M226.54,33.83c0-3.69,0-7.02,0-10.59c-2.25-2.63-4.6-5.39-6.57-7.69c-4.3,0-7.94,0-11.5,0C214.5,21.65,220.32,27.54,226.54,33.83z
		"/>
	<path class="st2" d="M324.04,26.08c-2.49,0-4.62,0-7.24,0c0-3.34,0-6.47,0-9.4c-6.91,6.9-13.67,13.67-20.27,20.27
		c6.88,6.74,14.32,14.05,21.82,21.39c0-3.42,0-7.16,0-11.26c2.03,0,3.69,0,5.64,0c0,6.64,0,13.33,0,20.39c-9.51,0-19.08,0-29.11,0
		c0-2.46,0-5.02,0-7.81c-1.35-0.23-2.28-0.39-3.8-0.64c0,2.97,0,5.66,0,8.58c-9.84,0-19.13,0-28.65,0c0-6.9,0-13.58,0-20.57
		c1.46,0,2.82,0,4.57,0c0,3.88,0,7.66,0,10.73c7.18-7.15,14.53-14.47,21.56-21.47c-5.91-5.93-12.67-12.7-19.53-19.57
		c-0.13,2.78-0.27,5.89-0.43,9.28c-2.09,0-3.92,0-6.08,0c0-6.92,0-13.88,0-21.12c9.3,0,18.59,0,28.28,0c0,3.21,0,6.38,0,9.88
		c1.4,0.07,2.43,0.13,3.87,0.2c0-3.51,0-6.68,0-10.1c9.98,0,19.55,0,29.37,0C324.04,11.88,324.04,18.72,324.04,26.08z M293.72,39.77
		c0,3.66,0,7.59,0,11.33c5.61,5.81,11.01,11.52,19.56,8.24C306.87,52.91,300.31,46.35,293.72,39.77z M291.94,40.19
		c-6.42,6.44-13.02,13.06-19.34,19.4c8.38,2.72,13.99-2.71,19.34-8.76C291.94,47.05,291.94,43.26,291.94,40.19z M293.77,32.41
		c5.56-5.64,11.39-11.57,16.85-17.11c-2.63,0-6.21,0-10.2,0c-2.21,2.6-4.56,5.36-6.64,7.81C293.77,26.9,293.77,30.2,293.77,32.41z
		 M291.9,33.83c0-3.69,0-7.02,0-10.59c-2.25-2.63-4.6-5.39-6.57-7.69c-4.3,0-7.94,0-11.5,0C279.85,21.65,285.67,27.54,291.9,33.83z"
		/>
	<path class="st2" d="M388,26.08c-2.49,0-4.62,0-7.24,0c0-3.34,0-6.47,0-9.4c-6.91,6.9-13.67,13.67-20.27,20.27
		c6.88,6.74,14.32,14.05,21.82,21.39c0-3.42,0-7.16,0-11.26c2.03,0,3.69,0,5.64,0c0,6.64,0,13.33,0,20.39c-9.51,0-19.08,0-29.11,0
		c0-2.46,0-5.02,0-7.81c-1.35-0.23-2.28-0.39-3.8-0.64c0,2.97,0,5.66,0,8.58c-9.84,0-19.13,0-28.65,0c0-6.9,0-13.58,0-20.57
		c1.46,0,2.82,0,4.57,0c0,3.88,0,7.66,0,10.73c7.18-7.15,14.53-14.47,21.56-21.47c-5.91-5.93-12.67-12.7-19.53-19.57
		c-0.13,2.78-0.27,5.89-0.43,9.28c-2.09,0-3.92,0-6.08,0c0-6.92,0-13.88,0-21.12c9.3,0,18.59,0,28.28,0c0,3.21,0,6.38,0,9.88
		c1.4,0.07,2.43,0.13,3.87,0.2c0-3.51,0-6.68,0-10.1c9.98,0,19.55,0,29.37,0C388,11.88,388,18.72,388,26.08z M357.69,39.77
		c0,3.66,0,7.59,0,11.33c5.61,5.81,11.01,11.52,19.56,8.24C370.83,52.91,364.27,46.35,357.69,39.77z M355.9,40.19
		c-6.42,6.44-13.02,13.06-19.34,19.4c8.38,2.72,13.99-2.71,19.34-8.76C355.9,47.05,355.9,43.26,355.9,40.19z M357.73,32.41
		c5.56-5.64,11.39-11.57,16.85-17.11c-2.63,0-6.21,0-10.2,0c-2.21,2.6-4.56,5.36-6.64,7.81C357.73,26.9,357.73,30.2,357.73,32.41z
		 M355.86,33.83c0-3.69,0-7.02,0-10.59c-2.25-2.63-4.6-5.39-6.57-7.69c-4.3,0-7.94,0-11.5,0C343.82,21.65,349.63,27.54,355.86,33.83
		z"/>
	<g>
		<g>
			<path d="M92.86,391.25c8.1-11.15,13.74-23.05,10.38-37.26c-1.1-4.68-2.82-9.26-4.76-13.67c-2.04-4.63-4.93-8.72-10.3-10.22
				c-0.64-0.18-1.18-0.7-1.77-1.07c0.51-0.48,1.02-0.96,1.54-1.43c4.89-4.42,10.34-8.38,14.58-13.35
				c9.52-11.18,9.47-24.22,4.2-36.91c-5.36-12.92-16.43-19.06-30.19-20.63c-1.01-0.12-2.03-0.25-3.04-0.38
				c0.58-0.94,1.33-1.82,1.71-2.84c1.84-4.86,4.82-9.69,5.12-14.66c0.73-11.95-1.48-23.28-11.25-31.96
				c-6.27-5.57-13.27-8.58-21.67-8.46c-2.07,0.03-4.14-0.06-6.21-0.05c-5.26,0.03-5.54-0.04-4.04-5.16
				c4.72-16.17-2.6-29.2-14.99-38.13c-0.87-0.63-1.4-2.58-1.15-3.71c0.7-3.13,2.21-6.08,2.83-9.22c3.04-15.29-7.46-27.9-23.31-28.18
				c0,3.81,0,7.63,0,11.44c1.66,0.6,3.4,1.02,4.95,1.82c5.85,3.01,8.51,9.61,5.73,15.17c-0.83,1.66-3.04,3.28-4.85,3.58
				c-1.09,0.18-2.84-2.06-3.84-3.51c-0.49-0.71,0.04-2.11,0.11-3.2c0.83,0.58,1.66,1.16,2.48,1.75c0.65,0.46,1.29,0.93,1.94,1.4
				c0.47-0.69,1.16-1.33,1.37-2.09c1.38-4.94-1.67-8.94-7.89-10.51c0,19.07,0,38.15,0,57.22c4.15-1.36,7.97-1.9,10.7,2.74
				c0.83,1.41,2.48,2.58,4.02,3.31c4.58,2.18,4.7,2.25,1.84,6.46c-0.9,1.33-1.97,2.55-2.94,3.85c-1.56,2.07-3.05,2.52-5.54,0.94
				c-2.4-1.53-5.36-2.18-8.08-3.22c0,62.21,0.03,124.42-0.09,186.63c-0.01,3.01,0.59,3.65,3.64,3.61
				c16.27-0.19,32.55-0.09,48.82-0.09c-0.41-1.23-0.82-2.46-1.21-3.69c-0.29-0.91-0.55-1.83-0.82-2.74
				c1.03,0.17,2.18,0.12,3.08,0.56c7.11,3.51,14.6,4.72,22.3,3c3.4-0.76,5.33,0.08,6.83,2.87
				C86.35,391.25,89.61,391.25,92.86,391.25z M54.68,220.53c0.02,0.12,0.12,1.15,0.39,2.13c2.01,7.32,6.29,8.54,11.68,3.18
				c1.75-1.74,2.97-3.99,4.57-5.89c0.41-0.48,1.36-0.51,2.07-0.75c0.15,2.09,1.25,4.93,0.28,6.14c-4.46,5.57-9.98,9.97-17.22,11.63
				c-0.84,0.19-1.82,0.29-2.63,0.07c-5.71-1.6-10.27-12.27-7.28-17.37c2.33-3.97,3.46-8.05,2.59-12.59c-0.26-1.35-0.67-2.68-1-4.01
				c1.88,0.02,4.06-0.53,5.57,0.23c1.33,0.68,2.73,2.83,2.68,4.29C56.24,211.62,55.37,215.63,54.68,220.53z M6.36,173.15
				c0.43-0.1,0.87-0.21,1.3-0.31c-0.59-4.12-1.39-8.22-1.68-12.35c-0.12-1.67,1.01-4.91,1.3-4.88c2.66,0.28,6.08-0.48,6.45,4.02
				c0.39,4.65,1.37,9.25,2.24,13.85c0.89,4.72,3.07,6.31,7.79,5.48c1.98-0.35,3.81-1.47,5.75-2.12c1.19-0.4,2.47-0.57,3.7-0.84
				c-0.01,2.31,0.95,5.62-0.22,6.73c-2.8,2.67-6.45,4.62-10.04,6.27c-4.38,2.01-7.54,0.64-10.04-3.55c-1.5-2.52-3.07-5-4.48-7.57
				C7.61,176.36,7.04,174.73,6.36,173.15z M90.93,292.16c0.75,6.14,2.99,7.53,8.08,4.77c1.28-0.69,2.36-1.72,3.54-2.59
				c0.78-0.57,1.57-1.13,2.36-1.7c0.14,1.11,0.53,2.26,0.36,3.33c-0.15,0.93-0.79,1.85-1.43,2.61c-3.68,4.41-12.3,6.74-17.75,4.7
				c-1.11-0.42-2.44-1.31-2.86-2.32c-1.73-4.14,2.27-16.93,5.54-20.08c2.48-2.39,4.34-5.4,6.47-8.15c0.55-0.71,1.04-1.45,1.56-2.18
				c0.54,1.07,1.74,2.33,1.5,3.19c-0.85,3.05-2.16,5.98-3.36,8.93C93.65,285.85,92.27,289,90.93,292.16z M99.78,364.38
				c0.32,3.04-0.35,4.93-4.35,3.06c-3.86-1.81-6.92-0.31-9.05,3.11c-2.18,3.49-1.87,6.66,1.57,9.28c0.94,0.71,1.8,1.52,2.67,2.32
				c3.15,2.9-0.32,4.34-1.55,6.06c-1.65,2.3-2.6,0.24-3.6-0.94c-1.99-2.36-4.01-4.7-6-7.06c-3.03-3.6-5.99-7.21-2.16-12.06
				c0.52-0.66,0.73-1.6,0.99-2.44c0.8-2.61,2.4-3.55,5.26-3.52c4.41,0.05,8.89-0.13,13.21-0.93
				C99.8,360.7,100.11,361.74,99.78,364.38z M66.5,268.08c-1.47,0-3.04,0.32-4.38-0.1c-1.2-0.37-2.97-1.53-2.99-2.38
				c-0.03-1.17,1.19-3.25,2.15-3.42c8.91-1.65,17.83-2.1,26.42,1.67c3.01,1.32,3.86,3.83,3.34,6.86c-0.43,2.47-1.48,3.75-4.19,2.06
				C80.63,268.89,73.62,268.19,66.5,268.08z M40.16,222.07c0.17,0.59,0.47,1.34,0.58,2.12c1.09,7.59,5.93,12.75,12.13,16.3
				c2.79,1.6,2.59,2.58,1.35,4.48c-0.87,1.33-1.99,2.52-3.13,3.65c-1.68,1.67-2.87,2.03-4.1-0.78c-1.21-2.75-2.73-5.95-5.08-7.51
				c-4.11-2.74-5.96-6.48-7.61-10.72C32.85,225.88,35.3,222.12,40.16,222.07z M71.51,281.78c1.4,0.27,3.74,0.16,4.03,0.87
				c1.56,3.83,2.97,7.8,3.72,11.85c0.56,3.06,0.21,6.32-0.08,9.47c-0.09,1.02-1.28,1.94-1.97,2.9c-0.66-0.63-1.46-1.17-1.96-1.91
				c-1.45-2.13-2.32-5.53-4.26-6.29c-5.26-2.05-4.82-5.58-3.97-9.67c0.18-0.85,0.35-1.78,0.17-2.6
				C66.43,282.77,67.97,281.5,71.51,281.78z M71.31,352.07c2.74,1.15,4.5,1.64,5.97,2.57c1.94,1.22,5.92,2.51,0.37,4.65
				c-1.14,0.44-1.88,2.19-2.54,3.46c-1.76,3.37-3.17,6.93-5.19,10.14c-0.55,0.87-2.78,1.06-4.17,0.91
				c-0.64-0.07-1.68-1.84-1.53-2.66c0.7-3.82,1.45-7.68,2.77-11.32C68.01,357.05,69.88,354.58,71.31,352.07z M99.49,355.06
				c-0.49,0.59-1.2,1.44-1.9,2.3c-0.69-0.8-1.57-1.51-2.04-2.43c-1.86-3.59-3.03-7.7-5.52-10.76c-2.52-3.09-6.44-5.01-9.46-7.76
				c-0.96-0.87-1-2.73-1.46-4.14c1.14-0.22,2.38-0.83,3.4-0.59C94.47,334.56,96.24,344.9,99.49,355.06z M34.32,188.73
				c-1.76,4.63-2.38,8.83-4.69,11.72c-3.04,3.81-7.35,6.64-11.21,9.77c-0.77,0.62-1.98,0.71-2.99,1.04c0.3-1.1,0.35-2.34,0.94-3.26
				c2.03-3.18,5.79-6.12,6.05-9.38c0.49-6.25,5.3-7.36,9.02-9.98C31.89,188.33,32.79,188.66,34.32,188.73z M41.1,207.31
				c-5.5-0.71-9.13,0.95-12.15,4.06c-1.73,1.78-3.19,3.88-5.12,5.41c-0.95,0.75-2.68,0.53-4.06,0.76c0.27-1.14,0.18-2.61,0.88-3.35
				c2.61-2.77,5.17-5.78,8.34-7.77c3.11-1.95,6.86-3.17,10.49-3.87c1.2-0.23,2.92,2.16,4.4,3.35C42.7,206.5,41.51,207.1,41.1,207.31
				z M78.36,323.95c-0.03-0.57-0.06-1.14-0.09-1.71c0.91-0.62,1.74-1.44,2.74-1.82c6.31-2.41,11.81-5.74,15.43-11.71
				c0.72-1.19,2.51-1.77,3.87-2.51c0.42-0.22,1.07-0.02,1.61-0.02c-0.16,0.55-0.18,1.19-0.5,1.62
				c-5.17,7.16-10.87,13.79-19.38,17.18C81.11,325.36,79.6,324.33,78.36,323.95z M64.59,257.02c0.83-1.72,1.58-2.94,2.01-4.25
				c1.74-5.22,3.33-10.49,5.07-15.71c0.69-2.06,1.6-4.05,2.52-6.02c0.03-0.06,1.79,0.33,1.88,0.71
				C78.43,241.21,73.87,251.48,64.59,257.02z M65.1,242.98c-2.84,4.08-5.82,8.48-9,12.72c-0.27,0.36-2.08-0.06-2.87-0.58
				c-0.46-0.31-0.72-1.97-0.4-2.24c3.53-2.97,5.51-6.62,6.38-11.16c0.19-1.01,2.75-1.58,4.22-2.35
				C63.82,240.21,64.21,241.05,65.1,242.98z M79.92,286.28c-1.67-7.13-2.61-7.87-9.85-7.83c-1.03,0.01-2.22,0.38-3.07-0.01
				c-1.04-0.47-1.79-1.56-2.67-2.38c0.84-0.33,1.71-1.02,2.51-0.94c4.09,0.38,8.24,0.65,12.22,1.56c2.95,0.67,5.31,2.3,2.25,5.8
				C80.52,283.4,80.4,284.91,79.92,286.28z M85.89,358.45c-0.57-0.26-0.78-0.29-0.83-0.39c-2.28-4.92-6.88-6.94-11.37-9.17
				c-0.4-0.2-0.38-1.65-0.18-2.43c0.11-0.44,0.99-0.98,1.52-0.98c4.02,0,11.17,6.87,11.5,11.04
				C86.57,357.13,86.13,357.78,85.89,358.45z M40.74,213.56c1.75,0.89,2.44,1.24,3.13,1.59c-0.58,0.96-0.92,2.39-1.77,2.79
				c-3.58,1.68-7.29,3.08-10.99,4.48c-0.51,0.19-1.24-0.2-1.86-0.32c0.19-0.51,0.23-1.24,0.6-1.48
				C33.55,218.15,37.31,215.77,40.74,213.56z M68.71,380.61c-0.08,0.23-0.17,0.46-0.25,0.68c-3.1-1.15-6.24-2.2-9.26-3.53
				c-0.61-0.27-0.77-1.56-1.14-2.38c0.93-0.14,1.94-0.59,2.78-0.38c3.49,0.88,6.95,1.9,10.37,3c0.69,0.22,1.2,1.01,1.8,1.53
				c-0.7,0.36-1.37,0.84-2.11,1.03C70.21,380.75,69.44,380.61,68.71,380.61z"/>
		</g>
	</g>
	<path class="st2" d="M-0.57,196.41c4.17,1.47,8.84,2.19,12.39,4.56c7.18,4.8,15.27,8.57,20.56,15.84c0.66,0.9,1.55,1.75,2.52,2.28
		c3.8,2.09,7.7,4.02,11.52,6.07c3.13,1.68,5.42,3.88,5.52,7.83c0.03,1.07,1.2,2.31,2.16,3.11c4.31,3.63,6.82,7.92,6.42,13.77
		c-0.06,0.91,1.57,2.24,2.7,2.87c3.4,1.9,7.04,3.4,10.38,5.4c1.13,0.67,2.37,2.36,2.34,3.55c-0.13,5.51,3.03,8.74,6.67,12.38
		c3.75,3.74,4.31,9.24,3.37,14.49c-0.53,2.96,0.13,4.85,2.13,7.38c2.38,3.02,3.01,7.39,4.45,11.16c0.74,1.94,1.62,3.83,2.41,5.76
		c0.92,2.25,2.82,4.66,2.51,6.73c-0.88,5.86-1.03,12.03-5.47,16.97c-1.26,1.41-1.7,4.33-1.27,6.29c0.97,4.39,1.08,8.32-1.73,12.13
		c-0.81,1.09-1.36,2.74-1.25,4.07c0.72,8.58-3.88,14.13-10.53,18.42c-3.3,2.13-6.91,3.8-10.98,6c2.11,2.67,3.98,5.02,5.85,7.38
		c-10.93,0-21.85,0-32.78,0c3.69-2.06,7.27-4.35,11.09-6.12c7.43-3.45,15-6.6,22.51-9.88c0.04-0.53,0.08-1.06,0.12-1.59
		c-1.59-0.29-3.46-1.26-4.73-0.76c-7.47,2.98-14.85,6.19-22.15,9.55c-3.46,1.59-6.55,4.01-10.05,5.48c-3.01,1.27-6.34,1.6-9.28-2.09
		c1.89-0.55,3.11-0.65,4.04-1.23c1.36-0.85,3.43-1.98,3.51-3.11c0.09-1.32-1.34-3.15-2.62-4.08c-2.71-1.99-10.1-1.56-12.14,0.52
		c-3.27,3.34-2.91,7.09-0.95,10.93c0.4,0.78,0.77,1.58,1.15,2.37c-1.77,0-3.54,0-5.32,0c-0.74-3.47-2.31-7.01-2.03-10.39
		c0.37-4.44,3.3-8.13,8.05-8.76c6.46-0.85,13.23-1.26,17.68,4.96c1.59,2.22,2.89,2.43,5.05,1.18c3.31-1.9,6.63-3.83,10.1-5.42
		c4.22-1.94,8.59-3.55,14.32-5.89c-4.51-2.75-7.85-5.31-11.6-6.96c-8.65-3.8-17.53-5.22-26.94-2.21
		c-10.27,3.28-17.74,10.08-24.78,17.7c-1.18,1.28-3.26,1.74-4.92,2.58c0-1.47,0-2.93,0-4.4c5.23-6.08,10.46-12.15,15.57-18.09
		c-5.05-2.05-5.48-6.96-2.63-13.02c2.55-5.43,10.37-7.82,14.84-3.83c1.48,1.32,1.71,4.29,1.92,6.56c0.05,0.47-2.92,2.02-3.75,1.6
		c-1.66-0.83-2.81-2.68-4.5-4.45c-0.07,0.87-0.64,2.51-0.21,3.82c1.15,3.47,4.47,4,7.29,3.34c1.83-0.43,4.04-2.49,4.62-4.28
		c1.46-4.49-1.28-8.81-5.8-10.41c-6.73-2.37-14.52,1.2-17.08,7.83c-2.76,7.15-2.76,7.15-9.49,3.19c-0.25-0.15-0.52-0.27-0.78-0.41
		c0-5.87,0-11.73,0-17.6c3.45-1.81,6.94-3.56,10.35-5.45c1.29-0.72,3.14-1.6,3.39-2.71c0.27-1.18-0.66-3.34-1.74-3.99
		c-3.85-2.35-7.98-4.25-12-6.33c0-1.47,0-2.93,0-4.4c3.9,1.06,7.8,2.12,12.08,3.29c4.24-9.43,6.5-19.61,1.83-29.23
		c-3.13-6.45-9.17-11.5-13.91-17.17c0-6.16,0-12.32,0-18.48c5.03,5.96,11.51,9.53,19.07,11.22c4.67,1.04,8.43,3.18,11.02,7.38
		c1.51,2.45,1.18,3.91-1.17,5.42c-2.72,1.74-5.44,3.56-7.82,5.72c-1.04,0.95-1.88,2.94-1.68,4.29c0.96,6.37,2.31,12.68,3.47,18.72
		c0.04-0.05,0.56-1.03,1.38-1.47c2.02-1.09,4.18-1.94,6.28-2.88c0.34,2.18,1.51,4.66,0.86,6.49c-1.91,5.35-4.53,10.45-6.92,15.63
		c-0.81,1.76-1.75,3.46-2.45,4.83c6.59,1.93,12.59,3.83,18.68,5.35c1.02,0.25,3.01-0.82,3.58-1.83c1.58-2.79,2.43-5.99,3.94-8.83
		c8.6-16.14,9.69-33.59,9.01-51.3c-0.05-1.26-2.15-3.51-3.27-3.48c-4.65,0.1-9.39,0.47-13.89,1.57c-2.83,0.69-4.49,0.23-6.72-1.48
		c-3.21-2.46-6.74-5.2-10.54-6.09c-9.49-2.22-17.37-6.35-22.82-14.54C-0.57,223.97-0.57,210.19-0.57,196.41z M91.62,330.45
		c-1.83-1.07-2.52-1.61-3.29-1.9c-9.21-3.43-18.38-6.96-27.67-10.19c-7.78-2.7-7.81-2.53-10.62,4.93c-0.77,2.05-1.86,3.98-2.66,6.02
		c-1.11,2.8-0.06,4.6,2.89,5.1c2.61,0.44,5.28,0.5,7.88,1.01c1,0.2,2.4,0.99,2.63,1.79c0.23,0.8-0.52,2.25-1.29,2.89
		c-2.24,1.87-4.83,3.33-7.04,5.23c-1.09,0.94-2.32,2.52-2.26,3.75c0.06,1.15,1.54,2.55,2.75,3.24c2.53,1.45,5.2,2.88,7.99,3.62
		c2,0.52,5.17,0.78,6.32-0.35C75.47,347.56,83.3,339.13,91.62,330.45z M55.36,247.15c-1.82-2.62-3.65-5.24-5.46-7.86
		c-1.13-1.63-2.98-3.17-3.23-4.92c-0.89-6.34-5.84-8.72-10.67-10.23c-3.25-1.01-5.51-2.01-6.98-5.02c-0.69-1.41-1.87-2.63-3.01-3.75
		c-4.97-4.83-12.79-2.38-15.02,4.27c-2.61,7.78,2.46,17.57,10.34,19.33c8.29,1.86,16.39,4.76,22.6,11.23
		c1.2,1.25,3.34,1.87,5.16,2.21C53.29,253.2,54.39,252.12,55.36,247.15z M83.83,300.47c-0.48-0.62-0.84-1.54-1.48-1.83
		c-5.49-2.51-10.97-5.06-16.6-7.2c-0.99-0.38-3.5,0.78-3.94,1.81c-2.12,4.98-3.73,10.17-5.6,15.26c-0.86,2.34-0.11,3.55,2.29,4.14
		c3.58,0.88,7.11,1.93,10.66,2.92c6.33,1.76,6.32,1.76,9.27-4.21C80.18,307.81,81.94,304.27,83.83,300.47z M62.23,257.54
		c0.25,4.41,0.25,8.32,3.85,11.45c1.68,1.46,2.75,3.78,3.69,5.89c1.98,4.42,3.57,9.01,5.62,13.39c0.52,1.12,2.14,1.84,3.4,2.43
		c0.32,0.15,1.49-0.8,1.79-1.46c1.73-3.87-0.12-12.13-3.75-14.01c-4.16-2.15-4.84-5.26-4.84-9.36
		C71.99,260.42,68.79,257.71,62.23,257.54z M86.39,345.64c-0.62-0.28-1.24-0.56-1.87-0.84c-1.45,2.39-3.09,4.69-4.29,7.2
		c-1.41,2.95-2.76,6.01-3.53,9.16c-0.62,2.55-0.4,5.32-0.4,7.99c0,0.23,1.67,0.76,1.74,0.64c1.33-2.13,2.53-4.34,3.75-6.54
		c0.06-0.11-0.01-0.29,0.03-0.43c1.02-3.86,2.04-7.71,3.06-11.56C85.39,349.38,85.89,347.51,86.39,345.64z M92.05,323.19
		c0-1.82,0.5-3.83-0.1-5.43c-1.54-4.12-3.56-8.06-5.34-11.97C83.81,312.33,89.11,317.43,92.05,323.19z"/>
</g>
</svg>
