<?xml version="1.0" encoding="utf-8"?>
<!-- Generator: Adobe Illustrator 27.1.1, SVG Export Plug-In . SVG Version: 6.00 Build 0)  -->
<svg version="1.1" id="Layer_1" xmlns="http://www.w3.org/2000/svg" xmlns:xlink="http://www.w3.org/1999/xlink" x="0px" y="0px"
	 viewBox="0 0 302.7 248" style="enable-background:new 0 0 302.7 248;" xml:space="preserve">
<g>
	<g>
		<path d="M73.8,37.1c12.2,12.6,29.3,31.4,40.8,43.2c7.6-2,13.9-3.7,20.2-5.2c2.6-0.6,5.4-0.7,8.1-0.9c3.8-0.2,7.7-0.4,11.5-0.4
			c9.6,0.1,19.1,1.6,28.2,4.8c4.4,1.6,8.6,3.6,12.7,5.8c3.1,1.7,6.1,3.7,8.9,6c2.4,1.9,4.5,4.3,6.5,6.6c1.8,2.1,3.5,4.3,4.8,6.7
			c2,3.7,2.9,7.9,3.4,12.1c0.5,5-0.7,9.8-3.3,14.1c-2.1,3.3-4.5,6.4-6.8,9.5c-3.3,4.4-6.8,8.7-10.2,13.1c-1.4,1.8-2.7,3.6-4.3,5.6
			c2,2,4.2,4.1,6.3,6.3c10.6,10.5,21.3,21.1,31.9,31.6c0.8,0.8,1.6,1.6,2.3,2.4c2.7,3,4.9,2.5,3,6.2c-0.7,1.4-3.7,4-4.8,5.2
			s-2.3,1.6-3.7,0.3c-3-2.8-6.1-5.5-9-8.4C168.2,150,116.1,98.4,64.1,46.7"/>
		<path d="M96,93.2c2.9,2.7,5.4,5.2,7.9,7.7c0.3,0.3,0.4,1.1,0.2,1.6c-1.4,2.9-3.2,5.6-4.2,8.5c-1.4,4.3-1.9,8.7,0.2,13.1
			c2.3,4.9,5.5,9.2,9,13.4c6.1,7.3,12.4,14.5,16.8,22.9c1.6,3.1,2.6,6.5,3.7,9.8c0.6,1.8,0.9,3.7,1.4,5.6c0.5,0,1.2,0,2,0
			c0-0.7,0-1.4,0-2c0-11.2,0-22.4,0-33.7c0-2.4,2.9-5.5,5.3-5.6c0.4,0,0.8,0.2,1.1,0.5c5.1,4.9,10.2,9.8,15.6,15.1
			c-2.9,0-5.6,0-8.3,0c0,8.7,0,17.1,0,25.7c3.4,0,6.9,0,10.5,0c0-7.7,0-15.4,0-23.5c2.5,2.4,4.6,4.5,6.8,6.5c2.2,2.2,5.3,4,6.5,6.6
			c1.1,2.6,0.3,6,0.3,9c0,0.4,0,0.9,0.1,1.4c0.7,0,1.3,0.1,2,0.1c0.5-2.3,1-4.5,1.5-7.1c0.8,0.8,1.4,1.3,2,1.8c3,2.9,6,5.8,9,8.7
			c1.5,1.4,1.5,2.2,0.1,3.7c-1.6,1.8-3.8,2.6-6.1,2.6c-18.3,0-36.5,0-54.8,0c-2.3,0-4.5-0.6-6-2.5c-0.6-0.7-1.3-1.7-1.3-2.6
			c0.1-4.5-1.2-8.8-2.8-12.9c-1.4-3.5-3.3-6.7-5.4-9.9s-4.4-6.2-6.8-9.2c-3.4-4.3-7.1-8.4-10.4-12.8c-2.1-2.8-4.1-5.7-5.4-8.9
			c-1.6-3.9-2.3-8.2-1.7-12.5c0.3-2.4,0.6-4.9,1.6-6.9c1.7-3.3,2.5-7.1,5.5-9.7C93.5,96.7,94.6,94.9,96,93.2z"/>
		<path d="M152.2,188.4c8.4,0,16.7-0.1,25.1,0.1c1.9,0,4,0.9,5.6,2c2.4,1.5,2.1,4-0.1,5.8c-1.7,1.4-3.3,2.3-5.6,1.5
			c-0.4-0.2-1,0-1.5,0c-15.7,0-31.3,0-47,0c-0.9,0-1.7,0.1-2.6,0.2c-2.1,0.4-5.7-1.6-6.3-3.6c-0.6-1.9,0.9-4.2,3.4-5.1
			c1.4-0.5,2.9-0.8,4.3-0.8C135.9,188.3,144.1,188.4,152.2,188.4z"/>
		<path d="M152.1,210.8c-7,0-14,0-21,0c-2.7,0-4.8-1.3-6.3-3.4c-0.5-0.7-0.3-2.6,0.3-3.3c1.7-1.9,3.8-3.1,6.7-3.1
			c13.5,0.1,27.1,0,40.6,0.1c1.8,0,3.7,0.8,5.3,1.7c2.3,1.3,2.3,3.9,0.4,5.8c-1.4,1.4-3.1,2.2-5.1,2.2
			C166,210.8,159,210.8,152.1,210.8z"/>
	</g>
</g>
</svg>
