<?xml version="1.0" encoding="utf-8"?>
<!-- Generator: Adobe Illustrator 27.1.1, SVG Export Plug-In . SVG Version: 6.00 Build 0)  -->
<svg version="1.1" id="Layer_1" xmlns="http://www.w3.org/2000/svg" xmlns:xlink="http://www.w3.org/1999/xlink" x="0px" y="0px"
	 viewBox="0 0 85.2 236.8" style="enable-background:new 0 0 85.2 236.8;" xml:space="preserve">
<style type="text/css">
	.st0{display:none;}
	.st1{display:inline;opacity:0.15;}
	.st2{fill:#545454;}
	.st3{fill:#3C3C3C;}
	.st4{display:inline;}
	.st5{fill:#202020;}
</style>
<g id="behind" class="st0">
	<g class="st1">
		<g>
			<path d="M-160.8,213.1c1,1.1,2.1,2.2,2.9,3.5c5.1,7.5,10.3,15.1,15.3,22.7c1,1.6,1.7,3.4,2.2,5.3c0.3,1-0.2,2.2-0.3,3.3
				c-0.5,0.1-0.9,0.2-1.4,0.3c-2.7-4.9-5.4-9.7-8.4-15c-9.6,3.9-18.8,7.5-28.1,11.3c1.5,2.4,3.3,4.6,4.3,7.1s1.2,5.3,1.8,8.1
				c9.4,2,10.7,10.7,10.6,21.3c6.9,5.8,8.1,13.5,7.4,22c-0.1,1.3,0.5,2.8,1.2,3.9c3.7,5.8,2.8,11.9,1.8,18.1c-0.2,1-1.3,1.7-2,2.6
				c-0.4,0-0.8-0.1-1.2-0.1c-0.2-1.1-0.6-2.1-0.5-3.2c0.1-3.6,0.8-7.1,0.6-10.7c-0.2-5-2.9-7.5-7.9-7.9c-0.1,0-0.2,0-0.4,0
				c-7.2-0.7-8.1-2.5-4.2-8.8c-0.8-1.1-1.7-2.3-2.6-3.5c-1.7-2.2-1.9-4.2,0.3-6.3c5.2-5.1,5.7-16.4,0.8-21.7c-0.9-1-2.8-1.8-4.1-1.7
				c-2.7,0.2-5.4,1-8.1,1.8c-4.3,1.2-6.1,0.1-7.9-3.9c-1-2.2-3-4.1-4-6.3c-0.8-1.8-1.5-4.1-1.1-5.9c1.6-6,1.3-8.2-2.8-13.7
				c-2.7,0-5.7,0-8.7,0c-3.6,0-6.3-1.4-7.4-5.1c-0.3-1.1-1-2.2-1.7-3.1c-2.1-2.9-2.6-5.7,0.4-8.1c0-1.4,0-2.5,0-4.1
				c-5.4-0.9-9.4,2.8-14.3,4c0-1.5,0-2.9,0-4.2c13.6-8.7,37.1-4.2,33.4,16.9c1.8,2.8,3.5,5.5,5.3,8.3c2.4,0.4,5.1,0.9,7.7,1.3
				c0.1,0.2,0.1,0.5,0.2,0.7c9.6-3.9,19.2-7.9,28.7-11.8c-2.3-6-7.8-10.2-9.3-16.3C-161.9,213.7-161.3,213.4-160.8,213.1z
				 M-199.1,225.8c-2.1,0.5-3.9,1-6.2,1.5c-1-2.1-2.4-3.9-2.6-5.9s0.6-4.1,1.1-6.6c-1.6-0.1-2.9-0.2-3.9-0.3c-0.6,3.3-1,6.1-1.6,9.7
				c1.1,1.9,2.6,4.6,4.2,7.4c3,0,6,0,9.1,0C-199.1,229.5-199.1,227.9-199.1,225.8z M-177.1,257.4c-3.9,0.9-6.4-0.8-9-3.4
				c-3.2-3.2-0.4-6.5-0.8-9.9c-0.9,0.1-1.7,0.1-2.3,0.2c-0.6,2.7-1.2,5.1-1.7,7.1c2.4,3.8,4.6,7.3,7.1,11.1c2.3-0.7,4.7-1.5,7.4-2.3
				C-176.8,259.2-176.9,258.4-177.1,257.4z M-162.9,284.5c-1.8,2.1-3.2,3.9-4.8,5.8c3.2,3,5.8,6.3,2.5,10.9c1.4,0.2,2.3,0.4,3.2,0.5
				c1,0.1,2.1,0,3.4,0c0.1-1.1,0.1-2.2,0.2-3.1c-5.2-3.2-5.2-7.9-2.4-11.8C-161.4,286.2-162.1,285.5-162.9,284.5z"/>
			<path d="M-51.1,296.7c0.8,1.1,1.3,1.8,1.8,2.5c1.7,2.8,1,4.8-2.3,5.7c-1.3,0.4-2.6,0.5-3.9,0.6c-4.9,0.5-7.6,2.8-7.8,7.6
				c-0.2,3.5,0.4,7.1,0.5,10.7c0,1.1-0.2,2.3-0.4,3.4c-0.6,0.1-1.2,0.2-1.8,0.2c-0.7-1.7-2-3.4-2.1-5.1c-0.3-5.7-1.1-11.5,3-16.5
				c0.6-0.8,0.4-2.2,0.6-3.4c0.6-4.7,0.6-9.5,1.9-14c0.8-2.8,3.3-5.2,5.4-8.3c0.9-7.6-0.9-17.3,11.2-20.6c-0.7-5.7,2.2-10.4,5.8-15
				c-9.6-3.8-18.7-7.5-28.3-11.4c-2.9,5.2-5.5,10.1-8.2,14.9c-0.4,0-0.8,0-1.2-0.1c-0.3-1-0.9-2.1-0.7-3.1c0.4-1.7,1-3.5,2-5
				c5.6-8.5,11.4-16.9,17.2-25.4c0.4-0.5,1-0.9,1.6-1.3c0.4,0.1,0.8,0.2,1.1,0.4c-0.4,1.3-0.4,2.8-1.1,3.9
				c-2.6,4.1-5.4,8.2-8.3,12.5c9.8,4.1,19.3,8,27.9,11.5c3.6-0.6,6.2-1.1,9-1.6c1.7-2.6,3.5-5.4,5.3-8.3
				c-3.6-20.8,19.2-25.2,32-17.6c0,1.3,0,2.7,0,4.1c-4.2-1.3-8.2-2.6-12.7-4c-0.2,2.2-0.3,3.3-0.4,4.7c3.6,2.7,1.8,5.3,0.5,8.7
				c-2.7,7.2-7.7,8.9-14.6,7.6c-0.4-0.1-0.7,0-1.1,0c-0.7,0.1-1.4,0.2-2.1,0.4c-3.7,3.9-4.8,8.3-2.7,13.2c1,2.6,0.4,4.5-1.2,6.6
				c-1.7,2.1-3,4.5-4.3,7c-1.5,2.9-3.6,3.8-7.3,2.8c-2.6-0.7-5.1-1.4-7.7-1.9s-4.4,0.8-5.7,3c-4,6.5-3.2,15.3,2.1,20.8
				c1.9,2,1.6,3.8,0.2,5.8C-49.1,294.2-50.1,295.4-51.1,296.7z M-19,231.7c3.3,0,6.2,0,9,0c1.7-3,3.2-5.8,4.1-7.4
				c-0.6-4.1-1-6.9-1.5-10c-1.3,0.3-2.6,0.5-4.2,0.9c1.7,4.6,2.3,8.6-1.9,12.1c-1.7-0.4-3.5-0.9-5.6-1.4
				C-19,227.8-19,229.5-19,231.7z M-27.1,251.3c-0.6-2.3-1.2-4.7-1.8-7.3c-0.8,0.1-1.6,0.2-2.3,0.3c1.4,10-0.8,13-9.8,13.4
				c-0.1,0.8-0.2,1.7-0.4,2.6c2.6,0.8,5,1.5,7.2,2.2C-31.8,258.7-29.6,255.2-27.1,251.3z M-55.2,284.6c-0.8,0.8-1.5,1.6-2.2,2.3
				c3.1,5.1,2.5,8.4-2.4,11.9c0.1,1,0.3,2.1,0.4,3.3c2.3-0.3,4.3-0.5,6.6-0.8c-3.7-4.9-0.5-7.9,2.2-11
				C-52.1,288.4-53.5,286.6-55.2,284.6z"/>
			<path d="M-117.7,129c1.5,0.6,2.8,1.1,4.4,1.6c1.1,3.4,2.2,7,3.3,10.6c0.6,0,1.3,0,1.9,0c1.1-3.5,2.2-6.9,3.3-10.6
				c1.3-0.5,2.7-1.1,4.8-1.9c0.4,1.5,1,2.9,1.1,4.4c0.6,6-1.7,11-5.7,15.3c-1.9,2-4.2,2.8-6.9,1.4
				C-117.7,146.7-121.2,135.3-117.7,129z"/>
			<path d="M-75.7,148.7c-6.6-1.4-10.7-5.6-14.5-10.9c0.7-0.9,1.3-1.6,2.1-2.6c2,1.5,3.7,2.7,5.7,4.3c-1.6-6.4-2.7-12.5-9.3-16.5
				c2.5-1.3,4-2.1,5.3-2.9C-78.1,122.6-71.7,139.1-75.7,148.7z"/>
			<path d="M-142.6,148c-3.6-8.6,2.4-24.7,10.6-28c1.4,0.6,3,1.3,4.9,2.3c-2.2,2.9-4.5,5.2-5.9,7.9s-1.8,5.8-2.8,9.4
				c2.1-1.7,3.7-2.9,5.5-4.4c0.9,0.7,1.6,1.4,2.2,1.9C-130.6,143.1-137.7,148.4-142.6,148z"/>
			<path d="M-113.5,294.2c0.4,8.6-1.3,16.8-6.3,24c-7.2,10.4-17.3,17.7-27.9,24.2c-1.6,1-3.6,1.4-5.5,1.7c-0.8,0.1-1.8-0.5-3.7-1.2
				c1.9-1.3,2.9-2.1,4-2.6c18.4-8.7,33.7-20,36.4-41.9c0.2-1.6,1-3.2,1.5-4.8C-114.5,293.8-114,294-113.5,294.2z"/>
			<path d="M-103.4,293.2c0.7,1.5,1.6,2.5,1.6,3.5c0.8,16.6,10.8,27.4,23.6,36.4c4.2,2.9,9,4.9,13.5,7.3c0.8,0.4,1.6,1,3.5,2.2
				c-1.9,0.8-2.9,1.6-3.8,1.5c-2-0.4-4.1-0.8-5.8-1.9c-9.8-6-19-12.9-26.1-22c-5.7-7.2-7.7-15.6-7.8-24.5c0-0.4,0-0.7,0.1-1.1
				C-104.6,294.4-104.3,294.2-103.4,293.2z"/>
			<path d="M-202,279.9c1.8,9.2,3.5,18.5-1.5,27.4c-0.8,1.4-2,2.7-3.3,3.7c-0.7,0.6-2.1,0.4-3.4,0c7.9-8.3,8.1-17.7,5.5-28.8
				c-4.1,2.8-7.8,5.2-11.5,7.8C-216.5,285-208.6,279.5-202,279.9z"/>
			<path d="M-8.5,311.7c-1.2-0.4-2.7-0.4-3.5-1.2c-4-3.7-5.6-8.8-5.8-13.9c-0.3-5.5,0.8-11.1,1.2-16.5c6-1.1,14.3,4.3,15,10.1
				c-4-2.7-7.6-5.2-11.8-8c-2.5,10.9-2.7,20.3,5.7,28.1C-8,310.8-8.2,311.2-8.5,311.7z"/>
			<path d="M-71.6,130.1c2.5,0.3,5,0.6,8.1,1c-1.6-2.1-2.8-3.8-4.4-6.1c2.2-0.5,3.6-0.8,6-1.3c2,3.2,4.1,6.5,6.3,10.1
				c-4.1,3.7-8.2,4-12.3,3.6c-1.4-2.2-2.5-4.1-3.7-6C-71.7,130.9-71.6,130.5-71.6,130.1z"/>
			<path d="M-146.4,131.2c-1.2,1.9-2.3,3.8-3.8,6.1c-3.9,0.6-7.9,0.1-12.3-3.3c2.1-3.5,4.1-7,6.2-10.3c2.3,0.5,3.8,0.8,6.2,1.2
				c-1.6,2.2-2.9,3.8-4.6,6c3.1-0.3,5.6-0.6,8.1-0.9C-146.5,130.5-146.4,130.9-146.4,131.2z"/>
			<path d="M-203.7,315.9c1.5-3.2,3.9-3.7,6.5-3.6c4.2,0.1,14.4,4.2,18,7.1c-1.9,5.5-14.2,12.4-18.8,9.8c5.1-2.9,9.8-5.6,15.4-8.8
				C-189.7,316.8-195.7,313.2-203.7,315.9z"/>
			<path d="M-38.9,319.5c6.9-6.6,20.5-9,24.6-3.8c-8-2.5-14.1,1-21.2,4.6c5.5,3.1,10.2,5.8,15.1,8.5
				C-23.8,332.1-36.2,325.6-38.9,319.5z"/>
			<path d="M-140.2,116.7c-1.9,0-3.7,0-5.5,0c-0.1,0.2-0.1,0.5-0.2,0.7c-1.2-1.1-2.5-2.1-3.8-3.2c0-1.8,0-3.6,0-4.8
				c2.7-1.6,4.9-3,7.6-4.6C-137.8,105.8-136.5,112.5-140.2,116.7z"/>
			<path d="M-68.4,109.5c0.1,1.1,0.1,2.8,0.2,4.4c-1.4,1.2-2.6,2.3-3.4,3.1c-2.2-0.2-4-0.3-6.4-0.6c-3.3-2.9-2.5-9.6,1.9-11.9
				C-73.8,106.1-71.5,107.6-68.4,109.5z"/>
			<path d="M-114.6,122.2c1.8-2.2,3.6-4.5,5.7-7c2.1,2.7,3.7,4.9,5.3,7c-0.6,2.8-2.7,2.9-4.8,2.9
				C-110.7,125-113.4,125.5-114.6,122.2z"/>
			<path d="M-189.2,310.5c0.6-3.8,1.1-6.9,1.7-10.3c-2.9-0.3-5.5-0.5-8.1-0.7c0-0.5,0.1-1,0.1-1.5c3.2,0,6.5,0,9.7,0
				C-183.5,302-184.7,308.4-189.2,310.5z"/>
			<path d="M-32.4,298c3.4,0,6.6,0,9.9,0c0,0.5,0,1,0,1.5c-2.5,0.2-5,0.4-8,0.6c0.5,3.3,1,6.6,1.5,10.5
				C-33.3,308.4-34.6,302.3-32.4,298z"/>
			<path d="M-225,301.9c-1.3-5.6-2.5-11-3.8-16.7C-223,289-221.1,298.4-225,301.9z"/>
			<path d="M9.1,287.2c-0.6,4.9-1.2,9.7-1.8,14.6C3.3,300,3.8,293.1,9.1,287.2z"/>
		</g>
	</g>
	<g class="st1">
		<g>
			<path class="st2" d="M1.5,183.6c3.8,2.5,8.2,4.1,8.9,9.4c-1-0.8-2.1-1.6-3-2.4c-6.2-5.9-14-6.4-19.1-1.3
				c-4.4,4.4-4.5,10.9-0.2,15.6c0.6,0.6,0.8,1.6,1.2,2.3c3.7,0.4,6.6-0.1,8.5-3.8c1-2.1,3.1-3.6,4.7-5.4C1,195.2-1,193.5-4,194.5
				c-1.4,0.4-2.4,2-3.5,3c0.2,0.3,0.4,0.7,0.6,1c0.8,0.1,1.6,0.2,2.3,0.4c0.8,0.3,1.5,0.8,2.3,1.1c-0.7,0.7-1.4,1.7-2.2,1.9
				c-3.3,0.9-5.8-1.6-5.3-4.9c0.7-4.8,6.8-7.1,11.2-4.2c1.3,0.9,2.3,2.1,3.5,3.2c1.9-0.2,3.9-0.4,6.5-0.7c-4.7,3.9-8.6,7.2-13,10.9
				c5.3,2.3,10.7,2.4,12.8,7.5c-5.8-2.5-11.6-4.1-17.9-3.8c-9.5,0.4-14.2,4.8-14.7,14.2c-0.1,1.2,0,2.4-0.1,3.6
				c-0.7,6.1,1,10.7,7.4,13c2.2,0.8,4,2.6,5.6,3.7c2.1-1,4-1.8,5.9-2.8c0.5-0.2,0.8-0.8,1-1.3c2.1-4.9,6.8-6.1,11.1-7.9
				c0.3-0.1,0.9,0.2,1.8,1.2c-1.9,1.2-3.8,2.4-5.8,3.5c-4.7,2.8-4.8,2.9-3.4,7.9c1.9,6.9,0.3,10.6-6.6,14.4
				c-4.1,2.3-7.2,5.2-8.7,9.8c2.1,2.3,3.5,1.9,5-0.8c1.3-2.2,2.7-4.8,4.8-6.1c6.4-4,9.1-9.8,10-16.9c0.6-4.5,2.4-6.1,8-7.3
				c-2.3,2.2-4,3.9-5.8,5.6c0.3,0.3,0.5,0.5,0.8,0.8c0.4-0.4,0.7-1,1.1-1.3c0.8-0.5,2-1.5,2.6-1.2c0.7,0.3,1.4,1.6,1.4,2.5
				c0,2.4-0.1,4.9-0.8,7.1c-1.6,4.9-3.5,9.6-5.3,14.4c3.7,1.7,3.6,2.2,1,4.9c-2.9,3-5.7,6.1-8,9.6c-4.1,6.3-3.4,12.9,0.6,18.9
				c2.7,4.1,6,7.7,9.2,11.5c0.7,0.9,2,1.3,3.1,1.9c-0.5,0.2-1,0.5-1.5,0.7c-0.5,1.6-1.1,3.1-1.4,4.8c-0.7,3.4-0.9,6.9-1.9,10.1
				c-1.8,5.3-7.4,6.6-12.1,3.4c-1.5-1.1-3.6-1.5-5.5-2.1c-2.4-0.8-4.8-1.5-7.2-1.9c-1.8-0.3-4.2-0.6-5.5,0.2c-2.6,1.7-5.1,4-7,6.5
				c-3,4-5,8.5-11.4,8.7c-3.2,0.1-6.2,2.4-7.2,6.4c5.1,1.3,10.8,0.1,15.2,3.3c-0.1,0.6-0.2,1.1-0.2,1.7c-8.6-0.4-17.4,0.1-25.8-1.4
				c-14.2-2.5-27.1-8.8-39-16.9c-5.1-3.4-9.4-7.6-12-13.2c-0.4-0.9-1.1-1.8-1.9-2.9c-0.6,0.8-1.2,1.2-1.5,1.8
				c-3.8,8.7-11.1,14.2-19.1,18.5c-11,6-22.4,11.8-35.1,13.2c-7.6,0.8-15.4,0.1-23.6,0.1c1.3-3.5,4.6-2.5,7-3
				c2.6-0.6,5.2-0.7,7.9-1.1c-0.4-3.4-3.5-6.6-7.6-6.7c-4.5-0.1-6.6-2.7-8.8-5.8c-2-2.8-4.1-5.7-6.6-8s-5.7-3.1-8.9-0.6
				c-0.9,0.7-2.3,0.8-3.4,0.9c-3.2,0.3-6.2,0.6-9,2.9c-3.6,3-9.2,1.1-10.7-3.3c-1.2-3.5-1.4-7.2-2.2-10.8c-0.3-1.5-0.8-2.9-1.1-4.4
				c-0.8-0.4-1.5-0.8-2.3-1.3c1.2-0.5,2.8-0.8,3.7-1.7c4.9-4.6,9-9.6,11.4-16c2.8-7.7-0.5-13.7-5-19.5c-1.4-1.8-3.3-3.2-4.9-4.8
				c-2.4-2.3-2.3-3,0.4-4c0-2,0.1-3.7,0-5.4c0-0.6-0.4-1.4-0.8-1.9c-3.4-4-4.2-8.8-4.3-13.8c0-1.2,0.9-2.4,1.3-3.7
				c1,0.7,2,1.4,3,2.1c0.2,0.2,0.2,0.6,0.3,1c0.4-0.4,0.8-0.8,1.2-1.1c-1.8-1.7-3.6-3.5-5.5-5.3c4.6,0.3,6.7,2.3,7.7,6.7
				c0.8,3.2,1.4,6.6,3,9.4c1.4,2.6,4,4.5,6,6.8c2.7,3,5.3,6.1,8.2,9.4c0.6-0.3,1.6-0.8,2.8-1.3c-1.4-4.3-3.8-7.3-7.6-9.5
				c-8.5-4.7-9.7-7.4-7.3-16.6c0.7-2.6,0-4.3-2.3-5.6s-4.5-2.8-6.7-4.2c-0.1-0.1-0.1-0.4-0.2-1.3c1.1,0.1,2.2-0.1,2.9,0.3
				c3.7,2.1,8.3,3.1,9.8,7.9c0.2,0.6,1.6,0.7,2.3,1.1c1.3,0.8,2.5,1.7,3.9,2.6c3.5-2.1,7.4-4.1,10.8-6.6c1.3-1,2.3-3.2,2.4-4.9
				c0.3-4,0.3-8.2-0.2-12.1c-0.8-5.3-3.9-8.9-9.4-10.2c-7.9-1.8-15.4-0.6-22.3,3.6c-0.9-3.1,1.8-4.9,11.5-7.4
				c-3-4.6-6.3-8.6-12.3-9.8c0.2-0.5,0.4-1,0.6-1.5c1.9,0.1,3.9,0.3,6.2,0.4c2.5-3.4,5.8-5.6,10.6-3.7c2.8,1.1,4.3,3.5,3.7,6.2
				c-0.3,1.4-2.3,2.8-3.9,3.3c-0.8,0.3-2.3-1-3.5-1.6c1.1-0.5,2.1-1,3.1-1.4c0.4-0.2,0.9-0.2,2.4-0.6c-1.3-1.6-2-3.1-3.2-3.7
				c-2.5-1.3-4.5-0.2-7,3.1c2.2,2.9,4.1,6.1,6.8,8.6c1.2,1.1,3.8,0.9,5.7,1.2c5.3-5.6,7.5-11.8,1.9-17.6c-8.4-8.7-15.6-2.6-22.8,3
				c0.9-5.2,5.4-6.8,9.1-9.2c-1-5.1-5-7.2-9-8.4c2.9-1.9,5.3-4,8.1-5c2.1-0.7,5.1-0.6,7.1,0.3c2.7,1.3,3.2,4.4,2.7,7.2
				c-0.1,0.7-1.2,1.2-1.8,1.8c-0.4-0.7-1.2-1.5-1-2.1c0.5-2.4,0.3-4.8-2.2-5.2c-1.8-0.3-4,0.9-6.3,1.6c2.3,3.5,3.5,6.7,5.8,8.4
				c1.9,1.4,5.4,1.9,7.9,1.3c1.7-0.4,3.4-3.1,4-5.1c1.7-5.6-0.8-11-6.2-14.4c-3.3-2.1-8.2-1.2-12.8,2.2c-1.2,0.9-2.4,1.6-4,1.9
				c2.4-4.3,6-7,11-7.7c6.5-0.9,10.5,3,13.3,7.7c3.6,6,2.5,12.2-2.3,17.4c7,9.5,7.5,16.6,1.4,22.2c13.5,5.9,10.8,17.5,10.6,29
				c8.7-1.4,16.9,0,21.1,8.7c3.7,7.7,3.7,15.9-0.5,23.7c0.2,0.2,0.3,0.3,0.4,0.3c5,0.4,10.1,0.4,13.4,5c4.6,6.4,9,12.8,8.8,21.1
				c-0.1,5.2-2.6,9.2-6.7,12.2c-2.9,2.1-6.2,3.7-9.4,5.6c1.8,2,4,4.2,5.9,6.6c1.3,1.7,2.6,3.5,3.4,5.5c1.2,3.2,3.1,3.3,5.6,1.9
				c8.3-4.6,16.1-10.1,21.1-18.2c2.6-4.1,3.5-9.2,5.6-15c-3.2,1.1-5.3,1.7-7.4,2.5c-1.9,0.8-3.2,0.3-4.1-1.6
				c-1.8-3.9-3.8-7.6-5.1-11.7c-0.3-1,1.5-3.5,2.8-3.9c4.1-1.4,8.4-2.1,12.7-3.1c1.4-0.3,2.8-0.6,4.2-0.9c0.1-0.4,0.3-0.8,0.4-1.1
				c-1.7-0.8-3.4-2.1-5.2-2.3c-11.7-1.4-18.6-15.4-12.1-24.7c1.4-2,2.9-3.5,5.9-1.7c-1.3,1.1-2.6,2-3.4,3.1
				c-3.6,5.3-1.7,13.9,3.9,17.9c5.7,4,11.9,2.9,16.5-3c2.9-3.7,2.6-5.2-1.4-7.9c-2.2,1.9-4.1,4-6.4,5.4c-1.1,0.7-3.1,0.3-4.5-0.1
				c-2.6-0.6-4.4-2.1-4.1-5.1c0.2-1.9,0.6-3.8,3.6-3.8c-0.1,0.8-0.4,1.3-0.3,1.9c0.1,1.4-0.1,3.7,0.5,4c1.5,0.6,3.6,0.8,5,0.2
				c2.9-1.2,3.5-4.7,2-7.6c-0.7-1.4-1.2-2.9-1.1-4.6c2.7,2.8,5.1,6,8.2,8.2c4.4,3.1,5.3,7.1,4.9,11.9c-0.3,3.2-1.5,3.5-4.6,3
				c-2-0.3-4.2,0.9-6.4,1.5c-0.1,0.4-0.1,0.8-0.2,1.3c2.9,1.7,5.8,3.4,9.6,5.6c-2.3,1-3.8,1.9-5.4,2.2c-6.8,1.6-13.6,3-21.1,4.7
				c1.4,3.7,2.6,6.6,3.7,9.5c3.9-1,7.4-2.1,10.9-2.9c3.4-0.8,6.7-2.4,10.2-1.2c-1,3.5-2.2,6.4-2.6,9.4c-1.2,9.7-6.6,17.1-13.3,23.7
				c-6.4,6.4-13.9,11.8-22.6,14.8c-4.6,1.6-5.3,4.4-5.2,8.5c10.3-2.5,19.5-6.8,27.4-13.5c6.6-5.6,13.1-11.3,17.1-19.3
				c1.5-3.1,2.6-0.4,3.8,0.7c1.2-1.9,2.3-3.3,4-0.4c8.3,14,20.4,23.7,35.6,29.8c2.5,1,5.1,1.7,7.6,2.5c0.2,0.1,0.5,0,0.7,0
				c0.7-5.1,0.1-6.2-4.3-8.1c-10.9-4.6-20.2-11.1-27.7-20.3c-4.5-5.5-7.6-11.5-8.7-18.6c-0.4-3-1.6-5.9-2.6-9.6
				c7.2,0,13.8,2.5,21,4.6c1.2-2.8,2.4-5.7,3.9-9.5c-7.5-1.6-14.4-3.1-21.3-4.7c-1.5-0.4-2.9-1.1-5.4-2.1c3.9-2.2,6.8-3.9,10.2-5.9
				c-3.1-1.3-4.8-4.5-8.3-2.3c-0.5,0.3-3-1-3-1.5c-0.1-2.6,0.6-5.2,0.6-7.8c-0.2-4.3,3.9-5,6-7.4c2-2.2,3.9-4.5,6.7-6.4
				c-0.7,1.7-1.1,3.6-2.2,5c-2.1,2.6-0.3,4.6,1.2,5.8c1.4,1.1,4.3,1.9,5.7,1.2c1.2-0.6,1.2-3.5,2-6.1c0.7,0.9,1.9,2,2.3,3.2
				c0.8,3.2-1.2,4.9-4,5.8c-4.3,1.4-7.6-0.5-10.2-5.7c-5,2.9-5.3,4.5-1.6,8.8c4.6,5.5,11,6.3,16.4,2.1c5.5-4.3,7.2-13.1,3.3-18
				c-0.8-1-1.9-1.6-3.4-2.8c2.9-1.6,4.5-0.5,6,1.5c6.7,9.1-0.1,23.5-11.7,24.9c-1.9,0.2-3.6,1.4-5.5,2.1c0.1,0.4,0.2,0.8,0.3,1.1
				c5,1.1,10.1,2.2,15.1,3.5c5.8,1.5,6,2.5,3.1,7.8c-1.3,2.4-2.1,5.1-3.1,7.6c-1,2.7-2.6,3.5-5.3,2.2c-1.7-0.8-3.6-1.2-5.9-2
				c1.8,7.9,3.3,15.3,9.4,20.5c5.1,4.3,10.6,8.4,16.1,12.1c3.6,2.4,4.4,1.8,6.3-1.9c1.1-2.2,2.6-4.3,4.1-6.3c1.6-2,3.4-3.6,4.9-5.2
				c-3.5-2.2-7.2-4-10.3-6.5c-6-4.9-7.5-12.1-4.5-19.2c1.3-3,2.8-5.9,4.2-8.7c3.5-6.7,8.9-10.3,17.3-9.2c-4.4-8.2-4.6-16.4-0.9-24.1
				c4.1-8.8,12.3-10.4,21.2-8.9c-0.1-11.2-3-23,10.5-28.9c-6-6.5-5.5-13.9,1.5-22c-6.5-10.7-5-19.3,4.5-24.4
				c5.6-3,14.6,0.2,18.3,7.4c-1.8-0.9-2.9-1.4-3.9-2c-2-1.1-3.8-2.6-5.9-3.3c-5.9-1.9-8.6,0-13.1,6.3c-2.6,3.6-1.3,9.8,2,12.8
				c1.3,1.2,8.6,0.8,9.6-0.6c1.6-2.3,3.1-4.7,4.9-7.4c-1.3-2-3.1-3.6-5.9-2.6c-2.3,0.8-2.6,2.8-2.2,5.1c0.1,0.7-0.5,1.6-0.7,2.4
				c-0.7-0.6-2.2-1.4-2.1-1.9c0.6-2.4,0.9-5.5,2.5-7c1.5-1.3,4.9-1.4,6.9-0.7c2.9,1,5.4,3.2,8.6,5.3C6.3,176.2,2.9,178.6,1.5,183.6z
				 M-185.7,273.3c9.3-3.5,11.7-10.7,10.3-21c-0.9-6.5-5.3-11.9-10.9-12.8c-8.1-1.4-20.1,2.8-22.9,8.2c4.8,0,7.6,2.6,9.3,6.8
				c0.3,0.7,0.9,1.4,1.6,1.8c3.1,1.4,4.2,4,4.6,7.1c0.2,1.1,0.9,2.2,1.7,3.1C-190.1,268.7-188.1,270.7-185.7,273.3z M-33.7,273.7
				c0.9-1.6,1.3-3.4,2.5-4.4c3-2.5,5.4-4.9,5.8-9.1c0.1-1.4,2.2-2.6,3.5-3.8c0.5-0.5,1.4-0.8,1.6-1.3c1.7-4.5,4.5-7.4,10-7.9
				c-2.6-2.2-5.1-4.2-7.9-5.4c-6-2.6-12.3-4.1-18.5-1.1c-8.1,3.8-8.3,11.4-8.1,18.8C-44.6,266.8-40,270.9-33.7,273.7z M-37,276.3
				c-5-3.6-13.4-4.6-17.1-1.4c-5.7,4.9-9.6,11.2-10.6,18.6c-1,8,5.7,15,14.9,16.8c2.3-6.7,3-13.9,7.1-20c0.2-0.2,0.1-0.7,0-1
				C-43.9,283.7-41.1,279.9-37,276.3z M-169.7,310.6c2.4-1.2,5.1-2.4,7.6-4c6.4-4.3,8.8-10.8,6-17c-1.6-3.7-3.6-7.3-5.9-10.6
				c-4.8-7-13.8-8.1-20.2-3.2c1.7,3.3,4.7,6.5,4.7,9.7c0.1,3.6,1.8,6.6,2.4,9.9C-174.2,300.5-171.6,305.3-169.7,310.6z M-20.6,268.8
				c-7.8,13.5-0.3,34.9,7.4,41.7c6-5.4,12.4-3.1,19.4-0.1c-2.5-3.1-4.4-5.6-6.5-8.2c-0.6,0.9-1.2,1.7-1.7,2.5
				c-7.5-5.8-10.2-10.9-7.6-15c1.7,1.8,3.3,3.5,5.1,5.4c0.3-4.1,0.2-7.7,1-11c0.6-2.6,0.3-4.6-1.8-5.9
				C-10.4,274.9-15.5,271.9-20.6,268.8z M-225.7,309.8c6.7-2.8,13.1-4.4,19.2,0.7c8.4-9.2,14.5-28.5,7.3-41.6
				c-4.9,2.8-9.8,5.5-14.6,8.4c-2.7,1.7-3.6,4-2.5,7.4c0.8,2.4,0.3,5.1,0.4,7.8c0,0.7,0,1.4,0,2.2c0.4,0.2,0.8,0.5,1.2,0.7
				c1.4-2,2.8-4,4.4-6.3c2.1,5.8-3.7,15.9-8,15.5c-0.4-0.7-0.8-1.4-1.3-2.3C-221.7,304.8-223.7,307.3-225.7,309.8z M-202.5,324
				c2.7,1.3,5.8,2,7.7,3.9c3.1,2.9,5.6,1.9,8.2-0.2c2.6-2.1,5.2-4.4,7.5-6.8c1.8-1.9,3.3-4.1,4.8-6.2c1.1-1.6,0.5-2.7-1.2-3.3
				c-5.9-2.2-11.7-4.6-17.7-6.6c-1.7-0.5-4.4-0.3-5.7,0.7c-2.1,1.7-3.4,4.3-4.8,6.7c-0.4,0.7-0.5,1.8-0.2,2.6
				c0.2,0.4,1.4,0.5,2.2,0.6c1.6,0.1,3.2,0,4.7,0.4c0.9,0.2,1.7,1,2.6,1.6c-0.5,0.7-0.9,1.7-1.6,2.2
				C-198.2,321.2-200.5,322.6-202.5,324z M-17.7,323.8c-2-1.4-4.5-3-6.8-4.8c-1.6-1.2-1.4-2.6,0.6-3.1c1.7-0.5,3.6-0.4,5.4-0.6
				c0.9-0.1,2.4-0.2,2.5-0.6c0.2-0.9,0-2.1-0.5-2.9c-0.9-1.5-2.4-2.8-3.1-4.4c-1.5-3.5-4.3-3.7-7.2-2.7c-6,2-11.8,4.4-17.6,6.6
				c-1.7,0.7-2.1,1.7-1.1,3.4c3.6,6.3,9.3,10.5,15.2,14.5c0.8,0.5,2.7,0.1,3.8-0.4C-23.6,327.3-20.7,325.5-17.7,323.8z M-16.5,268.4
				c2-6,6-9.5,11.2-12.1c3.1-1.6,5.5-4.1,4.7-8c-0.3-1.5-1.3-2.8-2-4.3c-1.2,1.2-3,2.1-3.4,3.5c-0.7,2.5-2,3.2-4.4,3
				c-3.6-0.4-5.7,1.6-6.8,4.7c-0.7,2-1.4,3.5-3.8,4.3c-1.1,0.3-1.8,2.6-2.1,4.1c-0.1,0.6,1.3,1.6,2.1,2.2
				C-19.8,266.6-18.4,267.3-16.5,268.4z M-203.5,268.4c1.8-1.1,3.1-1.6,4.1-2.4c1-0.9,2.7-2.2,2.5-3c-0.4-1.5-1.8-2.7-2.8-4
				c-0.9-1.1-2.1-2.1-2.7-3.4c-1.2-2.5-2.4-5.2-5.5-5c-3.8,0.2-5.8-1-6.7-4.6c-0.2-0.8-1.7-1.4-2.6-2c-0.7,0.9-1.6,1.7-1.9,2.7
				c-1.2,4-0.3,6.8,3.7,9.1C-210.1,258.7-205.4,262-203.5,268.4z M-22.7,301.2c-0.9-3-1.9-6.5-3.1-9.8c-0.3-0.8-1.8-1.7-2.5-1.6
				c-4.4,0.7-8.7,1.7-13.5,2.6c1.2,5,2.2,9.2,3.3,13.5C-33.3,304.4-28.3,302.9-22.7,301.2z M-193.5,289c-1.5,5-2.7,8.9-3.7,12.2
				c5.5,1.7,10.5,3.2,15.9,4.8c1-4.3,2.1-8.6,3.2-13.4C-183.5,291.3-188.3,290.2-193.5,289z M-8.9,326.2c-1.3-5-0.5-8.1,2.2-9.5
				c2.6-1.3,7.2-0.5,9.1,1.6c2.7,3,2.3,5-2.6,12.1c2.1-0.1,5.2,0,5.9-1.2c1.5-2.9,2.9-6.6,2.6-9.8c-0.5-5.8-8.6-10.1-15.3-9.1
				c-4.4,0.7-7.9,6.9-7,12.6C-13.6,325.6-12.1,326.9-8.9,326.2z M-211.4,327.2c2.1-1,4.4-1.5,4.5-2.3c0.4-3,0.8-6.2-0.1-9
				c-1-2.9-3.1-5.6-7.1-5.7c-10.7-0.4-16.5,7-13,16.8c1.3,3.7,3.2,4.4,7.7,2.7c-3.7-3.1-7.2-6.4-3.1-11.4c1.8-2.1,6.5-2.9,9.1-1.6
				C-210.6,318.1-209.8,321.3-211.4,327.2z M-160.6,329.9c-1.9-6.8-5.7-11.1-10.5-15c-2,2.3-3,4.1-1.6,7c1.6,3.4,0.7,6.5-2.4,8.9
				c-0.6,0.5-1.2,1.4-1.4,2.2c-0.4,2.6-0.5,5.2-0.8,8.1c2.7,1.8,4.9,1.3,4.6-1.9c-0.5-4.5,3.1-6.7,4-10.1
				C-166,329.2-163.6,329.5-160.6,329.9z M-42.6,340.9c-0.4-2.8-0.6-5.1-1-7.3c-0.2-1-0.5-2.3-1.2-2.9c-3.2-2.6-3.9-5.8-2.3-9.3
				c1.4-2.9,0-4.6-1.9-6.6c-4.6,4.1-8.5,8.2-10.3,15c3-0.3,5.5-0.6,8.1-0.9c1.2,3.6,4.4,6.1,4,10.4
				C-47.5,342.4-45.4,342.8-42.6,340.9z M-180,289c0.9-5.3-1.9-10.4-5.8-10.1c-3.2,0.2-3.8-1.1-3.6-3.7c0.2-3.6-1.6-6-6.1-7.4
				c1.1,6.7,2.1,12.7,3.1,18.8C-188.4,287.4-184.3,288.2-180,289z M-24.5,268c-4.9,1.8-5.9,3.1-6.1,7.4c-0.1,1.6,0.4,3.4-2.3,3.6
				c-5.6,0.4-8.3,4.3-7,10c4.2-0.8,8.4-1.6,12.4-2.4C-26.5,280.5-25.5,274.5-24.5,268z M-189.4,333.9c0.7,1,1.6,2.1,2.3,3.3
				c1.4,2.2,3,2.6,5.5,1.5c2.6-1.1,3.2-2.8,2.5-5.1c-0.8-2.4-0.1-3.7,2.1-4.9c3.3-1.8,3.7-3.9,1.9-7.6
				C-179.9,325.3-184.5,329.4-189.4,333.9z M-45.2,320.8c-1.1,3.6-1,6.3,2,7.8c2.6,1.3,3.2,2.9,2.3,5.5c-0.6,2,0,3.7,2.2,4.6
				s4.1,1.4,5.6-1.1c0.8-1.4,1.8-2.7,2.5-3.6C-35.5,329.4-40.1,325.3-45.2,320.8z M-167.2,331.5c-1,2.3-1.9,4.3-2.7,6.3
				c-0.8,2.2-1.5,4.4-2.4,7c2.9,5.3,3.4,5.5,8.4,2.4c-2.8-3.1-5.3-6.4-0.9-10.3c1.3,0.6,2.5,1.3,4.3,2.1c0-2.6,0-4.8,0-6.9
				C-162.8,331.9-164.8,331.7-167.2,331.5z M-55.3,336.9c4.7,4.1,1.5,7.4-0.9,10.6c5.6,2.5,5.6,2.5,8.5-2.8c-1.7-4.5-3.4-8.9-5-13.2
				c-2.6,0.3-4.8,0.5-7.3,0.8c0.1,2.3,0.3,4.4,0.4,7C-57.6,338.2-56.5,337.5-55.3,336.9z M-215.1,318.9c-3.6,0.1-5.9,1-5.6,3.8
				c0.2,1.5,2.2,2.7,3.3,4.1c1.4-1.6,3.1-3,4-4.8C-213,321.3-214.7,319.7-215.1,318.9z M-3.5,317.3c-1.6,2.2-3.5,3.7-3.2,4.4
				c0.8,1.9,2.4,3.3,3.7,5c1.3-1.4,3.5-2.7,3.5-4.1C0.6,321.2-1.5,319.7-3.5,317.3z M-173.7,308.5c-0.8-3.4-1.5-6.5-2.3-9.9
				C-179.7,306-179.3,307.7-173.7,308.5z M-46.4,308.5c5.5-0.6,6.3-4.1,2.3-9.4C-44.8,302.1-45.5,305.2-46.4,308.5z"/>
			<path class="st2" d="M-48.4,114.5c1.5-1.2,2.9-2.5,4.4-3.5c7.6-5.3,11-15.5,7.7-24.1c-0.6,2.8-1,5.2-1.5,7.5
				c-1.2,6.2-5.9,9.7-10.9,12.8c-1,0.6-3.7,0.1-4.7-0.9c-1.7-1.6-3.2-3.6-2.1-6.7c1.2-3.3,1.9-6.8,2.3-10.3c0.4-2.8-1.2-4.8-4.3-5.3
				c-2.6-0.4-6.7,1.7-7.6,3.9c-3.3,8.1-13.2,14-21.5,13.8c-10.2-0.3-18-5.5-21-14.2c-0.6-1.7-1.2-3.3-2.2-6c-1,2.4-1.8,3.8-2.2,5.3
				c-4.9,16.3-26.9,19.7-38.1,7.8c-2-2.1-2.8-5.3-4.9-7.2c-2-1.7-5-2.9-7.6-3.1c-3-0.2-4.3,2.6-3.9,5.4c0.4,3.2,0.9,6.6,2.2,9.6
				c1.4,3.3-0.3,5.3-2.1,7.3c-1.9,2.2-3.9,1.2-6.1-0.2c-6.6-4.3-10.1-10.1-10.3-17.9c0-0.4-0.3-0.8-0.8-2
				c-3.5,13.2,2.7,21.5,12.4,28.5c-7.3,0.2-10.8,4.3-13.6,9.8c4.8,0.7,9.2,2.5,13.1-1.7c0.7-0.8,2.2-0.8,3.4-1.2
				c0.2,0.3,0.4,0.7,0.5,1c-1.8,1.2-4.1,2.1-5.1,3.8c-0.9,1.6-0.4,4-0.5,6.2c2.2-0.8,4-1.4,5.8-1.9c0.4,0.3,0.7,0.6,1.1,0.9
				c-4.5,2.3-5,5.8-4.1,9.8c2.7,0.4,5.4,0.9,8.2,1.3c-0.1,0.5-0.1,0.9-0.2,1.4c-1.3-0.1-2.5-0.3-3.8-0.5c-4.1-0.6-7.6,1.4-8.2,4.6
				c-0.4,2.2,0.1,3.8,2.6,4.3c1.7,0.3,3.4,0.5,5,0.9c1,0.3,1.9,0.9,2.9,1.4c-1.1,0.5-2.2,1.4-3.2,1.3c-2.6-0.3-5.2-0.9-7.8-1.6
				c-1.6-0.4-3.1-1.2-4.7-1.9c-2,4-0.4,10.1,3.1,13.4c1.1,1.1,2.1,3,1.9,4.3c-0.2,1.3-1.9,3.3-3,3.4c-1.9,0.2-4.4,1.1-6-1.7
				c-5.4-9-8.3-19-11.6-28.8c-1.3-4.1-2.5-8.3-3-12.5c-0.7-5.2-1.6-10.6-0.7-15.6c0.8-4.7,4.7-8.2,9.3-10.3c0.5-0.2,1.6,0,1.6,0.1
				c0.2,0.8,0.3,1.8,0.1,2.6c-1.4,4.8-1.2,9.3,1.2,13.6c3.1-2.9,6.1-5.6,9.3-8.5c-8.3-7.8-12.4-17.5-6.9-28.8
				c6.2-12.6,16.6-17.5,30.7-12.7c0.9-3.4,1.8-7,5.5-6.6c2.4,0.3,4.5,2.7,7,4.4c2.3-0.6,5.4-1.1,8.5-2.1c1.6-0.5,3.1-1.7,4.1-2.9
				c2.2-2.6,2.9-2.7,4.8,0.1c0.3,0.4,0.5,0.8,0.7,1.2c2.2,3.7,3.3,3.9,6.1,0.7c2.4-2.7,5.4-4,8.7-3.2c2.3,0.6,4.5,2,6.4,3.5
				c2.9,2.4,3.8,2.5,5.8-0.8c0.4-0.6,0.8-1.2,1.1-1.8c1.4-2.4,3.1-2.4,4.3,0c1.3,2.5,3.3,3.1,5.9,3.5c2.7,0.4,5.2,1.4,6.9,1.9
				c2.6-1.7,4.7-4.2,7.1-4.5c3.7-0.4,4.6,3.2,5.5,6.6C-50.5,66.3-39.9,72-34,85.3c4.7,10.6,0.7,20-7.6,27.4c3.1,2.8,6.1,5.6,9.3,8.5
				c2.3-4,2.5-8.3,1.4-12.9c-0.2-1.1-0.2-2.2-0.2-3.3c1.2,0.3,2.6,0.3,3.6,0.9c7.8,4.5,8.9,11.8,7.7,19.5c-1.9,11.3-4.6,22.4-9.4,33
				c-2,4.6-4.2,9.1-6.2,13.6c-1.3,2.9-4,1.9-6,1.7c-1.2-0.1-2.9-2.1-3-3.4c-0.2-1.4,0.8-3.3,1.9-4.3c3.3-3.2,4.9-8.8,3.3-13.5
				c-2,0.8-3.9,1.8-5.9,2.3c-2.4,0.6-4.9,1.1-7.4,1.3c-0.8,0.1-1.6-0.9-2.4-1.3c0.8-0.5,1.6-1.1,2.5-1.4c1.6-0.4,3.4-0.3,5-0.9
				c1.2-0.4,2.9-1.6,2.9-2.5c0-1.6-0.6-3.9-1.8-4.6c-1.9-1.1-4.4-1.4-6.7-1.7c-1.1-0.2-2.2,0.3-3.3,0.6c-0.1-0.5-0.2-1-0.3-1.5
				c2.7-0.5,5.4-0.9,8.2-1.4c0.3-5.3,0.3-5.3-3.1-10.5c1.7,0.5,3.4,1,5.5,1.7c0-2,0.7-4.4-0.2-6c-0.9-1.6-3.3-2.5-5-3.7
				c0.1-0.3,0.2-0.7,0.4-1.1c1.2,0.3,2.8,0.3,3.5,1c3.9,4.2,8.3,2.3,13.1,1.7C-37.8,119.3-41.2,115.2-48.4,114.5z M-113.3,79.2
				c-2.7,0.9-6.2,1.1-7.3,2.8c-2.1,3.2-4.5,4.2-7.5,3.1c-1.6-0.6-2.6-3.2-4.3-5.5c-6.4,2.3-14.1,4.3-18.4,11.7
				c6.8,8.2,16.9,10.5,26.6,6.7C-118.7,95.9-112.1,85.5-113.3,79.2z M-106.7,79.7c-1.4,5.4,5.3,16.3,11.1,18.4
				c9.9,3.6,20.6,1.1,26.3-7c-4.3-7.5-12.1-9.2-18.5-11.6c-1.5,2.4-2.3,5-3.6,5.4c-2,0.5-5.7,0.1-6.5-1.2
				C-100,80-103.3,80.4-106.7,79.7z M-119.8,77.4c3.1-0.8,6.4-2.4,9.8-2.4c3.4,0,6.9,1.6,9.8,2.4c2.1-1.8,4.1-3.5,6.3-5.4
				c-4.7-1.1-9.4-2.1-13.1-5.8c-1.9-1.9-5.4-1.5-7.3,0.7c-2.5,2.9-5.6,3.9-9.1,4.4c-0.9,0.1-1.9,0.6-2.5,0.9
				C-123.8,73.9-121.8,75.6-119.8,77.4z M-126.7,78.3c-1.2,1.5-2.2,2.6-2.9,3.8c-0.1,0.2,1.5,1.9,2.1,1.8c1.8-0.3,4.1-0.6,4.9-1.8
				c2.1-3.2,0.1-6.8-3.8-7.4c-5-0.7-9.6,0.6-13.8,3.4c-1.2,0.8-2.7,1.3-4.1,1.5c-4.6,0.6-9.1,5.8-8,11.2c2.5-5.6,7.1-7,11.3-9.4
				C-136.3,78.6-131.7,78.2-126.7,78.3z M-93.4,78.2c10.6-0.6,18.9,3.9,26.2,11.6c0.3-4.8-4-9.6-8.4-10.2c-1.6-0.2-3.2-0.8-4.5-1.7
				c-4.1-2.7-8.5-3.9-13.4-3.2c-3.9,0.5-6,4.1-3.9,7.3c0.8,1.2,3.2,1.7,4.9,1.9c0.7,0.1,2.4-1.7,2.2-2.1
				C-90.9,80.7-92.1,79.7-93.4,78.2z M-32.7,130c0.2-1.5-0.3-3.2-3.5-2.8c-1.3,0.2-2.6,0.3-4,0.5c-2.7,0.3-4,1.6-3.9,4.5
				c0,1.6-0.9,3.1-1.1,4.7c-0.3,1.7-0.9,3.7-0.4,5.2c1,2.8,2.8,5.3,4.4,8.3c1.5-1.2,3.1-2.4,5.4-4.3c-7.8-2.2-6.2-7.5-4.7-11.7
				C-39.8,132.4-35.9,131.6-32.7,130z M-187.1,131.5c6.5-1.4,8,2.4,8.9,7.3c0.8,4.3-3,5.2-5.3,7.9c1.7,1.3,3.4,2.6,4.8,3.6
				c1.6-2.9,3.1-5.3,4.1-7.8c0.6-1.5,0.6-3.4,0.4-5c-0.3-1.9-1.6-3.7-1.6-5.6c-0.1-2.8-1.3-3.9-3.8-4.2c-1.3-0.2-2.7-0.3-4-0.5
				C-186.8,126.7-187.5,128.3-187.1,131.5z"/>
			<path class="st2" d="M-159.4,211.3c-2.8,1.3-5.5,2.5-8.1,4c-2.7,1.5-4.5,1.3-6.4-1.4c-4.3-5.9-4.4-5.8,1.9-9.7
				c1.6-1,3.3-2.1,4.9-3.1c1.6-1,3.4-1.9,5.3-2.9c-2.5-4.1-3.3-8.3-0.6-12.3c-2.7-2.5-5.4-4.7-7.7-7.3c-3.7-4.4-2.3-9.6,3.2-11.6
				c2.4-0.9,3.7-2.1,4.9-4.3c1.4-2.6,4.2-4,7.6-3.9c-2.5,2.2-4.7,4.3-7.3,6.7c2.2,1.2,3.6,2,5.5,3.1c2.9-3.5,5.8-7,9-10.8
				c0.1,1.2,0.2,2.2,0.2,3.2c-0.2,2.5,0.6,4.2,3.1,5.5c1.4,0.8,2.1,2.9,3.1,4.4c0.8,1.2,1.4,2.8,2.5,3.5c4,2.4,4.1,2.3,4.9,7.1
				c0.9,0.1,2,0.1,3,0.4c0.9,0.3,1.6,1,2.4,1.5c-0.9,0.5-1.8,1.4-2.6,1.4c-2.3-0.2-4.5-0.9-7.3-1.5c-2.4,1.3-5.8,3-9,4.8
				c-0.7,0.4-1.5,1.3-1.6,2c-0.3,3.1-0.4,6.1-0.5,9.1c4.9,0.7,7.7-0.9,9.4-4.9c1.4-3.3,3.9-5.5,7.7-5.6c0.7,0,1.5,0.8,2.2,1.1
				c-0.6,0.5-1.2,1.3-1.8,1.3c-3,0.4-4.8,1.9-5.9,5.4c7.1-1.3,7.9,5.6,12.6,8.1c-2.8,2-4.1,0.3-5.2-1c-5.2-5.8-5.5-5.9-12.5-2.8
				c-1.5,0.7-3.2,1.1-5.2,1.8c1,1.7,1.9,3.3,2.8,4.8c0.8-0.2,1.1-0.3,1.3-0.4c1.4-1.1,2.9-2.3,4.3-3.5c0.9,1.6,1.7,3.2,2.6,4.7
				c0.2,0.4,0.6,0.7,1,0.8c3.1,0.7,1.6,2.5,1,4.1c-0.7,1.9-1.5,3.8-2.1,5.8c-0.9,2.8-2.3,5.6-2.5,8.4c-0.2,3.6,0.6,7.4,0.7,11
				c0,1.3-0.7,2.7-1.1,4.1c-1.5-0.6-3.6-0.8-4.5-1.9c-1.8-2.2-3-4.9-4.4-7.4c-2.7-5.3-5.4-10.7-8-16
				C-157.4,215.6-158.3,213.7-159.4,211.3z M-151.1,175.9c-0.4,1.7-0.9,3.1-1.1,4.6c-0.2,1.4-0.4,3.9,0.1,4.2
				c1.5,0.6,3.7,0.9,5.1,0.2c3.4-1.6,6.6-3.7,10.1-5.8c-2.9-1.9-5.3-3.6-7.7-5.2C-146.6,174.6-148.7,175.3-151.1,175.9z M-151.3,189
				c-2.6-0.6-4.7-1.1-6.9-1.7c-2.1-0.6-2.8,0.5-3.2,2.3c-1,5.2,2.1,8.2,8.9,8.4C-152,194.8-151.6,191.7-151.3,189z M-168.2,178.1
				c3.2,2.2,6,4.1,8.8,6.1c3.2-4.4,3.2-5.8,0.1-8.5C-161.6,173.7-164,174.3-168.2,178.1z M-149.7,165.7c-2,1.9-5.6,2.6-4.1,5.9
				c1.1,2.6,4.9,2.1,10.2-1C-145.7,169-147.6,167.5-149.7,165.7z"/>
			<path class="st2" d="M-65.9,158.5c4.4,0.3,6.6,2.2,8.5,4.9c0.9,1.3,2.4,2.6,3.8,3.2c5.8,2.4,7.5,7.4,3.6,12.1
				c-2.1,2.5-4.8,4.6-7.5,7.1c2.1,3.8,2.3,7.9-0.9,12.1c2.7,1.6,5.2,3.1,7.7,4.6c2.1,1.3,4.1,2.6,6.1,3.9c1.9,1.2,2.4,2.6,0.8,4.4
				c-0.6,0.7-1.2,1.5-1.8,2.3c-3.1,4-3.5,4-8,1.6c-2.3-1.2-4.8-2.2-7.2-3.3c-4.5,9.2-8.8,18.1-13.3,26.9c-1.2,2.3-2.4,5.7-6,4.4
				c-3.4-1.3-1.3-4.4-1.1-6.6c0.5-5,1.1-9.7-1.6-14.6c-1.5-2.7-0.6-6.5-3.1-9.1c-0.4-0.4-0.3-1.9-0.1-2c3-0.8,2.6-3.8,4-5.6
				c0.4-0.5,2.3-0.5,3.2,0c1.1,0.6,1.7,1.9,3.1,3.5c1.3-2,2.3-3.6,3.3-5.2c-2.8-1.2-5.2-2.2-7.6-3.2c-4-1.7-6.4-0.9-9.1,2.6
				c-1.4,1.8-2.6,4.1-6.6,2.7c4.9-2.8,5.8-9.5,12.8-8.4c-0.7-3.4-2.5-4.9-5.5-5.4c-0.8-0.1-1.4-1-2.1-1.5c0.8-0.4,1.6-1.1,2.3-1
				c3.9,0.1,6.2,2.4,7.7,5.7c1.6,3.7,4.2,5.3,9.4,4.9c-0.1-3.2-0.2-6.5-0.5-9.8c-0.1-0.6-0.9-1.2-1.6-1.6c-3.1-1.8-6.4-3.4-8.8-4.7
				c-3.1,0.5-5.6,1.1-8.2,1.4c-0.5,0.1-1.2-0.9-1.8-1.4c0.6-0.5,1.2-1.4,1.8-1.4c2.8,0.2,4.2-0.7,4.3-3.7c0-1,1.6-1.9,2.4-2.9
				c0.1-0.2,0.4-0.3,0.6-0.3c4.6-0.7,2.6-6.1,5.3-7.6c3.4-1.9,5.3-4,4.4-7.9c-0.1-0.4,0.2-0.9,1.2-1.6c0.9,1.9,1.5,4.1,2.8,5.7
				c1.5,1.8,3.7,3,5.9,4.7c1-0.5,2.5-1.2,4.9-2.4C-60.7,163.3-63,161.2-65.9,158.5z M-83.3,179.3c3.9,2.2,7.3,4.5,11.1,6
				s5.6-0.3,4.6-4.2c-0.4-1.7-0.9-3.4-1.3-5.2c-2.2-0.7-4.5-1.3-6.5-1.9C-78,175.7-80.4,177.4-83.3,179.3z M-67.6,198.1
				c0.8-0.1,1.6-0.1,2.4-0.1c4.8-0.3,7.9-4.7,6.3-9c-0.3-0.8-1.7-1.7-2.5-1.6c-2.4,0.3-4.8,1-7.3,1.5
				C-68.4,191.7-68,194.8-67.6,198.1z M-51.8,178c-4.3-3.8-6.8-4.3-9-2.2c-3.1,2.8-3.1,4.2,0.3,8.3C-57.7,182.1-54.9,180.2-51.8,178
				z M-76.9,171.1c3,1,4.9,2,6.9,2.1c1.4,0,2.9-1.2,4.4-1.9c-0.6-1.2-1.1-2.5-2-3.6c-0.6-0.8-1.7-1.2-2.6-1.9
				C-72.3,167.4-74.2,168.9-76.9,171.1z"/>
			<path class="st2" d="M-139.7,155c5.5,4.6,10.7,9,15.9,13.4c0.4,0.3,0.6,0.8,0.8,1.2c0.8,2,2.9,4.2,0.2,6.1
				c-2.4,1.8-4.2-0.1-5.9-1.7c-1.2-1.1-2.6-2-4.1-2.8c-2.2-1.3-4.6-2.2-4.5-5.4c0-0.7-0.9-1.5-1.6-2.1
				C-141.6,161.1-141.9,159.3-139.7,155z"/>
			<path class="st2" d="M-79.7,154.7c0.4,2.3,1.4,4.4,0.8,5.1c-3.3,3.7-3.2,9.9-9.1,11.8c-1.6,0.5-2.9,2.1-4.1,3.3
				c-1.6,1.6-3.5,2.4-5.1,0.8c-0.8-0.9-1-3.3-0.3-4.3c1.6-2.4,3.7-4.6,5.9-6.6C-88.2,161.4-84.4,158.5-79.7,154.7z"/>
			<path class="st2" d="M-106.6,239.2c1.6,1.6,3.3,3.2,4.7,5c0.3,0.4-0.2,1.9-0.8,2.3c-1.2,0.9-2.6,1.6-4.1,2.1
				c-0.2,0.1-1.3-1.6-1.4-2.5c-0.1-2.1,0.2-4.2,0.3-6.3C-107.4,239.6-107,239.4-106.6,239.2z"/>
			<path class="st2" d="M-112.3,239.7c0.2,1.7,0.6,3.4,0.5,5.1c-0.1,1.3-0.8,2.5-1.3,3.8c-1.6-0.9-3.4-1.6-4.8-2.8
				c-0.3-0.3,0.4-2.2,1-3.1c1-1.3,2.3-2.4,3.5-3.6C-113,239.4-112.6,239.6-112.3,239.7z"/>
			<path class="st2" d="M12.6,285c0.1,1.7,0.3,2.3,0.2,3c-0.2,3.5-0.4,7-0.8,10.5c-0.1,0.9-0.9,1.6-1.4,2.5c-0.6-0.7-1.5-1.3-1.6-2
				C8,294.1,9.1,289.8,12.6,285z"/>
			<path class="st2" d="M-232.4,285.2c3.3,4.6,4.4,8.9,3.4,13.7c-0.2,0.8-1.1,1.3-1.7,2c-0.5-0.7-1.3-1.4-1.4-2.1
				c-0.4-3.8-0.7-7.7-0.9-11.6C-233,286.8-232.7,286.4-232.4,285.2z"/>
		</g>
	</g>
	<g class="st1">
		<g>
			<path class="st3" d="M-229.9,144.4c-1.1-2.2-1.9-3.6-2.5-4.8c0.3-1.7,0.4-3.3,0.9-4.9c0.2-0.7,1-1.4,1.7-1.7
				c5.7-3.1,11.5-6.2,16.7-8.9c-0.1-1.4-0.6-2.8-0.2-3.8c2.3-6.7,7.5-11.3,12.7-15.8c2.9-2.5,6-4.9,9.1-7.1c3.3-2.4,4.8-5.2,4.5-9.4
				c-0.5-7,1.3-13.4,6.9-18.2c1.2-1.1,3.5-1.7,5.1-1.4c4,0.7,8.4,1.5,10,6.1c0.4,1,0.4,2.9-0.3,3.5c-2.9,2.4-2,5-1,7.8
				c4.9-0.5,4.9-7.7,10.5-7.1c-2.6,3.2-5.2,6.2-7.7,9.3c-2.3,2.7-3.1,5.6-2.2,9.5c0.8-1,1.2-1.8,1.8-2.4c2.8-2.7,5.5-5.6,8.6-8
				c2-1.6,4.1-2.2,6.3,0.8c1.2,1.6,4.1,2.4,6.4,2.9c5,1.1,5.7,1.7,5.9,6.9c0.2,6.8,6.6,13.4,13.4,13.7c5.4,0.2,8.7-1.9,10.6-6.8
				c0.3-0.9,0.7-1.8,1.2-2.6c1.3-2.1,2.5-1.9,3.7,0.1c0.4,0.6,0.7,1.3,1,1.9c3.3,7.8,11.9,10,18.6,4.7c3.6-2.8,5.8-6.2,5.7-11
				c-0.1-4.3,1-5.3,5.4-6c3.1-0.5,6.1-1.2,7.9-4.3c0.3-0.5,2.4-0.8,3.1-0.3c3.4,2.5,6.8,5.3,10,8.1c0.9,0.7,1.3,1.9,2,3.1
				c1.6-4,0.6-7.2-2.7-10.3c-1.2-1.1-1.9-2.8-2.9-4.1c-1.2-1.4-2.5-2.7-4-4.2c5.6-0.5,5.7,6.5,10.5,7.2c0.9-2.8,1.9-5.3-0.9-7.8
				c-1.7-1.5-0.8-5.3,2.1-6.8c2.9-1.6,6.3-2.4,9.6-3.2c0.8-0.2,2.1,0.9,3,1.6c5.4,4.7,7.4,11,7,17.8c-0.4,5.2,2.1,8.1,5.8,11
				c4.9,4,9.7,8.2,14.1,12.8c2.4,2.5,4.1,5.9,5.8,9c0.5,1,0.1,2.4,0.1,4.1c4.8,2.6,10.5,5.5,16,8.7c0.8,0.5,1.2,1.8,1.7,2.8
				c0.5,1.1,1,2.3,1.4,3.5c-0.8,1.4-1.6,2.9-2.8,5.1c0.4-0.1-0.2,0.2-0.8,0.2c-5.3-0.1-6.9,3.4-7.8,7.6c-0.2,1.1-1.6,2.5-2.7,2.7
				c-10.9,2.4-11.6,6.8-11.3,14.1c0.1,1.9,1.5,3.9,2.6,5.6c1,1.6,1.2,2.7-0.4,4c-7.5,6.2-7.6,12.4-0.4,18.8c0.4,0.4,0.7,0.9,1.3,1.6
				c-1.1,0.5-2,0.9-2.8,1.1c-5.3,1.7-9.1,5-10.7,10.4c-0.8,2.8-1.9,5.2-4.5,7c-3.2,2.3-4.6,5.8-4.6,9.8c0,3.5-1,5.5-5.2,5.6
				c-4.4,0.1-8.8,3.9-8.9,8.6c-0.1,4.6-2.3,7.1-5.7,8.9c-4.4,2.4-5.6,6.2-4.8,10.6s-0.3,7.4-3.8,10.6c-7.4,6.8-8.4,15.7-4,24.9
				c0.5,1.1,0.3,2.8-0.2,4c-2.5,5.7-1.7,10.8,1.8,15.9c0.7,1,0.8,2.6,0.6,3.9c-1.8,9.4,0.8,17.4,7.1,24.8c3.7-3.1,7.1-6.1,10.7-8.9
				c1.2-1,2.7-2.2,4-2.2c3.6,0.2,5.1-1.8,7.1-4.3c3.9-4.9,7.4-10.5,14.6-11.7c0.7-0.1,1.3-1.9,1.5-3c0.7-3.5,0.8-7.2,2-10.4
				c1.3-3.5,4-6,8.4-5.5c0.8,0.1,1.9-0.7,2.6-1.3c2.1-1.7,3.9-3.9,6.2-5.4c4-2.5,7.6-1.4,9.9,2.3c-2,5.4-2.9,10.5-1.4,16
				c0.2,0.8,0.5,1.6,0.5,2.4c-0.2,10.4-0.5,20.8-0.8,31.2c0,0.7-0.3,1.4-0.5,2.2c-13.8,0-27.6,0-41.3,0c-7.5,0-15.1-0.5-22.6,0.1
				c-10.7,0.9-20-2.7-29.3-7c-11.1-5.2-19.9-12.8-25.9-23.4c-0.2-0.3-0.5-0.5-1-0.8c-4.6,8-10.4,14.9-18.4,19.7
				c-10.2,6.2-20.9,11-33.4,10.8c-21.5-0.3-43.1-0.1-64.6-0.1c-1.3,0-2.6,0-4.6,0c0-9.9-0.1-19.6,0-29.2c0.1-6.5,0.9-13,0.6-19.4
				c-0.1-2.3-1.3-4.5,1.4-5.9c2.8-1.4,5.6-1.3,8.3,0.5c0.7,0.5,1.5,0.8,2.1,1.4c2.7,2.6,5.1,5.1,9.5,5.9c3.7,0.6,5.3,5,5.9,8.8
				c0.5,2.9,0.5,5.9,0.8,9c8.6,1,12.5,7.7,17.1,13.5c0.8,1,1.9,2.4,2.8,2.3c4-0.4,6.6,2,9.3,4.3s5.5,4.7,8.4,7.2
				c6.2-7,8.9-14.9,7.3-24c-0.4-2.2-0.1-3.8,1.2-5.9c2.8-4.4,3.4-9.4,1.3-14.4c-0.5-1.3-1-3.1-0.5-4.2c4.5-9.5,3.3-18.6-4.3-25.5
				c-3.2-2.9-4.1-5.6-3.4-9.7c1.1-6.5-0.9-9.7-6.7-13.1c-1.2-0.7-2.3-2.4-2.6-3.8c-1-6.4-3.4-9.4-9.9-11.2c-3.1-0.8-4.8-2.2-4.7-5.7
				c0.1-4.3-2.1-7.7-5.6-10.4c-1.2-1-2.4-2.5-2.8-3.9c-1.7-6.8-5.8-11.1-12.7-12.9c-0.4-0.1-0.8-0.5-1.3-0.9
				c1.6-1.9,3.3-3.6,4.6-5.5c3.4-5.3,2.1-11.6-3.1-15.1c-2.3-1.6-2.2-2.9-0.6-5c5.8-7.6,1.3-17.7-8.3-19.2c-1.2-0.2-3.1-1.2-3.3-2
				C-222,147.5-224.3,144-229.9,144.4z M-152.6,245.4c2.2,5.2,4.5,10,6.3,14.9c2.8,7.5,5.2,15.1,7.8,22.8c0.6,1.7,1.4,2.2,3.2,1.9
				c5-1,9.9-2,14.9-2.7c1.9-0.3,3.9,0.2,5.3,0.4c-1.4,2.9-2.6,5-3.4,7.1c-1,2.8-1.3,5.9-2.6,8.5c-6.2,13.4-17.6,21.6-30,28.9
				c-0.9,0.5-2.3,1-2.6,1.8c-1.8,5.1-3.4,10.3-5.1,15.5c0.6,0,1.5,0.2,2.3,0c17.9-4.1,32.9-12.2,42.3-28.5c0.9-1.5,1.5-2.2,3.5-2.2
				s2.5,0.8,3.6,2.1c4,5.1,7.6,10.7,12.6,14.6c6.2,4.9,13.4,8.5,20.5,12.1c3.5,1.7,7.7,2.1,11.5,3.1c-1.8-5.6-3.3-10.5-5-15.3
				c-0.3-0.9-1.3-1.6-2.1-2.2c-5-3.4-10.2-6.5-15-10.1c-9.2-7.1-16.2-15.8-18.2-27.6c-0.4-2.5-2.1-4.9-3.4-7.9
				c1.5-0.1,3.5-0.6,5.3-0.3c4.8,0.9,9.5,2,14.2,3.2c2.5,0.7,3.4-0.2,4.2-2.4c4.3-12.6,8.8-25.2,13.2-37.8c-5-2.6-10.6-5.6-16.2-8.6
				c-1-0.3-2.3,0.3-3.7,0.8c-5.4,1.6-10.6,1.2-15.4-1.8c-3.8-2.4-4.7-8.4-1.9-10.8c3.7-3.2,7.3-6.6,10.9-10c0.7-0.7,1.2-1.6,1.3-1.7
				c-3.5-2.1-6.7-3.8-9.7-5.9c-2-1.3-3-7.8-1.8-9.8c0.3-0.5,0.8-0.9,1.3-1.2c5.4-2.5,8.4-6.9,10.4-12.2c0.5-1.3,0.4-2.9,0.5-4.2
				c-2.2,0.3-4,0.4-5.7,0.8c-1.5,0.4-3.2,0.7-4.2,1.7c-4.6,4.1-8.2,4.1-12.7-0.2c-0.8-0.7-1.9-1.4-2.9-1.6c-2.2-0.3-4.4-0.3-6.6-0.4
				c-0.6,5.9,4.5,14.2,10,16c0.5,0.2,1.2,0.5,1.5,0.9c0.9,1.2-0.3,8.9-1.6,9.7c-3.3,2.2-6.8,4.2-10.8,6.6c3.6,3.5,7.6,7.3,11.4,11.2
				c1,1,1.9,2.5,1.9,3.8c0.2,5.6-3.4,9.3-10.2,9.7c-4.2,0.2-8.5-0.8-12.7-1.3c-2.4,1.4-5,3-7.7,4.4
				C-146.9,242.8-149.8,244.1-152.6,245.4z M-138.1,235.3c-4.5-5.5-4.8-16.9,0.4-21.6c3.7-3.2,7.5-6.1,9.8-10.5
				c0.1-0.2,0.4-0.3,0.6-0.5c0.5-1,1.1-2,1.5-3.1c0.6-1.9,1-3.9,1.7-6.4c-0.8-1.6-2.2-3.9-3.2-6.3c-3-6.7-1.1-11.4,5.4-14.8
				c0.9-0.5,1.7-1.8,1.8-2.8c0.5-3.6-0.2-6.9-3.4-9.3c-2.9-2.2-6-4.2-8.4-6.8c-4.7-5.2-10.6-3.9-16.1-2.8c-6.9,1.4-8.6,0.8-9-6.1
				c0-0.2-0.3-0.3-0.9-0.9c-1,1.2-1.8,2.4-2.8,3.5c-0.6,0.7-1.1,1.8-1.9,2c-7.6,1.8-9.3,7.2-9.3,13.9c0,1-0.6,2.4-1.4,2.9
				c-5.1,3-10.3,5.8-15.4,8.7c-0.9,0.5-1.6,1.2-2.4,1.8c2.7,4.6,4.9,9,7.6,13.1c3.3,5,7,9.7,10.7,14.5c0.6,0.8,2.3,1.7,2.9,1.4
				c4.7-2.2,9.2-4.7,13.8-7.1c1.7-0.9,3.4-2,5.1-3.1c0.4,0.6,0.7,1.1,1,1.7c-5.4,3.4-10.9,6.8-16.2,10.1
				c6.4,10.8,12.9,21.8,19.4,32.8C-143.7,238.1-140.9,236.7-138.1,235.3z M-62.7,144.1c-0.1,0.7-0.2,1.4-0.2,2.2
				c-0.2,4-2.9,5.8-6.9,4.9c-3.9-0.9-7.8-1.3-11.8-1.7c-0.7-0.1-1.6,0.4-2.2,0.9c-4.1,3.2-8.1,6.5-12.3,9.6c-3.4,2.5-4,5.9-3.4,9.6
				c0.2,1,1.2,2.4,2.2,2.8c6.4,2.7,7.1,7.4,5,12.6c-1.3,3.2-3,6.2-4.1,8.5c0.7,2.4,1,4.4,1.8,6c1.8,3.6,3.9,7.1,6,10.6
				c0.2,0.3,0.9,0.3,1.4,0.4c3.4,1.1,5.6,3.5,6.6,6.7c2,6.3,3.1,12.6-2.7,18c3.1,1.5,5.9,2.9,9.2,4.6c6.6-11.1,13.3-22.2,20.1-33.6
				c-6.3-2-11.6-5.6-16.5-10.2c0.7-0.4,1-0.6,1.1-0.6c0.6,0.1,1.1,0.3,1.7,0.6c5,2.7,10.1,5.1,14.9,8.2c2.6,1.7,4.3,1.2,5.7-0.9
				c6.1-8.8,12.2-17.7,18.2-26.6c-1.4-1.1-1.9-1.6-2.5-1.9c-4.9-2.8-9.8-5.6-14.9-8.1c-2.2-1.1-2.5-2.7-2.8-4.9
				c-0.4-3.1-0.8-6.8-2.7-9c-3-3.3-7.6-5.1-10.3-8.8C-62.1,144-62.4,144-62.7,144.1z M-160.2,143.1c-0.4-0.3-0.9-0.7-1.3-1
				c-0.5-2.2-0.9-4.5-1.5-6.7c-0.3-1-0.7-2.6-1.4-2.8c-3.7-0.9-5.1-2.8-3.9-6.5c0.2-0.7-0.1-1.6-0.2-2.4c-0.3-2.6-0.7-5.1-0.9-7.7
				c-0.1-0.8,0.3-1.9-0.1-2.4c-3.3-3.8-0.4-7.1,0.3-10.7c0.7-3.7,0.1-7.6,0-11.4c0-0.5-1-1-1.6-1.3c-3.6-1.3-9.7,0.8-11.8,3.8
				c-1.2,1.6-2.5,3.2-4,4.5c-3.2,2.8-6.8,5.1-9.8,8.1c-3.4,3.2-6.4,6.8-9.4,10.4c-0.7,0.9-0.8,2.8-0.4,3.9
				c2.7,7.9,5.7,15.7,8.5,23.5c3.2,9,6.2,18,9.6,27.8c3.8-2.4,7.3-4.8,10.9-6.9c2.2-1.3,3.1-2.9,3-5.5c-0.1-5.2,1.9-9.5,6.9-12.1
				C-164.7,146.6-162.5,144.7-160.2,143.1z M-59.1,142.9c1.3,1.3,2.4,3,4.1,4c5.2,3.1,8.8,7,8.8,13.4c0,1.1,0,2.8,0.7,3.3
				c4.1,3,8.5,5.7,13.1,8.8c2.8-7.6,5.2-14.3,7.6-21.1c3.5-9.8,7-19.6,10.4-29.4c0.5-1.4,0.3-3.5-0.5-4.6c-2.9-3.8-6-7.5-9.4-10.8
				c-3.8-3.7-8.9-6.3-12-10.4c-3.1-4.2-6.6-5.7-11.4-5.3c-1,0.1-2.6,0.8-2.7,1.3c-0.3,3.8-1,7.7-0.3,11.4c0.7,3.7,3.9,7.1,0.3,11
				c-0.3,0.3-0.1,1.1-0.1,1.7c-0.2,4.7-0.4,9.4-0.8,14.1c0,0.6-0.6,1.6-1.1,1.7c-4.7,0.7-5,3.9-4.9,7.5
				C-57.3,140.5-58.4,141.6-59.1,142.9z M-124.8,115.3c-3.3,14.9-0.7,26.8,13.1,35.8c0.9,0.6,2.9,0.5,3.8-0.1
				c6.6-4.3,11.4-9.8,13.4-17.6c1.6-6.2,0.9-12.3-0.4-18.3c-4.3,2.6-8.2,5-11.7,7.2c-0.9,3.6-1.7,7.2-2.5,10.7c-0.5,0-1-0.1-1.5-0.1
				c-0.6-2.9-1.1-5.8-1.9-8.6c-0.2-1-0.7-2.2-1.5-2.7C-117.5,119.4-121.1,117.5-124.8,115.3z M-71,314c0.9-5.3,1.6-10,2.3-14.7
				c0.1-0.5-0.2-1.1-0.4-1.7c-4.7-11.5-0.9-22.4,6.7-28.6c0.9-0.7,1.6-2.2,1.5-3.2c-0.8-5.7-1.2-11.2,3.6-16.1
				c-3-1.1-5.3-1.9-7.8-2.8c-3.3,8.4-6.8,16.4-9.7,24.7c-3,8.7-5.4,17.6-7.9,26.5c-0.4,1.4-0.4,3.5,0.4,4.5
				C-78.6,306.5-74.6,310.3-71,314z M-151,313.7c3.6-3.5,6.8-6.7,10.2-9.8c2.3-2.1,2.5-4.5,2-7.2c-3.4-17.2-11.3-33-17.2-49.3
				c-0.1-0.2-0.4-0.2-0.8-0.5c-2,0.9-4,1.7-6.1,2.6c0.4,0.1,0.8,0.2,1.2,0.3c0.4,4.6,1.2,9.2,1.2,13.8c0,2.2,0.2,3.6,2.1,5.2
				c7.5,6.3,9.6,14.7,7.7,23.7c-0.8,3.9-1.6,7.2-0.4,11.2C-150.3,306.5-151,309.7-151,313.7z M-129.4,125.7c-1.3,1-2.4,2.2-3.8,2.8
				c-0.7,0.3-2.5,0-2.8-0.5c-1.5-3.3,0.3-10,3.1-12.6c1-0.9,2.1-1.8,3.3-2.8c-2.5-2-4.7-3.8-6.8-5.6c-1.2,2.1-2.1,4.2-3.4,5.9
				c-6.9,9.1-8.5,19.5-8.7,30.4c-0.1,2.6,0.9,3.8,3.6,3.7c6.9-0.2,13.2-2.4,18.8-5.3C-127.2,136.2-128.3,131.1-129.4,125.7z
				 M-90.6,125.6c-1.1,5.5-2.1,10.7-3.2,16.1c5.8,3,12,5.2,18.9,5.3c2.2,0,3.4-0.6,3.4-3.1c0.1-10.6-1.5-20.7-8.1-29.6
				c-1.5-2-2.6-4.4-3.8-6.6c-2.1,1.6-4.3,3.3-6.9,5.2c6,3,7.2,8.1,6.7,13.9c-0.2,2.3-1.3,2.8-3.1,1.6
				C-88.1,127.8-89.4,126.6-90.6,125.6z M-42.8,230.7c-5.1-2.5-9.7-4.7-14.3-6.8c-0.7-0.3-2.3,0.1-2.7,0.7
				c-3.5,5.6-6.8,11.4-10.4,17.6c4.9,2,8.9,4.2,13.2,5.1c1.7,0.4,5.5-1.7,5.7-3.1C-50.3,238.8-47.6,234.6-42.8,230.7z M-177.8,230.8
				c4.9,3.8,7.8,7.9,8.2,13.4c0.1,2,3.9,4.2,5.8,3.5c4.2-1.6,8.4-3.5,13.3-5.6c-3.6-6.2-6.9-11.8-10.2-17.2c-0.4-0.6-2-1.1-2.6-0.9
				C-168.1,226-172.7,228.3-177.8,230.8z M-151,115c-1.8-0.5-4.4-0.9-6.6-1.9c-2-0.8-3.2-0.3-4.4,1.2c-3.4,4.1-3.5,9-3.9,13.9
				c-0.1,0.5,0.6,1.4,1.1,1.6c3.8,1.2,7.6,2.3,11.4,3.3c0.8,0.2,2.4-0.4,2.6-1c1.1-3.5,1.8-7,2.6-10.3c-2.2-0.2-4.1-0.3-6-0.5
				C-153.2,119.2-152.1,117.2-151,115z M-71.7,122.5c0.7,2.7,1.4,5.5,2.1,8.4c0.5,2.2,1.8,3.2,3.9,2.7c3.6-0.9,7.2-2.1,10.7-3.2
				c0.5-0.2,1.2-1.1,1.1-1.6c-1.1-4.6-2.3-9.1-3.8-13.5c-0.3-0.9-2.4-1.9-3.4-1.7c-2.9,0.5-5.6,1.6-7.9,2.3c1.1,1.9,2.3,3.9,3.5,5.8
				C-67.4,122-69.4,122.2-71.7,122.5z M-222,142.9c2.3,5.1,3.6,9.9,9.6,10.7c2.6,0.4,10.4-1.2,11.8-3.3c0.2-0.4,0.4-0.9,0.3-1.3
				c-1.2-4.1-2.4-8.1-3.7-12.6C-210.3,138.7-216,140.8-222,142.9z M-20.5,150.5c3.3,2.6,9,4.5,11.4,4.1c6-0.9,8.6-5,10.3-11.1
				c-5.7-2-11.6-4.1-17.9-6.4C-18.1,142.1-19.3,146.3-20.5,150.5z M-183.3,214.7c-5.6-10.2-11.1-20.3-16.7-30.4
				c-0.4,0.1-0.7,0.2-1.1,0.3c1.8,5.3-0.5,9.8-3.3,14.2c5.9,3.1,9.4,7.4,11.2,13.4C-191.8,216.9-187.5,217.9-183.3,214.7z
				 M-37.3,214.7c4,3.1,8.4,2.3,9.7-2.1c1.8-6.3,5.5-10.8,10.5-13.4c-1.3-4.9-2.5-9.4-3.9-14.2C-26.4,194.7-31.8,204.6-37.3,214.7z
				 M-174.1,210.2c-10.2-9.1-13.1-22.2-20.7-32.7c-1.7,0.8-3.3,1.6-5.1,2.4c6.6,11.4,13,22.3,19.5,33.4
				C-178.4,212.3-176.4,211.3-174.1,210.2z M-40.2,213.3c6.5-11.2,12.8-22,19.2-33c-1.8-1-3.4-2-4.9-2.8
				c-7.6,10.7-10.7,23.6-20.6,32.7C-44.2,211.3-42.3,212.2-40.2,213.3z M-101.7,225.1c-3.8,1.9-4.9,4.4-2.6,6.9
				c2.9,3.2,6.9,3.9,11.1,3.3c4.2-0.7,8.4-1.7,10.6-6c0.1-0.2,0.2-0.5,0.2-0.7c-0.1-3.2,0.2-6.5-0.5-9.6c-0.5-2-2.1-4-3.8-5.4
				c-2.2-1.8-3.1-1.2-4,1.7c3.9,2.9,4.9,5.5,3.6,9.9c-0.8,2.6-2.2,4.8-5.3,5.2C-96.8,231-99.4,229.5-101.7,225.1z M-119.4,224.1
				c-1.6,5.2-4.9,6.9-9,6.1c-2-0.4-4.7-2.4-5.1-4.1c-0.9-4.2-1-8.7,4-10.8c-0.7-3.1-2.9-3.3-4.3-1.6c-1.9,2.3-3.4,5.1-4.4,7.9
				c-0.7,2.1-0.4,4.5-0.1,6.7c0.1,1.3,0.7,2.8,1.6,3.6c4.3,3.8,11.9,4.5,17.1,2c2.4-1.1,3.8-2.9,3.3-5.3
				C-116.4,227.2-118,226-119.4,224.1z M-205.4,177.1c0.3,0.1,1.7,1,2.7,0.7c2.9-0.9,5.6-2.1,8.3-3.4c0.6-0.3,1.2-1.3,1.1-1.9
				c-0.9-4.1-2.1-8.2-3.2-12.5c-1.2,0.2-2.3,0.5-3.3,0.7c-3.2,0.5-4.7,1.8-4.4,5.4C-203.8,169.3-204.8,172.7-205.4,177.1z
				 M-15.1,178c-0.7-4.4-1.5-7.4-1.6-10.5c-0.1-5.1,0.1-5.1-5.2-6.3c-0.8-0.2-1.6-0.2-2.6-0.4c-0.5,2.5-0.8,4.9-1.4,7.2
				c-1.7,6.9-1.8,6.9,4.9,9.6c0.7,0.3,1.4,0.7,2,0.7C-17.4,178.2-15.9,178.1-15.1,178z M-121.2,113.9c7.4,7.3,15.6,7.3,22.4,0.1
				c-5.3-1.5-9.7-3.9-11.1-9.9C-111.4,109.9-115.6,112.5-121.2,113.9z M-170.1,75.3c-2.9-0.8-6.1-1.8-9.3-2.6
				c-0.3-0.1-1,0.6-1.3,1.1c-2.7,4.1-3.9,8.6-3.3,13.5c3.6-1.1,6.8-2.1,9.6-2.9C-173.1,81.4-171.8,78.8-170.1,75.3z M-36,87.9
				c0.5-4.7-0.2-8.9-2.8-12.8c-0.5-0.7-1.5-1.9-2-1.7c-3.1,0.7-6.2,1.8-9.1,2.6c1.7,3.5,3,6.2,4.4,9C-42.6,85.8-39.5,86.8-36,87.9z
				 M-115.3,169.9c-0.4-0.2-0.9-0.4-1.4-0.7c-1.6,1.9-3.2,3.7-4.6,5.8c-1.2,1.7-0.6,2.7,1.6,3.3c1.7,0.4,3.5,1.2,5,2.2
				c2.4,1.6,7.3,1.6,9.7,0c1.5-1,3.2-1.7,5-2.1c1.8-0.5,2.8-1.4,1.6-3c-1.4-2.1-3.2-4-4.9-6c-0.4,0.2-0.8,0.4-1.2,0.6
				c0.6,1.7,1.2,3.4,1.7,4.7c-4.8,5.5-9.7,5.4-14.4,0C-116.6,173.2-116,171.6-115.3,169.9z M-148.9,100.2c0.1,0.6,0.2,1.2,0.4,1.9
				c3.2,0.5,6.3,1,9.6,1.6c-0.2-3.5-0.3-5.9-0.4-9.3C-143,96.6-146,98.4-148.9,100.2z M-80.9,104.6c3.5-0.7,6.6-1.3,9.8-1.9
				c0.1-0.5,0.2-1.1,0.3-1.6c-3-1.8-6.1-3.7-9.6-5.9C-80.6,98.7-80.7,101.2-80.9,104.6z M-128.2,147.7c-0.3,0.4-0.6,0.8-0.9,1.2
				c2.6,2.2,5.2,4.5,7.9,6.7c0.3,0.2,1.2-0.2,1.9-0.4c-0.2-0.6-0.1-1.5-0.5-1.9c-1.7-1.7-3.5-3.3-5.4-4.7
				C-126,148.1-127.2,148-128.2,147.7z M-90.2,148.4c-1.7-0.4-2.4-0.8-2.6-0.6c-2.6,2-5.3,4.1-7.8,6.2c-0.2,0.2-0.2,1.1,0,1.3
				c0.4,0.3,1.3,0.7,1.6,0.5C-96.3,153.5-93.6,151.2-90.2,148.4z M-50.8,108.4c-2.9,1.4-4.9,2.3-7,3.3c1.7,2.3,3.2,4.1,4.3,5.6
				C-52.7,114.7-51.9,112.1-50.8,108.4z M-168.8,107.9c0.9,3.6,1.6,6.4,2.3,9.1c1.2-1.7,2.7-3.8,4.4-6.2
				C-164.3,109.9-166.3,109-168.8,107.9z"/>
			<path class="st3" d="M-131.8,96.8c-0.8-3.1,2.4-3,4.1-3.6c1.3-0.5,3.3,0.1,4.7,0.7s2.7,1.8,3.4,3.1c1,1.7,2.4,4.2,1.7,5.6
				c-0.8,1.6-3.4,3-5.3,3.2C-127.9,106.3-131.8,102.1-131.8,96.8z"/>
			<path class="st3" d="M-95.6,106.2c-1.4-0.3-3-0.3-4.1-1c-1.2-0.8-2.1-2.2-2.6-3.5c-0.5-1.4,4.3-7.9,6.5-8.1c2.4-0.1,5,1,7.3,2
				c0.6,0.3,0.6,2.4,0.4,3.6C-88.9,103.6-91.9,106.1-95.6,106.2z"/>
		</g>
	</g>
</g>
<g id="front" class="st0">
	<g class="st4">
		<g>
			<path d="M5.3,200.8c-7-6.8-11.8-14.1-8.9-22.7c1-2.9,2.4-5.6,4.1-8.3c1.8-2.8,4.2-5.3,8.9-6.2c0.5-0.1,1-0.4,1.5-0.6
				c-0.4-0.3-0.9-0.6-1.3-0.9c-4.2-2.7-8.9-5.1-12.5-8.1c-8.2-6.8-8.1-14.8-3.6-22.5c4.6-7.9,14.1-11.6,26-12.6
				c0.9-0.1,1.7-0.2,2.6-0.2c-0.5-0.6-1.1-1.1-1.5-1.7c-1.6-3-4.1-5.9-4.4-8.9c-0.6-7.3,1.3-14.2,9.7-19.5
				c5.4-3.4,11.4-5.2,18.6-5.2c1.8,0,3.6,0,5.3,0c4.5,0,4.8,0,3.5-3.2c-4.1-9.9,2.2-17.8,12.9-23.2c0.8-0.4,1.2-1.6,1-2.3
				c-0.6-1.9-1.9-3.7-2.4-5.6c-2.6-9.3,6.4-17,20.1-17.2c0,2.3,0,4.7,0,7c-1.4,0.4-2.9,0.6-4.3,1.1c-5,1.8-7.3,5.9-4.9,9.2
				c0.7,1,2.6,2,4.2,2.2c0.9,0.1,2.4-1.2,3.3-2.1c0.4-0.4,0-1.3-0.1-2c-0.7,0.4-1.4,0.7-2.1,1.1c-0.6,0.3-1.1,0.6-1.7,0.8
				c-0.4-0.4-1-0.8-1.2-1.3c-1.2-3,1.4-5.5,6.8-6.4c0,11.6,0,23.3,0,34.9c-3.6-0.8-6.9-1.2-9.2,1.7c-0.7,0.9-2.1,1.6-3.5,2
				c-3.9,1.3-4,1.4-1.6,3.9c0.8,0.8,1.7,1.6,2.5,2.3c1.3,1.3,2.6,1.5,4.8,0.6c2.1-0.9,4.6-1.3,7-2c0,37.9,0,75.8,0.1,113.8
				c0,1.8-0.5,2.2-3.1,2.2c-14-0.1-28-0.1-42-0.1c0.4-0.8,0.7-1.5,1-2.2c0.2-0.6,0.5-1.1,0.7-1.7c-0.9,0.1-1.9,0.1-2.6,0.3
				c-6.1,2.1-12.6,2.9-19.2,1.8c-2.9-0.5-4.6,0.1-5.9,1.8C10.9,200.8,8.1,200.8,5.3,200.8z M38.2,96.7c0,0.1-0.1,0.7-0.3,1.3
				c-1.7,4.5-5.4,5.2-10,1.9c-1.5-1.1-2.5-2.4-3.9-3.6c-0.4-0.3-1.2-0.3-1.8-0.5c-0.1,1.3-1.1,3-0.2,3.7c3.8,3.4,8.6,6.1,14.8,7.1
				c0.7,0.1,1.6,0.2,2.3,0c4.9-1,8.8-7.5,6.3-10.6c-2-2.4-3-4.9-2.2-7.7c0.2-0.8,0.6-1.6,0.9-2.4c-1.6,0-3.5-0.3-4.8,0.1
				c-1.1,0.4-2.4,1.7-2.3,2.6C36.8,91.3,37.6,93.7,38.2,96.7z M79.7,67.8c-0.4-0.1-0.8-0.1-1.1-0.2c0.5-2.5,1.2-5,1.5-7.5
				c0.1-1-0.9-3-1.1-3c-2.3,0.2-5.2-0.3-5.5,2.5s-1.2,5.6-1.9,8.4c-0.8,2.9-2.6,3.8-6.7,3.3c-1.7-0.2-3.3-0.9-5-1.3
				c-1-0.2-2.1-0.3-3.2-0.5c0,1.4-0.8,3.4,0.2,4.1c2.4,1.6,5.5,2.8,8.6,3.8c3.8,1.2,6.5,0.4,8.6-2.2c1.3-1.5,2.6-3.1,3.9-4.6
				C78.7,69.8,79.1,68.8,79.7,67.8z M7,140.4c-0.6,3.7-2.6,4.6-7,2.9c-1.1-0.4-2-1.1-3-1.6c-0.7-0.4-1.4-0.7-2-1
				c-0.1,0.7-0.5,1.4-0.3,2c0.1,0.6,0.7,1.1,1.2,1.6c3.2,2.7,10.6,4.1,15.3,2.9c1-0.2,2.1-0.8,2.5-1.4c1.5-2.5-2-10.3-4.8-12.2
				c-2.1-1.5-3.7-3.3-5.6-5c-0.5-0.4-0.9-0.9-1.3-1.3c-0.5,0.7-1.5,1.4-1.3,1.9c0.7,1.9,1.9,3.6,2.9,5.4
				C4.6,136.5,5.8,138.5,7,140.4z M-0.6,184.4c-0.3,1.9,0.3,3,3.7,1.9c3.3-1.1,6-0.2,7.8,1.9c1.9,2.1,1.6,4.1-1.4,5.7
				c-0.8,0.4-1.5,0.9-2.3,1.4c-2.7,1.8,0.3,2.6,1.3,3.7c1.4,1.4,2.2,0.1,3.1-0.6c1.7-1.4,3.5-2.9,5.2-4.3c2.6-2.2,5.1-4.4,1.9-7.4
				c-0.5-0.4-0.6-1-0.9-1.5c-0.7-1.6-2.1-2.2-4.5-2.1c-3.8,0-7.6-0.1-11.4-0.6C-0.7,182.2-0.9,182.8-0.6,184.4z M28,125.7
				c1.3,0,2.6,0.2,3.8-0.1c1-0.2,2.5-0.9,2.6-1.4c0-0.7-1-2-1.9-2.1c-7.7-1-15.4-1.3-22.7,1c-2.6,0.8-3.3,2.3-2.9,4.2
				c0.4,1.5,1.3,2.3,3.6,1.3C15.8,126.2,21.9,125.8,28,125.7z M50.7,97.7c-0.1,0.4-0.4,0.8-0.5,1.3c-0.9,4.6-5.1,7.8-10.4,9.9
				c-2.4,1-2.2,1.6-1.2,2.7c0.8,0.8,1.7,1.5,2.7,2.2c1.4,1,2.5,1.2,3.5-0.5s2.4-3.6,4.4-4.6c3.5-1.7,5.1-3.9,6.5-6.5
				C57,100,54.8,97.7,50.7,97.7z M23.7,134.1c-1.2,0.2-3.2,0.1-3.5,0.5c-1.3,2.3-2.6,4.8-3.2,7.2c-0.5,1.9-0.2,3.9,0.1,5.8
				c0.1,0.6,1.1,1.2,1.7,1.8c0.6-0.4,1.3-0.7,1.7-1.2c1.2-1.3,2-3.4,3.7-3.8c4.5-1.2,4.1-3.4,3.4-5.9c-0.1-0.5-0.3-1.1-0.1-1.6
				C28,134.7,26.7,133.9,23.7,134.1z M23.9,176.9c-2.4,0.7-3.9,1-5.1,1.6c-1.7,0.8-5.1,1.5-0.3,2.8c1,0.3,1.6,1.3,2.2,2.1
				c1.5,2.1,2.7,4.2,4.5,6.2c0.5,0.5,2.4,0.6,3.6,0.6c0.5,0,1.5-1.1,1.3-1.6c-0.6-2.3-1.2-4.7-2.4-6.9
				C26.7,179.9,25.1,178.4,23.9,176.9z M-0.4,178.7c0.4,0.4,1,0.9,1.6,1.4c0.6-0.5,1.4-0.9,1.8-1.5c1.6-2.2,2.6-4.7,4.8-6.6
				c2.2-1.9,5.5-3.1,8.1-4.7c0.8-0.5,0.9-1.7,1.3-2.5c-1-0.1-2-0.5-2.9-0.4C3.9,166.2,2.4,172.5-0.4,178.7z M55.7,77.3
				c1.5,2.8,2,5.4,4,7.2c2.6,2.3,6.3,4,9.6,5.9c0.7,0.4,1.7,0.4,2.6,0.6c-0.3-0.7-0.3-1.4-0.8-2c-1.7-1.9-5-3.7-5.2-5.7
				c-0.4-3.8-4.6-4.5-7.8-6.1C57.8,77.1,57,77.3,55.7,77.3z M49.9,88.7c4.7-0.4,7.9,0.6,10.5,2.5c1.5,1.1,2.8,2.4,4.4,3.3
				c0.8,0.5,2.3,0.3,3.5,0.5c-0.2-0.7-0.2-1.6-0.8-2c-2.2-1.7-4.5-3.5-7.2-4.7s-5.9-1.9-9-2.4c-1-0.1-2.5,1.3-3.8,2
				C48.5,88.2,49.5,88.5,49.9,88.7z M17.8,159.8c0-0.4,0-0.7,0.1-1c-0.8-0.4-1.5-0.9-2.4-1.1c-5.4-1.5-10.2-3.5-13.3-7.1
				c-0.6-0.7-2.2-1.1-3.3-1.5c-0.4-0.1-0.9,0-1.4,0c0.1,0.3,0.2,0.7,0.4,1c4.5,4.4,9.4,8.4,16.7,10.5
				C15.4,160.6,16.7,160,17.8,159.8z M29.6,119c-0.7-1.1-1.4-1.8-1.7-2.6c-1.5-3.2-2.9-6.4-4.4-9.6c-0.6-1.3-1.4-2.5-2.2-3.7
				c0,0-1.5,0.2-1.6,0.4C17.7,109.3,21.7,115.6,29.6,119z M29.2,110.4c2.5,2.5,5,5.2,7.7,7.8c0.2,0.2,1.8,0,2.5-0.3
				c0.4-0.2,0.6-1.2,0.4-1.4c-3-1.8-4.7-4-5.5-6.8c-0.2-0.6-2.4-1-3.6-1.4C30.3,108.7,30,109.2,29.2,110.4z M16.5,136.8
				c1.4-4.3,2.2-4.8,8.5-4.8c0.9,0,1.9,0.2,2.6,0c0.9-0.3,1.5-0.9,2.3-1.4c-0.7-0.2-1.5-0.6-2.2-0.6c-3.5,0.2-7.1,0.4-10.5,0.9
				c-2.5,0.4-4.6,1.4-1.9,3.5C15.9,135.1,16,136,16.5,136.8z M11.3,180.8c0.5-0.2,0.7-0.2,0.7-0.2c2-3,5.9-4.2,9.8-5.6
				c0.3-0.1,0.3-1,0.2-1.5c-0.1-0.3-0.9-0.6-1.3-0.6c-3.5,0-9.6,4.2-9.9,6.7C10.7,180,11.1,180.4,11.3,180.8z M50.2,92.5
				c-1.5,0.5-2.1,0.8-2.7,1c0.5,0.6,0.8,1.5,1.5,1.7c3.1,1,6.3,1.9,9.5,2.7c0.4,0.1,1.1-0.1,1.6-0.2c-0.2-0.3-0.2-0.8-0.5-0.9
				C56.3,95.3,53.1,93.8,50.2,92.5z M26.1,194.3c0.1,0.1,0.1,0.3,0.2,0.4c2.7-0.7,5.4-1.3,8-2.1c0.5-0.2,0.7-0.9,1-1.4
				c-0.8-0.1-1.7-0.4-2.4-0.2c-3,0.5-6,1.2-8.9,1.8c-0.6,0.1-1,0.6-1.5,0.9c0.6,0.2,1.2,0.5,1.8,0.6
				C24.8,194.4,25.5,194.3,26.1,194.3z"/>
		</g>
	</g>
	<g class="st4">
		<g>
			<path d="M5.3,200.5c-7,6.8-11.9,14.1-9,22.7c1,2.9,2.5,5.6,4.1,8.3c1.8,2.8,4.3,5.3,8.9,6.2c0.6,0.1,1,0.4,1.5,0.6
				c-0.4,0.3-0.9,0.6-1.3,0.9c-4.2,2.7-9,5.1-12.6,8.1c-8.3,6.8-8.2,14.8-3.6,22.5c4.6,7.9,14.3,11.6,26.2,12.6
				c0.9,0.1,1.8,0.2,2.6,0.2c-0.5,0.6-1.1,1.1-1.5,1.7c-1.6,3-4.2,5.9-4.4,8.9c-0.6,7.3,1.3,14.2,9.8,19.5
				c5.4,3.4,11.5,5.2,18.8,5.2c1.8,0,3.6,0,5.4,0c4.6,0,4.8,0,3.5,3.1c-4.1,9.9,2.2,17.8,13,23.2c0.8,0.4,1.2,1.6,1,2.3
				c-0.6,1.9-1.9,3.7-2.5,5.6c-2.6,9.3,6.5,17,20.2,17.2c0-2.3,0-4.6,0-7c-1.4-0.4-3-0.6-4.3-1.1c-5.1-1.8-7.4-5.9-5-9.2
				c0.7-1,2.6-2,4.2-2.2c0.9-0.1,2.5,1.2,3.3,2.1c0.4,0.4,0,1.3-0.1,2c-0.7-0.4-1.4-0.7-2.1-1.1c-0.6-0.3-1.1-0.6-1.7-0.9
				c-0.4,0.4-1,0.8-1.2,1.3c-1.2,3,1.5,5.5,6.9,6.4c0-11.6,0-23.2,0-34.9c-3.6,0.8-6.9,1.2-9.3-1.7c-0.7-0.9-2.1-1.6-3.5-2
				c-4-1.3-4.1-1.4-1.6-3.9c0.8-0.8,1.7-1.6,2.5-2.3c1.4-1.3,2.6-1.5,4.8-0.6c2.1,0.9,4.6,1.3,7,2c0-37.9,0-75.8,0.1-113.8
				c0-1.8-0.5-2.2-3.2-2.2c-14.1,0.1-28.2,0.1-42.4,0.1c0.4,0.8,0.7,1.5,1,2.2c0.2,0.6,0.5,1.1,0.7,1.7c-0.9-0.1-1.9-0.1-2.7-0.3
				c-6.2-2.1-12.7-2.9-19.4-1.8c-3,0.5-4.6-0.1-5.9-1.8C10.9,200.5,8.1,200.5,5.3,200.5z M38.4,304.6c0-0.1-0.1-0.7-0.3-1.3
				c-1.7-4.5-5.5-5.2-10.1-1.9c-1.5,1.1-2.6,2.4-4,3.6c-0.4,0.3-1.2,0.3-1.8,0.5c-0.1-1.3-1.1-3-0.2-3.7c3.9-3.4,8.7-6.1,14.9-7.1
				c0.7-0.1,1.6-0.2,2.3,0c5,1,8.9,7.5,6.3,10.6c-2,2.4-3,4.9-2.2,7.7c0.2,0.8,0.6,1.6,0.9,2.5c-1.6,0-3.5,0.3-4.8-0.1
				c-1.2-0.4-2.4-1.7-2.3-2.6C37.1,310,37.8,307.6,38.4,304.6z M80.3,333.5c-0.4,0.1-0.8,0.1-1.1,0.2c0.5,2.5,1.2,5,1.5,7.5
				c0.1,1-0.9,3-1.1,3c-2.3-0.2-5.3,0.3-5.6-2.5c-0.3-2.8-1.2-5.6-1.9-8.4c-0.8-2.9-2.7-3.9-6.8-3.3c-1.7,0.2-3.3,0.9-5,1.3
				c-1,0.2-2.1,0.4-3.2,0.5c0-1.4-0.8-3.4,0.2-4.1c2.4-1.6,5.6-2.8,8.7-3.8c3.8-1.2,6.5-0.4,8.7,2.2c1.3,1.5,2.7,3,3.9,4.6
				C79.3,331.5,79.7,332.5,80.3,333.5z M7,260.9c-0.6-3.7-2.6-4.6-7-2.9c-1.1,0.4-2,1-3.1,1.6c-0.7,0.4-1.4,0.7-2,1
				c-0.1-0.7-0.5-1.4-0.3-2c0.1-0.6,0.7-1.1,1.2-1.6c3.2-2.7,10.7-4.1,15.4-2.9c1,0.2,2.1,0.8,2.5,1.4c1.5,2.5-2,10.3-4.8,12.2
				c-2.1,1.5-3.8,3.3-5.6,5c-0.5,0.4-0.9,0.9-1.4,1.3c-0.5-0.6-1.5-1.4-1.3-1.9c0.7-1.9,1.9-3.6,2.9-5.4
				C4.6,264.8,5.8,262.8,7,260.9z M-0.7,216.9c-0.3-1.9,0.3-3,3.8-1.9c3.4,1.1,6,0.2,7.9-1.9c1.9-2.1,1.6-4.1-1.4-5.7
				C8.8,207,8,206.5,7.3,206c-2.7-1.8,0.3-2.6,1.4-3.7c1.4-1.4,2.3-0.1,3.1,0.6c1.7,1.4,3.5,2.9,5.2,4.3c2.6,2.2,5.2,4.4,1.9,7.4
				c-0.5,0.4-0.6,1-0.9,1.5c-0.7,1.6-2.1,2.2-4.6,2.1c-3.8,0-7.7,0.1-11.5,0.6C-0.7,219.1-1,218.5-0.7,216.9z M28.2,275.6
				c1.3,0,2.6-0.2,3.8,0.1c1,0.2,2.6,0.9,2.6,1.5c0,0.7-1,2-1.9,2.1c-7.7,1-15.5,1.3-22.9-1c-2.6-0.8-3.4-2.3-2.9-4.2
				c0.4-1.5,1.3-2.3,3.6-1.3C15.9,275.1,22,275.5,28.2,275.6z M51,303.6c-0.1-0.4-0.4-0.8-0.5-1.3c-1-4.6-5.1-7.8-10.5-9.9
				c-2.4-1-2.2-1.6-1.2-2.7c0.8-0.8,1.7-1.5,2.7-2.2c1.5-1,2.5-1.2,3.6,0.5c1,1.7,2.4,3.6,4.4,4.6c3.6,1.7,5.2,4,6.6,6.5
				C57.4,301.3,55.2,303.6,51,303.6z M23.8,267.2c-1.2-0.2-3.2-0.1-3.5-0.5c-1.4-2.3-2.6-4.8-3.2-7.2c-0.5-1.9-0.2-3.9,0.1-5.8
				c0.1-0.6,1.1-1.2,1.7-1.8c0.6,0.4,1.3,0.7,1.7,1.2c1.3,1.3,2,3.4,3.7,3.8c4.6,1.2,4.2,3.4,3.4,5.9c-0.1,0.5-0.3,1.1-0.1,1.6
				C28.2,266.6,26.9,267.4,23.8,267.2z M24,224.4c-2.4-0.7-3.9-1-5.2-1.6c-1.7-0.8-5.1-1.5-0.3-2.8c1-0.3,1.6-1.3,2.2-2.1
				c1.5-2.1,2.8-4.2,4.5-6.2c0.5-0.5,2.4-0.6,3.6-0.6c0.5,0,1.5,1.1,1.3,1.6c-0.6,2.3-1.3,4.7-2.4,6.9
				C26.9,221.4,25.2,222.9,24,224.4z M-0.5,222.6c0.4-0.4,1-0.9,1.6-1.4c0.6,0.5,1.4,0.9,1.8,1.5c1.6,2.2,2.6,4.7,4.8,6.6
				c2.2,1.9,5.6,3.1,8.2,4.7c0.8,0.5,0.9,1.7,1.3,2.5c-1,0.1-2.1,0.5-3,0.4C3.9,235.1,2.4,228.8-0.5,222.6z M56.1,324
				c1.5-2.8,2.1-5.4,4.1-7.1c2.6-2.3,6.4-4,9.7-6c0.7-0.4,1.7-0.4,2.6-0.6c-0.3,0.7-0.3,1.4-0.8,2c-1.8,1.9-5,3.7-5.2,5.7
				c-0.4,3.8-4.6,4.5-7.8,6.1C58.2,324.2,57.4,324,56.1,324z M50.2,312.6c4.8,0.4,7.9-0.6,10.5-2.5c1.5-1.1,2.8-2.4,4.4-3.3
				c0.8-0.5,2.3-0.3,3.5-0.5c-0.2,0.7-0.2,1.6-0.8,2c-2.3,1.7-4.5,3.5-7.2,4.7s-6,1.9-9.1,2.4c-1,0.1-2.5-1.3-3.8-2
				C48.8,313.1,49.8,312.8,50.2,312.6z M17.9,241.5c0,0.4,0,0.7,0.1,1c-0.8,0.4-1.5,0.9-2.4,1.1c-5.5,1.5-10.2,3.5-13.4,7.1
				c-0.6,0.7-2.2,1.1-3.4,1.5c-0.4,0.1-0.9,0-1.4,0c0.1-0.3,0.2-0.7,0.4-1c4.5-4.4,9.4-8.4,16.8-10.5
				C15.5,240.7,16.8,241.3,17.9,241.5z M29.8,282.3c-0.7,1-1.4,1.8-1.8,2.6c-1.5,3.2-2.9,6.4-4.4,9.6c-0.6,1.3-1.4,2.5-2.2,3.7
				c0,0-1.5-0.2-1.6-0.4C17.8,292,21.8,285.7,29.8,282.3z M29.4,290.9c2.5-2.5,5-5.2,7.8-7.8c0.2-0.2,1.8,0,2.5,0.4
				c0.4,0.2,0.6,1.2,0.4,1.4c-3.1,1.8-4.8,4-5.5,6.8c-0.2,0.6-2.4,1-3.7,1.4C30.5,292.6,30.1,292.1,29.4,290.9z M16.5,264.5
				c1.5,4.3,2.3,4.8,8.5,4.8c0.9,0,1.9-0.2,2.7,0c0.9,0.3,1.6,1,2.3,1.5c-0.7,0.2-1.5,0.6-2.2,0.6c-3.5-0.2-7.1-0.4-10.6-1
				c-2.6-0.4-4.6-1.4-2-3.5C16,266.2,16.1,265.3,16.5,264.5z M11.3,220.5c0.5,0.2,0.7,0.2,0.7,0.2c2,3,6,4.2,9.9,5.6
				c0.4,0.1,0.3,1,0.2,1.5c-0.1,0.3-0.9,0.6-1.3,0.6c-3.5,0-9.7-4.2-10-6.7C10.7,221.3,11.1,220.9,11.3,220.5z M50.5,308.8
				c-1.5-0.5-2.1-0.8-2.7-1c0.5-0.6,0.8-1.5,1.5-1.7c3.1-1,6.3-1.9,9.5-2.7c0.4-0.1,1.1,0.1,1.6,0.2c-0.2,0.3-0.2,0.8-0.5,0.9
				C56.7,306,53.5,307.5,50.5,308.8z M26.2,207c0.1-0.1,0.1-0.3,0.2-0.4c2.7,0.7,5.4,1.3,8,2.1c0.5,0.2,0.7,0.9,1,1.4
				c-0.8,0.1-1.7,0.4-2.4,0.2c-3-0.5-6-1.2-9-1.8c-0.6-0.1-1-0.6-1.6-0.9c0.6-0.2,1.2-0.5,1.8-0.6C24.9,206.9,25.6,207,26.2,207z"/>
		</g>
	</g>
</g>
<g id="Layer_3">
	<path class="st5" d="M84.9,0c-3.6,0.9-7.6,1.3-10.7,2.8C68,5.7,61,8,56.5,12.5c-0.6,0.6-1.3,1.1-2.2,1.4c-3.3,1.3-6.6,2.4-9.9,3.7
		c-2.7,1-4.7,2.4-4.8,4.8c0,0.7-1,1.4-1.9,1.9c-3.7,2.2-5.9,4.8-5.5,8.4c0.1,0.6-1.3,1.4-2.3,1.8c-2.9,1.2-6.1,2.1-8.9,3.3
		c-1,0.4-2,1.4-2,2.2c0.1,3.4-2.6,5.3-5.8,7.5c-3.2,2.3-3.7,5.6-2.9,8.8c0.5,1.8-0.1,3-1.8,4.5c-2.1,1.8-2.6,4.5-3.8,6.8
		c-0.6,1.2-1.4,2.3-2.1,3.5c-0.8,1.4-2.4,2.8-2.2,4.1c0.8,3.6,0.9,7.3,4.7,10.3c1.1,0.9,1.5,2.6,1.1,3.8c-0.8,2.7-0.9,5.1,1.5,7.4
		c0.7,0.7,1.2,1.7,1.1,2.5c-0.6,5.2,3.3,8.6,9.1,11.2c2.9,1.3,5.9,2.3,9.5,3.7c-1.8,1.6-3.4,3.1-5,4.5c9.4,0,18.8,0,28.2,0
		c-3.2-1.2-6.3-2.6-9.5-3.7c-6.4-2.1-12.9-4-19.4-6c0-0.3-0.1-0.6-0.1-1c1.4-0.2,3-0.8,4.1-0.5c6.4,1.8,12.8,3.8,19.1,5.8
		c3,1,5.6,2.4,8.7,3.3c2.6,0.8,5.5,1,8-1.3c-1.6-0.3-2.7-0.4-3.5-0.8c-1.2-0.5-3-1.2-3-1.9c-0.1-0.8,1.2-1.9,2.2-2.5
		c2.3-1.2,8.7-0.9,10.5,0.3c2.8,2,2.5,4.3,0.8,6.7c-0.3,0.5-0.7,1-1,1.4c1.5,0,3,0,4.6,0c0.6-2.1,2-4.3,1.8-6.3
		c-0.3-2.7-2.9-5-6.9-5.3c-5.6-0.5-11.4-0.8-15.2,3c-1.4,1.4-2.5,1.5-4.4,0.7c-2.8-1.2-5.7-2.3-8.7-3.3c-3.6-1.2-7.4-2.2-12.3-3.6
		c3.9-1.7,6.8-3.2,10-4.2c7.5-2.3,15.1-3.2,23.2-1.4c8.9,2,15.3,6.1,21.4,10.8c1,0.8,2.8,1.1,4.2,1.6c0-0.9,0-1.8,0-2.7
		c-4.5-3.7-9-7.4-13.4-11c4.3-1.2,4.7-4.2,2.3-7.9c-2.2-3.3-8.9-4.8-12.8-2.3c-1.3,0.8-1.5,2.6-1.7,4c0,0.3,2.5,1.2,3.2,1
		c1.4-0.5,2.4-1.6,3.9-2.7c0.1,0.5,0.5,1.5,0.2,2.3c-1,2.1-3.9,2.4-6.3,2c-1.6-0.3-3.5-1.5-4-2.6c-1.3-2.7,1.1-5.4,5-6.3
		c5.8-1.4,12.5,0.7,14.7,4.8c2.4,4.4,2.4,4.4,8.2,1.9c0.2-0.1,0.5-0.2,0.7-0.2c0-3.6,0-7.1,0-10.7c-3-1.1-6-2.2-8.9-3.3
		c-1.1-0.4-2.7-1-2.9-1.6c-0.2-0.7,0.6-2,1.5-2.4c3.3-1.4,6.9-2.6,10.3-3.9c0-0.9,0-1.8,0-2.7c-3.4,0.6-6.7,1.3-10.4,2
		c-3.6-5.8-5.6-11.9-1.6-17.8c2.7-3.9,7.9-7,12-10.5c0-3.8,0-7.5,0-11.3c-4.3,3.6-9.9,5.8-16.4,6.8c-4,0.6-7.3,1.9-9.5,4.5
		c-1.3,1.5-1,2.4,1,3.3c2.3,1.1,4.7,2.2,6.7,3.5c0.9,0.6,1.6,1.8,1.4,2.6c-0.8,3.9-2,7.7-3,11.4c0,0-0.5-0.6-1.2-0.9
		c-1.7-0.7-3.6-1.2-5.4-1.8c-0.3,1.3-1.3,2.8-0.7,3.9c1.6,3.3,3.9,6.4,6,9.5c0.7,1.1,1.5,2.1,2.1,2.9c-5.7,1.2-10.9,2.3-16.1,3.3
		c-0.9,0.1-2.6-0.5-3.1-1.1c-1.4-1.7-2.1-3.6-3.4-5.4c-7.4-9.8-8.4-20.5-7.8-31.3c0-0.8,1.9-2.1,2.8-2.1c4,0.1,8.1,0.3,12,1
		c2.4,0.4,3.9,0.1,5.8-0.9c2.8-1.5,5.8-3.2,9.1-3.7c8.2-1.3,15-3.9,19.7-8.9C84.9,16.8,84.9,8.4,84.9,0z M5.4,81.7
		c1.6-0.6,2.2-1,2.8-1.2c7.9-2.1,15.8-4.2,23.8-6.2c6.7-1.6,6.7-1.5,9.2,3c0.7,1.2,1.6,2.4,2.3,3.7c1,1.7,0,2.8-2.5,3.1
		c-2.2,0.3-4.6,0.3-6.8,0.6c-0.9,0.1-2.1,0.6-2.3,1.1c-0.2,0.5,0.4,1.4,1.1,1.8c1.9,1.1,4.2,2,6.1,3.2c0.9,0.6,2,1.5,2,2.3
		c-0.1,0.7-1.3,1.6-2.4,2c-2.2,0.9-4.5,1.8-6.9,2.2c-1.7,0.3-4.5,0.5-5.5-0.2C19.4,92.1,12.6,87,5.4,81.7z M36.7,30.9
		c1.6-1.6,3.1-3.2,4.7-4.8c1-1,2.6-1.9,2.8-3c0.8-3.9,5-5.3,9.2-6.2c2.8-0.6,4.7-1.2,6-3.1c0.6-0.9,1.6-1.6,2.6-2.3
		c4.3-2.9,11-1.4,12.9,2.6c2.2,4.7-2.1,10.7-8.9,11.8c-7.1,1.1-14.1,2.9-19.5,6.8c-1,0.8-2.9,1.1-4.5,1.3
		C38.5,34.6,37.5,33.9,36.7,30.9z M12.2,63.4c0.4-0.4,0.7-0.9,1.3-1.1c4.7-1.5,9.4-3.1,14.3-4.4c0.8-0.2,3,0.5,3.4,1.1
		c1.8,3,3.2,6.2,4.8,9.3c0.7,1.4,0.1,2.2-2,2.5c-3.1,0.5-6.1,1.2-9.2,1.8c-5.5,1.1-5.5,1.1-8-2.6C15.3,67.9,13.8,65.7,12.2,63.4z
		 M30.8,37.3c-0.2,2.7-0.2,5.1-3.3,7c-1.4,0.9-2.4,2.3-3.2,3.6c-1.7,2.7-3.1,5.5-4.8,8.2c-0.5,0.7-1.8,1.1-2.9,1.5
		c-0.3,0.1-1.3-0.5-1.5-0.9c-1.5-2.4,0.1-7.4,3.2-8.5c3.6-1.3,4.2-3.2,4.2-5.7C22.4,39,25.1,37.4,30.8,37.3z M10,91
		c0.5-0.2,1.1-0.3,1.6-0.5c1.2,1.5,2.7,2.9,3.7,4.4c1.2,1.8,2.4,3.7,3,5.6c0.5,1.6,0.4,3.2,0.3,4.9c0,0.1-1.4,0.5-1.5,0.4
		c-1.1-1.3-2.2-2.6-3.2-4c-0.1-0.1,0-0.2,0-0.3c-0.9-2.4-1.8-4.7-2.6-7.1C10.8,93.2,10.4,92.1,10,91z M5.1,77.3
		c0-1.1-0.4-2.3,0.1-3.3c1.3-2.5,3.1-4.9,4.6-7.3C12.2,70.7,7.6,73.8,5.1,77.3z"/>
	<path class="st5" d="M85.2,236.8c-3.6-0.9-7.7-1.3-10.8-2.8c-6.2-2.9-13.2-5.2-17.8-9.6c-0.6-0.5-1.3-1.1-2.2-1.4
		c-3.3-1.3-6.7-2.5-10-3.7c-2.7-1-4.7-2.4-4.8-4.8c0-0.6-1-1.4-1.9-1.9c-3.7-2.2-5.9-4.8-5.6-8.4c0.1-0.6-1.4-1.4-2.3-1.8
		c-2.9-1.2-6.1-2.1-9-3.3c-1-0.4-2.1-1.4-2-2.2c0.1-3.4-2.6-5.3-5.8-7.5c-3.2-2.3-3.7-5.6-2.9-8.8c0.5-1.8-0.1-3-1.9-4.5
		c-2.1-1.8-2.6-4.5-3.9-6.8c-0.6-1.2-1.4-2.3-2.1-3.5c-0.8-1.4-2.4-2.8-2.2-4.1c0.8-3.6,0.9-7.3,4.8-10.3c1.1-0.9,1.5-2.6,1.1-3.8
		c-0.8-2.7-0.9-5.1,1.5-7.4c0.7-0.7,1.2-1.7,1.1-2.5c-0.6-5.2,3.4-8.6,9.1-11.2c2.9-1.3,6-2.3,9.5-3.7c-1.8-1.6-3.4-3.1-5.1-4.5
		c9.5,0,19,0,28.4,0c-3.2,1.2-6.3,2.6-9.6,3.7c-6.4,2.1-13,4-19.5,6c0,0.3-0.1,0.6-0.1,1c1.4,0.2,3,0.8,4.1,0.5
		c6.5-1.8,12.9-3.8,19.2-5.8c3-1,5.7-2.4,8.7-3.3c2.6-0.8,5.5-1,8,1.3c-1.6,0.3-2.7,0.4-3.5,0.8c-1.2,0.5-3,1.2-3,1.9
		c-0.1,0.8,1.2,1.9,2.3,2.5c2.3,1.2,8.8,0.9,10.5-0.3c2.8-2,2.5-4.3,0.8-6.7c-0.3-0.5-0.7-1-1-1.4c1.5,0,3.1,0,4.6,0
		c0.6,2.1,2,4.3,1.8,6.3c-0.3,2.7-2.9,5-7,5.3c-5.6,0.5-11.5,0.8-15.3-3c-1.4-1.4-2.5-1.5-4.4-0.7c-2.9,1.2-5.8,2.3-8.8,3.3
		c-3.7,1.2-7.5,2.2-12.4,3.6c3.9,1.7,6.8,3.2,10.1,4.2c7.5,2.3,15.2,3.2,23.4,1.4c8.9-2,15.4-6.1,21.5-10.8c1-0.8,2.8-1.1,4.3-1.6
		c0,0.9,0,1.8,0,2.7c-4.5,3.7-9.1,7.4-13.5,11c4.4,1.2,4.8,4.2,2.3,7.9c-2.2,3.3-9,4.8-12.9,2.3c-1.3-0.8-1.5-2.6-1.7-4
		c0-0.3,2.5-1.2,3.3-1c1.4,0.5,2.4,1.6,3.9,2.7c0.1-0.5,0.6-1.5,0.2-2.3c-1-2.1-3.9-2.4-6.3-2c-1.6,0.3-3.5,1.5-4,2.6
		c-1.3,2.7,1.1,5.4,5,6.3c5.8,1.4,12.6-0.7,14.8-4.8c2.4-4.4,2.4-4.4,8.2-1.9c0.2,0.1,0.5,0.2,0.7,0.2c0,3.6,0,7.1,0,10.7
		c-3,1.1-6,2.2-9,3.3c-1.1,0.4-2.7,1-2.9,1.6c-0.2,0.7,0.6,2,1.5,2.4c3.3,1.4,6.9,2.6,10.4,3.9c0,0.9,0,1.8,0,2.7
		c-3.4-0.6-6.8-1.3-10.5-2c-3.7,5.8-5.6,12-1.6,17.8c2.7,3.9,8,7,12.1,10.5c0,3.8,0,7.5,0,11.3c-4.4-3.6-10-5.8-16.6-6.8
		c-4-0.6-7.3-1.9-9.6-4.5c-1.3-1.5-1-2.4,1-3.3c2.4-1.1,4.7-2.2,6.8-3.5c0.9-0.6,1.6-1.8,1.5-2.6c-0.8-3.9-2-7.7-3-11.4
		c0,0-0.5,0.6-1.2,0.9c-1.8,0.7-3.6,1.2-5.4,1.8c-0.3-1.3-1.3-2.8-0.7-4c1.7-3.3,3.9-6.4,6-9.5c0.7-1.1,1.5-2.1,2.1-2.9
		c-5.7-1.2-10.9-2.3-16.2-3.3c-0.9-0.1-2.6,0.5-3.1,1.1c-1.4,1.7-2.1,3.6-3.4,5.4c-7.5,9.8-8.4,20.5-7.8,31.3c0,0.8,1.9,2.1,2.8,2.1
		c4-0.1,8.1-0.3,12-1c2.5-0.4,3.9-0.1,5.8,0.9c2.8,1.5,5.8,3.2,9.1,3.7c8.2,1.4,15.1,3.9,19.8,8.9C85.2,220,85.2,228.4,85.2,236.8z
		 M5.2,155.1c1.6,0.6,2.2,1,2.9,1.2c8,2.1,15.9,4.2,24,6.2c6.8,1.6,6.8,1.5,9.2-3c0.7-1.2,1.6-2.4,2.3-3.7c1-1.7,0-2.8-2.5-3.1
		c-2.3-0.3-4.6-0.3-6.8-0.6c-0.9-0.1-2.1-0.6-2.3-1.1c-0.2-0.5,0.5-1.4,1.1-1.8c2-1.1,4.2-2,6.1-3.2c1-0.6,2-1.5,2-2.3
		c0-0.7-1.3-1.6-2.4-2c-2.2-0.9-4.5-1.8-6.9-2.2c-1.7-0.3-4.5-0.5-5.5,0.2C19.2,144.7,12.4,149.8,5.2,155.1z M36.6,205.9
		c1.6,1.6,3.2,3.2,4.7,4.8c1,1,2.6,1.9,2.8,3c0.8,3.9,5.1,5.3,9.2,6.2c2.8,0.6,4.8,1.2,6.1,3.1c0.6,0.9,1.6,1.6,2.6,2.3
		c4.3,3,11.1,1.5,13-2.6c2.3-4.7-2.1-10.7-9-11.8c-7.2-1.1-14.2-2.9-19.6-6.9c-1-0.8-2.9-1.1-4.5-1.4
		C38.4,202.2,37.5,202.9,36.6,205.9z M11.9,173.4c0.4,0.4,0.7,0.9,1.3,1.1c4.8,1.5,9.5,3.1,14.4,4.4c0.9,0.2,3-0.5,3.4-1.1
		c1.8-3,3.2-6.2,4.9-9.3c0.8-1.4,0.1-2.2-2-2.5c-3.1-0.5-6.2-1.2-9.2-1.8c-5.5-1.1-5.5-1.1-8,2.6C15.1,168.9,13.6,171.1,11.9,173.4z
		 M30.7,199.6c-0.2-2.7-0.2-5.1-3.3-7c-1.5-0.9-2.4-2.3-3.2-3.6c-1.7-2.7-3.1-5.5-4.9-8.2c-0.4-0.7-1.8-1.1-2.9-1.5
		c-0.3-0.1-1.3,0.5-1.6,0.9c-1.5,2.4,0.1,7.4,3.2,8.5c3.6,1.3,4.2,3.2,4.2,5.7C22.2,197.8,25,199.5,30.7,199.6z M9.7,145.9
		c0.5,0.2,1.1,0.3,1.6,0.5c1.2-1.5,2.7-2.9,3.7-4.4c1.2-1.8,2.4-3.7,3.1-5.6c0.5-1.6,0.4-3.2,0.3-4.9c0-0.1-1.5-0.5-1.5-0.4
		c-1.1,1.3-2.2,2.6-3.2,4c-0.1,0.1,0,0.2,0,0.3c-0.9,2.4-1.8,4.7-2.7,7.1C10.6,143.6,10.2,144.7,9.7,145.9z M4.8,159.6
		c0,1.1-0.4,2.3,0.1,3.3c1.3,2.5,3.1,4.9,4.6,7.3C12,166.2,7.4,163.1,4.8,159.6z"/>
</g>
</svg>
