<?xml version="1.0" encoding="utf-8"?>
<!-- Generator: Adobe Illustrator 27.1.1, SVG Export Plug-In . SVG Version: 6.00 Build 0)  -->
<svg version="1.1" id="Layer_1" xmlns="http://www.w3.org/2000/svg" xmlns:xlink="http://www.w3.org/1999/xlink" x="0px" y="0px"
	 viewBox="0 0 95.3 336.7" style="enable-background:new 0 0 95.3 336.7;" xml:space="preserve">
<style type="text/css">
	.st0{display:none;}
	.st1{display:inline;opacity:0.15;}
	.st2{fill:#545454;}
	.st3{fill:#3C3C3C;}
	.st4{display:inline;fill:#202020;}
</style>
<g id="behind" class="st0">
	<g class="st1">
		<g>
			<path d="M144.7,213.1c1,1.1,2.1,2.2,2.9,3.5c5.1,7.5,10.3,15.1,15.3,22.7c1,1.6,1.7,3.4,2.2,5.3c0.3,1-0.2,2.2-0.3,3.3
				c-0.5,0.1-0.9,0.2-1.4,0.3c-2.7-4.9-5.4-9.7-8.4-15c-9.6,3.9-18.8,7.5-28.1,11.3c1.5,2.4,3.3,4.6,4.3,7.1s1.2,5.3,1.8,8.1
				c9.4,2,10.7,10.7,10.6,21.3c6.9,5.8,8.1,13.5,7.4,22c-0.1,1.3,0.5,2.8,1.2,3.9c3.7,5.8,2.8,11.9,1.8,18.1c-0.2,1-1.3,1.7-2,2.6
				c-0.4,0-0.8-0.1-1.2-0.1c-0.2-1.1-0.6-2.1-0.5-3.2c0.1-3.6,0.8-7.1,0.6-10.7c-0.2-5-2.9-7.5-7.9-7.9c-0.1,0-0.2,0-0.4,0
				c-7.2-0.7-8.1-2.5-4.2-8.8c-0.8-1.1-1.7-2.3-2.6-3.5c-1.7-2.2-1.9-4.2,0.3-6.3c5.2-5.1,5.7-16.4,0.8-21.7c-0.9-1-2.8-1.8-4.1-1.7
				c-2.7,0.2-5.4,1-8.1,1.8c-4.3,1.2-6.1,0.1-7.9-3.9c-1-2.2-3-4.1-4-6.3c-0.8-1.8-1.5-4.1-1.1-5.9c1.6-6,1.3-8.2-2.8-13.7
				c-2.7,0-5.7,0-8.7,0c-3.6,0-6.3-1.4-7.4-5.1c-0.3-1.1-1-2.2-1.7-3.1c-2.1-2.9-2.6-5.7,0.4-8.1c0-1.4,0-2.5,0-4.1
				c-5.4-0.9-9.4,2.8-14.3,4c0-1.5,0-2.9,0-4.2c13.6-8.7,37.1-4.2,33.4,16.9c1.8,2.8,3.5,5.5,5.3,8.3c2.4,0.4,5.1,0.9,7.7,1.3
				c0.1,0.2,0.1,0.5,0.2,0.7c9.6-3.9,19.2-7.9,28.7-11.8c-2.3-6-7.8-10.2-9.3-16.3C143.6,213.7,144.2,213.4,144.7,213.1z
				 M106.4,225.8c-2.1,0.5-3.9,1-6.2,1.5c-1-2.1-2.4-3.9-2.6-5.9s0.6-4.1,1.1-6.6c-1.6-0.1-2.9-0.2-3.9-0.3c-0.6,3.3-1,6.1-1.6,9.7
				c1.1,1.9,2.6,4.6,4.2,7.4c3,0,6,0,9.1,0C106.4,229.5,106.4,227.9,106.4,225.8z M128.4,257.4c-3.9,0.9-6.4-0.8-9-3.4
				c-3.2-3.2-0.4-6.5-0.8-9.9c-0.9,0.1-1.7,0.1-2.3,0.2c-0.6,2.7-1.2,5.1-1.7,7.1c2.4,3.8,4.6,7.3,7.1,11.1c2.3-0.7,4.7-1.5,7.4-2.3
				C128.7,259.2,128.6,258.4,128.4,257.4z M142.6,284.5c-1.8,2.1-3.2,3.9-4.8,5.8c3.2,3,5.8,6.3,2.5,10.9c1.4,0.2,2.3,0.4,3.2,0.5
				c1,0.1,2.1,0,3.4,0c0.1-1.1,0.1-2.2,0.2-3.1c-5.2-3.2-5.2-7.9-2.4-11.8C144.1,286.2,143.4,285.5,142.6,284.5z"/>
			<path d="M254.4,296.7c0.8,1.1,1.3,1.8,1.8,2.5c1.7,2.8,1,4.8-2.3,5.7c-1.3,0.4-2.6,0.5-3.9,0.6c-4.9,0.5-7.6,2.8-7.8,7.6
				c-0.2,3.5,0.4,7.1,0.5,10.7c0,1.1-0.2,2.3-0.4,3.4c-0.6,0.1-1.2,0.2-1.8,0.2c-0.7-1.7-2-3.4-2.1-5.1c-0.3-5.7-1.1-11.5,3-16.5
				c0.6-0.8,0.4-2.2,0.6-3.4c0.6-4.7,0.6-9.5,1.9-14c0.8-2.8,3.3-5.2,5.4-8.3c0.9-7.6-0.9-17.3,11.2-20.6c-0.7-5.7,2.2-10.4,5.8-15
				c-9.6-3.8-18.7-7.5-28.3-11.4c-2.9,5.2-5.5,10.1-8.2,14.9c-0.4,0-0.8,0-1.2-0.1c-0.3-1-0.9-2.1-0.7-3.1c0.4-1.7,1-3.5,2-5
				c5.6-8.5,11.4-16.9,17.2-25.4c0.4-0.5,1-0.9,1.6-1.3c0.4,0.1,0.8,0.2,1.1,0.4c-0.4,1.3-0.4,2.8-1.1,3.9
				c-2.6,4.1-5.4,8.2-8.3,12.5c9.8,4.1,19.3,8,27.9,11.5c3.6-0.6,6.2-1.1,9-1.6c1.7-2.6,3.5-5.4,5.3-8.3
				c-3.6-20.8,19.2-25.2,32-17.6c0,1.3,0,2.7,0,4.1c-4.2-1.3-8.2-2.6-12.7-4c-0.2,2.2-0.3,3.3-0.4,4.7c3.6,2.7,1.8,5.3,0.5,8.7
				c-2.7,7.2-7.7,8.9-14.6,7.6c-0.4-0.1-0.7,0-1.1,0c-0.7,0.1-1.4,0.2-2.1,0.4c-3.7,3.9-4.8,8.3-2.7,13.2c1,2.6,0.4,4.5-1.2,6.6
				c-1.7,2.1-3,4.5-4.3,7c-1.5,2.9-3.6,3.8-7.3,2.8c-2.6-0.7-5.1-1.4-7.7-1.9s-4.4,0.8-5.7,3c-4,6.5-3.2,15.3,2.1,20.8
				c1.9,2,1.6,3.8,0.2,5.8C256.4,294.2,255.4,295.4,254.4,296.7z M286.5,231.7c3.3,0,6.2,0,9,0c1.7-3,3.2-5.8,4.1-7.4
				c-0.6-4.1-1-6.9-1.5-10c-1.3,0.3-2.6,0.5-4.2,0.9c1.7,4.6,2.3,8.6-1.9,12.1c-1.7-0.4-3.5-0.9-5.6-1.4
				C286.5,227.8,286.5,229.5,286.5,231.7z M278.4,251.3c-0.6-2.3-1.2-4.7-1.8-7.3c-0.8,0.1-1.6,0.2-2.3,0.3c1.4,10-0.8,13-9.8,13.4
				c-0.1,0.8-0.2,1.7-0.4,2.6c2.6,0.8,5,1.5,7.2,2.2C273.7,258.7,275.9,255.2,278.4,251.3z M250.3,284.6c-0.8,0.8-1.5,1.6-2.2,2.3
				c3.1,5.1,2.5,8.4-2.4,11.9c0.1,1,0.3,2.1,0.4,3.3c2.3-0.3,4.3-0.5,6.6-0.8c-3.7-4.9-0.5-7.9,2.2-11
				C253.4,288.4,252,286.6,250.3,284.6z"/>
			<path d="M187.8,129c1.5,0.6,2.8,1.1,4.4,1.6c1.1,3.4,2.2,7,3.3,10.6c0.6,0,1.3,0,1.9,0c1.1-3.5,2.2-6.9,3.3-10.6
				c1.3-0.5,2.7-1.1,4.8-1.9c0.4,1.5,1,2.9,1.1,4.4c0.6,6-1.7,11-5.7,15.3c-1.9,2-4.2,2.8-6.9,1.4
				C187.8,146.7,184.3,135.3,187.8,129z"/>
			<path d="M229.8,148.7c-6.6-1.4-10.7-5.6-14.5-10.9c0.7-0.9,1.3-1.6,2.1-2.6c2,1.5,3.7,2.7,5.7,4.3c-1.6-6.4-2.7-12.5-9.3-16.5
				c2.5-1.3,4-2.1,5.3-2.9C227.4,122.6,233.8,139.1,229.8,148.7z"/>
			<path d="M162.9,148c-3.6-8.6,2.4-24.7,10.6-28c1.4,0.6,3,1.3,4.9,2.3c-2.2,2.9-4.5,5.2-5.9,7.9s-1.8,5.8-2.8,9.4
				c2.1-1.7,3.7-2.9,5.5-4.4c0.9,0.7,1.6,1.4,2.2,1.9C174.9,143.1,167.8,148.4,162.9,148z"/>
			<path d="M192,294.2c0.4,8.6-1.3,16.8-6.3,24c-7.2,10.4-17.3,17.7-27.9,24.2c-1.6,1-3.6,1.4-5.5,1.7c-0.8,0.1-1.8-0.5-3.7-1.2
				c1.9-1.3,2.9-2.1,4-2.6c18.4-8.7,33.7-20,36.4-41.9c0.2-1.6,1-3.2,1.5-4.8C191,293.8,191.5,294,192,294.2z"/>
			<path d="M202.1,293.2c0.7,1.5,1.6,2.5,1.6,3.5c0.8,16.6,10.8,27.4,23.6,36.4c4.2,2.9,9,4.9,13.5,7.3c0.8,0.4,1.6,1,3.5,2.2
				c-1.9,0.8-2.9,1.6-3.8,1.5c-2-0.4-4.1-0.8-5.8-1.9c-9.8-6-19-12.9-26.1-22c-5.7-7.2-7.7-15.6-7.8-24.5c0-0.4,0-0.7,0.1-1.1
				C200.9,294.4,201.2,294.2,202.1,293.2z"/>
			<path d="M103.5,279.9c1.8,9.2,3.5,18.5-1.5,27.4c-0.8,1.4-2,2.7-3.3,3.7c-0.7,0.6-2.1,0.4-3.4,0c7.9-8.3,8.1-17.7,5.5-28.8
				c-4.1,2.8-7.8,5.2-11.5,7.8C89,285,96.9,279.5,103.5,279.9z"/>
			<path d="M297,311.7c-1.2-0.4-2.7-0.4-3.5-1.2c-4-3.7-5.6-8.8-5.8-13.9c-0.3-5.5,0.8-11.1,1.2-16.5c6-1.1,14.3,4.3,15,10.1
				c-4-2.7-7.6-5.2-11.8-8c-2.5,10.9-2.7,20.3,5.7,28.1C297.5,310.8,297.3,311.2,297,311.7z"/>
			<path d="M233.9,130.1c2.5,0.3,5,0.6,8.1,1c-1.6-2.1-2.8-3.8-4.4-6.1c2.2-0.5,3.6-0.8,6-1.3c2,3.2,4.1,6.5,6.3,10.1
				c-4.1,3.7-8.2,4-12.3,3.6c-1.4-2.2-2.5-4.1-3.7-6C233.8,130.9,233.9,130.5,233.9,130.1z"/>
			<path d="M159.1,131.2c-1.2,1.9-2.3,3.8-3.8,6.1c-3.9,0.6-7.9,0.1-12.3-3.3c2.1-3.5,4.1-7,6.2-10.3c2.3,0.5,3.8,0.8,6.2,1.2
				c-1.6,2.2-2.9,3.8-4.6,6c3.1-0.3,5.6-0.6,8.1-0.9C159,130.5,159.1,130.9,159.1,131.2z"/>
			<path d="M101.8,315.9c1.5-3.2,3.9-3.7,6.5-3.6c4.2,0.1,14.4,4.2,18,7.1c-1.9,5.5-14.2,12.4-18.8,9.8c5.1-2.9,9.8-5.6,15.4-8.8
				C115.8,316.8,109.8,313.2,101.8,315.9z"/>
			<path d="M266.6,319.5c6.9-6.6,20.5-9,24.6-3.8c-8-2.5-14.1,1-21.2,4.6c5.5,3.1,10.2,5.8,15.1,8.5
				C281.7,332.1,269.3,325.6,266.6,319.5z"/>
			<path d="M165.3,116.7c-1.9,0-3.7,0-5.5,0c-0.1,0.2-0.1,0.5-0.2,0.7c-1.2-1.1-2.5-2.1-3.8-3.2c0-1.8,0-3.6,0-4.8
				c2.7-1.6,4.9-3,7.6-4.6C167.7,105.8,169,112.5,165.3,116.7z"/>
			<path d="M237.1,109.5c0.1,1.1,0.1,2.8,0.2,4.4c-1.4,1.2-2.6,2.3-3.4,3.1c-2.2-0.2-4-0.3-6.4-0.6c-3.3-2.9-2.5-9.6,1.9-11.9
				C231.7,106.1,234,107.6,237.1,109.5z"/>
			<path d="M190.9,122.2c1.8-2.2,3.6-4.5,5.7-7c2.1,2.7,3.7,4.9,5.3,7c-0.6,2.8-2.7,2.9-4.8,2.9C194.8,125,192.1,125.5,190.9,122.2z
				"/>
			<path d="M116.3,310.5c0.6-3.8,1.1-6.9,1.7-10.3c-2.9-0.3-5.5-0.5-8.1-0.7c0-0.5,0.1-1,0.1-1.5c3.2,0,6.5,0,9.7,0
				C122,302,120.8,308.4,116.3,310.5z"/>
			<path d="M273.1,298c3.4,0,6.6,0,9.9,0c0,0.5,0,1,0,1.5c-2.5,0.2-5,0.4-8,0.6c0.5,3.3,1,6.6,1.5,10.5
				C272.2,308.4,270.9,302.3,273.1,298z"/>
			<path d="M80.5,301.9c-1.3-5.6-2.5-11-3.8-16.7C82.5,289,84.4,298.4,80.5,301.9z"/>
			<path d="M314.6,287.2c-0.6,4.9-1.2,9.7-1.8,14.6C308.8,300,309.3,293.1,314.6,287.2z"/>
		</g>
	</g>
	<g class="st1">
		<g>
			<path class="st2" d="M307,183.6c3.8,2.5,8.2,4.1,8.9,9.4c-1-0.8-2.1-1.6-3-2.4c-6.2-5.9-14-6.4-19.1-1.3
				c-4.4,4.4-4.5,10.9-0.2,15.6c0.6,0.6,0.8,1.6,1.2,2.3c3.7,0.4,6.6-0.1,8.5-3.8c1-2.1,3.1-3.6,4.7-5.4c-1.5-2.8-3.5-4.5-6.5-3.5
				c-1.4,0.4-2.4,2-3.5,3c0.2,0.3,0.4,0.7,0.6,1c0.8,0.1,1.6,0.2,2.3,0.4c0.8,0.3,1.5,0.8,2.3,1.1c-0.7,0.7-1.4,1.7-2.2,1.9
				c-3.3,0.9-5.8-1.6-5.3-4.9c0.7-4.8,6.8-7.1,11.2-4.2c1.3,0.9,2.3,2.1,3.5,3.2c1.9-0.2,3.9-0.4,6.5-0.7c-4.7,3.9-8.6,7.2-13,10.9
				c5.3,2.3,10.7,2.4,12.8,7.5c-5.8-2.5-11.6-4.1-17.9-3.8c-9.5,0.4-14.2,4.8-14.7,14.2c-0.1,1.2,0,2.4-0.1,3.6
				c-0.7,6.1,1,10.7,7.4,13c2.2,0.8,4,2.6,5.6,3.7c2.1-1,4-1.8,5.9-2.8c0.5-0.2,0.8-0.8,1-1.3c2.1-4.9,6.8-6.1,11.1-7.9
				c0.3-0.1,0.9,0.2,1.8,1.2c-1.9,1.2-3.8,2.4-5.8,3.5c-4.7,2.8-4.8,2.9-3.4,7.9c1.9,6.9,0.3,10.6-6.6,14.4
				c-4.1,2.3-7.2,5.2-8.7,9.8c2.1,2.3,3.5,1.9,5-0.8c1.3-2.2,2.7-4.8,4.8-6.1c6.4-4,9.1-9.8,10-16.9c0.6-4.5,2.4-6.1,8-7.3
				c-2.3,2.2-4,3.9-5.8,5.6c0.3,0.3,0.5,0.5,0.8,0.8c0.4-0.4,0.7-1,1.1-1.3c0.8-0.5,2-1.5,2.6-1.2c0.7,0.3,1.4,1.6,1.4,2.5
				c0,2.4-0.1,4.9-0.8,7.1c-1.6,4.9-3.5,9.6-5.3,14.4c3.7,1.7,3.6,2.2,1,4.9c-2.9,3-5.7,6.1-8,9.6c-4.1,6.3-3.4,12.9,0.6,18.9
				c2.7,4.1,6,7.7,9.2,11.5c0.7,0.9,2,1.3,3.1,1.9c-0.5,0.2-1,0.5-1.5,0.7c-0.5,1.6-1.1,3.1-1.4,4.8c-0.7,3.4-0.9,6.9-1.9,10.1
				c-1.8,5.3-7.4,6.6-12.1,3.4c-1.5-1.1-3.6-1.5-5.5-2.1c-2.4-0.8-4.8-1.5-7.2-1.9c-1.8-0.3-4.2-0.6-5.5,0.2c-2.6,1.7-5.1,4-7,6.5
				c-3,4-5,8.5-11.4,8.7c-3.2,0.1-6.2,2.4-7.2,6.4c5.1,1.3,10.8,0.1,15.2,3.3c-0.1,0.6-0.2,1.1-0.2,1.7c-8.6-0.4-17.4,0.1-25.8-1.4
				c-14.2-2.5-27.1-8.8-39-16.9c-5.1-3.4-9.4-7.6-12-13.2c-0.4-0.9-1.1-1.8-1.9-2.9c-0.6,0.8-1.2,1.2-1.5,1.8
				c-3.8,8.7-11.1,14.2-19.1,18.5c-11,6-22.4,11.8-35.1,13.2c-7.6,0.8-15.4,0.1-23.6,0.1c1.3-3.5,4.6-2.5,7-3
				c2.6-0.6,5.2-0.7,7.9-1.1c-0.4-3.4-3.5-6.6-7.6-6.7c-4.5-0.1-6.6-2.7-8.8-5.8c-2-2.8-4.1-5.7-6.6-8s-5.7-3.1-8.9-0.6
				c-0.9,0.7-2.3,0.8-3.4,0.9c-3.2,0.3-6.2,0.6-9,2.9c-3.6,3-9.2,1.1-10.7-3.3c-1.2-3.5-1.4-7.2-2.2-10.8c-0.3-1.5-0.8-2.9-1.1-4.4
				c-0.8-0.4-1.5-0.8-2.3-1.3c1.2-0.5,2.8-0.8,3.7-1.7c4.9-4.6,9-9.6,11.4-16c2.8-7.7-0.5-13.7-5-19.5c-1.4-1.8-3.3-3.2-4.9-4.8
				c-2.4-2.3-2.3-3,0.4-4c0-2,0.1-3.7,0-5.4c0-0.6-0.4-1.4-0.8-1.9c-3.4-4-4.2-8.8-4.3-13.8c0-1.2,0.9-2.4,1.3-3.7
				c1,0.7,2,1.4,3,2.1c0.2,0.2,0.2,0.6,0.3,1c0.4-0.4,0.8-0.8,1.2-1.1c-1.8-1.7-3.6-3.5-5.5-5.3c4.6,0.3,6.7,2.3,7.7,6.7
				c0.8,3.2,1.4,6.6,3,9.4c1.4,2.6,4,4.5,6,6.8c2.7,3,5.3,6.1,8.2,9.4c0.6-0.3,1.6-0.8,2.8-1.3c-1.4-4.3-3.8-7.3-7.6-9.5
				c-8.5-4.7-9.7-7.4-7.3-16.6c0.7-2.6,0-4.3-2.3-5.6s-4.5-2.8-6.7-4.2c-0.1-0.1-0.1-0.4-0.2-1.3c1.1,0.1,2.2-0.1,2.9,0.3
				c3.7,2.1,8.3,3.1,9.8,7.9c0.2,0.6,1.6,0.7,2.3,1.1c1.3,0.8,2.5,1.7,3.9,2.6c3.5-2.1,7.4-4.1,10.8-6.6c1.3-1,2.3-3.2,2.4-4.9
				c0.3-4,0.3-8.2-0.2-12.1c-0.8-5.3-3.9-8.9-9.4-10.2c-7.9-1.8-15.4-0.6-22.3,3.6c-0.9-3.1,1.8-4.9,11.5-7.4
				c-3-4.6-6.3-8.6-12.3-9.8c0.2-0.5,0.4-1,0.6-1.5c1.9,0.1,3.9,0.3,6.2,0.4c2.5-3.4,5.8-5.6,10.6-3.7c2.8,1.1,4.3,3.5,3.7,6.2
				c-0.3,1.4-2.3,2.8-3.9,3.3c-0.8,0.3-2.3-1-3.5-1.6c1.1-0.5,2.1-1,3.1-1.4c0.4-0.2,0.9-0.2,2.4-0.6c-1.3-1.6-2-3.1-3.2-3.7
				c-2.5-1.3-4.5-0.2-7,3.1c2.2,2.9,4.1,6.1,6.8,8.6c1.2,1.1,3.8,0.9,5.7,1.2c5.3-5.6,7.5-11.8,1.9-17.6c-8.4-8.7-15.6-2.6-22.8,3
				c0.9-5.2,5.4-6.8,9.1-9.2c-1-5.1-5-7.2-9-8.4c2.9-1.9,5.3-4,8.1-5c2.1-0.7,5.1-0.6,7.1,0.3c2.7,1.3,3.2,4.4,2.7,7.2
				c-0.1,0.7-1.2,1.2-1.8,1.8c-0.4-0.7-1.2-1.5-1-2.1c0.5-2.4,0.3-4.8-2.2-5.2c-1.8-0.3-4,0.9-6.3,1.6c2.3,3.5,3.5,6.7,5.8,8.4
				c1.9,1.4,5.4,1.9,7.9,1.3c1.7-0.4,3.4-3.1,4-5.1c1.7-5.6-0.8-11-6.2-14.4c-3.3-2.1-8.2-1.2-12.8,2.2c-1.2,0.9-2.4,1.6-4,1.9
				c2.4-4.3,6-7,11-7.7c6.5-0.9,10.5,3,13.3,7.7c3.6,6,2.5,12.2-2.3,17.4c7,9.5,7.5,16.6,1.4,22.2c13.5,5.9,10.8,17.5,10.6,29
				c8.7-1.4,16.9,0,21.1,8.7c3.7,7.7,3.7,15.9-0.5,23.7c0.2,0.2,0.3,0.3,0.4,0.3c5,0.4,10.1,0.4,13.4,5c4.6,6.4,9,12.8,8.8,21.1
				c-0.1,5.2-2.6,9.2-6.7,12.2c-2.9,2.1-6.2,3.7-9.4,5.6c1.8,2,4,4.2,5.9,6.6c1.3,1.7,2.6,3.5,3.4,5.5c1.2,3.2,3.1,3.3,5.6,1.9
				c8.3-4.6,16.1-10.1,21.1-18.2c2.6-4.1,3.5-9.2,5.6-15c-3.2,1.1-5.3,1.7-7.4,2.5c-1.9,0.8-3.2,0.3-4.1-1.6
				c-1.8-3.9-3.8-7.6-5.1-11.7c-0.3-1,1.5-3.5,2.8-3.9c4.1-1.4,8.4-2.1,12.7-3.1c1.4-0.3,2.8-0.6,4.2-0.9c0.1-0.4,0.3-0.8,0.4-1.1
				c-1.7-0.8-3.4-2.1-5.2-2.3c-11.7-1.4-18.6-15.4-12.1-24.7c1.4-2,2.9-3.5,5.9-1.7c-1.3,1.1-2.6,2-3.4,3.1
				c-3.6,5.3-1.7,13.9,3.9,17.9c5.7,4,11.9,2.9,16.5-3c2.9-3.7,2.6-5.2-1.4-7.9c-2.2,1.9-4.1,4-6.4,5.4c-1.1,0.7-3.1,0.3-4.5-0.1
				c-2.6-0.6-4.4-2.1-4.1-5.1c0.2-1.9,0.6-3.8,3.6-3.8c-0.1,0.8-0.4,1.3-0.3,1.9c0.1,1.4-0.1,3.7,0.5,4c1.5,0.6,3.6,0.8,5,0.2
				c2.9-1.2,3.5-4.7,2-7.6c-0.7-1.4-1.2-2.9-1.1-4.6c2.7,2.8,5.1,6,8.2,8.2c4.4,3.1,5.3,7.1,4.9,11.9c-0.3,3.2-1.5,3.5-4.6,3
				c-2-0.3-4.2,0.9-6.4,1.5c-0.1,0.4-0.1,0.8-0.2,1.3c2.9,1.7,5.8,3.4,9.6,5.6c-2.3,1-3.8,1.9-5.4,2.2c-6.8,1.6-13.6,3-21.1,4.7
				c1.4,3.7,2.6,6.6,3.7,9.5c3.9-1,7.4-2.1,10.9-2.9c3.4-0.8,6.7-2.4,10.2-1.2c-1,3.5-2.2,6.4-2.6,9.4c-1.2,9.7-6.6,17.1-13.3,23.7
				c-6.4,6.4-13.9,11.8-22.6,14.8c-4.6,1.6-5.3,4.4-5.2,8.5c10.3-2.5,19.5-6.8,27.4-13.5c6.6-5.6,13.1-11.3,17.1-19.3
				c1.5-3.1,2.6-0.4,3.8,0.7c1.2-1.9,2.3-3.3,4-0.4c8.3,14,20.4,23.7,35.6,29.8c2.5,1,5.1,1.7,7.6,2.5c0.2,0.1,0.5,0,0.7,0
				c0.7-5.1,0.1-6.2-4.3-8.1c-10.9-4.6-20.2-11.1-27.7-20.3c-4.5-5.5-7.6-11.5-8.7-18.6c-0.4-3-1.6-5.9-2.6-9.6
				c7.2,0,13.8,2.5,21,4.6c1.2-2.8,2.4-5.7,3.9-9.5c-7.5-1.6-14.4-3.1-21.3-4.7c-1.5-0.4-2.9-1.1-5.4-2.1c3.9-2.2,6.8-3.9,10.2-5.9
				c-3.1-1.3-4.8-4.5-8.3-2.3c-0.5,0.3-3-1-3-1.5c-0.1-2.6,0.6-5.2,0.6-7.8c-0.2-4.3,3.9-5,6-7.4c2-2.2,3.9-4.5,6.7-6.4
				c-0.7,1.7-1.1,3.6-2.2,5c-2.1,2.6-0.3,4.6,1.2,5.8c1.4,1.1,4.3,1.9,5.7,1.2c1.2-0.6,1.2-3.5,2-6.1c0.7,0.9,1.9,2,2.3,3.2
				c0.8,3.2-1.2,4.9-4,5.8c-4.3,1.4-7.6-0.5-10.2-5.7c-5,2.9-5.3,4.5-1.6,8.8c4.6,5.5,11,6.3,16.4,2.1c5.5-4.3,7.2-13.1,3.3-18
				c-0.8-1-1.9-1.6-3.4-2.8c2.9-1.6,4.5-0.5,6,1.5c6.7,9.1-0.1,23.5-11.7,24.9c-1.9,0.2-3.6,1.4-5.5,2.1c0.1,0.4,0.2,0.8,0.3,1.1
				c5,1.1,10.1,2.2,15.1,3.5c5.8,1.5,6,2.5,3.1,7.8c-1.3,2.4-2.1,5.1-3.1,7.6c-1,2.7-2.6,3.5-5.3,2.2c-1.7-0.8-3.6-1.2-5.9-2
				c1.8,7.9,3.3,15.3,9.4,20.5c5.1,4.3,10.6,8.4,16.1,12.1c3.6,2.4,4.4,1.8,6.3-1.9c1.1-2.2,2.6-4.3,4.1-6.3c1.6-2,3.4-3.6,4.9-5.2
				c-3.5-2.2-7.2-4-10.3-6.5c-6-4.9-7.5-12.1-4.5-19.2c1.3-3,2.8-5.9,4.2-8.7c3.5-6.7,8.9-10.3,17.3-9.2c-4.4-8.2-4.6-16.4-0.9-24.1
				c4.1-8.8,12.3-10.4,21.2-8.9c-0.1-11.2-3-23,10.5-28.9c-6-6.5-5.5-13.9,1.5-22c-6.5-10.7-5-19.3,4.5-24.4
				c5.6-3,14.6,0.2,18.3,7.4c-1.8-0.9-2.9-1.4-3.9-2c-2-1.1-3.8-2.6-5.9-3.3c-5.9-1.9-8.6,0-13.1,6.3c-2.6,3.6-1.3,9.8,2,12.8
				c1.3,1.2,8.6,0.8,9.6-0.6c1.6-2.3,3.1-4.7,4.9-7.4c-1.3-2-3.1-3.6-5.9-2.6c-2.3,0.8-2.6,2.8-2.2,5.1c0.1,0.7-0.5,1.6-0.7,2.4
				c-0.7-0.6-2.2-1.4-2.1-1.9c0.6-2.4,0.9-5.5,2.5-7c1.5-1.3,4.9-1.4,6.9-0.7c2.9,1,5.4,3.2,8.6,5.3
				C311.8,176.2,308.4,178.6,307,183.6z M119.8,273.3c9.3-3.5,11.7-10.7,10.3-21c-0.9-6.5-5.3-11.9-10.9-12.8
				c-8.1-1.4-20.1,2.8-22.9,8.2c4.8,0,7.6,2.6,9.3,6.8c0.3,0.7,0.9,1.4,1.6,1.8c3.1,1.4,4.2,4,4.6,7.1c0.2,1.1,0.9,2.2,1.7,3.1
				C115.4,268.7,117.4,270.7,119.8,273.3z M271.8,273.7c0.9-1.6,1.3-3.4,2.5-4.4c3-2.5,5.4-4.9,5.8-9.1c0.1-1.4,2.2-2.6,3.5-3.8
				c0.5-0.5,1.4-0.8,1.6-1.3c1.7-4.5,4.5-7.4,10-7.9c-2.6-2.2-5.1-4.2-7.9-5.4c-6-2.6-12.3-4.1-18.5-1.1c-8.1,3.8-8.3,11.4-8.1,18.8
				C260.9,266.8,265.5,270.9,271.8,273.7z M268.5,276.3c-5-3.6-13.4-4.6-17.1-1.4c-5.7,4.9-9.6,11.2-10.6,18.6
				c-1,8,5.7,15,14.9,16.8c2.3-6.7,3-13.9,7.1-20c0.2-0.2,0.1-0.7,0-1C261.6,283.7,264.4,279.9,268.5,276.3z M135.8,310.6
				c2.4-1.2,5.1-2.4,7.6-4c6.4-4.3,8.8-10.8,6-17c-1.6-3.7-3.6-7.3-5.9-10.6c-4.8-7-13.8-8.1-20.2-3.2c1.7,3.3,4.7,6.5,4.7,9.7
				c0.1,3.6,1.8,6.6,2.4,9.9C131.3,300.5,133.9,305.3,135.8,310.6z M284.9,268.8c-7.8,13.5-0.3,34.9,7.4,41.7
				c6-5.4,12.4-3.1,19.4-0.1c-2.5-3.1-4.4-5.6-6.5-8.2c-0.6,0.9-1.2,1.7-1.7,2.5c-7.5-5.8-10.2-10.9-7.6-15c1.7,1.8,3.3,3.5,5.1,5.4
				c0.3-4.1,0.2-7.7,1-11c0.6-2.6,0.3-4.6-1.8-5.9C295.1,274.9,290,271.9,284.9,268.8z M79.8,309.8c6.7-2.8,13.1-4.4,19.2,0.7
				c8.4-9.2,14.5-28.5,7.3-41.6c-4.9,2.8-9.8,5.5-14.6,8.4c-2.7,1.7-3.6,4-2.5,7.4c0.8,2.4,0.3,5.1,0.4,7.8c0,0.7,0,1.4,0,2.2
				c0.4,0.2,0.8,0.5,1.2,0.7c1.4-2,2.8-4,4.4-6.3c2.1,5.8-3.7,15.9-8,15.5c-0.4-0.7-0.8-1.4-1.3-2.3
				C83.8,304.8,81.8,307.3,79.8,309.8z M103,324c2.7,1.3,5.8,2,7.7,3.9c3.1,2.9,5.6,1.9,8.2-0.2s5.2-4.4,7.5-6.8
				c1.8-1.9,3.3-4.1,4.8-6.2c1.1-1.6,0.5-2.7-1.2-3.3c-5.9-2.2-11.7-4.6-17.7-6.6c-1.7-0.5-4.4-0.3-5.7,0.7
				c-2.1,1.7-3.4,4.3-4.8,6.7c-0.4,0.7-0.5,1.8-0.2,2.6c0.2,0.4,1.4,0.5,2.2,0.6c1.6,0.1,3.2,0,4.7,0.4c0.9,0.2,1.7,1,2.6,1.6
				c-0.5,0.7-0.9,1.7-1.6,2.2C107.3,321.2,105,322.6,103,324z M287.8,323.8c-2-1.4-4.5-3-6.8-4.8c-1.6-1.2-1.4-2.6,0.6-3.1
				c1.7-0.5,3.6-0.4,5.4-0.6c0.9-0.1,2.4-0.2,2.5-0.6c0.2-0.9,0-2.1-0.5-2.9c-0.9-1.5-2.4-2.8-3.1-4.4c-1.5-3.5-4.3-3.7-7.2-2.7
				c-6,2-11.8,4.4-17.6,6.6c-1.7,0.7-2.1,1.7-1.1,3.4c3.6,6.3,9.3,10.5,15.2,14.5c0.8,0.5,2.7,0.1,3.8-0.4
				C281.9,327.3,284.8,325.5,287.8,323.8z M289,268.4c2-6,6-9.5,11.2-12.1c3.1-1.6,5.5-4.1,4.7-8c-0.3-1.5-1.3-2.8-2-4.3
				c-1.2,1.2-3,2.1-3.4,3.5c-0.7,2.5-2,3.2-4.4,3c-3.6-0.4-5.7,1.6-6.8,4.7c-0.7,2-1.4,3.5-3.8,4.3c-1.1,0.3-1.8,2.6-2.1,4.1
				c-0.1,0.6,1.3,1.6,2.1,2.2C285.7,266.6,287.1,267.3,289,268.4z M102,268.4c1.8-1.1,3.1-1.6,4.1-2.4c1-0.9,2.7-2.2,2.5-3
				c-0.4-1.5-1.8-2.7-2.8-4c-0.9-1.1-2.1-2.1-2.7-3.4c-1.2-2.5-2.4-5.2-5.5-5c-3.8,0.2-5.8-1-6.7-4.6c-0.2-0.8-1.7-1.4-2.6-2
				c-0.7,0.9-1.6,1.7-1.9,2.7c-1.2,4-0.3,6.8,3.7,9.1C95.4,258.7,100.1,262,102,268.4z M282.8,301.2c-0.9-3-1.9-6.5-3.1-9.8
				c-0.3-0.8-1.8-1.7-2.5-1.6c-4.4,0.7-8.7,1.7-13.5,2.6c1.2,5,2.2,9.2,3.3,13.5C272.2,304.4,277.2,302.9,282.8,301.2z M112,289
				c-1.5,5-2.7,8.9-3.7,12.2c5.5,1.7,10.5,3.2,15.9,4.8c1-4.3,2.1-8.6,3.2-13.4C122,291.3,117.2,290.2,112,289z M296.6,326.2
				c-1.3-5-0.5-8.1,2.2-9.5c2.6-1.3,7.2-0.5,9.1,1.6c2.7,3,2.3,5-2.6,12.1c2.1-0.1,5.2,0,5.9-1.2c1.5-2.9,2.9-6.6,2.6-9.8
				c-0.5-5.8-8.6-10.1-15.3-9.1c-4.4,0.7-7.9,6.9-7,12.6C291.9,325.6,293.4,326.9,296.6,326.2z M94.1,327.2c2.1-1,4.4-1.5,4.5-2.3
				c0.4-3,0.8-6.2-0.1-9c-1-2.9-3.1-5.6-7.1-5.7c-10.7-0.4-16.5,7-13,16.8c1.3,3.7,3.2,4.4,7.7,2.7c-3.7-3.1-7.2-6.4-3.1-11.4
				c1.8-2.1,6.5-2.9,9.1-1.6C94.9,318.1,95.7,321.3,94.1,327.2z M144.9,329.9c-1.9-6.8-5.7-11.1-10.5-15c-2,2.3-3,4.1-1.6,7
				c1.6,3.4,0.7,6.5-2.4,8.9c-0.6,0.5-1.2,1.4-1.4,2.2c-0.4,2.6-0.5,5.2-0.8,8.1c2.7,1.8,4.9,1.3,4.6-1.9c-0.5-4.5,3.1-6.7,4-10.1
				C139.5,329.2,141.9,329.5,144.9,329.9z M262.9,340.9c-0.4-2.8-0.6-5.1-1-7.3c-0.2-1-0.5-2.3-1.2-2.9c-3.2-2.6-3.9-5.8-2.3-9.3
				c1.4-2.9,0-4.6-1.9-6.6c-4.6,4.1-8.5,8.2-10.3,15c3-0.3,5.5-0.6,8.1-0.9c1.2,3.6,4.4,6.1,4,10.4
				C258,342.4,260.1,342.8,262.9,340.9z M125.5,289c0.9-5.3-1.9-10.4-5.8-10.1c-3.2,0.2-3.8-1.1-3.6-3.7c0.2-3.6-1.6-6-6.1-7.4
				c1.1,6.7,2.1,12.7,3.1,18.8C117.1,287.4,121.2,288.2,125.5,289z M281,268c-4.9,1.8-5.9,3.1-6.1,7.4c-0.1,1.6,0.4,3.4-2.3,3.6
				c-5.6,0.4-8.3,4.3-7,10c4.2-0.8,8.4-1.6,12.4-2.4C279,280.5,280,274.5,281,268z M116.1,333.9c0.7,1,1.6,2.1,2.3,3.3
				c1.4,2.2,3,2.6,5.5,1.5c2.6-1.1,3.2-2.8,2.5-5.1c-0.8-2.4-0.1-3.7,2.1-4.9c3.3-1.8,3.7-3.9,1.9-7.6
				C125.6,325.3,121,329.4,116.1,333.9z M260.3,320.8c-1.1,3.6-1,6.3,2,7.8c2.6,1.3,3.2,2.9,2.3,5.5c-0.6,2,0,3.7,2.2,4.6
				s4.1,1.4,5.6-1.1c0.8-1.4,1.8-2.7,2.5-3.6C270,329.4,265.4,325.3,260.3,320.8z M138.3,331.5c-1,2.3-1.9,4.3-2.7,6.3
				c-0.8,2.2-1.5,4.4-2.4,7c2.9,5.3,3.4,5.5,8.4,2.4c-2.8-3.1-5.3-6.4-0.9-10.3c1.3,0.6,2.5,1.3,4.3,2.1c0-2.6,0-4.8,0-6.9
				C142.7,331.9,140.7,331.7,138.3,331.5z M250.2,336.9c4.7,4.1,1.5,7.4-0.9,10.6c5.6,2.5,5.6,2.5,8.5-2.8c-1.7-4.5-3.4-8.9-5-13.2
				c-2.6,0.3-4.8,0.5-7.3,0.8c0.1,2.3,0.3,4.4,0.4,7C247.9,338.2,249,337.5,250.2,336.9z M90.4,318.9c-3.6,0.1-5.9,1-5.6,3.8
				c0.2,1.5,2.2,2.7,3.3,4.1c1.4-1.6,3.1-3,4-4.8C92.5,321.3,90.8,319.7,90.4,318.9z M302,317.3c-1.6,2.2-3.5,3.7-3.2,4.4
				c0.8,1.9,2.4,3.3,3.7,5c1.3-1.4,3.5-2.7,3.5-4.1C306.1,321.2,304,319.7,302,317.3z M131.8,308.5c-0.8-3.4-1.5-6.5-2.3-9.9
				C125.8,306,126.2,307.7,131.8,308.5z M259.1,308.5c5.5-0.6,6.3-4.1,2.3-9.4C260.7,302.1,260,305.2,259.1,308.5z"/>
			<path class="st2" d="M257.1,114.5c1.5-1.2,2.9-2.5,4.4-3.5c7.6-5.3,11-15.5,7.7-24.1c-0.6,2.8-1,5.2-1.5,7.5
				c-1.2,6.2-5.9,9.7-10.9,12.8c-1,0.6-3.7,0.1-4.7-0.9c-1.7-1.6-3.2-3.6-2.1-6.7c1.2-3.3,1.9-6.8,2.3-10.3c0.4-2.8-1.2-4.8-4.3-5.3
				c-2.6-0.4-6.7,1.7-7.6,3.9c-3.3,8.1-13.2,14-21.5,13.8c-10.2-0.3-18-5.5-21-14.2c-0.6-1.7-1.2-3.3-2.2-6c-1,2.4-1.8,3.8-2.2,5.3
				c-4.9,16.3-26.9,19.7-38.1,7.8c-2-2.1-2.8-5.3-4.9-7.2c-2-1.7-5-2.9-7.6-3.1c-3-0.2-4.3,2.6-3.9,5.4c0.4,3.2,0.9,6.6,2.2,9.6
				c1.4,3.3-0.3,5.3-2.1,7.3c-1.9,2.2-3.9,1.2-6.1-0.2c-6.6-4.3-10.1-10.1-10.3-17.9c0-0.4-0.3-0.8-0.8-2
				c-3.5,13.2,2.7,21.5,12.4,28.5c-7.3,0.2-10.8,4.3-13.6,9.8c4.8,0.7,9.2,2.5,13.1-1.7c0.7-0.8,2.2-0.8,3.4-1.2
				c0.2,0.3,0.4,0.7,0.5,1c-1.8,1.2-4.1,2.1-5.1,3.8c-0.9,1.6-0.4,4-0.5,6.2c2.2-0.8,4-1.4,5.8-1.9c0.4,0.3,0.7,0.6,1.1,0.9
				c-4.5,2.3-5,5.8-4.1,9.8c2.7,0.4,5.4,0.9,8.2,1.3c-0.1,0.5-0.1,0.9-0.2,1.4c-1.3-0.1-2.5-0.3-3.8-0.5c-4.1-0.6-7.6,1.4-8.2,4.6
				c-0.4,2.2,0.1,3.8,2.6,4.3c1.7,0.3,3.4,0.5,5,0.9c1,0.3,1.9,0.9,2.9,1.4c-1.1,0.5-2.2,1.4-3.2,1.3c-2.6-0.3-5.2-0.9-7.8-1.6
				c-1.6-0.4-3.1-1.2-4.7-1.9c-2,4-0.4,10.1,3.1,13.4c1.1,1.1,2.1,3,1.9,4.3c-0.2,1.3-1.9,3.3-3,3.4c-1.9,0.2-4.4,1.1-6-1.7
				c-5.4-9-8.3-19-11.6-28.8c-1.3-4.1-2.5-8.3-3-12.5c-0.7-5.2-1.6-10.6-0.7-15.6c0.8-4.7,4.7-8.2,9.3-10.3c0.5-0.2,1.6,0,1.6,0.1
				c0.2,0.8,0.3,1.8,0.1,2.6c-1.4,4.8-1.2,9.3,1.2,13.6c3.1-2.9,6.1-5.6,9.3-8.5c-8.3-7.8-12.4-17.5-6.9-28.8
				c6.2-12.6,16.6-17.5,30.7-12.7c0.9-3.4,1.8-7,5.5-6.6c2.4,0.3,4.5,2.7,7,4.4c2.3-0.6,5.4-1.1,8.5-2.1c1.6-0.5,3.1-1.7,4.1-2.9
				c2.2-2.6,2.9-2.7,4.8,0.1c0.3,0.4,0.5,0.8,0.7,1.2c2.2,3.7,3.3,3.9,6.1,0.7c2.4-2.7,5.4-4,8.7-3.2c2.3,0.6,4.5,2,6.4,3.5
				c2.9,2.4,3.8,2.5,5.8-0.8c0.4-0.6,0.8-1.2,1.1-1.8c1.4-2.4,3.1-2.4,4.3,0c1.3,2.5,3.3,3.1,5.9,3.5c2.7,0.4,5.2,1.4,6.9,1.9
				c2.6-1.7,4.7-4.2,7.1-4.5c3.7-0.4,4.6,3.2,5.5,6.6c14.9-5.1,25.5,0.6,31.4,13.9c4.7,10.6,0.7,20-7.6,27.4
				c3.1,2.8,6.1,5.6,9.3,8.5c2.3-4,2.5-8.3,1.4-12.9c-0.2-1.1-0.2-2.2-0.2-3.3c1.2,0.3,2.6,0.3,3.6,0.9c7.8,4.5,8.9,11.8,7.7,19.5
				c-1.9,11.3-4.6,22.4-9.4,33c-2,4.6-4.2,9.1-6.2,13.6c-1.3,2.9-4,1.9-6,1.7c-1.2-0.1-2.9-2.1-3-3.4c-0.2-1.4,0.8-3.3,1.9-4.3
				c3.3-3.2,4.9-8.8,3.3-13.5c-2,0.8-3.9,1.8-5.9,2.3c-2.4,0.6-4.9,1.1-7.4,1.3c-0.8,0.1-1.6-0.9-2.4-1.3c0.8-0.5,1.6-1.1,2.5-1.4
				c1.6-0.4,3.4-0.3,5-0.9c1.2-0.4,2.9-1.6,2.9-2.5c0-1.6-0.6-3.9-1.8-4.6c-1.9-1.1-4.4-1.4-6.7-1.7c-1.1-0.2-2.2,0.3-3.3,0.6
				c-0.1-0.5-0.2-1-0.3-1.5c2.7-0.5,5.4-0.9,8.2-1.4c0.3-5.3,0.3-5.3-3.1-10.5c1.7,0.5,3.4,1,5.5,1.7c0-2,0.7-4.4-0.2-6
				c-0.9-1.6-3.3-2.5-5-3.7c0.1-0.3,0.2-0.7,0.4-1.1c1.2,0.3,2.8,0.3,3.5,1c3.9,4.2,8.3,2.3,13.1,1.7
				C267.7,119.3,264.3,115.2,257.1,114.5z M192.2,79.2c-2.7,0.9-6.2,1.1-7.3,2.8c-2.1,3.2-4.5,4.2-7.5,3.1c-1.6-0.6-2.6-3.2-4.3-5.5
				c-6.4,2.3-14.1,4.3-18.4,11.7c6.8,8.2,16.9,10.5,26.6,6.7C186.8,95.9,193.4,85.5,192.2,79.2z M198.8,79.7
				c-1.4,5.4,5.3,16.3,11.1,18.4c9.9,3.6,20.6,1.1,26.3-7c-4.3-7.5-12.1-9.2-18.5-11.6c-1.5,2.4-2.3,5-3.6,5.4
				c-2,0.5-5.7,0.1-6.5-1.2C205.5,80,202.2,80.4,198.8,79.7z M185.7,77.4c3.1-0.8,6.4-2.4,9.8-2.4c3.4,0,6.9,1.6,9.8,2.4
				c2.1-1.8,4.1-3.5,6.3-5.4c-4.7-1.1-9.4-2.1-13.1-5.8c-1.9-1.9-5.4-1.5-7.3,0.7c-2.5,2.9-5.6,3.9-9.1,4.4
				c-0.9,0.1-1.9,0.6-2.5,0.9C181.7,73.9,183.7,75.6,185.7,77.4z M178.8,78.3c-1.2,1.5-2.2,2.6-2.9,3.8c-0.1,0.2,1.5,1.9,2.1,1.8
				c1.8-0.3,4.1-0.6,4.9-1.8c2.1-3.2,0.1-6.8-3.8-7.4c-5-0.7-9.6,0.6-13.8,3.4c-1.2,0.8-2.7,1.3-4.1,1.5c-4.6,0.6-9.1,5.8-8,11.2
				c2.5-5.6,7.1-7,11.3-9.4C169.2,78.6,173.8,78.2,178.8,78.3z M212.1,78.2c10.6-0.6,18.9,3.9,26.2,11.6c0.3-4.8-4-9.6-8.4-10.2
				c-1.6-0.2-3.2-0.8-4.5-1.7c-4.1-2.7-8.5-3.9-13.4-3.2c-3.9,0.5-6,4.1-3.9,7.3c0.8,1.2,3.2,1.7,4.9,1.9c0.7,0.1,2.4-1.7,2.2-2.1
				C214.6,80.7,213.4,79.7,212.1,78.2z M272.8,130c0.2-1.5-0.3-3.2-3.5-2.8c-1.3,0.2-2.6,0.3-4,0.5c-2.7,0.3-4,1.6-3.9,4.5
				c0,1.6-0.9,3.1-1.1,4.7c-0.3,1.7-0.9,3.7-0.4,5.2c1,2.8,2.8,5.3,4.4,8.3c1.5-1.2,3.1-2.4,5.4-4.3c-7.8-2.2-6.2-7.5-4.7-11.7
				C265.7,132.4,269.6,131.6,272.8,130z M118.4,131.5c6.5-1.4,8,2.4,8.9,7.3c0.8,4.3-3,5.2-5.3,7.9c1.7,1.3,3.4,2.6,4.8,3.6
				c1.6-2.9,3.1-5.3,4.1-7.8c0.6-1.5,0.6-3.4,0.4-5c-0.3-1.9-1.6-3.7-1.6-5.6c-0.1-2.8-1.3-3.9-3.8-4.2c-1.3-0.2-2.7-0.3-4-0.5
				C118.7,126.7,118,128.3,118.4,131.5z"/>
			<path class="st2" d="M146.1,211.3c-2.8,1.3-5.5,2.5-8.1,4c-2.7,1.5-4.5,1.3-6.4-1.4c-4.3-5.9-4.4-5.8,1.9-9.7
				c1.6-1,3.3-2.1,4.9-3.1c1.6-1,3.4-1.9,5.3-2.9c-2.5-4.1-3.3-8.3-0.6-12.3c-2.7-2.5-5.4-4.7-7.7-7.3c-3.7-4.4-2.3-9.6,3.2-11.6
				c2.4-0.9,3.7-2.1,4.9-4.3c1.4-2.6,4.2-4,7.6-3.9c-2.5,2.2-4.7,4.3-7.3,6.7c2.2,1.2,3.6,2,5.5,3.1c2.9-3.5,5.8-7,9-10.8
				c0.1,1.2,0.2,2.2,0.2,3.2c-0.2,2.5,0.6,4.2,3.1,5.5c1.4,0.8,2.1,2.9,3.1,4.4c0.8,1.2,1.4,2.8,2.5,3.5c4,2.4,4.1,2.3,4.9,7.1
				c0.9,0.1,2,0.1,3,0.4c0.9,0.3,1.6,1,2.4,1.5c-0.9,0.5-1.8,1.4-2.6,1.4c-2.3-0.2-4.5-0.9-7.3-1.5c-2.4,1.3-5.8,3-9,4.8
				c-0.7,0.4-1.5,1.3-1.6,2c-0.3,3.1-0.4,6.1-0.5,9.1c4.9,0.7,7.7-0.9,9.4-4.9c1.4-3.3,3.9-5.5,7.7-5.6c0.7,0,1.5,0.8,2.2,1.1
				c-0.6,0.5-1.2,1.3-1.8,1.3c-3,0.4-4.8,1.9-5.9,5.4c7.1-1.3,7.9,5.6,12.6,8.1c-2.8,2-4.1,0.3-5.2-1c-5.2-5.8-5.5-5.9-12.5-2.8
				c-1.5,0.7-3.2,1.1-5.2,1.8c1,1.7,1.9,3.3,2.8,4.8c0.8-0.2,1.1-0.3,1.3-0.4c1.4-1.1,2.9-2.3,4.3-3.5c0.9,1.6,1.7,3.2,2.6,4.7
				c0.2,0.4,0.6,0.7,1,0.8c3.1,0.7,1.6,2.5,1,4.1c-0.7,1.9-1.5,3.8-2.1,5.8c-0.9,2.8-2.3,5.6-2.5,8.4c-0.2,3.6,0.6,7.4,0.7,11
				c0,1.3-0.7,2.7-1.1,4.1c-1.5-0.6-3.6-0.8-4.5-1.9c-1.8-2.2-3-4.9-4.4-7.4c-2.7-5.3-5.4-10.7-8-16
				C148.1,215.6,147.2,213.7,146.1,211.3z M154.4,175.9c-0.4,1.7-0.9,3.1-1.1,4.6c-0.2,1.4-0.4,3.9,0.1,4.2c1.5,0.6,3.7,0.9,5.1,0.2
				c3.4-1.6,6.6-3.7,10.1-5.8c-2.9-1.9-5.3-3.6-7.7-5.2C158.9,174.6,156.8,175.3,154.4,175.9z M154.2,189c-2.6-0.6-4.7-1.1-6.9-1.7
				c-2.1-0.6-2.8,0.5-3.2,2.3c-1,5.2,2.1,8.2,8.9,8.4C153.5,194.8,153.9,191.7,154.2,189z M137.3,178.1c3.2,2.2,6,4.1,8.8,6.1
				c3.2-4.4,3.2-5.8,0.1-8.5C143.9,173.7,141.5,174.3,137.3,178.1z M155.8,165.7c-2,1.9-5.6,2.6-4.1,5.9c1.1,2.6,4.9,2.1,10.2-1
				C159.8,169,157.9,167.5,155.8,165.7z"/>
			<path class="st2" d="M239.6,158.5c4.4,0.3,6.6,2.2,8.5,4.9c0.9,1.3,2.4,2.6,3.8,3.2c5.8,2.4,7.5,7.4,3.6,12.1
				c-2.1,2.5-4.8,4.6-7.5,7.1c2.1,3.8,2.3,7.9-0.9,12.1c2.7,1.6,5.2,3.1,7.7,4.6c2.1,1.3,4.1,2.6,6.1,3.9c1.9,1.2,2.4,2.6,0.8,4.4
				c-0.6,0.7-1.2,1.5-1.8,2.3c-3.1,4-3.5,4-8,1.6c-2.3-1.2-4.8-2.2-7.2-3.3c-4.5,9.2-8.8,18.1-13.3,26.9c-1.2,2.3-2.4,5.7-6,4.4
				c-3.4-1.3-1.3-4.4-1.1-6.6c0.5-5,1.1-9.7-1.6-14.6c-1.5-2.7-0.6-6.5-3.1-9.1c-0.4-0.4-0.3-1.9-0.1-2c3-0.8,2.6-3.8,4-5.6
				c0.4-0.5,2.3-0.5,3.2,0c1.1,0.6,1.7,1.9,3.1,3.5c1.3-2,2.3-3.6,3.3-5.2c-2.8-1.2-5.2-2.2-7.6-3.2c-4-1.7-6.4-0.9-9.1,2.6
				c-1.4,1.8-2.6,4.1-6.6,2.7c4.9-2.8,5.8-9.5,12.8-8.4c-0.7-3.4-2.5-4.9-5.5-5.4c-0.8-0.1-1.4-1-2.1-1.5c0.8-0.4,1.6-1.1,2.3-1
				c3.9,0.1,6.2,2.4,7.7,5.7c1.6,3.7,4.2,5.3,9.4,4.9c-0.1-3.2-0.2-6.5-0.5-9.8c-0.1-0.6-0.9-1.2-1.6-1.6c-3.1-1.8-6.4-3.4-8.8-4.7
				c-3.1,0.5-5.6,1.1-8.2,1.4c-0.5,0.1-1.2-0.9-1.8-1.4c0.6-0.5,1.2-1.4,1.8-1.4c2.8,0.2,4.2-0.7,4.3-3.7c0-1,1.6-1.9,2.4-2.9
				c0.1-0.2,0.4-0.3,0.6-0.3c4.6-0.7,2.6-6.1,5.3-7.6c3.4-1.9,5.3-4,4.4-7.9c-0.1-0.4,0.2-0.9,1.2-1.6c0.9,1.9,1.5,4.1,2.8,5.7
				c1.5,1.8,3.7,3,5.9,4.7c1-0.5,2.5-1.2,4.9-2.4C244.8,163.3,242.5,161.2,239.6,158.5z M222.2,179.3c3.9,2.2,7.3,4.5,11.1,6
				s5.6-0.3,4.6-4.2c-0.4-1.7-0.9-3.4-1.3-5.2c-2.2-0.7-4.5-1.3-6.5-1.9C227.5,175.7,225.1,177.4,222.2,179.3z M237.9,198.1
				c0.8-0.1,1.6-0.1,2.4-0.1c4.8-0.3,7.9-4.7,6.3-9c-0.3-0.8-1.7-1.7-2.5-1.6c-2.4,0.3-4.8,1-7.3,1.5
				C237.1,191.7,237.5,194.8,237.9,198.1z M253.7,178c-4.3-3.8-6.8-4.3-9-2.2c-3.1,2.8-3.1,4.2,0.3,8.3
				C247.8,182.1,250.6,180.2,253.7,178z M228.6,171.1c3,1,4.9,2,6.9,2.1c1.4,0,2.9-1.2,4.4-1.9c-0.6-1.2-1.1-2.5-2-3.6
				c-0.6-0.8-1.7-1.2-2.6-1.9C233.2,167.4,231.3,168.9,228.6,171.1z"/>
			<path class="st2" d="M165.8,155c5.5,4.6,10.7,9,15.9,13.4c0.4,0.3,0.6,0.8,0.8,1.2c0.8,2,2.9,4.2,0.2,6.1
				c-2.4,1.8-4.2-0.1-5.9-1.7c-1.2-1.1-2.6-2-4.1-2.8c-2.2-1.3-4.6-2.2-4.5-5.4c0-0.7-0.9-1.5-1.6-2.1
				C163.9,161.1,163.6,159.3,165.8,155z"/>
			<path class="st2" d="M225.8,154.7c0.4,2.3,1.4,4.4,0.8,5.1c-3.3,3.7-3.2,9.9-9.1,11.8c-1.6,0.5-2.9,2.1-4.1,3.3
				c-1.6,1.6-3.5,2.4-5.1,0.8c-0.8-0.9-1-3.3-0.3-4.3c1.6-2.4,3.7-4.6,5.9-6.6C217.3,161.4,221.1,158.5,225.8,154.7z"/>
			<path class="st2" d="M198.9,239.2c1.6,1.6,3.3,3.2,4.7,5c0.3,0.4-0.2,1.9-0.8,2.3c-1.2,0.9-2.6,1.6-4.1,2.1
				c-0.2,0.1-1.3-1.6-1.4-2.5c-0.1-2.1,0.2-4.2,0.3-6.3C198.1,239.6,198.5,239.4,198.9,239.2z"/>
			<path class="st2" d="M193.2,239.7c0.2,1.7,0.6,3.4,0.5,5.1c-0.1,1.3-0.8,2.5-1.3,3.8c-1.6-0.9-3.4-1.6-4.8-2.8
				c-0.3-0.3,0.4-2.2,1-3.1c1-1.3,2.3-2.4,3.5-3.6C192.5,239.4,192.9,239.6,193.2,239.7z"/>
			<path class="st2" d="M318.1,285c0.1,1.7,0.3,2.3,0.2,3c-0.2,3.5-0.4,7-0.8,10.5c-0.1,0.9-0.9,1.6-1.4,2.5c-0.6-0.7-1.5-1.3-1.6-2
				C313.5,294.1,314.6,289.8,318.1,285z"/>
			<path class="st2" d="M73.1,285.2c3.3,4.6,4.4,8.9,3.4,13.7c-0.2,0.8-1.1,1.3-1.7,2c-0.5-0.7-1.3-1.4-1.4-2.1
				c-0.4-3.8-0.7-7.7-0.9-11.6C72.5,286.8,72.8,286.4,73.1,285.2z"/>
		</g>
	</g>
	<g class="st1">
		<g>
			<path class="st3" d="M75.6,144.4c-1.1-2.2-1.9-3.6-2.5-4.8c0.3-1.7,0.4-3.3,0.9-4.9c0.2-0.7,1-1.4,1.7-1.7
				c5.7-3.1,11.5-6.2,16.7-8.9c-0.1-1.4-0.6-2.8-0.2-3.8c2.3-6.7,7.5-11.3,12.7-15.8c2.9-2.5,6-4.9,9.1-7.1c3.3-2.4,4.8-5.2,4.5-9.4
				c-0.5-7,1.3-13.4,6.9-18.2c1.2-1.1,3.5-1.7,5.1-1.4c4,0.7,8.4,1.5,10,6.1c0.4,1,0.4,2.9-0.3,3.5c-2.9,2.4-2,5-1,7.8
				c4.9-0.5,4.9-7.7,10.5-7.1c-2.6,3.2-5.2,6.2-7.7,9.3c-2.3,2.7-3.1,5.6-2.2,9.5c0.8-1,1.2-1.8,1.8-2.4c2.8-2.7,5.5-5.6,8.6-8
				c2-1.6,4.1-2.2,6.3,0.8c1.2,1.6,4.1,2.4,6.4,2.9c5,1.1,5.7,1.7,5.9,6.9c0.2,6.8,6.6,13.4,13.4,13.7c5.4,0.2,8.7-1.9,10.6-6.8
				c0.3-0.9,0.7-1.8,1.2-2.6c1.3-2.1,2.5-1.9,3.7,0.1c0.4,0.6,0.7,1.3,1,1.9c3.3,7.8,11.9,10,18.6,4.7c3.6-2.8,5.8-6.2,5.7-11
				c-0.1-4.3,1-5.3,5.4-6c3.1-0.5,6.1-1.2,7.9-4.3c0.3-0.5,2.4-0.8,3.1-0.3c3.4,2.5,6.8,5.3,10,8.1c0.9,0.7,1.3,1.9,2,3.1
				c1.6-4,0.6-7.2-2.7-10.3c-1.2-1.1-1.9-2.8-2.9-4.1c-1.2-1.4-2.5-2.7-4-4.2c5.6-0.5,5.7,6.5,10.5,7.2c0.9-2.8,1.9-5.3-0.9-7.8
				c-1.7-1.5-0.8-5.3,2.1-6.8c2.9-1.6,6.3-2.4,9.6-3.2c0.8-0.2,2.1,0.9,3,1.6c5.4,4.7,7.4,11,7,17.8c-0.4,5.2,2.1,8.1,5.8,11
				c4.9,4,9.7,8.2,14.1,12.8c2.4,2.5,4.1,5.9,5.8,9c0.5,1,0.1,2.4,0.1,4.1c4.8,2.6,10.5,5.5,16,8.7c0.8,0.5,1.2,1.8,1.7,2.8
				c0.5,1.1,1,2.3,1.4,3.5c-0.8,1.4-1.6,2.9-2.8,5.1c0.4-0.1-0.2,0.2-0.8,0.2c-5.3-0.1-6.9,3.4-7.8,7.6c-0.2,1.1-1.6,2.5-2.7,2.7
				c-10.9,2.4-11.6,6.8-11.3,14.1c0.1,1.9,1.5,3.9,2.6,5.6c1,1.6,1.2,2.7-0.4,4c-7.5,6.2-7.6,12.4-0.4,18.8c0.4,0.4,0.7,0.9,1.3,1.6
				c-1.1,0.5-2,0.9-2.8,1.1c-5.3,1.7-9.1,5-10.7,10.4c-0.8,2.8-1.9,5.2-4.5,7c-3.2,2.3-4.6,5.8-4.6,9.8c0,3.5-1,5.5-5.2,5.6
				c-4.4,0.1-8.8,3.9-8.9,8.6c-0.1,4.6-2.3,7.1-5.7,8.9c-4.4,2.4-5.6,6.2-4.8,10.6s-0.3,7.4-3.8,10.6c-7.4,6.8-8.4,15.7-4,24.9
				c0.5,1.1,0.3,2.8-0.2,4c-2.5,5.7-1.7,10.8,1.8,15.9c0.7,1,0.8,2.6,0.6,3.9c-1.8,9.4,0.8,17.4,7.1,24.8c3.7-3.1,7.1-6.1,10.7-8.9
				c1.2-1,2.7-2.2,4-2.2c3.6,0.2,5.1-1.8,7.1-4.3c3.9-4.9,7.4-10.5,14.6-11.7c0.7-0.1,1.3-1.9,1.5-3c0.7-3.5,0.8-7.2,2-10.4
				c1.3-3.5,4-6,8.4-5.5c0.8,0.1,1.9-0.7,2.6-1.3c2.1-1.7,3.9-3.9,6.2-5.4c4-2.5,7.6-1.4,9.9,2.3c-2,5.4-2.9,10.5-1.4,16
				c0.2,0.8,0.5,1.6,0.5,2.4c-0.2,10.4-0.5,20.8-0.8,31.2c0,0.7-0.3,1.4-0.5,2.2c-13.8,0-27.6,0-41.3,0c-7.5,0-15.1-0.5-22.6,0.1
				c-10.7,0.9-20-2.7-29.3-7c-11.1-5.2-19.9-12.8-25.9-23.4c-0.2-0.3-0.5-0.5-1-0.8c-4.6,8-10.4,14.9-18.4,19.7
				c-10.2,6.2-20.9,11-33.4,10.8c-21.5-0.3-43.1-0.1-64.6-0.1c-1.3,0-2.6,0-4.6,0c0-9.9-0.1-19.6,0-29.2c0.1-6.5,0.9-13,0.6-19.4
				c-0.1-2.3-1.3-4.5,1.4-5.9c2.8-1.4,5.6-1.3,8.3,0.5c0.7,0.5,1.5,0.8,2.1,1.4c2.7,2.6,5.1,5.1,9.5,5.9c3.7,0.6,5.3,5,5.9,8.8
				c0.5,2.9,0.5,5.9,0.8,9c8.6,1,12.5,7.7,17.1,13.5c0.8,1,1.9,2.4,2.8,2.3c4-0.4,6.6,2,9.3,4.3s5.5,4.7,8.4,7.2
				c6.2-7,8.9-14.9,7.3-24c-0.4-2.2-0.1-3.8,1.2-5.9c2.8-4.4,3.4-9.4,1.3-14.4c-0.5-1.3-1-3.1-0.5-4.2c4.5-9.5,3.3-18.6-4.3-25.5
				c-3.2-2.9-4.1-5.6-3.4-9.7c1.1-6.5-0.9-9.7-6.7-13.1c-1.2-0.7-2.3-2.4-2.6-3.8c-1-6.4-3.4-9.4-9.9-11.2c-3.1-0.8-4.8-2.2-4.7-5.7
				c0.1-4.3-2.1-7.7-5.6-10.4c-1.2-1-2.4-2.5-2.8-3.9c-1.7-6.8-5.8-11.1-12.7-12.9c-0.4-0.1-0.8-0.5-1.3-0.9
				c1.6-1.9,3.3-3.6,4.6-5.5c3.4-5.3,2.1-11.6-3.1-15.1c-2.3-1.6-2.2-2.9-0.6-5c5.8-7.6,1.3-17.7-8.3-19.2c-1.2-0.2-3.1-1.2-3.3-2
				C83.5,147.5,81.2,144,75.6,144.4z M152.9,245.4c2.2,5.2,4.5,10,6.3,14.9c2.8,7.5,5.2,15.1,7.8,22.8c0.6,1.7,1.4,2.2,3.2,1.9
				c5-1,9.9-2,14.9-2.7c1.9-0.3,3.9,0.2,5.3,0.4c-1.4,2.9-2.6,5-3.4,7.1c-1,2.8-1.3,5.9-2.6,8.5c-6.2,13.4-17.6,21.6-30,28.9
				c-0.9,0.5-2.3,1-2.6,1.8c-1.8,5.1-3.4,10.3-5.1,15.5c0.6,0,1.5,0.2,2.3,0c17.9-4.1,32.9-12.2,42.3-28.5c0.9-1.5,1.5-2.2,3.5-2.2
				s2.5,0.8,3.6,2.1c4,5.1,7.6,10.7,12.6,14.6c6.2,4.9,13.4,8.5,20.5,12.1c3.5,1.7,7.7,2.1,11.5,3.1c-1.8-5.6-3.3-10.5-5-15.3
				c-0.3-0.9-1.3-1.6-2.1-2.2c-5-3.4-10.2-6.5-15-10.1c-9.2-7.1-16.2-15.8-18.2-27.6c-0.4-2.5-2.1-4.9-3.4-7.9
				c1.5-0.1,3.5-0.6,5.3-0.3c4.8,0.9,9.5,2,14.2,3.2c2.5,0.7,3.4-0.2,4.2-2.4c4.3-12.6,8.8-25.2,13.2-37.8c-5-2.6-10.6-5.6-16.2-8.6
				c-1-0.3-2.3,0.3-3.7,0.8c-5.4,1.6-10.6,1.2-15.4-1.8c-3.8-2.4-4.7-8.4-1.9-10.8c3.7-3.2,7.3-6.6,10.9-10c0.7-0.7,1.2-1.6,1.3-1.7
				c-3.5-2.1-6.7-3.8-9.7-5.9c-2-1.3-3-7.8-1.8-9.8c0.3-0.5,0.8-0.9,1.3-1.2c5.4-2.5,8.4-6.9,10.4-12.2c0.5-1.3,0.4-2.9,0.5-4.2
				c-2.2,0.3-4,0.4-5.7,0.8c-1.5,0.4-3.2,0.7-4.2,1.7c-4.6,4.1-8.2,4.1-12.7-0.2c-0.8-0.7-1.9-1.4-2.9-1.6c-2.2-0.3-4.4-0.3-6.6-0.4
				c-0.6,5.9,4.5,14.2,10,16c0.5,0.2,1.2,0.5,1.5,0.9c0.9,1.2-0.3,8.9-1.6,9.7c-3.3,2.2-6.8,4.2-10.8,6.6c3.6,3.5,7.6,7.3,11.4,11.2
				c1,1,1.9,2.5,1.9,3.8c0.2,5.6-3.4,9.3-10.2,9.7c-4.2,0.2-8.5-0.8-12.7-1.3c-2.4,1.4-5,3-7.7,4.4
				C158.6,242.8,155.7,244.1,152.9,245.4z M167.4,235.3c-4.5-5.5-4.8-16.9,0.4-21.6c3.7-3.2,7.5-6.1,9.8-10.5
				c0.1-0.2,0.4-0.3,0.6-0.5c0.5-1,1.1-2,1.5-3.1c0.6-1.9,1-3.9,1.7-6.4c-0.8-1.6-2.2-3.9-3.2-6.3c-3-6.7-1.1-11.4,5.4-14.8
				c0.9-0.5,1.7-1.8,1.8-2.8c0.5-3.6-0.2-6.9-3.4-9.3c-2.9-2.2-6-4.2-8.4-6.8c-4.7-5.2-10.6-3.9-16.1-2.8c-6.9,1.4-8.6,0.8-9-6.1
				c0-0.2-0.3-0.3-0.9-0.9c-1,1.2-1.8,2.4-2.8,3.5c-0.6,0.7-1.1,1.8-1.9,2c-7.6,1.8-9.3,7.2-9.3,13.9c0,1-0.6,2.4-1.4,2.9
				c-5.1,3-10.3,5.8-15.4,8.7c-0.9,0.5-1.6,1.2-2.4,1.8c2.7,4.6,4.9,9,7.6,13.1c3.3,5,7,9.7,10.7,14.5c0.6,0.8,2.3,1.7,2.9,1.4
				c4.7-2.2,9.2-4.7,13.8-7.1c1.7-0.9,3.4-2,5.1-3.1c0.4,0.6,0.7,1.1,1,1.7c-5.4,3.4-10.9,6.8-16.2,10.1
				c6.4,10.8,12.9,21.8,19.4,32.8C161.8,238.1,164.6,236.7,167.4,235.3z M242.8,144.1c-0.1,0.7-0.2,1.4-0.2,2.2
				c-0.2,4-2.9,5.8-6.9,4.9c-3.9-0.9-7.8-1.3-11.8-1.7c-0.7-0.1-1.6,0.4-2.2,0.9c-4.1,3.2-8.1,6.5-12.3,9.6c-3.4,2.5-4,5.9-3.4,9.6
				c0.2,1,1.2,2.4,2.2,2.8c6.4,2.7,7.1,7.4,5,12.6c-1.3,3.2-3,6.2-4.1,8.5c0.7,2.4,1,4.4,1.8,6c1.8,3.6,3.9,7.1,6,10.6
				c0.2,0.3,0.9,0.3,1.4,0.4c3.4,1.1,5.6,3.5,6.6,6.7c2,6.3,3.1,12.6-2.7,18c3.1,1.5,5.9,2.9,9.2,4.6c6.6-11.1,13.3-22.2,20.1-33.6
				c-6.3-2-11.6-5.6-16.5-10.2c0.7-0.4,1-0.6,1.1-0.6c0.6,0.1,1.1,0.3,1.7,0.6c5,2.7,10.1,5.1,14.9,8.2c2.6,1.7,4.3,1.2,5.7-0.9
				c6.1-8.8,12.2-17.7,18.2-26.6c-1.4-1.1-1.9-1.6-2.5-1.9c-4.9-2.8-9.8-5.6-14.9-8.1c-2.2-1.1-2.5-2.7-2.8-4.9
				c-0.4-3.1-0.8-6.8-2.7-9c-3-3.3-7.6-5.1-10.3-8.8C243.4,144,243.1,144,242.8,144.1z M145.3,143.1c-0.4-0.3-0.9-0.7-1.3-1
				c-0.5-2.2-0.9-4.5-1.5-6.7c-0.3-1-0.7-2.6-1.4-2.8c-3.7-0.9-5.1-2.8-3.9-6.5c0.2-0.7-0.1-1.6-0.2-2.4c-0.3-2.6-0.7-5.1-0.9-7.7
				c-0.1-0.8,0.3-1.9-0.1-2.4c-3.3-3.8-0.4-7.1,0.3-10.7c0.7-3.7,0.1-7.6,0-11.4c0-0.5-1-1-1.6-1.3c-3.6-1.3-9.7,0.8-11.8,3.8
				c-1.2,1.6-2.5,3.2-4,4.5c-3.2,2.8-6.8,5.1-9.8,8.1c-3.4,3.2-6.4,6.8-9.4,10.4c-0.7,0.9-0.8,2.8-0.4,3.9
				c2.7,7.9,5.7,15.7,8.5,23.5c3.2,9,6.2,18,9.6,27.8c3.8-2.4,7.3-4.8,10.9-6.9c2.2-1.3,3.1-2.9,3-5.5c-0.1-5.2,1.9-9.5,6.9-12.1
				C140.8,146.6,143,144.7,145.3,143.1z M246.4,142.9c1.3,1.3,2.4,3,4.1,4c5.2,3.1,8.8,7,8.8,13.4c0,1.1,0,2.8,0.7,3.3
				c4.1,3,8.5,5.7,13.1,8.8c2.8-7.6,5.2-14.3,7.6-21.1c3.5-9.8,7-19.6,10.4-29.4c0.5-1.4,0.3-3.5-0.5-4.6c-2.9-3.8-6-7.5-9.4-10.8
				c-3.8-3.7-8.9-6.3-12-10.4c-3.1-4.2-6.6-5.7-11.4-5.3c-1,0.1-2.6,0.8-2.7,1.3c-0.3,3.8-1,7.7-0.3,11.4c0.7,3.7,3.9,7.1,0.3,11
				c-0.3,0.3-0.1,1.1-0.1,1.7c-0.2,4.7-0.4,9.4-0.8,14.1c0,0.6-0.6,1.6-1.1,1.7c-4.7,0.7-5,3.9-4.9,7.5
				C248.2,140.5,247.1,141.6,246.4,142.9z M180.7,115.3c-3.3,14.9-0.7,26.8,13.1,35.8c0.9,0.6,2.9,0.5,3.8-0.1
				c6.6-4.3,11.4-9.8,13.4-17.6c1.6-6.2,0.9-12.3-0.4-18.3c-4.3,2.6-8.2,5-11.7,7.2c-0.9,3.6-1.7,7.2-2.5,10.7c-0.5,0-1-0.1-1.5-0.1
				c-0.6-2.9-1.1-5.8-1.9-8.6c-0.2-1-0.7-2.2-1.5-2.7C188,119.4,184.4,117.5,180.7,115.3z M234.5,314c0.9-5.3,1.6-10,2.3-14.7
				c0.1-0.5-0.2-1.1-0.4-1.7c-4.7-11.5-0.9-22.4,6.7-28.6c0.9-0.7,1.6-2.2,1.5-3.2c-0.8-5.7-1.2-11.2,3.6-16.1
				c-3-1.1-5.3-1.9-7.8-2.8c-3.3,8.4-6.8,16.4-9.7,24.7c-3,8.7-5.4,17.6-7.9,26.5c-0.4,1.4-0.4,3.5,0.4,4.5
				C226.9,306.5,230.9,310.3,234.5,314z M154.5,313.7c3.6-3.5,6.8-6.7,10.2-9.8c2.3-2.1,2.5-4.5,2-7.2c-3.4-17.2-11.3-33-17.2-49.3
				c-0.1-0.2-0.4-0.2-0.8-0.5c-2,0.9-4,1.7-6.1,2.6c0.4,0.1,0.8,0.2,1.2,0.3c0.4,4.6,1.2,9.2,1.2,13.8c0,2.2,0.2,3.6,2.1,5.2
				c7.5,6.3,9.6,14.7,7.7,23.7c-0.8,3.9-1.6,7.2-0.4,11.2C155.2,306.5,154.5,309.7,154.5,313.7z M176.1,125.7
				c-1.3,1-2.4,2.2-3.8,2.8c-0.7,0.3-2.5,0-2.8-0.5c-1.5-3.3,0.3-10,3.1-12.6c1-0.9,2.1-1.8,3.3-2.8c-2.5-2-4.7-3.8-6.8-5.6
				c-1.2,2.1-2.1,4.2-3.4,5.9c-6.9,9.1-8.5,19.5-8.7,30.4c-0.1,2.6,0.9,3.8,3.6,3.7c6.9-0.2,13.2-2.4,18.8-5.3
				C178.3,136.2,177.2,131.1,176.1,125.7z M214.9,125.6c-1.1,5.5-2.1,10.7-3.2,16.1c5.8,3,12,5.2,18.9,5.3c2.2,0,3.4-0.6,3.4-3.1
				c0.1-10.6-1.5-20.7-8.1-29.6c-1.5-2-2.6-4.4-3.8-6.6c-2.1,1.6-4.3,3.3-6.9,5.2c6,3,7.2,8.1,6.7,13.9c-0.2,2.3-1.3,2.8-3.1,1.6
				C217.4,127.8,216.1,126.6,214.9,125.6z M262.7,230.7c-5.1-2.5-9.7-4.7-14.3-6.8c-0.7-0.3-2.3,0.1-2.7,0.7
				c-3.5,5.6-6.8,11.4-10.4,17.6c4.9,2,8.9,4.2,13.2,5.1c1.7,0.4,5.5-1.7,5.7-3.1C255.2,238.8,257.9,234.6,262.7,230.7z
				 M127.7,230.8c4.9,3.8,7.8,7.9,8.2,13.4c0.1,2,3.9,4.2,5.8,3.5c4.2-1.6,8.4-3.5,13.3-5.6c-3.6-6.2-6.9-11.8-10.2-17.2
				c-0.4-0.6-2-1.1-2.6-0.9C137.4,226,132.8,228.3,127.7,230.8z M154.5,115c-1.8-0.5-4.4-0.9-6.6-1.9c-2-0.8-3.2-0.3-4.4,1.2
				c-3.4,4.1-3.5,9-3.9,13.9c-0.1,0.5,0.6,1.4,1.1,1.6c3.8,1.2,7.6,2.3,11.4,3.3c0.8,0.2,2.4-0.4,2.6-1c1.1-3.5,1.8-7,2.6-10.3
				c-2.2-0.2-4.1-0.3-6-0.5C152.3,119.2,153.4,117.2,154.5,115z M233.8,122.5c0.7,2.7,1.4,5.5,2.1,8.4c0.5,2.2,1.8,3.2,3.9,2.7
				c3.6-0.9,7.2-2.1,10.7-3.2c0.5-0.2,1.2-1.1,1.1-1.6c-1.1-4.6-2.3-9.1-3.8-13.5c-0.3-0.9-2.4-1.9-3.4-1.7
				c-2.9,0.5-5.6,1.6-7.9,2.3c1.1,1.9,2.3,3.9,3.5,5.8C238.1,122,236.1,122.2,233.8,122.5z M83.5,142.9c2.3,5.1,3.6,9.9,9.6,10.7
				c2.6,0.4,10.4-1.2,11.8-3.3c0.2-0.4,0.4-0.9,0.3-1.3c-1.2-4.1-2.4-8.1-3.7-12.6C95.2,138.7,89.5,140.8,83.5,142.9z M285,150.5
				c3.3,2.6,9,4.5,11.4,4.1c6-0.9,8.6-5,10.3-11.1c-5.7-2-11.6-4.1-17.9-6.4C287.4,142.1,286.2,146.3,285,150.5z M122.2,214.7
				c-5.6-10.2-11.1-20.3-16.7-30.4c-0.4,0.1-0.7,0.2-1.1,0.3c1.8,5.3-0.5,9.8-3.3,14.2c5.9,3.1,9.4,7.4,11.2,13.4
				C113.7,216.9,118,217.9,122.2,214.7z M268.2,214.7c4,3.1,8.4,2.3,9.7-2.1c1.8-6.3,5.5-10.8,10.5-13.4c-1.3-4.9-2.5-9.4-3.9-14.2
				C279.1,194.7,273.7,204.6,268.2,214.7z M131.4,210.2c-10.2-9.1-13.1-22.2-20.7-32.7c-1.7,0.8-3.3,1.6-5.1,2.4
				c6.6,11.4,13,22.3,19.5,33.4C127.1,212.3,129.1,211.3,131.4,210.2z M265.3,213.3c6.5-11.2,12.8-22,19.2-33c-1.8-1-3.4-2-4.9-2.8
				c-7.6,10.7-10.7,23.6-20.6,32.7C261.3,211.3,263.2,212.2,265.3,213.3z M203.8,225.1c-3.8,1.9-4.9,4.4-2.6,6.9
				c2.9,3.2,6.9,3.9,11.1,3.3c4.2-0.7,8.4-1.7,10.6-6c0.1-0.2,0.2-0.5,0.2-0.7c-0.1-3.2,0.2-6.5-0.5-9.6c-0.5-2-2.1-4-3.8-5.4
				c-2.2-1.8-3.1-1.2-4,1.7c3.9,2.9,4.9,5.5,3.6,9.9c-0.8,2.6-2.2,4.8-5.3,5.2C208.7,231,206.1,229.5,203.8,225.1z M186.1,224.1
				c-1.6,5.2-4.9,6.9-9,6.1c-2-0.4-4.7-2.4-5.1-4.1c-0.9-4.2-1-8.7,4-10.8c-0.7-3.1-2.9-3.3-4.3-1.6c-1.9,2.3-3.4,5.1-4.4,7.9
				c-0.7,2.1-0.4,4.5-0.1,6.7c0.1,1.3,0.7,2.8,1.6,3.6c4.3,3.8,11.9,4.5,17.1,2c2.4-1.1,3.8-2.9,3.3-5.3
				C189.1,227.2,187.5,226,186.1,224.1z M100.1,177.1c0.3,0.1,1.7,1,2.7,0.7c2.9-0.9,5.6-2.1,8.3-3.4c0.6-0.3,1.2-1.3,1.1-1.9
				c-0.9-4.1-2.1-8.2-3.2-12.5c-1.2,0.2-2.3,0.5-3.3,0.7c-3.2,0.5-4.7,1.8-4.4,5.4C101.7,169.3,100.7,172.7,100.1,177.1z M290.4,178
				c-0.7-4.4-1.5-7.4-1.6-10.5c-0.1-5.1,0.1-5.1-5.2-6.3c-0.8-0.2-1.6-0.2-2.6-0.4c-0.5,2.5-0.8,4.9-1.4,7.2
				c-1.7,6.9-1.8,6.9,4.9,9.6c0.7,0.3,1.4,0.7,2,0.7C288.1,178.2,289.6,178.1,290.4,178z M184.3,113.9c7.4,7.3,15.6,7.3,22.4,0.1
				c-5.3-1.5-9.7-3.9-11.1-9.9C194.1,109.9,189.9,112.5,184.3,113.9z M135.4,75.3c-2.9-0.8-6.1-1.8-9.3-2.6c-0.3-0.1-1,0.6-1.3,1.1
				c-2.7,4.1-3.9,8.6-3.3,13.5c3.6-1.1,6.8-2.1,9.6-2.9C132.4,81.4,133.7,78.8,135.4,75.3z M269.5,87.9c0.5-4.7-0.2-8.9-2.8-12.8
				c-0.5-0.7-1.5-1.9-2-1.7c-3.1,0.7-6.2,1.8-9.1,2.6c1.7,3.5,3,6.2,4.4,9C262.9,85.8,266,86.8,269.5,87.9z M190.2,169.9
				c-0.4-0.2-0.9-0.4-1.4-0.7c-1.6,1.9-3.2,3.7-4.6,5.8c-1.2,1.7-0.6,2.7,1.6,3.3c1.7,0.4,3.5,1.2,5,2.2c2.4,1.6,7.3,1.6,9.7,0
				c1.5-1,3.2-1.7,5-2.1c1.8-0.5,2.8-1.4,1.6-3c-1.4-2.1-3.2-4-4.9-6c-0.4,0.2-0.8,0.4-1.2,0.6c0.6,1.7,1.2,3.4,1.7,4.7
				c-4.8,5.5-9.7,5.4-14.4,0C188.9,173.2,189.5,171.6,190.2,169.9z M156.6,100.2c0.1,0.6,0.2,1.2,0.4,1.9c3.2,0.5,6.3,1,9.6,1.6
				c-0.2-3.5-0.3-5.9-0.4-9.3C162.5,96.6,159.5,98.4,156.6,100.2z M224.6,104.6c3.5-0.7,6.6-1.3,9.8-1.9c0.1-0.5,0.2-1.1,0.3-1.6
				c-3-1.8-6.1-3.7-9.6-5.9C224.9,98.7,224.8,101.2,224.6,104.6z M177.3,147.7c-0.3,0.4-0.6,0.8-0.9,1.2c2.6,2.2,5.2,4.5,7.9,6.7
				c0.3,0.2,1.2-0.2,1.9-0.4c-0.2-0.6-0.1-1.5-0.5-1.9c-1.7-1.7-3.5-3.3-5.4-4.7C179.5,148.1,178.3,148,177.3,147.7z M215.3,148.4
				c-1.7-0.4-2.4-0.8-2.6-0.6c-2.6,2-5.3,4.1-7.8,6.2c-0.2,0.2-0.2,1.1,0,1.3c0.4,0.3,1.3,0.7,1.6,0.5
				C209.2,153.5,211.9,151.2,215.3,148.4z M254.7,108.4c-2.9,1.4-4.9,2.3-7,3.3c1.7,2.3,3.2,4.1,4.3,5.6
				C252.8,114.7,253.6,112.1,254.7,108.4z M136.7,107.9c0.9,3.6,1.6,6.4,2.3,9.1c1.2-1.7,2.7-3.8,4.4-6.2
				C141.2,109.9,139.2,109,136.7,107.9z"/>
			<path class="st3" d="M173.7,96.8c-0.8-3.1,2.4-3,4.1-3.6c1.3-0.5,3.3,0.1,4.7,0.7s2.7,1.8,3.4,3.1c1,1.7,2.4,4.2,1.7,5.6
				c-0.8,1.6-3.4,3-5.3,3.2C177.6,106.3,173.7,102.1,173.7,96.8z"/>
			<path class="st3" d="M209.9,106.2c-1.4-0.3-3-0.3-4.1-1c-1.2-0.8-2.1-2.2-2.6-3.5c-0.5-1.4,4.3-7.9,6.5-8.1c2.4-0.1,5,1,7.3,2
				c0.6,0.3,0.6,2.4,0.4,3.6C216.6,103.6,213.6,106.1,209.9,106.2z"/>
		</g>
	</g>
</g>
<g>
	<g>
		<g>
			<path d="M0,169.1c14.1-0.1,31.5-0.1,45.6-0.1c-0.4-0.8-0.7-1.5-1-2.2c-0.3-0.6-0.5-1.1-0.7-1.7c0.9,0.1,1.9,0.1,2.7,0.3
				c6.2,2.1,12.7,2.9,19.3,1.8c2.9-0.5,4.6,0.1,5.9,1.8c2.8,0,5.6,0,8.4,0c7-6.8,11.9-14.1,9-22.7c-1-2.9-2.4-5.6-4.1-8.3
				c-1.8-2.8-4.3-5.3-8.9-6.2c-0.6-0.1-1-0.4-1.5-0.6c0.4-0.3,0.9-0.6,1.3-0.9c4.2-2.7,9-5.1,12.6-8.1c8.2-6.8,8.2-14.8,3.6-22.5
				C87.5,91.8,78,88,66,87c-0.9-0.1-1.8-0.2-2.6-0.2c0.5-0.6,1.1-1.1,1.5-1.7c1.6-3,4.2-5.9,4.4-8.9c0.6-7.3-1.3-14.2-9.7-19.5
				c-5.4-3.4-11.5-5.2-18.8-5.2c-1.8,0-3.6,0-5.4,0c-4.6,0-4.8,0-3.5-3.2C36,38.5,29.7,30.5,19,25.1c-0.8-0.4-1.2-1.6-1-2.3
				c0.6-1.9,1.9-3.7,2.5-5.6C23.1,7.9,14,0.2,0.3,0c0,2.3,0,4.7,0,7c1.4,0.4,3,0.6,4.3,1.1c5.1,1.8,7.4,5.9,5,9.2
				c-0.7,1-2.6,2-4.2,2.2c-0.9,0.1-2.5-1.2-3.3-2.1c-0.4-0.4,0-1.3,0.1-2c0.7,0.4,1.4,0.7,2.2,1.1c0.6,0.3,1.1,0.6,1.7,0.8
				c0.4-0.4,1-0.8,1.2-1.3c1.2-3-1.4-5.5-6.8-6.4c0,11.6,0,23.2,0,34.9c3.6-0.8,6.9-1.2,9.3,1.7c0.7,0.9,2.2,1.6,3.5,2
				c4,1.3,4.1,1.4,1.6,3.9c-0.8,0.8-1.7,1.6-2.5,2.3c-1.7,1.4-3,1.7-5.2,0.7c-2.1-0.9-4.7-1.3-7-2 M47.1,65c0,0.1,0.1,0.7,0.3,1.3
				c1.7,4.5,5.4,5.2,10.1,1.9c1.5-1.1,2.6-2.4,4-3.6c0.4-0.3,1.2-0.3,1.8-0.5c0.1,1.3,1.1,3,0.2,3.7c-3.9,3.4-8.6,6.1-14.9,7.1
				c-0.7,0.1-1.6,0.2-2.3,0c-5-1-8.9-7.5-6.3-10.6c2-2.4,3-4.9,2.2-7.7c-0.2-0.8-0.6-1.6-0.9-2.4c1.6,0,3.5-0.3,4.8,0.1
				c1.2,0.4,2.4,1.7,2.3,2.6C48.5,59.6,47.7,62,47.1,65z M5.3,36.1c0.3,0,0.7-0.1,1.1-0.2c-0.5-2.5-1.2-5-1.5-7.5
				c-0.1-1,0.9-3,1.1-3c2.3,0.2,5.3-0.3,5.6,2.5s1.2,5.6,1.9,8.4c0.8,2.9,2.7,3.8,6.7,3.3c1.7-0.2,3.3-0.9,5-1.3
				c1-0.2,2.1-0.3,3.2-0.5c0,1.4,0.8,3.4-0.2,4.1c-2.4,1.6-5.6,2.8-8.7,3.8c-3.8,1.2-6.5,0.4-8.7-2.2c-1.3-1.5-2.7-3.1-3.9-4.6
				C6.3,38.1,5.8,37.1,5.3,36.1z M78.5,108.7c0.6,3.7,2.6,4.6,7,2.9c1.1-0.4,2-1.1,3.1-1.6c0.7-0.4,1.4-0.7,2-1
				c0.1,0.7,0.5,1.4,0.3,2c-0.1,0.6-0.7,1.1-1.2,1.6c-3.2,2.7-10.7,4.1-15.4,2.9c-1-0.2-2.1-0.8-2.5-1.4c-1.5-2.5,2-10.3,4.8-12.2
				c2.1-1.5,3.8-3.3,5.6-5c0.5-0.4,0.9-0.9,1.3-1.3c0.5,0.7,1.5,1.4,1.3,1.9c-0.7,1.9-1.9,3.6-2.9,5.4
				C80.9,104.8,79.7,106.7,78.5,108.7z M86.2,152.7c0.3,1.9-0.3,3-3.8,1.9c-3.3-1.1-6-0.2-7.8,1.9c-1.9,2.1-1.6,4.1,1.4,5.7
				c0.8,0.4,1.6,0.9,2.3,1.4c2.7,1.8-0.3,2.6-1.3,3.7c-1.4,1.4-2.3,0.1-3.1-0.6c-1.7-1.4-3.5-2.9-5.2-4.3c-2.6-2.2-5.2-4.4-1.9-7.4
				c0.5-0.4,0.6-1,0.9-1.5c0.7-1.6,2.1-2.2,4.6-2.1c3.8,0,7.7-0.1,11.4-0.6C86.2,150.4,86.5,151.1,86.2,152.7z M57.4,94
				c-1.3,0-2.6,0.2-3.8-0.1c-1-0.2-2.6-0.9-2.6-1.4c0-0.7,1-2,1.9-2.1c7.7-1,15.5-1.3,22.9,1c2.6,0.8,3.3,2.3,2.9,4.2
				c-0.4,1.5-1.3,2.3-3.6,1.3C69.6,94.5,63.5,94.1,57.4,94z M34.5,65.9c0.1,0.4,0.4,0.8,0.5,1.3c0.9,4.6,5.1,7.8,10.5,9.9
				c2.4,1,2.2,1.6,1.2,2.7C46,80.7,45,81.4,44,82.1c-1.4,1-2.5,1.2-3.6-0.5C39.4,79.9,38,78,36,77c-3.6-1.7-5.2-3.9-6.6-6.5
				C28.2,68.3,30.3,66,34.5,65.9z M61.7,102.3c1.2,0.2,3.2,0.1,3.5,0.5c1.3,2.3,2.6,4.8,3.2,7.2c0.5,1.9,0.2,3.9-0.1,5.8
				c-0.1,0.6-1.1,1.2-1.7,1.8c-0.6-0.4-1.3-0.7-1.7-1.2c-1.3-1.3-2-3.4-3.7-3.8c-4.6-1.2-4.2-3.4-3.4-5.9c0.2-0.5,0.3-1.1,0.2-1.6
				C57.3,102.9,58.6,102.2,61.7,102.3z M61.5,145.2c2.4,0.7,3.9,1,5.2,1.6c1.7,0.8,5.1,1.5,0.3,2.8c-1,0.3-1.6,1.3-2.2,2.1
				c-1.5,2.1-2.7,4.2-4.5,6.2c-0.5,0.5-2.4,0.6-3.6,0.6c-0.6,0-1.5-1.1-1.3-1.6c0.6-2.3,1.3-4.7,2.4-6.9
				C58.7,148.2,60.3,146.7,61.5,145.2z M85.9,147c-0.4,0.4-1,0.9-1.7,1.4c-0.6-0.5-1.4-0.9-1.8-1.5c-1.6-2.2-2.6-4.7-4.8-6.6
				c-2.2-1.9-5.6-3.1-8.2-4.7c-0.8-0.5-0.9-1.7-1.3-2.5c1-0.1,2.1-0.5,3-0.4C81.6,134.5,83.1,140.8,85.9,147z M29.5,45.6
				c-1.5,2.8-2.1,5.4-4.1,7.1c-2.6,2.3-6.4,4-9.7,5.9c-0.6,0.5-1.7,0.5-2.6,0.7c0.3-0.7,0.3-1.4,0.8-2c1.8-1.9,5-3.7,5.2-5.7
				c0.4-3.8,4.6-4.5,7.8-6.1C27.4,45.4,28.2,45.6,29.5,45.6z M35.3,56.9c-4.8-0.4-7.9,0.6-10.5,2.5c-1.5,1.1-2.8,2.4-4.4,3.3
				c-0.8,0.5-2.3,0.3-3.5,0.5c0.2-0.7,0.2-1.6,0.8-2c2.3-1.7,4.5-3.5,7.2-4.7s5.9-1.9,9.1-2.4c1-0.1,2.5,1.3,3.8,2
				C36.7,56.4,35.7,56.8,35.3,56.9z M67.6,128c0-0.4-0.1-0.7-0.1-1c0.8-0.4,1.5-0.9,2.4-1.1c5.5-1.5,10.2-3.5,13.4-7.1
				c0.6-0.7,2.2-1.1,3.4-1.5c0.4-0.1,0.9,0,1.4,0c-0.1,0.3-0.2,0.7-0.4,1c-4.5,4.4-9.4,8.4-16.8,10.5C70,128.9,68.7,128.3,67.6,128z
				 M55.7,87.2c0.7-1.1,1.4-1.8,1.7-2.6c1.5-3.2,2.9-6.4,4.4-9.6c0.6-1.3,1.4-2.5,2.2-3.7c0,0,1.6,0.2,1.6,0.4
				C67.7,77.6,63.7,83.9,55.7,87.2z M56.1,78.7c-2.5,2.5-5,5.2-7.8,7.8c-0.2,0.2-1.8,0-2.5-0.3c-0.4-0.2-0.6-1.2-0.4-1.4
				c3.1-1.8,4.8-4,5.5-6.8c0.2-0.6,2.4-1,3.7-1.4C55,77,55.4,77.5,56.1,78.7z M69,105.1c-1.4-4.3-2.3-4.8-8.5-4.8
				c-0.9,0-1.9,0.2-2.7,0c-0.9-0.3-1.6-0.9-2.3-1.4c0.7-0.2,1.5-0.6,2.2-0.6c3.5,0.2,7.1,0.4,10.6,0.9c2.6,0.4,4.6,1.4,2,3.5
				C69.5,103.3,69.4,104.2,69,105.1z M74.2,149.1c-0.5-0.2-0.7-0.2-0.7-0.2c-2-3-6-4.2-9.8-5.6c-0.3-0.1-0.3-1-0.2-1.5
				c0.1-0.3,0.9-0.6,1.3-0.6c3.5,0,9.7,4.2,10,6.7C74.7,148.3,74.4,148.7,74.2,149.1z M35,60.8c1.5,0.5,2.1,0.8,2.7,1
				c-0.5,0.6-0.8,1.5-1.5,1.7c-3.1,1-6.3,1.9-9.5,2.7c-0.4,0.1-1.1-0.1-1.6-0.2c0.2-0.3,0.2-0.8,0.5-0.9
				C28.8,63.5,32.1,62.1,35,60.8z M59.3,162.6c-0.1,0.1-0.1,0.3-0.2,0.4c-2.7-0.7-5.4-1.3-8-2.1c-0.5-0.2-0.7-0.9-1-1.4
				c0.8-0.1,1.7-0.4,2.4-0.2c3,0.5,6,1.2,9,1.8c0.6,0.1,1,0.6,1.6,0.9c-0.6,0.2-1.2,0.5-1.8,0.6C60.6,162.7,59.9,162.6,59.3,162.6z"
				/>
		</g>
	</g>
	<g>
		<g>
			<path d="M80.2,167.9c7,6.8,11.9,14.1,9,22.7c-1,2.9-2.4,5.6-4.1,8.3c-1.8,2.8-4.3,5.3-8.9,6.2c-0.6,0.1-1,0.4-1.5,0.6
				c0.4,0.3,0.9,0.6,1.3,0.9c4.2,2.7,9,5.1,12.7,8.1c8.3,6.8,8.2,14.8,3.6,22.5c-4.7,7.9-14.3,11.6-26.2,12.6
				c-0.9,0.1-1.8,0.2-2.6,0.2c0.5,0.6,1.1,1.1,1.5,1.7c1.6,3,4.2,5.9,4.4,8.9c0.6,7.3-1.3,14.2-9.8,19.5c-5.4,3.4-11.5,5.2-18.8,5.2
				c-1.8,0-3.6,0-5.4,0c-4.6,0-4.8,0-3.5,3.1c4.1,9.9-2.2,17.8-13,23.2c-0.8,0.4-1.2,1.6-1,2.3c0.6,1.9,1.9,3.7,2.5,5.6
				c2.6,9.3-6.5,17-20.2,17.2c0-2.3,0-4.6,0-7c1.4-0.4,2.9-0.6,4.3-1.1c5.1-1.8,7.4-5.9,5-9.2c-0.7-1-2.6-2-4.2-2.2
				c-0.9-0.1-2.5,1.2-3.3,2.1c-0.4,0.4,0,1.3,0.1,2c0.7-0.4,1.4-0.7,2.1-1.1c0.6-0.3,1.1-0.6,1.7-0.9c0.4,0.4,1,0.8,1.2,1.3
				c1.2,3-1.4,5.5-6.9,6.4c0-11.6,0-23.2,0-34.9c3.6,0.8,6.9,1.2,9.3-1.7c0.7-0.9,2.1-1.6,3.5-2c4-1.3,4.1-1.4,1.6-3.9
				c-0.8-0.8-1.7-1.6-2.6-2.3c-1.4-1.3-2.6-1.5-4.8-0.6c-2.1,0.9-4.6,1.3-7,2c0-37.9,0-75.8-0.1-113.8c0-1.8,0.5-2.2,3.2-2.2
				c14.1,0.1,28.2,0.1,42.4,0.1c-0.4,0.8-0.7,1.5-1.1,2.2c-0.2,0.6-0.5,1.1-0.7,1.7c0.9-0.1,1.9-0.1,2.7-0.3
				c6.2-2.1,12.7-2.9,19.4-1.8c2.9,0.5,4.6-0.1,5.9-1.8C74.5,167.9,77.3,167.9,80.2,167.9z M47,272c0-0.1,0.1-0.7,0.3-1.3
				c1.7-4.5,5.5-5.2,10.1-1.9c1.5,1.1,2.6,2.4,4,3.6c0.4,0.3,1.2,0.3,1.8,0.5c0.1-1.3,1.1-3,0.2-3.7c-3.9-3.4-8.7-6.1-14.9-7.1
				c-0.7-0.1-1.6-0.2-2.3,0c-5,1-8.9,7.5-6.3,10.6c2,2.4,3,4.9,2.2,7.7c-0.2,0.8-0.6,1.6-0.9,2.5c1.6,0,3.5,0.3,4.8-0.1
				c1.2-0.4,2.4-1.7,2.3-2.6C48.4,277.4,47.6,274.9,47,272z M5.1,300.8c0.4,0.1,0.8,0.1,1.1,0.2c-0.5,2.5-1.2,5-1.5,7.5
				c-0.1,1,0.9,3,1.1,3c2.3-0.2,5.3,0.3,5.6-2.5c0.3-2.8,1.2-5.6,1.9-8.4c0.8-2.9,2.7-3.9,6.8-3.3c1.7,0.2,3.3,0.9,5,1.3
				c1,0.2,2.1,0.4,3.2,0.5c0-1.4,0.8-3.4-0.2-4.1c-2.4-1.6-5.6-2.8-8.7-3.8c-3.8-1.2-6.5-0.4-8.7,2.2c-1.3,1.5-2.7,3-3.9,4.6
				C6.2,298.9,5.7,299.9,5.1,300.8z M78.5,228.3c0.6-3.7,2.6-4.6,7-2.9c1.1,0.4,2.1,1,3.1,1.6c0.7,0.4,1.4,0.7,2.1,1
				c0.1-0.7,0.5-1.4,0.3-2c-0.1-0.6-0.7-1.1-1.2-1.6c-3.2-2.7-10.7-4.1-15.4-2.9c-1,0.2-2.1,0.8-2.5,1.4c-1.5,2.5,2,10.3,4.8,12.2
				c2.1,1.5,3.8,3.3,5.6,5c0.5,0.4,0.9,0.9,1.4,1.3c0.5-0.6,1.5-1.4,1.3-1.9c-0.7-1.9-1.9-3.6-2.9-5.4
				C80.8,232.1,79.7,230.2,78.5,228.3z M86.2,184.3c0.3-1.9-0.3-3-3.8-1.9c-3.4,1.1-6,0.2-7.9-1.9c-1.9-2.1-1.6-4.1,1.4-5.7
				c0.8-0.4,1.6-0.9,2.3-1.4c2.7-1.8-0.3-2.6-1.4-3.7c-1.4-1.4-2.3-0.1-3.1,0.6c-1.7,1.4-3.5,2.9-5.2,4.3c-2.6,2.2-5.2,4.4-1.9,7.4
				c0.4,0.4,0.6,1,0.9,1.5c0.7,1.6,2.1,2.2,4.6,2.1c3.8,0,7.7,0.1,11.5,0.6C86.2,186.5,86.5,185.9,86.2,184.3z M57.3,243
				c-1.3,0-2.6-0.2-3.8,0.1c-1,0.2-2.6,0.9-2.6,1.4c0,0.7,1,2,1.9,2.1c7.7,1,15.5,1.3,22.9-1c2.6-0.8,3.4-2.3,2.9-4.2
				c-0.4-1.5-1.3-2.3-3.6-1.3C69.6,242.5,63.5,242.9,57.3,243z M34.4,271c0.1-0.4,0.4-0.8,0.5-1.3c0.9-4.6,5.1-7.8,10.5-9.9
				c2.4-1,2.2-1.6,1.2-2.7c-0.8-0.8-1.7-1.5-2.7-2.2c-1.4-1-2.5-1.2-3.6,0.5s-2.4,3.6-4.4,4.6c-3.6,1.7-5.2,4-6.6,6.5
				C28.1,268.7,30.2,271,34.4,271z M61.6,234.6c1.2-0.2,3.2-0.1,3.5-0.5c1.4-2.3,2.6-4.8,3.2-7.2c0.5-1.9,0.2-3.9-0.1-5.8
				c-0.1-0.6-1.1-1.2-1.7-1.8c-0.6,0.4-1.3,0.7-1.7,1.2c-1.3,1.3-2,3.4-3.7,3.8c-4.6,1.3-4.2,3.4-3.4,5.9c0.1,0.5,0.3,1.1,0.1,1.6
				C57.2,234,58.6,234.8,61.6,234.6z M61.5,191.8c2.4-0.7,3.9-1,5.2-1.6c1.7-0.8,5.1-1.5,0.3-2.8c-1-0.3-1.6-1.3-2.2-2.1
				c-1.5-2.1-2.8-4.2-4.5-6.2c-0.5-0.5-2.4-0.6-3.6-0.6c-0.6,0-1.5,1.1-1.3,1.6c0.6,2.3,1.3,4.7,2.4,6.9
				C58.6,188.7,60.2,190.2,61.5,191.8z M85.9,190c-0.4-0.4-1-0.9-1.7-1.4c-0.6,0.5-1.4,0.9-1.8,1.5c-1.6,2.2-2.6,4.7-4.8,6.6
				c-2.2,1.9-5.6,3.1-8.2,4.7c-0.8,0.5-0.9,1.7-1.3,2.5c1,0.1,2.1,0.5,2.9,0.4C81.6,202.4,83.1,196.1,85.9,190z M29.4,291.3
				c-1.5-2.8-2.1-5.4-4.1-7.1c-2.6-2.3-6.4-4-9.7-6c-0.7-0.4-1.7-0.4-2.6-0.6c0.3,0.7,0.3,1.4,0.8,2c1.8,1.9,5,3.7,5.2,5.7
				c0.4,3.8,4.6,4.5,7.8,6.1C27.3,291.6,28,291.4,29.4,291.3z M35.3,280c-4.8,0.4-7.9-0.6-10.6-2.5c-1.5-1.1-2.8-2.4-4.4-3.3
				c-0.8-0.5-2.3-0.3-3.5-0.5c0.2,0.7,0.2,1.6,0.8,2c2.3,1.7,4.5,3.5,7.2,4.7s5.9,1.9,9.1,2.4c1,0.1,2.5-1.3,3.8-2
				C36.6,280.5,35.6,280.1,35.3,280z M67.6,208.9c0,0.4-0.1,0.7-0.1,1c0.8,0.4,1.5,0.9,2.4,1.1c5.5,1.5,10.2,3.5,13.4,7.1
				c0.6,0.7,2.2,1.1,3.4,1.5c0.4,0.1,0.9,0,1.4,0c-0.1-0.3-0.2-0.7-0.4-1c-4.5-4.4-9.4-8.4-16.8-10.5
				C70,208.1,68.7,208.7,67.6,208.9z M55.6,249.7c0.7,1,1.4,1.8,1.8,2.6c1.5,3.2,2.9,6.4,4.4,9.6c0.6,1.3,1.4,2.5,2.2,3.7
				c0,0,1.6-0.2,1.6-0.4C67.6,259.4,63.7,253.1,55.6,249.7z M56.1,258.3c-2.5-2.5-5.1-5.2-7.8-7.8c-0.2-0.2-1.8,0-2.5,0.4
				c-0.4,0.2-0.6,1.2-0.4,1.4c3.1,1.8,4.8,4,5.5,6.8c0.2,0.6,2.4,1,3.7,1.4C55,260,55.3,259.4,56.1,258.3z M68.9,231.9
				c-1.4,4.3-2.3,4.8-8.5,4.8c-0.9,0-1.9-0.2-2.7,0c-0.9,0.3-1.6,1-2.3,1.5c0.7,0.2,1.5,0.6,2.2,0.6c3.6-0.2,7.1-0.4,10.6-1
				c2.6-0.4,4.6-1.4,1.9-3.5C69.5,233.6,69.4,232.7,68.9,231.9z M74.1,187.9c-0.5,0.2-0.7,0.2-0.7,0.2c-2,3-6,4.2-9.9,5.6
				c-0.4,0.1-0.3,1-0.2,1.5c0.1,0.3,0.9,0.6,1.3,0.6c3.5,0,9.7-4.2,10-6.7C74.7,188.7,74.3,188.3,74.1,187.9z M35,276.2
				c1.5-0.5,2.1-0.8,2.7-1c-0.5-0.6-0.8-1.5-1.5-1.7c-3.1-1-6.3-1.9-9.5-2.7c-0.4-0.1-1.1,0.1-1.6,0.2c0.2,0.3,0.2,0.8,0.5,0.9
				C28.7,273.4,32,274.9,35,276.2z M59.2,174.4c-0.1-0.1-0.1-0.3-0.2-0.4c-2.7,0.7-5.4,1.3-8,2.1c-0.5,0.2-0.7,0.9-1,1.4
				c0.8,0.1,1.7,0.4,2.4,0.2c3-0.5,6-1.2,9-1.8c0.6-0.1,1.1-0.6,1.6-0.9c-0.6-0.2-1.2-0.5-1.8-0.6C60.5,174.3,59.8,174.4,59.2,174.4
				z"/>
		</g>
	</g>
</g>
<g id="Layer_3" class="st0">
	<path class="st4" d="M209.8,87.4c-3.6,0.9-7.6,1.3-10.7,2.8c-6.2,2.9-13.2,5.2-17.7,9.7c-0.6,0.6-1.3,1.1-2.2,1.4
		c-3.3,1.3-6.6,2.4-9.9,3.7c-2.7,1-4.7,2.4-4.8,4.8c0,0.7-1,1.4-1.9,1.9c-3.7,2.2-5.9,4.8-5.5,8.4c0.1,0.6-1.4,1.4-2.3,1.8
		c-2.9,1.2-6.1,2.1-8.9,3.3c-1,0.4-2,1.4-2,2.2c0.1,3.4-2.6,5.3-5.8,7.5c-3.2,2.3-3.7,5.6-2.9,8.8c0.5,1.8-0.1,3-1.8,4.5
		c-2.1,1.8-2.6,4.5-3.8,6.8c-0.6,1.2-1.4,2.3-2.1,3.5c-0.8,1.4-2.4,2.8-2.2,4.1c0.8,3.6,0.9,7.3,4.7,10.3c1.1,0.9,1.5,2.6,1.1,3.8
		c-0.8,2.7-0.9,5.1,1.5,7.4c0.7,0.7,1.2,1.7,1.1,2.5c-0.6,5.2,3.3,8.6,9.1,11.2c2.9,1.3,5.9,2.3,9.5,3.7c-1.8,1.6-3.4,3.1-5,4.5
		c9.4,0,18.8,0,28.2,0c-3.2-1.2-6.3-2.6-9.6-3.7c-6.4-2.1-12.9-4-19.4-6c0-0.3-0.1-0.6-0.1-1c1.4-0.2,3-0.8,4.1-0.5
		c6.4,1.8,12.8,3.8,19.1,5.8c3,1,5.6,2.4,8.7,3.3c2.6,0.8,5.5,1,8-1.3c-1.6-0.3-2.7-0.4-3.5-0.8c-1.2-0.5-3-1.2-3-1.9
		c-0.1-0.8,1.2-1.9,2.2-2.5c2.3-1.2,8.7-0.9,10.5,0.3c2.8,2,2.5,4.3,0.8,6.7c-0.3,0.5-0.7,1-1,1.4c1.5,0,3.1,0,4.6,0
		c0.6-2.1,2-4.3,1.8-6.3c-0.3-2.7-2.9-5-6.9-5.3c-5.6-0.5-11.4-0.8-15.2,3c-1.4,1.4-2.5,1.5-4.4,0.7c-2.9-1.2-5.7-2.3-8.7-3.3
		c-3.6-1.2-7.4-2.2-12.3-3.6c3.9-1.7,6.8-3.2,10-4.2c7.4-2.3,15.1-3.2,23.2-1.4c8.9,2,15.3,6.1,21.4,10.8c1,0.8,2.8,1.1,4.2,1.6
		c0-0.9,0-1.8,0-2.7c-4.5-3.7-9-7.4-13.4-11c4.4-1.2,4.7-4.2,2.3-7.9c-2.2-3.3-8.9-4.8-12.8-2.3c-1.3,0.8-1.5,2.6-1.7,4
		c0,0.3,2.5,1.2,3.2,1c1.4-0.5,2.4-1.6,3.9-2.7c0.1,0.5,0.6,1.5,0.2,2.3c-1,2.1-3.9,2.4-6.3,2c-1.6-0.3-3.5-1.5-4-2.6
		c-1.3-2.7,1.1-5.4,5-6.3c5.8-1.4,12.5,0.7,14.7,4.8c2.4,4.4,2.4,4.4,8.2,1.9c0.2-0.1,0.4-0.2,0.7-0.2c0-3.6,0-7.1,0-10.7
		c-3-1.1-6-2.2-8.9-3.3c-1.1-0.4-2.7-1-2.9-1.6c-0.2-0.7,0.6-2,1.5-2.4c3.3-1.4,6.9-2.6,10.3-3.9c0-0.9,0-1.8,0-2.7
		c-3.4,0.6-6.7,1.3-10.4,2c-3.6-5.8-5.6-11.9-1.6-17.8c2.7-3.9,7.9-7,12-10.5c0-3.8,0-7.5,0-11.3c-4.3,3.6-9.9,5.8-16.4,6.8
		c-4,0.6-7.3,1.9-9.5,4.5c-1.3,1.5-1,2.4,1,3.3c2.3,1.1,4.7,2.2,6.7,3.5c0.9,0.6,1.6,1.8,1.4,2.6c-0.8,3.9-2,7.7-3,11.4
		c0,0-0.5-0.6-1.2-0.9c-1.7-0.7-3.6-1.2-5.4-1.8c-0.3,1.3-1.3,2.8-0.7,3.9c1.6,3.3,3.9,6.4,6,9.5c0.7,1.1,1.5,2.1,2.1,2.9
		c-5.7,1.2-10.9,2.3-16.1,3.3c-0.9,0.1-2.6-0.5-3.1-1.1c-1.4-1.7-2.1-3.6-3.4-5.4c-7.4-9.8-8.4-20.5-7.8-31.3c0-0.8,1.9-2.1,2.8-2.1
		c4,0.1,8.1,0.3,12,1c2.4,0.4,3.9,0.1,5.8-0.9c2.8-1.5,5.8-3.2,9.1-3.7c8.2-1.3,15-3.9,19.7-8.9C209.8,104.2,209.8,95.8,209.8,87.4z
		 M130.4,169.1c1.6-0.6,2.2-1,2.8-1.2c7.9-2.1,15.8-4.2,23.8-6.2c6.7-1.6,6.7-1.5,9.1,3c0.7,1.2,1.6,2.4,2.3,3.7
		c0.9,1.7,0.1,2.8-2.5,3.1c-2.2,0.3-4.6,0.3-6.8,0.6c-0.9,0.1-2.1,0.6-2.3,1.1s0.4,1.4,1.1,1.8c1.9,1.1,4.2,2,6.1,3.2
		c0.9,0.6,2,1.5,1.9,2.3c-0.1,0.7-1.3,1.6-2.4,2c-2.2,0.9-4.5,1.8-6.9,2.2c-1.7,0.3-4.4,0.5-5.4-0.2
		C144.3,179.5,137.6,174.4,130.4,169.1z M161.6,118.3c1.6-1.6,3.1-3.2,4.7-4.8c1-1,2.6-1.9,2.8-3c0.8-3.9,5-5.3,9.2-6.2
		c2.8-0.6,4.7-1.2,6-3.1c0.6-0.9,1.6-1.6,2.6-2.3c4.3-2.9,11-1.4,12.9,2.6c2.2,4.7-2.1,10.7-8.9,11.8c-7.1,1.1-14.1,2.9-19.5,6.8
		c-1,0.8-2.9,1.1-4.4,1.3C163.4,122,162.5,121.4,161.6,118.3z M137.1,150.8c0.4-0.4,0.7-0.9,1.3-1.1c4.7-1.5,9.4-3.1,14.3-4.4
		c0.9-0.2,3,0.5,3.4,1.1c1.8,3,3.2,6.2,4.8,9.3c0.7,1.4,0.1,2.2-2,2.5c-3.1,0.5-6.1,1.2-9.2,1.8c-5.4,1.1-5.4,1.1-8-2.6
		C140.2,155.3,138.7,153.1,137.1,150.8z M155.7,124.7c-0.2,2.7-0.2,5.1-3.3,7c-1.4,0.9-2.4,2.3-3.2,3.6c-1.7,2.7-3.1,5.5-4.8,8.2
		c-0.4,0.7-1.8,1.1-2.9,1.5c-0.3,0.1-1.3-0.5-1.5-0.9c-1.5-2.4,0.1-7.4,3.2-8.5c3.6-1.3,4.2-3.2,4.2-5.7
		C147.3,126.4,150.1,124.8,155.7,124.7z M134.9,178.4c0.5-0.2,1.1-0.3,1.6-0.5c1.2,1.5,2.7,2.9,3.7,4.4c1.2,1.8,2.4,3.7,3,5.6
		c0.5,1.6,0.4,3.2,0.3,4.9c0,0.1-1.4,0.5-1.5,0.4c-1.1-1.3-2.2-2.6-3.2-4c-0.1-0.1,0-0.2,0-0.3c-0.9-2.4-1.8-4.7-2.6-7.1
		C135.8,180.6,135.3,179.5,134.9,178.4z M130,164.7c0-1.1-0.4-2.3,0.1-3.3c1.3-2.5,3.1-4.9,4.6-7.3
		C137.1,158.1,132.6,161.2,130,164.7z"/>
	<path class="st4" d="M210.1,324.2c-3.6-0.9-7.7-1.3-10.8-2.8c-6.2-2.9-13.2-5.2-17.8-9.6c-0.6-0.5-1.3-1.1-2.2-1.4
		c-3.3-1.3-6.7-2.5-10-3.7c-2.7-1-4.7-2.4-4.8-4.8c0-0.6-1-1.4-1.9-1.9c-3.7-2.2-5.9-4.8-5.6-8.4c0.1-0.6-1.4-1.4-2.3-1.8
		c-2.9-1.2-6.1-2.1-9-3.3c-1-0.4-2.1-1.4-2-2.2c0.1-3.4-2.6-5.3-5.8-7.5c-3.2-2.3-3.7-5.6-2.9-8.8c0.5-1.8-0.1-3-1.9-4.5
		c-2.1-1.8-2.6-4.5-3.9-6.8c-0.6-1.2-1.4-2.3-2.1-3.5c-0.8-1.4-2.4-2.8-2.2-4.1c0.8-3.6,0.9-7.3,4.7-10.3c1.1-0.9,1.5-2.6,1.1-3.8
		c-0.8-2.7-0.9-5.1,1.5-7.4c0.7-0.7,1.2-1.7,1.1-2.5c-0.6-5.2,3.4-8.6,9.1-11.2c2.9-1.3,6-2.3,9.5-3.7c-1.8-1.6-3.4-3.1-5.1-4.5
		c9.5,0,19,0,28.4,0c-3.2,1.2-6.3,2.6-9.6,3.7c-6.4,2.1-13,4-19.5,6c0,0.3-0.1,0.6-0.1,1c1.4,0.2,3,0.8,4.1,0.5
		c6.5-1.8,12.9-3.8,19.2-5.8c3-1,5.7-2.4,8.7-3.3c2.6-0.8,5.5-1,8.1,1.3c-1.6,0.3-2.7,0.4-3.5,0.8c-1.2,0.5-3,1.2-3.1,1.9
		c-0.1,0.8,1.2,1.9,2.3,2.5c2.4,1.2,8.8,0.9,10.5-0.3c2.8-2,2.5-4.3,0.8-6.7c-0.4-0.5-0.7-1-1-1.4c1.5,0,3.1,0,4.6,0
		c0.6,2.1,2,4.3,1.8,6.3c-0.3,2.7-2.9,5-7,5.3c-5.6,0.5-11.5,0.8-15.3-3c-1.4-1.4-2.5-1.5-4.4-0.7c-2.9,1.2-5.8,2.3-8.8,3.3
		c-3.7,1.2-7.4,2.2-12.4,3.6c3.9,1.7,6.8,3.2,10.1,4.2c7.5,2.3,15.2,3.2,23.4,1.4c8.9-2,15.4-6.1,21.5-10.8c1-0.8,2.8-1.1,4.3-1.6
		c0,0.9,0,1.8,0,2.7c-4.5,3.7-9.1,7.4-13.5,11c4.4,1.2,4.8,4.2,2.3,7.9c-2.2,3.3-9,4.8-12.9,2.3c-1.3-0.8-1.5-2.6-1.7-4
		c0-0.3,2.5-1.2,3.3-1c1.4,0.5,2.4,1.6,3.9,2.7c0.1-0.5,0.6-1.5,0.2-2.3c-1-2.1-3.9-2.4-6.3-2c-1.6,0.3-3.5,1.5-4,2.6
		c-1.3,2.7,1.1,5.4,5,6.3c5.8,1.4,12.6-0.7,14.8-4.8c2.4-4.4,2.4-4.4,8.2-1.9c0.2,0.1,0.4,0.2,0.7,0.2c0,3.6,0,7.1,0,10.7
		c-3,1.1-6,2.2-9,3.3c-1.1,0.4-2.7,1-2.9,1.6c-0.2,0.7,0.6,2,1.5,2.4c3.3,1.4,6.9,2.6,10.4,3.9c0,0.9,0,1.8,0,2.7
		c-3.4-0.6-6.8-1.3-10.5-2c-3.7,5.8-5.6,12-1.6,17.8c2.7,3.9,8,7,12.1,10.5c0,3.8,0,7.5,0,11.3c-4.4-3.6-10-5.8-16.6-6.8
		c-4.1-0.6-7.3-1.9-9.6-4.5c-1.3-1.5-1-2.4,1-3.3c2.4-1.1,4.7-2.2,6.8-3.5c0.9-0.6,1.6-1.8,1.5-2.6c-0.8-3.9-2-7.7-3-11.4
		c0,0-0.5,0.6-1.2,0.9c-1.8,0.7-3.6,1.2-5.4,1.8c-0.3-1.3-1.3-2.8-0.7-4c1.7-3.3,3.9-6.4,6-9.5c0.7-1.1,1.5-2.1,2.1-2.9
		c-5.7-1.2-10.9-2.3-16.2-3.3c-0.9-0.1-2.6,0.5-3.1,1.1c-1.4,1.7-2.1,3.6-3.4,5.4c-7.5,9.8-8.4,20.5-7.8,31.3c0,0.8,1.9,2.1,2.8,2.1
		c4-0.1,8.1-0.3,12.1-1c2.5-0.4,3.9-0.1,5.8,0.9c2.8,1.5,5.8,3.2,9.1,3.7c8.2,1.4,15.1,3.9,19.8,8.9
		C210.1,307.5,210.1,315.9,210.1,324.2z M130.1,242.6c1.6,0.6,2.2,1,2.9,1.2c8,2.1,15.9,4.2,24,6.2c6.8,1.6,6.8,1.5,9.2-3
		c0.7-1.2,1.6-2.4,2.3-3.7c1-1.7,0.1-2.8-2.5-3.1c-2.3-0.3-4.6-0.3-6.8-0.6c-0.9-0.1-2.1-0.6-2.3-1.1s0.4-1.4,1.1-1.8
		c1.9-1.1,4.2-2,6.1-3.2c0.9-0.6,2-1.5,2-2.3c-0.1-0.7-1.3-1.6-2.4-2c-2.2-0.9-4.5-1.8-6.9-2.2c-1.7-0.3-4.5-0.5-5.5,0.2
		C144.1,232.1,137.4,237.3,130.1,242.6z M161.6,293.3c1.6,1.6,3.2,3.2,4.7,4.8c1,1,2.6,1.9,2.8,3c0.8,3.9,5.1,5.3,9.2,6.2
		c2.8,0.6,4.8,1.2,6.1,3.1c0.6,0.9,1.6,1.6,2.6,2.3c4.3,3,11.1,1.5,13-2.6c2.3-4.7-2.1-10.7-9-11.8c-7.2-1.1-14.2-2.9-19.6-6.9
		c-1-0.8-2.9-1.1-4.5-1.4C163.4,289.6,162.4,290.3,161.6,293.3z M136.9,260.8c0.4,0.4,0.7,0.9,1.3,1.1c4.8,1.5,9.5,3.1,14.4,4.4
		c0.9,0.2,3-0.5,3.4-1.1c1.8-3,3.2-6.2,4.9-9.3c0.8-1.4,0.1-2.2-2-2.5c-3.1-0.5-6.2-1.2-9.2-1.8c-5.5-1.1-5.5-1.1-8,2.6
		C140.1,256.4,138.5,258.5,136.9,260.8z M155.6,287c-0.2-2.7-0.2-5.1-3.3-7c-1.5-0.9-2.4-2.3-3.2-3.6c-1.7-2.7-3.1-5.5-4.9-8.2
		c-0.4-0.7-1.9-1.1-2.9-1.5c-0.3-0.1-1.3,0.5-1.6,0.9c-1.5,2.4,0.1,7.4,3.2,8.5c3.6,1.3,4.2,3.2,4.2,5.7
		C147.2,285.2,149.9,286.9,155.6,287z M134.7,233.3c0.5,0.2,1.1,0.3,1.6,0.5c1.2-1.5,2.7-2.9,3.7-4.4c1.2-1.8,2.4-3.7,3.1-5.6
		c0.5-1.6,0.4-3.2,0.3-4.9c0-0.1-1.4-0.5-1.5-0.4c-1.1,1.3-2.2,2.6-3.2,4c-0.1,0.1,0,0.2,0,0.3c-0.9,2.4-1.8,4.7-2.7,7.1
		C135.5,231,135.1,232.1,134.7,233.3z M129.8,247c0,1.1-0.4,2.3,0.1,3.3c1.3,2.5,3.1,4.9,4.6,7.3C136.9,253.6,132.3,250.5,129.8,247
		z"/>
</g>
</svg>
