<?xml version="1.0" encoding="utf-8"?>
<!-- Generator: Adobe Illustrator 27.1.1, SVG Export Plug-In . SVG Version: 6.00 Build 0)  -->
<svg version="1.1" id="Layer_1" xmlns="http://www.w3.org/2000/svg" xmlns:xlink="http://www.w3.org/1999/xlink" x="0px" y="0px"
	 viewBox="0 0 94.4 337.9" style="enable-background:new 0 0 94.4 337.9;" xml:space="preserve">
<style type="text/css">
	.st0{display:none;}
	.st1{display:inline;opacity:0.15;}
	.st2{fill:#545454;}
	.st3{fill:#3C3C3C;}
	.st4{display:inline;fill:#202020;}
</style>
<g id="behind" class="st0">
	<g class="st1">
		<g>
			<path d="M-139.6,201.8c1,1.1,2.1,2.2,2.9,3.5c5.1,7.5,10.3,15.1,15.3,22.7c1,1.6,1.7,3.4,2.2,5.3c0.3,1-0.2,2.2-0.3,3.3
				c-0.5,0.1-0.9,0.2-1.4,0.3c-2.7-4.9-5.4-9.7-8.4-15c-9.6,3.9-18.8,7.5-28.1,11.3c1.5,2.4,3.3,4.6,4.3,7.1c1,2.5,1.2,5.3,1.8,8.1
				c9.4,2,10.7,10.7,10.6,21.3c6.9,5.8,8.1,13.5,7.4,22c-0.1,1.3,0.5,2.8,1.2,3.9c3.7,5.8,2.8,11.9,1.8,18.1c-0.2,1-1.3,1.7-2,2.6
				c-0.4,0-0.8-0.1-1.2-0.1c-0.2-1.1-0.6-2.1-0.5-3.2c0.1-3.6,0.8-7.1,0.6-10.7c-0.2-5-2.9-7.5-7.9-7.9c-0.1,0-0.2,0-0.4,0
				c-7.2-0.7-8.1-2.5-4.2-8.8c-0.8-1.1-1.7-2.3-2.6-3.5c-1.7-2.2-1.9-4.2,0.3-6.3c5.2-5.1,5.7-16.4,0.8-21.7c-0.9-1-2.8-1.8-4.1-1.7
				c-2.7,0.2-5.4,1-8.1,1.8c-4.3,1.2-6.1,0.1-7.9-3.9c-1-2.2-3-4.1-4-6.3c-0.8-1.8-1.5-4.1-1.1-5.9c1.6-6,1.3-8.2-2.9-13.7
				c-2.7,0-5.7,0-8.7,0c-3.6,0-6.3-1.4-7.4-5.1c-0.3-1.1-1-2.2-1.7-3.1c-2.1-2.9-2.6-5.7,0.4-8.1c0-1.4,0-2.5,0-4.1
				c-5.4-0.9-9.4,2.8-14.3,4c0-1.5,0-2.9,0-4.2c13.6-8.7,37.1-4.2,33.4,16.9c1.8,2.8,3.5,5.5,5.3,8.3c2.4,0.4,5.1,0.9,7.7,1.3
				c0.1,0.2,0.1,0.5,0.2,0.7c9.6-3.9,19.1-7.9,28.7-11.8c-2.3-6-7.8-10.2-9.3-16.3C-140.6,202.3-140.1,202-139.6,201.8z
				 M-177.8,214.5c-2.1,0.5-3.9,1-6.2,1.5c-1-2.1-2.4-3.9-2.6-5.9c-0.2-2,0.6-4.1,1.1-6.6c-1.6-0.1-2.9-0.2-3.9-0.3
				c-0.6,3.3-1,6.1-1.6,9.7c1.1,1.9,2.6,4.6,4.2,7.4c3,0,6,0,9.1,0C-177.8,218.2-177.8,216.5-177.8,214.5z M-155.9,246
				c-3.9,0.9-6.4-0.8-9-3.4c-3.2-3.2-0.4-6.5-0.8-9.9c-0.9,0.1-1.7,0.1-2.3,0.2c-0.6,2.7-1.2,5.1-1.7,7.1c2.4,3.8,4.6,7.3,7.1,11.1
				c2.3-0.7,4.7-1.5,7.4-2.3C-155.5,247.9-155.7,247.1-155.9,246z M-141.6,273.2c-1.8,2.1-3.2,3.9-4.8,5.8c3.2,3,5.8,6.3,2.5,10.9
				c1.4,0.2,2.3,0.4,3.2,0.5c1,0.1,2.1,0,3.4,0c0.1-1.1,0.1-2.2,0.2-3.1c-5.2-3.2-5.2-7.9-2.4-11.8
				C-140.1,274.9-140.8,274.1-141.6,273.2z"/>
			<path d="M-29.9,285.4c0.8,1.1,1.3,1.8,1.8,2.5c1.7,2.8,1,4.8-2.3,5.7c-1.3,0.4-2.6,0.5-3.9,0.6c-4.9,0.5-7.6,2.8-7.8,7.6
				c-0.2,3.5,0.4,7.1,0.5,10.7c0,1.1-0.2,2.3-0.4,3.4c-0.6,0.1-1.2,0.2-1.8,0.2c-0.7-1.7-2-3.4-2.1-5.1c-0.3-5.7-1.1-11.5,3-16.5
				c0.6-0.8,0.4-2.2,0.6-3.4c0.6-4.7,0.6-9.5,1.9-14c0.8-2.8,3.3-5.2,5.4-8.3c0.9-7.6-0.9-17.3,11.2-20.6c-0.7-5.7,2.2-10.4,5.8-15
				c-9.6-3.8-18.7-7.5-28.3-11.4c-2.9,5.2-5.5,10.1-8.2,14.9c-0.4,0-0.8,0-1.2-0.1c-0.3-1-0.9-2.1-0.7-3.1c0.4-1.7,1-3.5,2-5
				c5.6-8.5,11.4-16.9,17.2-25.4c0.4-0.5,1-0.9,1.6-1.3c0.4,0.1,0.8,0.2,1.1,0.4c-0.4,1.3-0.4,2.8-1.1,3.9
				c-2.6,4.1-5.4,8.2-8.3,12.5c9.8,4.1,19.3,8,27.9,11.5c3.6-0.6,6.2-1.1,9-1.6c1.7-2.6,3.5-5.4,5.3-8.3
				c-3.6-20.8,19.2-25.2,32-17.6c0,1.3,0,2.7,0,4.1c-4.2-1.3-8.2-2.6-12.7-4c-0.2,2.2-0.3,3.3-0.4,4.7c3.6,2.7,1.8,5.3,0.5,8.7
				c-2.7,7.2-7.7,8.9-14.6,7.6c-0.4-0.1-0.7,0-1.1,0c-0.7,0.1-1.4,0.2-2.1,0.4c-3.7,3.9-4.8,8.3-2.7,13.2c1,2.6,0.4,4.5-1.2,6.6
				c-1.7,2.1-3,4.5-4.3,7c-1.5,2.9-3.6,3.8-7.3,2.8c-2.6-0.7-5.1-1.4-7.7-1.9c-2.6-0.5-4.4,0.8-5.7,3c-4,6.5-3.2,15.3,2.1,20.8
				c1.9,2,1.6,3.8,0.2,5.8C-27.8,282.8-28.8,284-29.9,285.4z M2.2,220.3c3.3,0,6.2,0,9,0c1.7-3,3.2-5.8,4.1-7.4
				c-0.6-4.1-1-6.9-1.5-10c-1.3,0.3-2.6,0.5-4.2,0.9c1.7,4.6,2.3,8.6-1.9,12.1c-1.7-0.4-3.5-0.9-5.6-1.4
				C2.2,216.4,2.2,218.1,2.2,220.3z M-5.9,240c-0.6-2.3-1.2-4.7-1.8-7.3c-0.8,0.1-1.6,0.2-2.3,0.3c1.4,10-0.8,13-9.8,13.4
				c-0.1,0.8-0.2,1.7-0.4,2.6c2.6,0.8,5,1.5,7.2,2.2C-10.6,247.3-8.3,243.8-5.9,240z M-34,273.3c-0.8,0.8-1.5,1.6-2.2,2.3
				c3.1,5.1,2.5,8.4-2.4,11.9c0.1,1,0.3,2.1,0.4,3.3c2.3-0.3,4.3-0.5,6.6-0.8c-3.7-4.9-0.5-7.9,2.2-11
				C-30.8,277.1-32.3,275.3-34,273.3z"/>
			<path d="M-96.5,117.7c1.5,0.6,2.8,1.1,4.4,1.6c1.1,3.4,2.2,7,3.3,10.6c0.6,0,1.3,0,1.9,0c1.1-3.5,2.2-7,3.3-10.6
				c1.3-0.5,2.7-1.1,4.8-1.9c0.4,1.5,1,2.9,1.1,4.4c0.6,6-1.7,11-5.7,15.3c-1.9,2-4.2,2.8-6.9,1.4C-96.5,135.4-99.9,124-96.5,117.7z
				"/>
			<path d="M-54.5,137.4c-6.6-1.4-10.7-5.6-14.5-10.9c0.7-0.9,1.3-1.6,2.1-2.6c2,1.5,3.7,2.7,5.7,4.3c-1.6-6.4-2.7-12.5-9.3-16.5
				c2.5-1.3,4-2.1,5.3-2.9C-56.9,111.3-50.5,127.8-54.5,137.4z"/>
			<path d="M-121.4,136.7c-3.6-8.6,2.4-24.7,10.6-28c1.4,0.6,3,1.3,4.9,2.3c-2.2,2.9-4.5,5.2-5.9,7.9c-1.4,2.7-1.8,5.8-2.8,9.4
				c2.1-1.7,3.7-2.9,5.5-4.4c0.9,0.7,1.6,1.4,2.2,1.9C-109.4,131.8-116.5,137-121.4,136.7z"/>
			<path d="M-92.2,282.8c0.4,8.6-1.3,16.8-6.3,24c-7.2,10.4-17.3,17.7-27.9,24.2c-1.6,1-3.6,1.4-5.5,1.7c-0.8,0.1-1.8-0.5-3.7-1.2
				c1.9-1.3,2.9-2.1,4-2.6c18.4-8.7,33.7-20,36.4-41.9c0.2-1.6,1-3.2,1.5-4.8C-93.3,282.5-92.7,282.6-92.2,282.8z"/>
			<path d="M-82.2,281.8c0.7,1.5,1.6,2.5,1.6,3.5c0.8,16.6,10.8,27.4,23.6,36.4c4.2,2.9,9,4.9,13.5,7.3c0.8,0.4,1.6,1,3.5,2.2
				c-1.9,0.8-2.9,1.6-3.8,1.5c-2-0.4-4.1-0.8-5.8-1.9c-9.8-6-19-12.9-26.1-22c-5.7-7.2-7.7-15.6-7.8-24.5c0-0.4,0-0.7,0.1-1.1
				C-83.3,283-83.1,282.9-82.2,281.8z"/>
			<path d="M-180.7,268.5c1.8,9.2,3.5,18.5-1.5,27.4c-0.8,1.4-2,2.7-3.3,3.7c-0.7,0.6-2.1,0.4-3.4,0c7.9-8.3,8.1-17.7,5.5-28.8
				c-4.1,2.8-7.8,5.2-11.5,7.8C-195.2,273.7-187.3,268.2-180.7,268.5z"/>
			<path d="M12.8,300.4c-1.2-0.4-2.7-0.4-3.5-1.2c-4-3.7-5.6-8.8-5.8-13.9c-0.3-5.5,0.8-11.1,1.2-16.5c6-1.1,14.3,4.3,15,10.1
				c-4-2.7-7.6-5.2-11.8-8c-2.5,10.9-2.7,20.3,5.7,28.1C13.3,299.4,13,299.9,12.8,300.4z"/>
			<path d="M-50.3,118.7c2.5,0.3,5,0.6,8.1,1c-1.6-2.1-2.8-3.8-4.4-6.1c2.2-0.5,3.6-0.8,6-1.3c2,3.2,4.1,6.5,6.3,10.1
				c-4.1,3.7-8.2,4-12.3,3.6c-1.4-2.2-2.5-4.1-3.7-6C-50.4,119.6-50.4,119.2-50.3,118.7z"/>
			<path d="M-125.1,119.9c-1.2,1.9-2.3,3.8-3.8,6.1c-3.9,0.6-7.9,0.1-12.3-3.3c2.1-3.5,4.1-7,6.2-10.3c2.3,0.5,3.8,0.8,6.2,1.2
				c-1.6,2.2-2.9,3.8-4.6,6c3.1-0.3,5.6-0.6,8.1-0.9C-125.2,119.1-125.2,119.5-125.1,119.9z"/>
			<path d="M-182.5,304.5c1.5-3.2,3.9-3.7,6.5-3.6c4.2,0.1,14.4,4.2,18,7.1c-1.9,5.5-14.2,12.4-18.8,9.8c5.1-2.9,9.8-5.6,15.4-8.8
				C-168.5,305.5-174.5,301.9-182.5,304.5z"/>
			<path d="M-17.7,308.2c6.9-6.6,20.5-9,24.6-3.8c-8-2.5-14.1,1-21.2,4.6c5.5,3.1,10.2,5.8,15.1,8.5
				C-2.6,320.8-14.9,314.2-17.7,308.2z"/>
			<path d="M-118.9,105.4c-1.9,0-3.7,0-5.5,0c-0.1,0.2-0.1,0.5-0.2,0.7c-1.2-1.1-2.5-2.1-3.8-3.2c0-1.8,0-3.6,0-4.8
				c2.7-1.6,4.9-3,7.6-4.6C-116.5,94.4-115.2,101.2-118.9,105.4z"/>
			<path d="M-47.2,98.2c0.1,1.1,0.1,2.8,0.2,4.4c-1.4,1.2-2.6,2.3-3.4,3.1c-2.2-0.2-4-0.3-6.4-0.6c-3.3-2.9-2.5-9.6,1.9-11.9
				C-52.5,94.8-50.2,96.2-47.2,98.2z"/>
			<path d="M-93.3,110.8c1.8-2.2,3.6-4.5,5.7-7c2.1,2.7,3.7,4.9,5.3,7c-0.6,2.8-2.7,2.9-4.8,2.9C-89.5,113.7-92.1,114.1-93.3,110.8z
				"/>
			<path d="M-168,299.2c0.6-3.8,1.1-6.9,1.7-10.3c-2.9-0.3-5.5-0.5-8.1-0.7c0-0.5,0.1-1,0.1-1.5c3.2,0,6.5,0,9.7,0
				C-162.2,290.6-163.5,297.1-168,299.2z"/>
			<path d="M-11.1,286.6c3.4,0,6.6,0,9.9,0c0,0.5,0,1,0,1.5c-2.5,0.2-5,0.4-8,0.6c0.5,3.3,1,6.6,1.5,10.5
				C-12,297-13.3,291-11.1,286.6z"/>
			<path d="M-203.8,290.6c-1.3-5.6-2.5-11-3.8-16.7C-201.7,277.6-199.8,287-203.8,290.6z"/>
			<path d="M30.4,275.8c-0.6,4.9-1.2,9.7-1.8,14.6C24.6,288.7,25.1,281.8,30.4,275.8z"/>
		</g>
	</g>
	<g class="st1">
		<g>
			<path class="st2" d="M22.7,172.2c3.8,2.5,8.2,4.1,8.9,9.4c-1-0.8-2.1-1.6-3-2.4c-6.2-5.9-14-6.4-19.1-1.3
				C5,182.3,5,188.9,9.3,193.5c0.6,0.6,0.8,1.6,1.2,2.3c3.7,0.4,6.6-0.1,8.5-3.8c1-2.1,3.1-3.6,4.7-5.4c-1.5-2.8-3.5-4.5-6.5-3.5
				c-1.4,0.4-2.4,2-3.5,3c0.2,0.3,0.4,0.7,0.6,1c0.8,0.1,1.6,0.2,2.3,0.4c0.8,0.3,1.5,0.8,2.3,1.1c-0.7,0.7-1.4,1.7-2.2,1.9
				c-3.3,0.9-5.8-1.6-5.3-4.9c0.7-4.8,6.8-7.1,11.2-4.2c1.3,0.9,2.3,2.1,3.5,3.2c1.9-0.2,3.9-0.4,6.5-0.7c-4.7,3.9-8.6,7.2-13,10.9
				c5.3,2.3,10.7,2.4,12.8,7.5c-5.8-2.5-11.6-4.1-17.9-3.8c-9.5,0.4-14.2,4.8-14.7,14.2c-0.1,1.2,0,2.4-0.1,3.6
				c-0.7,6.1,1,10.7,7.4,13c2.2,0.8,4,2.6,5.6,3.7c2.1-1,4-1.8,5.9-2.8c0.5-0.2,0.8-0.8,1-1.3c2.1-4.9,6.8-6.1,11.1-7.9
				c0.3-0.1,0.9,0.2,1.8,1.2c-1.9,1.2-3.8,2.4-5.8,3.5c-4.7,2.8-4.8,2.9-3.4,7.9c1.9,6.9,0.3,10.6-6.6,14.4
				c-4.1,2.3-7.2,5.2-8.7,9.8c2.1,2.3,3.5,1.9,5-0.8c1.3-2.2,2.7-4.8,4.8-6.1c6.4-4,9.1-9.8,10-16.9c0.6-4.5,2.4-6.1,8-7.3
				c-2.3,2.2-4,3.9-5.8,5.6c0.3,0.3,0.5,0.5,0.8,0.8c0.4-0.4,0.7-1,1.1-1.3c0.8-0.5,2-1.5,2.6-1.2c0.7,0.3,1.4,1.6,1.4,2.5
				c0,2.4-0.1,4.9-0.8,7.1c-1.6,4.9-3.5,9.6-5.3,14.4c3.7,1.7,3.6,2.2,1,4.9c-2.9,3-5.7,6.1-8,9.6c-4.1,6.3-3.4,12.9,0.6,18.9
				c2.7,4.1,6,7.7,9.2,11.5c0.7,0.9,2,1.3,3.1,1.9c-0.5,0.2-1,0.5-1.5,0.7c-0.5,1.6-1.1,3.1-1.4,4.8c-0.7,3.4-0.9,6.9-1.9,10.1
				c-1.8,5.3-7.4,6.6-12.1,3.4c-1.5-1.1-3.6-1.5-5.5-2.1c-2.4-0.8-4.8-1.5-7.2-1.9c-1.8-0.3-4.2-0.6-5.5,0.2c-2.6,1.7-5.1,4-7,6.5
				c-3,4-5,8.5-11.4,8.7c-3.2,0.1-6.2,2.4-7.2,6.4c5.1,1.3,10.8,0.1,15.2,3.3c-0.1,0.6-0.2,1.1-0.2,1.7c-8.6-0.4-17.4,0.1-25.8-1.4
				c-14.2-2.5-27.1-8.8-39-16.9c-5.1-3.4-9.4-7.6-12-13.2c-0.4-0.9-1.1-1.8-1.9-2.9c-0.6,0.8-1.2,1.2-1.5,1.8
				c-3.8,8.7-11.1,14.2-19.1,18.5c-11,6-22.4,11.8-35.1,13.2c-7.6,0.8-15.4,0.1-23.6,0.1c1.3-3.5,4.6-2.5,7-3
				c2.6-0.6,5.2-0.7,7.9-1.1c-0.4-3.4-3.5-6.6-7.6-6.7c-4.5-0.1-6.6-2.7-8.8-5.8c-2-2.8-4.1-5.7-6.6-8c-2.5-2.3-5.7-3.1-8.9-0.6
				c-0.9,0.7-2.3,0.8-3.4,0.9c-3.2,0.3-6.2,0.6-9,2.9c-3.6,3-9.2,1.1-10.7-3.3c-1.1-3.5-1.4-7.2-2.2-10.8c-0.3-1.5-0.8-2.9-1.1-4.4
				c-0.8-0.4-1.5-0.8-2.3-1.3c1.2-0.5,2.8-0.8,3.7-1.7c4.9-4.6,9-9.6,11.4-16c2.8-7.7-0.5-13.7-5-19.5c-1.4-1.8-3.3-3.2-4.9-4.8
				c-2.4-2.3-2.3-3,0.4-4c0-2,0.1-3.7,0-5.4c0-0.6-0.4-1.4-0.8-1.9c-3.4-4-4.2-8.8-4.3-13.8c0-1.2,0.9-2.4,1.3-3.7
				c1,0.7,2,1.4,3,2.1c0.2,0.2,0.2,0.6,0.3,1c0.4-0.4,0.8-0.8,1.2-1.1c-1.8-1.7-3.6-3.5-5.5-5.3c4.6,0.3,6.7,2.3,7.7,6.7
				c0.8,3.2,1.4,6.6,3,9.4c1.4,2.6,4,4.5,6,6.8c2.7,3,5.3,6.1,8.2,9.4c0.6-0.3,1.6-0.8,2.8-1.3c-1.4-4.3-3.8-7.3-7.6-9.4
				c-8.5-4.7-9.7-7.4-7.3-16.6c0.7-2.6,0-4.3-2.3-5.6c-2.3-1.3-4.5-2.8-6.7-4.2c-0.1-0.1-0.1-0.4-0.2-1.3c1.1,0.1,2.2-0.1,2.9,0.3
				c3.7,2.1,8.3,3.1,9.8,7.9c0.2,0.6,1.6,0.7,2.3,1.1c1.3,0.8,2.5,1.7,3.9,2.6c3.5-2.1,7.4-4.1,10.8-6.6c1.3-1,2.3-3.2,2.4-4.9
				c0.3-4,0.3-8.2-0.2-12.1c-0.8-5.3-3.9-8.9-9.4-10.2c-7.9-1.8-15.4-0.6-22.3,3.6c-0.9-3.1,1.8-4.9,11.5-7.4
				c-3-4.6-6.4-8.6-12.3-9.8c0.2-0.5,0.4-1,0.6-1.5c1.9,0.1,3.9,0.3,6.2,0.4c2.5-3.4,5.8-5.6,10.6-3.7c2.8,1.1,4.3,3.5,3.7,6.2
				c-0.3,1.4-2.3,2.8-3.9,3.3c-0.8,0.3-2.3-1-3.5-1.6c1.1-0.5,2.1-1,3.1-1.4c0.4-0.2,0.9-0.2,2.4-0.6c-1.3-1.6-2-3.1-3.2-3.7
				c-2.5-1.3-4.5-0.2-7,3.1c2.2,2.9,4.1,6.1,6.8,8.6c1.2,1.1,3.8,0.9,5.7,1.2c5.3-5.6,7.5-11.8,1.9-17.6c-8.4-8.7-15.6-2.6-22.8,3
				c0.9-5.2,5.4-6.8,9.1-9.2c-1-5.1-5-7.2-9-8.4c2.9-1.9,5.3-4,8.1-5c2.1-0.7,5.1-0.6,7.1,0.3c2.7,1.3,3.2,4.4,2.7,7.2
				c-0.1,0.7-1.2,1.2-1.8,1.8c-0.4-0.7-1.2-1.5-1-2.1c0.5-2.4,0.3-4.8-2.2-5.2c-1.9-0.3-4,0.9-6.3,1.6c2.3,3.5,3.5,6.7,5.8,8.4
				c1.9,1.4,5.4,1.9,7.9,1.3c1.7-0.4,3.4-3.1,4-5.1c1.7-5.6-0.8-11-6.2-14.4c-3.3-2.1-8.2-1.2-12.8,2.2c-1.2,0.9-2.4,1.6-4,1.9
				c2.4-4.3,6-7,11-7.7c6.5-0.9,10.5,3,13.3,7.7c3.6,6,2.5,12.2-2.3,17.4c7,9.5,7.5,16.6,1.4,22.2c13.5,5.9,10.9,17.5,10.6,29
				c8.7-1.4,16.9,0,21.1,8.7c3.7,7.7,3.7,15.9-0.5,23.6c0.2,0.2,0.3,0.3,0.4,0.3c5,0.4,10.1,0.4,13.4,5c4.6,6.4,9,12.8,8.8,21.1
				c-0.1,5.2-2.6,9.2-6.7,12.2c-2.9,2.1-6.2,3.7-9.4,5.6c1.8,2,4,4.2,5.9,6.6c1.3,1.7,2.6,3.5,3.4,5.5c1.2,3.2,3.1,3.3,5.6,1.9
				c8.3-4.6,16.1-10.1,21.1-18.2c2.6-4.1,3.5-9.2,5.6-15c-3.2,1.1-5.3,1.7-7.4,2.5c-1.9,0.8-3.2,0.3-4.1-1.6
				c-1.8-3.9-3.8-7.6-5.1-11.7c-0.3-1,1.5-3.5,2.8-3.9c4.1-1.4,8.4-2.1,12.7-3.1c1.4-0.3,2.8-0.6,4.2-0.9c0.1-0.4,0.3-0.8,0.4-1.1
				c-1.7-0.8-3.4-2.1-5.2-2.3c-11.7-1.4-18.6-15.4-12.1-24.7c1.4-2,2.9-3.5,5.9-1.7c-1.3,1.1-2.6,2-3.4,3.1
				c-3.6,5.3-1.7,13.9,3.9,17.9c5.7,4,11.9,2.9,16.5-3c2.9-3.7,2.6-5.2-1.4-7.9c-2.2,1.9-4.1,4-6.4,5.4c-1.1,0.7-3.1,0.3-4.5-0.1
				c-2.6-0.6-4.4-2.1-4.1-5.1c0.2-1.9,0.6-3.8,3.6-3.8c-0.1,0.8-0.4,1.3-0.3,1.9c0.1,1.4-0.1,3.7,0.5,4c1.5,0.6,3.6,0.8,5,0.2
				c2.9-1.2,3.5-4.7,2-7.6c-0.7-1.4-1.2-2.9-1.1-4.6c2.7,2.8,5.1,6,8.2,8.2c4.4,3.1,5.3,7.1,4.9,11.9c-0.3,3.2-1.5,3.5-4.6,3
				c-2-0.3-4.2,0.9-6.4,1.5c-0.1,0.4-0.1,0.8-0.2,1.3c2.9,1.7,5.8,3.4,9.6,5.6c-2.3,1-3.8,1.9-5.4,2.2c-6.8,1.6-13.6,3-21.1,4.7
				c1.4,3.7,2.6,6.6,3.7,9.5c3.9-1,7.4-2.1,10.9-2.9c3.4-0.8,6.7-2.4,10.2-1.2c-1,3.5-2.2,6.4-2.6,9.4c-1.2,9.7-6.6,17.1-13.3,23.7
				c-6.4,6.4-13.9,11.8-22.6,14.8c-4.6,1.6-5.3,4.4-5.2,8.5c10.3-2.5,19.5-6.8,27.4-13.5c6.6-5.6,13.1-11.3,17.1-19.3
				c1.5-3.1,2.6-0.4,3.8,0.7c1.2-1.9,2.3-3.3,4-0.4c8.3,14,20.4,23.7,35.6,29.8c2.5,1,5.1,1.7,7.6,2.5c0.2,0.1,0.5,0,0.7,0
				c0.7-5.1,0.1-6.2-4.3-8.1c-10.9-4.6-20.3-11.1-27.7-20.3c-4.5-5.5-7.6-11.5-8.7-18.6c-0.4-3-1.6-5.9-2.6-9.6
				c7.2,0,13.8,2.5,21,4.6c1.2-2.8,2.4-5.7,3.9-9.5c-7.5-1.6-14.4-3.1-21.3-4.7c-1.5-0.4-2.9-1.1-5.4-2.1c3.9-2.2,6.8-3.9,10.2-5.9
				c-3.1-1.3-4.8-4.5-8.3-2.3c-0.5,0.3-3-1-3-1.5c-0.1-2.6,0.6-5.2,0.6-7.8c-0.2-4.3,3.9-5,6-7.4c2-2.2,3.9-4.5,6.7-6.4
				c-0.7,1.7-1.1,3.6-2.2,5c-2.1,2.6-0.3,4.6,1.2,5.8c1.4,1.1,4.3,1.9,5.7,1.2c1.2-0.6,1.2-3.5,2-6.1c0.7,0.9,1.9,2,2.3,3.2
				c0.8,3.2-1.2,4.9-4,5.8c-4.3,1.4-7.6-0.5-10.2-5.7c-5,2.9-5.3,4.5-1.6,8.8c4.6,5.5,11,6.3,16.4,2.1c5.5-4.3,7.2-13.1,3.3-18
				c-0.8-1-1.9-1.6-3.4-2.8c2.9-1.6,4.5-0.5,6,1.5c6.7,9.1-0.1,23.4-11.7,24.9c-1.9,0.2-3.6,1.4-5.5,2.1c0.1,0.4,0.2,0.8,0.3,1.1
				c5,1.1,10.1,2.2,15.1,3.5c5.8,1.5,6,2.5,3.1,7.8c-1.3,2.4-2.1,5.1-3.1,7.6c-1,2.7-2.6,3.5-5.3,2.2c-1.7-0.8-3.6-1.2-5.9-2
				c1.8,7.9,3.3,15.3,9.4,20.5c5.1,4.3,10.6,8.4,16.1,12.1c3.6,2.4,4.4,1.8,6.3-1.9c1.1-2.2,2.6-4.3,4.1-6.3c1.6-2,3.4-3.6,4.9-5.2
				c-3.5-2.2-7.2-4-10.3-6.5c-6-4.9-7.5-12.1-4.5-19.2c1.3-3,2.8-5.9,4.2-8.7c3.5-6.7,8.9-10.3,17.3-9.2c-4.4-8.2-4.6-16.4-0.9-24.1
				c4.1-8.8,12.3-10.4,21.2-8.9c-0.1-11.2-3-23,10.5-28.9c-6-6.5-5.5-13.9,1.5-22c-6.5-10.7-5-19.3,4.5-24.4
				c5.6-3,14.6,0.2,18.3,7.4c-1.8-0.9-2.9-1.4-3.9-2c-2-1.1-3.8-2.6-5.9-3.3c-5.9-1.9-8.6,0-13.1,6.3c-2.6,3.6-1.3,9.8,2,12.8
				c1.3,1.2,8.6,0.8,9.6-0.6c1.6-2.3,3.1-4.7,4.9-7.4c-1.3-2-3.1-3.6-5.9-2.6c-2.3,0.8-2.6,2.8-2.2,5.1c0.1,0.7-0.5,1.6-0.7,2.4
				c-0.7-0.6-2.2-1.4-2.1-1.9c0.6-2.4,0.9-5.5,2.5-7c1.5-1.3,4.9-1.4,6.9-0.7c2.9,1,5.4,3.2,8.6,5.3
				C27.6,164.8,24.1,167.3,22.7,172.2z M-164.4,261.9c9.3-3.5,11.7-10.7,10.3-21c-0.9-6.5-5.3-11.9-10.9-12.8
				c-8.1-1.4-20.1,2.8-22.9,8.2c4.8,0,7.6,2.6,9.3,6.8c0.3,0.7,0.9,1.4,1.6,1.8c3.1,1.4,4.2,4,4.6,7.1c0.2,1.1,0.9,2.2,1.7,3.1
				C-168.9,257.3-166.8,259.4-164.4,261.9z M-12.4,262.4c0.9-1.6,1.3-3.4,2.5-4.4c3-2.5,5.4-4.9,5.8-9.1c0.1-1.4,2.2-2.6,3.5-3.8
				c0.5-0.5,1.4-0.8,1.6-1.3c1.7-4.5,4.5-7.4,10-7.9c-2.6-2.2-5.1-4.2-7.9-5.4c-6-2.6-12.3-4.1-18.5-1.1c-8.1,3.8-8.3,11.4-8.1,18.8
				C-23.3,255.5-18.8,259.6-12.4,262.4z M-15.7,265c-5-3.6-13.4-4.6-17.1-1.4c-5.7,4.9-9.6,11.2-10.6,18.6c-1,8,5.7,15,14.9,16.8
				c2.3-6.7,3-13.9,7.1-20c0.2-0.2,0.1-0.7,0-1C-22.6,272.4-19.9,268.5-15.7,265z M-148.4,299.3c2.4-1.2,5.1-2.4,7.6-4
				c6.4-4.3,8.8-10.8,6-17c-1.6-3.7-3.6-7.3-5.9-10.6c-4.8-7-13.8-8.1-20.2-3.2c1.7,3.3,4.7,6.5,4.7,9.7c0.1,3.6,1.8,6.6,2.4,9.9
				C-152.9,289.1-150.4,293.9-148.4,299.3z M0.6,257.5c-7.8,13.5-0.3,34.9,7.4,41.7c6-5.4,12.4-3.1,19.4-0.1
				c-2.5-3.1-4.4-5.6-6.5-8.2c-0.6,0.9-1.2,1.7-1.7,2.5c-7.5-5.8-10.2-10.9-7.6-15c1.7,1.8,3.3,3.5,5.1,5.4c0.3-4.1,0.2-7.7,1-11
				c0.6-2.6,0.3-4.6-1.8-5.9C10.9,263.5,5.7,260.5,0.6,257.5z M-204.4,298.5c6.7-2.8,13.1-4.4,19.2,0.7c8.4-9.2,14.5-28.5,7.3-41.6
				c-4.9,2.8-9.8,5.5-14.6,8.4c-2.7,1.7-3.6,4-2.5,7.4c0.8,2.4,0.3,5.1,0.4,7.8c0,0.7,0,1.4,0,2.2c0.4,0.2,0.8,0.5,1.2,0.7
				c1.4-2,2.8-4,4.4-6.3c2.1,5.8-3.7,15.9-8,15.5c-0.4-0.7-0.8-1.4-1.3-2.3C-200.4,293.5-202.4,296-204.4,298.5z M-181.3,312.6
				c2.7,1.3,5.8,2,7.7,3.9c3.1,2.9,5.6,1.9,8.2-0.2c2.6-2.1,5.2-4.4,7.5-6.8c1.8-1.9,3.3-4.1,4.8-6.2c1.1-1.6,0.5-2.7-1.2-3.3
				c-5.9-2.2-11.7-4.6-17.7-6.6c-1.7-0.5-4.4-0.3-5.7,0.7c-2.1,1.7-3.4,4.3-4.8,6.7c-0.4,0.7-0.5,1.8-0.2,2.6
				c0.2,0.4,1.4,0.5,2.1,0.6c1.6,0.1,3.2,0,4.7,0.4c0.9,0.2,1.7,1,2.6,1.6c-0.5,0.7-0.9,1.7-1.6,2.2
				C-177,309.8-179.3,311.3-181.3,312.6z M3.5,312.5c-2-1.4-4.5-3-6.8-4.8c-1.6-1.2-1.4-2.6,0.6-3.1c1.7-0.5,3.6-0.4,5.4-0.6
				c0.9-0.1,2.4-0.2,2.5-0.6c0.2-0.9,0-2.1-0.5-2.9c-0.9-1.5-2.4-2.8-3.1-4.4c-1.5-3.5-4.3-3.7-7.2-2.7c-6,2-11.8,4.4-17.6,6.6
				c-1.7,0.7-2.1,1.7-1.1,3.4c3.6,6.3,9.3,10.5,15.2,14.5c0.8,0.5,2.7,0.1,3.8-0.4C-2.4,316,0.5,314.2,3.5,312.5z M4.7,257
				c2-6,6-9.5,11.2-12.1c3.1-1.6,5.5-4.1,4.7-8c-0.3-1.5-1.3-2.8-2-4.3c-1.2,1.2-3,2.1-3.4,3.5c-0.7,2.5-2,3.2-4.4,3
				c-3.6-0.4-5.7,1.6-6.8,4.7c-0.7,2-1.4,3.5-3.8,4.3c-1.1,0.3-1.8,2.6-2.1,4.1c-0.1,0.6,1.3,1.6,2.1,2.2C1.5,255.3,2.9,256,4.7,257
				z M-182.2,257.1c1.8-1.1,3.1-1.6,4.1-2.4c1-0.9,2.7-2.2,2.5-3c-0.4-1.5-1.8-2.7-2.9-4c-0.9-1.1-2.1-2.1-2.7-3.4
				c-1.2-2.5-2.4-5.2-5.5-5c-3.8,0.2-5.8-1-6.7-4.6c-0.2-0.8-1.7-1.4-2.6-2c-0.7,0.9-1.6,1.7-1.9,2.7c-1.2,4-0.3,6.8,3.7,9.1
				C-188.9,247.4-184.2,250.7-182.2,257.1z M-1.5,289.9c-0.9-3-1.9-6.5-3.1-9.8c-0.3-0.8-1.8-1.7-2.5-1.6c-4.4,0.7-8.7,1.7-13.5,2.6
				c1.2,5,2.2,9.2,3.3,13.5C-12,293.1-7,291.6-1.5,289.9z M-172.2,277.7c-1.5,5-2.7,8.9-3.7,12.2c5.5,1.7,10.5,3.2,15.9,4.8
				c1-4.3,2.1-8.6,3.2-13.4C-162.2,280-167.1,278.9-172.2,277.7z M12.4,314.9c-1.3-5-0.5-8.1,2.2-9.5c2.6-1.3,7.2-0.5,9.1,1.6
				c2.7,3,2.3,5-2.6,12.1c2.1-0.1,5.2,0,5.9-1.2c1.5-2.9,2.9-6.6,2.6-9.8c-0.5-5.8-8.6-10.1-15.3-9.1c-4.4,0.7-7.9,6.9-7,12.6
				C7.7,314.3,9.2,315.5,12.4,314.9z M-190.1,315.9c2.1-1,4.4-1.5,4.5-2.3c0.4-3,0.8-6.2-0.1-9c-1-2.9-3.1-5.6-7.1-5.7
				c-10.7-0.4-16.5,7-13,16.8c1.3,3.7,3.2,4.4,7.7,2.7c-3.7-3.1-7.2-6.4-3.1-11.4c1.8-2.1,6.5-2.9,9.1-1.6
				C-189.3,306.7-188.5,309.9-190.1,315.9z M-139.4,318.5c-1.9-6.8-5.7-11.1-10.5-15c-2,2.3-3,4.1-1.6,7c1.6,3.4,0.7,6.5-2.4,8.9
				c-0.6,0.5-1.2,1.4-1.4,2.2c-0.4,2.6-0.5,5.2-0.8,8.1c2.7,1.8,4.9,1.3,4.6-1.9c-0.5-4.5,3.1-6.7,4-10.1
				C-144.8,317.9-142.4,318.2-139.4,318.5z M-21.4,329.6c-0.4-2.8-0.6-5.1-1-7.3c-0.2-1-0.5-2.3-1.2-2.9c-3.2-2.6-3.9-5.8-2.3-9.3
				c1.4-2.9,0-4.6-1.9-6.6c-4.6,4.1-8.5,8.2-10.3,15c3-0.3,5.5-0.6,8.1-0.9c1.2,3.6,4.4,6.1,4,10.4
				C-26.2,331.1-24.1,331.4-21.4,329.6z M-158.8,277.7c0.9-5.3-1.9-10.4-5.8-10.1c-3.2,0.2-3.8-1.1-3.6-3.7c0.2-3.6-1.6-6-6.1-7.4
				c1.1,6.7,2.1,12.7,3.1,18.8C-167.2,276-163.1,276.8-158.8,277.7z M-3.3,256.6c-4.9,1.8-5.9,3.1-6.1,7.4c-0.1,1.6,0.4,3.4-2.3,3.6
				c-5.6,0.4-8.3,4.3-7,10c4.2-0.8,8.4-1.6,12.4-2.4C-5.3,269.1-4.3,263.1-3.3,256.6z M-168.2,322.6c0.7,1,1.6,2.1,2.3,3.3
				c1.4,2.2,3,2.6,5.5,1.5c2.6-1.1,3.2-2.8,2.5-5.1c-0.8-2.4-0.1-3.7,2.1-4.9c3.3-1.8,3.7-3.9,1.9-7.6
				C-158.6,314-163.2,318.1-168.2,322.6z M-23.9,309.4c-1.1,3.6-1,6.3,2,7.8c2.6,1.3,3.2,2.9,2.3,5.5c-0.6,2,0,3.7,2.2,4.6
				c2.2,0.9,4.1,1.4,5.6-1.1c0.8-1.4,1.8-2.7,2.5-3.6C-14.3,318.1-18.9,314-23.9,309.4z M-146,320.2c-1,2.3-1.9,4.3-2.7,6.3
				c-0.8,2.2-1.5,4.4-2.4,7c2.9,5.3,3.4,5.5,8.4,2.4c-2.8-3.1-5.3-6.4-0.9-10.3c1.3,0.6,2.5,1.3,4.3,2.1c0-2.6,0-4.8,0-6.9
				C-141.5,320.6-143.6,320.4-146,320.2z M-34,325.6c4.7,4.1,1.5,7.4-0.9,10.6c5.6,2.5,5.6,2.5,8.5-2.8c-1.7-4.5-3.4-8.9-5-13.2
				c-2.6,0.3-4.8,0.5-7.3,0.8c0.1,2.3,0.3,4.4,0.4,7C-36.3,326.8-35.2,326.2-34,325.6z M-193.9,307.6c-3.6,0.1-5.9,1-5.6,3.8
				c0.2,1.5,2.2,2.7,3.3,4.1c1.4-1.6,3.1-3,4-4.8C-191.7,309.9-193.4,308.3-193.9,307.6z M17.8,306c-1.6,2.2-3.5,3.7-3.2,4.4
				c0.8,1.9,2.4,3.3,3.7,5c1.3-1.4,3.5-2.7,3.5-4.1C21.9,309.8,19.7,308.4,17.8,306z M-152.4,297.2c-0.8-3.4-1.5-6.5-2.3-9.9
				C-158.5,294.6-158.1,296.4-152.4,297.2z M-25.1,297.2c5.5-0.6,6.3-4.1,2.3-9.4C-23.6,290.8-24.3,293.8-25.1,297.2z"/>
			<path class="st2" d="M-27.2,103.2c1.5-1.2,2.9-2.5,4.4-3.5c7.6-5.3,11-15.5,7.7-24.1c-0.6,2.8-1,5.2-1.5,7.5
				c-1.2,6.2-5.9,9.7-10.9,12.8c-1,0.6-3.7,0.1-4.7-0.9c-1.7-1.6-3.2-3.6-2.1-6.7c1.2-3.3,1.9-6.8,2.3-10.3c0.4-2.8-1.2-4.8-4.3-5.3
				c-2.6-0.4-6.7,1.7-7.6,3.9c-3.3,8.1-13.2,14-21.5,13.8c-10.2-0.3-18-5.5-21-14.2c-0.6-1.7-1.2-3.3-2.2-6c-1,2.4-1.8,3.8-2.2,5.3
				c-4.9,16.3-26.9,19.7-38.1,7.8c-2-2.1-2.8-5.3-4.9-7.2c-2-1.7-5-2.9-7.6-3.1c-3-0.2-4.3,2.6-3.9,5.4c0.4,3.2,0.9,6.6,2.2,9.6
				c1.4,3.3-0.3,5.3-2.1,7.3c-1.9,2.2-3.9,1.2-6.1-0.2c-6.6-4.3-10.1-10.1-10.3-17.9c0-0.4-0.3-0.8-0.8-2
				c-3.5,13.2,2.7,21.5,12.4,28.5c-7.3,0.2-10.8,4.3-13.6,9.8c4.8,0.7,9.2,2.5,13.1-1.7c0.7-0.8,2.2-0.8,3.4-1.2
				c0.2,0.3,0.4,0.7,0.5,1c-1.8,1.2-4.1,2.1-5.1,3.8c-0.9,1.6-0.4,4-0.5,6.2c2.2-0.8,4-1.4,5.8-1.9c0.4,0.3,0.7,0.6,1.1,0.9
				c-4.5,2.3-5,5.8-4.1,9.8c2.7,0.4,5.4,0.9,8.2,1.3c-0.1,0.5-0.1,0.9-0.2,1.4c-1.3-0.1-2.5-0.3-3.8-0.5c-4.1-0.6-7.6,1.4-8.2,4.6
				c-0.4,2.2,0.1,3.8,2.6,4.3c1.7,0.3,3.4,0.5,5,0.9c1,0.3,1.9,0.9,2.9,1.4c-1.1,0.5-2.2,1.4-3.2,1.3c-2.6-0.3-5.2-0.9-7.8-1.6
				c-1.6-0.4-3.1-1.2-4.7-1.9c-2,4-0.4,10.1,3.1,13.4c1.1,1.1,2.1,3,1.9,4.3c-0.2,1.3-1.9,3.3-3,3.4c-1.9,0.2-4.4,1.1-6-1.7
				c-5.4-9-8.3-19-11.6-28.8c-1.3-4.1-2.5-8.3-3-12.5c-0.7-5.2-1.6-10.6-0.7-15.6c0.8-4.7,4.7-8.2,9.3-10.3c0.5-0.2,1.6,0,1.6,0.1
				c0.2,0.8,0.3,1.8,0.1,2.6c-1.4,4.8-1.2,9.3,1.2,13.6c3.1-2.9,6.1-5.6,9.3-8.5c-8.3-7.8-12.4-17.5-6.9-28.8
				c6.2-12.6,16.6-17.5,30.7-12.6c0.9-3.4,1.8-7,5.5-6.6c2.4,0.3,4.5,2.7,7,4.4c2.3-0.6,5.4-1.1,8.5-2.1c1.6-0.5,3.1-1.7,4.1-2.9
				c2.2-2.6,2.9-2.7,4.8,0.1c0.3,0.4,0.5,0.8,0.7,1.2c2.2,3.7,3.3,3.9,6.1,0.7c2.4-2.7,5.4-4,8.7-3.2c2.3,0.6,4.5,2,6.4,3.5
				c2.9,2.4,3.8,2.5,5.8-0.8c0.4-0.6,0.8-1.2,1.1-1.8c1.4-2.4,3.1-2.4,4.3,0c1.3,2.5,3.3,3.1,5.9,3.5c2.7,0.4,5.3,1.4,6.9,1.9
				c2.6-1.7,4.7-4.2,7.1-4.5c3.7-0.4,4.6,3.2,5.5,6.6c14.9-5.1,25.5,0.6,31.4,13.9c4.7,10.6,0.7,20-7.6,27.4
				c3.1,2.8,6.1,5.6,9.3,8.5c2.3-4,2.5-8.3,1.4-12.9c-0.2-1.1-0.2-2.2-0.2-3.3c1.2,0.3,2.6,0.3,3.6,0.9c7.8,4.5,8.9,11.8,7.7,19.5
				c-1.9,11.3-4.6,22.5-9.4,33c-2,4.6-4.2,9.1-6.2,13.6c-1.3,2.9-4,1.9-6,1.7c-1.2-0.1-2.9-2.1-3-3.4c-0.2-1.4,0.8-3.3,1.9-4.3
				c3.3-3.2,4.9-8.8,3.3-13.5c-2,0.8-3.9,1.8-5.9,2.3c-2.4,0.6-4.9,1.1-7.4,1.3c-0.8,0.1-1.6-0.9-2.4-1.3c0.8-0.5,1.6-1.1,2.5-1.4
				c1.6-0.4,3.4-0.3,5-0.9c1.2-0.4,2.9-1.6,2.9-2.5c0-1.6-0.6-3.9-1.8-4.6c-1.9-1.1-4.4-1.4-6.7-1.7c-1.1-0.2-2.2,0.3-3.3,0.6
				c-0.1-0.5-0.2-1-0.3-1.5c2.7-0.5,5.4-0.9,8.2-1.4c0.3-5.3,0.3-5.3-3.1-10.5c1.7,0.5,3.4,1,5.5,1.7c0-2,0.7-4.4-0.2-6
				c-0.9-1.6-3.3-2.5-5-3.7c0.1-0.3,0.2-0.7,0.4-1.1c1.2,0.3,2.8,0.3,3.5,1c3.9,4.2,8.3,2.3,13.1,1.7C-16.5,108-20,103.9-27.2,103.2
				z M-92.1,67.9c-2.7,0.9-6.2,1.1-7.3,2.8c-2.1,3.2-4.5,4.2-7.5,3.1c-1.6-0.6-2.6-3.2-4.3-5.5c-6.4,2.3-14.1,4.3-18.4,11.7
				c6.8,8.2,16.9,10.5,26.6,6.7C-97.4,84.6-90.8,74.2-92.1,67.9z M-85.4,68.3c-1.4,5.4,5.3,16.3,11.1,18.4c9.9,3.6,20.6,1.1,26.3-7
				c-4.3-7.5-12.1-9.2-18.5-11.6c-1.5,2.4-2.3,5-3.6,5.4c-2,0.5-5.7,0.1-6.5-1.2C-78.7,68.6-82.1,69-85.4,68.3z M-98.5,66
				c3.1-0.8,6.4-2.4,9.8-2.4c3.4,0,6.9,1.6,9.8,2.4c2.1-1.8,4.1-3.5,6.3-5.4c-4.7-1.1-9.4-2.1-13.1-5.8c-1.9-1.9-5.4-1.5-7.3,0.7
				c-2.5,2.9-5.6,3.9-9.1,4.4c-0.9,0.1-1.9,0.6-2.5,0.9C-102.5,62.6-100.6,64.3-98.5,66z M-105.5,67c-1.2,1.5-2.2,2.6-2.9,3.8
				c-0.1,0.2,1.5,1.9,2.1,1.8c1.8-0.3,4.1-0.6,4.9-1.8c2.1-3.2,0.1-6.8-3.8-7.4c-5-0.7-9.6,0.6-13.8,3.4c-1.2,0.8-2.7,1.3-4.1,1.5
				c-4.6,0.6-9.1,5.8-8,11.2c2.5-5.6,7.1-7,11.3-9.4C-115,67.3-110.4,66.9-105.5,67z M-72.2,66.9c10.6-0.6,18.9,3.9,26.2,11.6
				c0.3-4.8-4-9.6-8.4-10.2c-1.6-0.2-3.2-0.8-4.5-1.7c-4.1-2.7-8.5-3.9-13.5-3.2c-3.9,0.5-6,4.1-3.9,7.3c0.8,1.2,3.2,1.7,4.9,1.9
				c0.7,0.1,2.4-1.7,2.2-2.1C-69.7,69.3-70.8,68.4-72.2,66.9z M-11.5,118.6c0.2-1.5-0.3-3.2-3.5-2.8c-1.3,0.2-2.6,0.3-4,0.5
				c-2.7,0.3-4,1.6-3.9,4.5c0,1.6-0.9,3.1-1.1,4.7c-0.3,1.7-0.9,3.7-0.4,5.2c1,2.8,2.8,5.3,4.4,8.3c1.5-1.2,3.1-2.4,5.4-4.3
				c-7.8-2.2-6.2-7.5-4.7-11.7C-18.6,121-14.6,120.3-11.5,118.6z M-165.9,120.2c6.5-1.4,8,2.4,8.9,7.3c0.8,4.3-3,5.2-5.3,7.9
				c1.7,1.3,3.4,2.6,4.8,3.6c1.6-2.9,3.1-5.3,4.1-7.8c0.6-1.5,0.6-3.4,0.4-5c-0.3-1.9-1.6-3.7-1.6-5.6c-0.1-2.8-1.3-3.9-3.8-4.2
				c-1.3-0.2-2.7-0.3-4-0.5C-165.5,115.4-166.2,117-165.9,120.2z"/>
			<path class="st2" d="M-138.1,200c-2.8,1.3-5.5,2.5-8.1,4c-2.7,1.5-4.5,1.3-6.4-1.4c-4.3-5.9-4.4-5.8,1.9-9.7
				c1.6-1,3.3-2.1,4.9-3.1c1.6-1,3.4-1.9,5.3-2.9c-2.5-4.1-3.3-8.3-0.6-12.3c-2.7-2.5-5.4-4.7-7.7-7.3c-3.7-4.4-2.3-9.6,3.2-11.6
				c2.4-0.9,3.7-2.1,4.9-4.3c1.4-2.6,4.2-4,7.6-3.9c-2.5,2.2-4.7,4.3-7.3,6.7c2.2,1.2,3.6,2,5.5,3.1c2.9-3.5,5.8-7,9-10.8
				c0.1,1.2,0.2,2.2,0.2,3.2c-0.2,2.5,0.6,4.2,3.1,5.5c1.4,0.8,2.1,2.9,3.1,4.4c0.8,1.2,1.4,2.8,2.5,3.5c4,2.4,4.1,2.3,4.9,7.1
				c0.9,0.1,2,0.1,3,0.4c0.9,0.3,1.6,1,2.4,1.5c-0.9,0.5-1.8,1.4-2.6,1.4c-2.3-0.2-4.5-0.9-7.3-1.5c-2.4,1.3-5.8,3-9,4.8
				c-0.7,0.4-1.5,1.3-1.6,2c-0.3,3.1-0.4,6.1-0.5,9.1c4.9,0.7,7.7-0.9,9.4-4.9c1.4-3.3,3.9-5.5,7.7-5.6c0.7,0,1.5,0.8,2.2,1.1
				c-0.6,0.5-1.2,1.3-1.8,1.3c-3,0.4-4.8,1.9-5.9,5.4c7.1-1.3,7.9,5.6,12.6,8.1c-2.8,2-4.1,0.3-5.2-1c-5.2-5.8-5.5-5.9-12.5-2.8
				c-1.5,0.7-3.2,1.1-5.2,1.8c1,1.7,1.9,3.3,2.8,4.8c0.8-0.2,1.1-0.3,1.3-0.4c1.4-1.1,2.9-2.3,4.3-3.5c0.9,1.6,1.7,3.2,2.6,4.7
				c0.2,0.4,0.6,0.7,1,0.8c3.1,0.7,1.6,2.5,1,4.1c-0.7,1.9-1.5,3.8-2.1,5.8c-0.9,2.8-2.3,5.6-2.5,8.4c-0.2,3.6,0.6,7.4,0.7,11
				c0,1.3-0.7,2.7-1.1,4.1c-1.5-0.6-3.6-0.8-4.5-1.9c-1.8-2.2-3-4.9-4.4-7.4c-2.7-5.3-5.4-10.7-8-16
				C-136.2,204.2-137,202.4-138.1,200z M-129.8,164.6c-0.4,1.7-0.9,3.1-1.1,4.6c-0.2,1.4-0.4,3.9,0.1,4.2c1.5,0.6,3.7,0.9,5.1,0.2
				c3.4-1.6,6.6-3.7,10.1-5.8c-2.9-1.9-5.3-3.6-7.7-5.2C-125.3,163.3-127.5,163.9-129.8,164.6z M-130,177.6
				c-2.6-0.6-4.7-1.1-6.9-1.7c-2.1-0.6-2.8,0.5-3.2,2.3c-1,5.2,2.1,8.2,8.9,8.4C-130.7,183.5-130.3,180.4-130,177.6z M-147,166.7
				c3.2,2.2,6,4.1,8.8,6.1c3.2-4.4,3.2-5.8,0.1-8.5C-140.3,162.4-142.8,162.9-147,166.7z M-128.5,154.4c-2,1.9-5.6,2.6-4.1,5.9
				c1.1,2.6,4.9,2.1,10.2-1C-124.5,157.6-126.3,156.1-128.5,154.4z"/>
			<path class="st2" d="M-44.6,147.2c4.4,0.3,6.6,2.2,8.5,4.9c0.9,1.3,2.4,2.6,3.8,3.2c5.7,2.4,7.5,7.4,3.6,12.1
				c-2.1,2.5-4.8,4.6-7.5,7.1c2.1,3.8,2.3,7.9-0.9,12.1c2.7,1.6,5.2,3.1,7.7,4.6c2.1,1.3,4.1,2.6,6.1,3.9c1.9,1.2,2.4,2.6,0.8,4.4
				c-0.6,0.7-1.2,1.5-1.8,2.3c-3.1,4-3.5,4-8,1.6c-2.3-1.2-4.8-2.2-7.2-3.3c-4.5,9.2-8.8,18.1-13.3,26.9c-1.2,2.3-2.4,5.7-6,4.4
				c-3.4-1.3-1.3-4.4-1.1-6.6c0.5-5,1.1-9.7-1.6-14.6c-1.5-2.7-0.6-6.5-3.1-9.1c-0.4-0.4-0.3-1.9-0.1-2c3-0.8,2.6-3.8,4-5.6
				c0.4-0.5,2.3-0.5,3.2,0c1.1,0.6,1.7,1.9,3.1,3.5c1.3-2,2.3-3.6,3.3-5.2c-2.8-1.2-5.2-2.2-7.6-3.2c-4-1.7-6.4-0.9-9.1,2.6
				c-1.4,1.8-2.6,4.1-6.6,2.7c4.9-2.8,5.8-9.5,12.8-8.4c-0.7-3.4-2.5-4.9-5.5-5.4c-0.8-0.1-1.4-1-2.1-1.5c0.8-0.4,1.6-1.1,2.3-1
				c3.9,0.1,6.2,2.4,7.7,5.7c1.6,3.7,4.2,5.3,9.4,4.9c-0.1-3.2-0.2-6.5-0.5-9.8c-0.1-0.6-0.9-1.2-1.6-1.6c-3.1-1.8-6.4-3.4-8.8-4.7
				c-3.1,0.5-5.6,1.1-8.2,1.4c-0.5,0.1-1.2-0.9-1.8-1.4c0.6-0.5,1.2-1.4,1.8-1.4c2.8,0.2,4.2-0.7,4.3-3.7c0-1,1.6-1.9,2.4-2.9
				c0.1-0.2,0.4-0.3,0.6-0.3c4.6-0.7,2.6-6.1,5.3-7.6c3.4-1.9,5.3-4,4.4-7.9c-0.1-0.4,0.2-0.9,1.2-1.6c0.9,1.9,1.5,4.1,2.8,5.7
				c1.5,1.8,3.7,3,5.9,4.7c1-0.5,2.5-1.2,4.9-2.4C-39.5,152-41.7,149.9-44.6,147.2z M-62,168c3.9,2.2,7.3,4.5,11.1,6
				c3.8,1.5,5.6-0.3,4.6-4.2c-0.4-1.7-0.9-3.4-1.3-5.2c-2.2-0.7-4.5-1.3-6.5-1.9C-56.7,164.4-59.1,166-62,168z M-46.3,186.7
				c0.8-0.1,1.6-0.1,2.4-0.1c4.8-0.3,7.9-4.7,6.3-9c-0.3-0.8-1.7-1.7-2.5-1.6c-2.4,0.3-4.8,1-7.3,1.5
				C-47.1,180.3-46.7,183.5-46.3,186.7z M-30.5,166.7c-4.3-3.8-6.8-4.3-9-2.2c-3.1,2.8-3.1,4.2,0.3,8.3
				C-36.4,170.8-33.6,168.8-30.5,166.7z M-55.7,159.7c3,1,4.9,2,6.9,2.1c1.4,0,2.9-1.2,4.4-1.9c-0.6-1.2-1.1-2.5-2-3.6
				c-0.6-0.8-1.7-1.2-2.6-1.9C-51.1,156.1-52.9,157.6-55.7,159.7z"/>
			<path class="st2" d="M-118.4,143.7c5.5,4.6,10.7,9,15.9,13.4c0.4,0.3,0.6,0.8,0.8,1.2c0.8,2,2.9,4.2,0.2,6.1
				c-2.4,1.8-4.2-0.1-5.9-1.7c-1.2-1.1-2.6-2-4.1-2.8c-2.2-1.3-4.6-2.2-4.5-5.4c0-0.7-0.9-1.5-1.6-2.1
				C-120.3,149.7-120.6,148-118.4,143.7z"/>
			<path class="st2" d="M-58.5,143.3c0.4,2.3,1.4,4.4,0.8,5.1c-3.3,3.7-3.2,9.9-9.1,11.8c-1.6,0.5-2.9,2.1-4.1,3.3
				c-1.6,1.6-3.5,2.4-5.1,0.8c-0.8-0.9-1-3.3-0.3-4.3c1.6-2.4,3.7-4.6,5.9-6.6C-66.9,150.1-63.1,147.1-58.5,143.3z"/>
			<path class="st2" d="M-85.3,227.9c1.6,1.6,3.3,3.2,4.7,5c0.3,0.4-0.2,1.9-0.8,2.3c-1.2,0.9-2.6,1.6-4.1,2.1
				c-0.2,0.1-1.3-1.6-1.4-2.5c-0.1-2.1,0.2-4.2,0.3-6.3C-86.2,228.3-85.7,228.1-85.3,227.9z"/>
			<path class="st2" d="M-91.1,228.4c0.2,1.7,0.6,3.4,0.5,5.1c-0.1,1.3-0.8,2.5-1.3,3.8c-1.6-0.9-3.4-1.6-4.8-2.8
				c-0.3-0.3,0.4-2.2,1-3.1c1-1.3,2.3-2.4,3.5-3.6C-91.7,228-91.4,228.2-91.1,228.4z"/>
			<path class="st2" d="M33.9,273.6c0.1,1.7,0.3,2.3,0.2,3c-0.2,3.5-0.4,7-0.8,10.5c-0.1,0.9-0.9,1.6-1.4,2.5
				c-0.6-0.7-1.5-1.3-1.6-2C29.3,282.8,30.3,278.4,33.9,273.6z"/>
			<path class="st2" d="M-211.1,273.9c3.3,4.6,4.4,8.9,3.4,13.7c-0.2,0.8-1.1,1.3-1.7,2c-0.5-0.7-1.3-1.4-1.4-2.1
				c-0.4-3.8-0.6-7.7-0.9-11.6C-211.7,275.5-211.5,275-211.1,273.9z"/>
		</g>
	</g>
	<g class="st1">
		<g>
			<path class="st3" d="M-208.6,133c-1.1-2.2-1.9-3.6-2.5-4.8c0.3-1.7,0.4-3.3,0.9-4.9c0.2-0.7,1-1.4,1.7-1.7
				c5.7-3.1,11.5-6.2,16.6-8.9c-0.1-1.4-0.6-2.8-0.2-3.8c2.3-6.7,7.5-11.3,12.7-15.8c2.9-2.5,6-4.9,9.1-7.1c3.3-2.4,4.8-5.2,4.5-9.4
				c-0.5-7,1.3-13.4,6.9-18.1c1.2-1.1,3.5-1.7,5.1-1.4c4,0.7,8.4,1.5,10,6.1c0.4,1,0.4,2.9-0.3,3.5c-2.9,2.4-2,5-1,7.8
				c4.9-0.5,4.9-7.7,10.5-7.1c-2.6,3.2-5.2,6.2-7.7,9.3c-2.3,2.7-3.1,5.6-2.2,9.5c0.8-1,1.2-1.8,1.8-2.4c2.8-2.7,5.5-5.6,8.6-8
				c2-1.6,4.1-2.2,6.3,0.8c1.2,1.6,4.1,2.4,6.4,2.9c5,1.1,5.7,1.7,5.9,6.9c0.2,6.8,6.6,13.4,13.4,13.7c5.4,0.2,8.7-1.9,10.6-6.8
				c0.3-0.9,0.7-1.8,1.2-2.6c1.3-2.1,2.5-1.9,3.7,0.1c0.4,0.6,0.7,1.3,1,1.9c3.3,7.8,11.9,10,18.6,4.7c3.6-2.8,5.8-6.2,5.7-11
				c-0.1-4.3,1-5.3,5.4-6c3.1-0.5,6.1-1.2,7.9-4.3c0.3-0.5,2.4-0.8,3.1-0.3c3.4,2.5,6.8,5.3,10,8.1c0.9,0.7,1.3,1.9,2,3.1
				c1.6-4,0.6-7.2-2.7-10.3c-1.2-1.1-1.9-2.8-2.9-4.1c-1.2-1.4-2.5-2.7-4-4.2c5.6-0.5,5.7,6.5,10.5,7.2c0.9-2.8,1.9-5.3-0.9-7.8
				c-1.7-1.5-0.8-5.3,2.1-6.8c2.9-1.6,6.3-2.4,9.6-3.2c0.8-0.2,2.1,0.9,3,1.6c5.4,4.7,7.4,11,7,17.8c-0.4,5.2,2.1,8.1,5.8,11
				c4.9,4,9.7,8.2,14.1,12.8c2.4,2.5,4.1,5.9,5.8,9c0.5,1,0.1,2.4,0.1,4.1c4.8,2.6,10.5,5.5,16,8.7c0.8,0.5,1.2,1.8,1.7,2.8
				c0.5,1.1,1,2.3,1.4,3.5c-0.8,1.4-1.6,2.9-2.8,5.1c0.4-0.1-0.2,0.2-0.8,0.2c-5.3-0.1-6.9,3.4-7.8,7.6c-0.2,1.1-1.6,2.5-2.7,2.7
				C8.4,146.7,7.7,151,8,158.3c0.1,1.9,1.5,3.9,2.6,5.6c1,1.6,1.2,2.7-0.4,4c-7.5,6.2-7.6,12.4-0.4,18.8c0.4,0.4,0.7,0.9,1.3,1.6
				c-1.1,0.5-2,0.9-2.8,1.1c-5.3,1.7-9.1,5-10.7,10.4c-0.8,2.8-1.9,5.2-4.5,7c-3.2,2.3-4.6,5.8-4.6,9.8c0,3.5-1,5.5-5.2,5.6
				c-4.4,0.1-8.8,3.9-8.9,8.6c-0.1,4.6-2.3,7.1-5.7,8.9c-4.4,2.4-5.6,6.2-4.8,10.6c0.8,4.4-0.3,7.4-3.8,10.6
				c-7.4,6.8-8.4,15.7-4,24.9c0.5,1.1,0.3,2.8-0.2,4c-2.5,5.7-1.7,10.8,1.8,15.9c0.7,1,0.8,2.6,0.6,3.9c-1.8,9.4,0.8,17.4,7.1,24.8
				c3.7-3.1,7.1-6.1,10.7-8.9c1.2-1,2.7-2.2,4-2.2c3.6,0.2,5.1-1.8,7.1-4.3c3.9-4.9,7.4-10.5,14.6-11.7c0.7-0.1,1.3-1.9,1.5-3
				c0.7-3.5,0.8-7.2,2-10.4c1.3-3.5,4-6,8.4-5.5c0.8,0.1,1.9-0.7,2.6-1.3c2.1-1.7,3.9-3.9,6.2-5.4c4-2.5,7.6-1.4,9.9,2.3
				c-2,5.4-2.9,10.5-1.4,16c0.2,0.8,0.5,1.6,0.5,2.4c-0.2,10.4-0.5,20.8-0.8,31.2c0,0.7-0.3,1.4-0.5,2.2c-13.8,0-27.6,0-41.3,0
				c-7.5,0-15.1-0.5-22.6,0.1c-10.7,0.9-20-2.7-29.3-7c-11.1-5.2-19.9-12.8-25.9-23.4c-0.2-0.3-0.5-0.5-1-0.8
				c-4.6,8-10.4,14.9-18.4,19.7c-10.2,6.2-20.9,11-33.4,10.8c-21.5-0.3-43.1-0.1-64.6-0.1c-1.3,0-2.6,0-4.6,0c0-9.9-0.1-19.6,0-29.2
				c0.1-6.5,0.9-13,0.6-19.4c-0.1-2.3-1.3-4.5,1.4-5.9c2.8-1.4,5.6-1.3,8.3,0.5c0.7,0.5,1.5,0.8,2.1,1.4c2.7,2.6,5.1,5.1,9.5,5.9
				c3.6,0.6,5.3,5,5.9,8.8c0.5,2.9,0.5,5.9,0.8,9c8.6,1,12.5,7.7,17.1,13.5c0.8,1,1.9,2.4,2.8,2.3c4-0.4,6.6,2,9.3,4.3
				c2.7,2.3,5.5,4.7,8.4,7.2c6.2-7,8.9-14.9,7.3-24c-0.4-2.2-0.1-3.8,1.2-5.9c2.8-4.4,3.4-9.4,1.3-14.4c-0.5-1.3-1-3.1-0.5-4.2
				c4.5-9.5,3.3-18.6-4.3-25.5c-3.2-2.9-4.1-5.6-3.4-9.7c1.1-6.5-0.9-9.7-6.7-13.1c-1.2-0.7-2.3-2.4-2.6-3.8
				c-1-6.4-3.4-9.4-9.9-11.2c-3.1-0.8-4.8-2.2-4.7-5.7c0.1-4.3-2.1-7.7-5.6-10.4c-1.2-1-2.4-2.5-2.8-3.9
				c-1.7-6.8-5.8-11.1-12.7-12.9c-0.4-0.1-0.8-0.5-1.3-0.9c1.6-1.9,3.3-3.6,4.6-5.5c3.4-5.3,2.1-11.6-3.1-15.1
				c-2.3-1.6-2.2-2.9-0.6-5c5.8-7.6,1.3-17.7-8.3-19.2c-1.2-0.2-3.1-1.2-3.3-2C-200.7,136.2-203.1,132.6-208.6,133z M-131.4,234.1
				c2.2,5.2,4.5,10,6.3,14.9c2.8,7.5,5.2,15.1,7.8,22.7c0.6,1.7,1.4,2.2,3.2,1.9c5-1,9.9-2,14.9-2.7c1.9-0.3,3.9,0.2,5.3,0.4
				c-1.4,2.9-2.6,5-3.4,7.1c-1,2.8-1.3,5.9-2.6,8.5c-6.2,13.4-17.6,21.6-30,28.9c-0.9,0.5-2.3,1-2.6,1.8c-1.8,5.1-3.4,10.3-5.1,15.5
				c0.6,0,1.5,0.2,2.3,0c17.9-4.1,32.9-12.2,42.3-28.5c0.9-1.5,1.5-2.2,3.5-2.2c2,0,2.5,0.8,3.6,2.1c4,5.1,7.6,10.7,12.6,14.6
				c6.2,4.9,13.4,8.5,20.5,12.1c3.5,1.7,7.7,2.1,11.5,3.1c-1.8-5.6-3.3-10.5-5-15.3c-0.3-0.9-1.3-1.6-2.1-2.2
				c-5-3.4-10.2-6.5-15-10.1c-9.3-7.1-16.2-15.8-18.2-27.6c-0.4-2.5-2.1-4.9-3.4-7.9c1.5-0.1,3.5-0.6,5.3-0.3
				c4.8,0.9,9.5,2,14.2,3.2c2.5,0.7,3.4-0.2,4.2-2.4c4.3-12.6,8.8-25.2,13.2-37.8c-5-2.6-10.6-5.6-16.2-8.6c-1-0.3-2.3,0.3-3.7,0.8
				c-5.4,1.6-10.6,1.2-15.4-1.8c-3.8-2.4-4.7-8.4-1.9-10.8c3.7-3.2,7.3-6.6,10.9-10c0.7-0.7,1.2-1.6,1.3-1.7
				c-3.5-2.1-6.7-3.8-9.7-5.9c-2-1.3-3-7.8-1.8-9.8c0.3-0.5,0.8-0.9,1.3-1.2c5.4-2.5,8.4-6.9,10.4-12.2c0.5-1.3,0.4-2.9,0.5-4.2
				c-2.2,0.3-4,0.4-5.7,0.8c-1.5,0.4-3.2,0.7-4.2,1.7c-4.6,4.1-8.2,4.1-12.7-0.2c-0.8-0.7-1.9-1.4-2.9-1.6c-2.2-0.3-4.4-0.3-6.6-0.4
				c-0.6,5.9,4.5,14.2,10,16c0.5,0.2,1.2,0.5,1.5,0.9c0.9,1.2-0.3,8.9-1.6,9.7c-3.3,2.2-6.8,4.2-10.8,6.6c3.6,3.5,7.6,7.3,11.4,11.2
				c1,1,1.9,2.5,1.9,3.8c0.2,5.6-3.4,9.3-10.2,9.7c-4.2,0.2-8.5-0.8-12.7-1.3c-2.4,1.4-5,3-7.7,4.4
				C-125.6,231.4-128.6,232.7-131.4,234.1z M-116.8,224c-4.5-5.5-4.8-16.9,0.4-21.6c3.7-3.2,7.5-6.1,9.8-10.5
				c0.1-0.2,0.4-0.3,0.6-0.5c0.5-1,1.1-2,1.5-3.1c0.6-1.9,1-3.9,1.7-6.4c-0.8-1.6-2.2-3.9-3.2-6.3c-3-6.7-1.1-11.4,5.4-14.8
				c0.9-0.5,1.7-1.8,1.8-2.8c0.5-3.6-0.2-6.9-3.4-9.3c-2.9-2.2-6-4.2-8.4-6.8c-4.7-5.2-10.6-3.9-16.1-2.8c-6.9,1.4-8.6,0.8-9-6.1
				c0-0.2-0.3-0.3-0.9-0.9c-1,1.2-1.8,2.4-2.8,3.5c-0.6,0.7-1.1,1.8-1.9,2c-7.6,1.8-9.3,7.2-9.3,13.9c0,1-0.6,2.4-1.4,2.9
				c-5.1,3-10.3,5.8-15.4,8.7c-0.9,0.5-1.6,1.2-2.4,1.8c2.7,4.6,4.9,9,7.6,13.1c3.3,5,7,9.7,10.7,14.5c0.6,0.8,2.3,1.7,2.9,1.4
				c4.7-2.2,9.2-4.7,13.8-7.1c1.7-0.9,3.4-2,5.1-3.1c0.4,0.6,0.7,1.1,1,1.7c-5.4,3.4-10.9,6.8-16.2,10.1
				c6.4,10.8,12.9,21.8,19.4,32.8C-122.4,226.8-119.6,225.4-116.8,224z M-41.5,132.8c-0.1,0.7-0.2,1.4-0.2,2.2
				c-0.2,4-2.9,5.8-6.9,4.9c-3.9-0.9-7.8-1.3-11.8-1.7c-0.7-0.1-1.6,0.4-2.2,0.9c-4.1,3.2-8.1,6.5-12.3,9.6c-3.4,2.5-4,5.9-3.4,9.6
				c0.2,1,1.2,2.4,2.2,2.8c6.4,2.7,7.1,7.4,5,12.6c-1.3,3.2-3,6.2-4.1,8.5c0.7,2.4,1,4.4,1.8,6c1.8,3.6,3.9,7.1,6,10.6
				c0.2,0.3,0.9,0.3,1.4,0.4c3.4,1.1,5.6,3.5,6.6,6.7c2,6.3,3.1,12.6-2.7,18c3.1,1.5,5.9,2.9,9.2,4.6c6.6-11.1,13.3-22.2,20.1-33.6
				c-6.3-2-11.6-5.6-16.5-10.2c0.7-0.4,1-0.6,1.1-0.6c0.6,0.1,1.1,0.3,1.7,0.6c5,2.7,10.1,5.1,14.9,8.2c2.6,1.7,4.3,1.2,5.7-0.9
				c6.1-8.8,12.2-17.7,18.2-26.6c-1.4-1.1-1.9-1.6-2.5-1.9c-4.9-2.8-9.8-5.6-14.9-8.1c-2.2-1.1-2.5-2.7-2.8-4.9
				c-0.4-3.1-0.8-6.8-2.7-9c-3-3.3-7.6-5.1-10.3-8.8C-40.9,132.6-41.1,132.7-41.5,132.8z M-138.9,131.8c-0.4-0.3-0.9-0.7-1.3-1
				c-0.5-2.2-0.9-4.5-1.5-6.7c-0.3-1-0.7-2.6-1.4-2.8c-3.7-0.9-5.1-2.8-3.9-6.5c0.2-0.7-0.1-1.6-0.2-2.4c-0.3-2.6-0.7-5.1-0.9-7.7
				c-0.1-0.8,0.3-1.9-0.1-2.4c-3.3-3.8-0.4-7.1,0.3-10.7c0.7-3.7,0.1-7.6,0-11.4c0-0.5-1-1-1.6-1.3c-3.6-1.3-9.7,0.8-11.8,3.8
				c-1.1,1.6-2.5,3.2-4,4.5c-3.2,2.8-6.8,5.1-9.8,8.1c-3.4,3.2-6.4,6.8-9.4,10.4c-0.7,0.9-0.8,2.8-0.4,3.9
				c2.7,7.9,5.7,15.7,8.5,23.5c3.2,9,6.2,18,9.6,27.8c3.9-2.4,7.3-4.8,10.9-6.9c2.2-1.3,3.1-2.9,3-5.5c-0.1-5.2,1.9-9.5,6.9-12.1
				C-143.5,135.2-141.3,133.4-138.9,131.8z M-37.9,131.6c1.3,1.3,2.4,3,4.1,4c5.2,3.1,8.8,7,8.8,13.4c0,1.1,0,2.8,0.7,3.3
				c4.1,3,8.5,5.7,13.1,8.8c2.8-7.6,5.2-14.3,7.6-21.1c3.5-9.8,7-19.6,10.4-29.4c0.5-1.4,0.3-3.5-0.5-4.6c-2.9-3.8-6-7.5-9.4-10.8
				c-3.8-3.7-8.9-6.3-12-10.4c-3.1-4.2-6.6-5.7-11.4-5.3c-1,0.1-2.6,0.8-2.7,1.3c-0.3,3.8-1,7.7-0.3,11.4c0.7,3.7,3.9,7.1,0.3,11
				c-0.3,0.3-0.1,1.1-0.1,1.7c-0.2,4.7-0.4,9.4-0.8,14.1c0,0.6-0.6,1.6-1.1,1.7c-4.7,0.7-5,3.9-4.9,7.5
				C-36,129.2-37.1,130.2-37.9,131.6z M-103.6,104c-3.3,14.9-0.7,26.8,13.1,35.8c0.9,0.6,2.9,0.5,3.8-0.1
				c6.6-4.3,11.4-9.8,13.4-17.6c1.6-6.2,0.9-12.3-0.4-18.3c-4.3,2.6-8.2,5-11.7,7.2c-0.9,3.6-1.7,7.2-2.5,10.7c-0.5,0-1-0.1-1.5-0.1
				c-0.6-2.9-1.1-5.8-1.9-8.6c-0.2-1-0.7-2.2-1.5-2.7C-96.3,108.1-99.8,106.2-103.6,104z M-49.7,302.6c0.9-5.3,1.6-10,2.3-14.7
				c0.1-0.5-0.2-1.1-0.4-1.7c-4.7-11.5-0.9-22.4,6.7-28.6c0.9-0.7,1.6-2.2,1.5-3.2c-0.8-5.7-1.2-11.2,3.6-16.1
				c-3-1.1-5.3-1.9-7.8-2.8c-3.3,8.4-6.8,16.4-9.7,24.7c-3,8.7-5.4,17.6-7.9,26.5c-0.4,1.4-0.4,3.5,0.4,4.5
				C-57.3,295.2-53.4,299-49.7,302.6z M-129.7,302.4c3.6-3.5,6.8-6.7,10.2-9.8c2.3-2.1,2.5-4.5,2-7.2c-3.4-17.2-11.3-32.9-17.2-49.3
				c-0.1-0.2-0.4-0.2-0.8-0.5c-2,0.9-4,1.7-6.1,2.6c0.4,0.1,0.8,0.2,1.2,0.3c0.4,4.6,1.2,9.2,1.2,13.8c0,2.2,0.2,3.6,2.1,5.2
				c7.5,6.3,9.6,14.7,7.7,23.7c-0.8,3.9-1.6,7.2-0.4,11.2C-129.1,295.2-129.7,298.4-129.7,302.4z M-108.1,114.4
				c-1.3,1-2.4,2.2-3.8,2.8c-0.7,0.3-2.5,0-2.8-0.5c-1.5-3.3,0.3-10,3.1-12.6c1-0.9,2.1-1.8,3.3-2.8c-2.5-2-4.7-3.8-6.8-5.6
				c-1.2,2.1-2.1,4.2-3.4,5.9c-6.9,9.1-8.5,19.5-8.7,30.4c-0.1,2.6,0.9,3.8,3.6,3.7c6.9-0.2,13.2-2.4,18.8-5.3
				C-106,124.8-107,119.8-108.1,114.4z M-69.3,114.3c-1.1,5.5-2.1,10.7-3.2,16.1c5.8,3,12,5.2,18.9,5.3c2.2,0,3.4-0.6,3.4-3.1
				c0.1-10.6-1.5-20.7-8.1-29.6c-1.5-2-2.6-4.4-3.8-6.6c-2.1,1.6-4.3,3.3-6.9,5.2c6,3,7.2,8.1,6.7,13.9c-0.2,2.3-1.3,2.8-3.1,1.6
				C-66.9,116.4-68.1,115.3-69.3,114.3z M-21.6,219.4c-5.1-2.5-9.7-4.7-14.3-6.8c-0.7-0.3-2.3,0.1-2.7,0.7
				c-3.5,5.6-6.8,11.4-10.4,17.6c4.9,2,8.9,4.2,13.2,5.1c1.7,0.4,5.5-1.7,5.7-3.1C-29.1,227.4-26.4,223.3-21.6,219.4z M-156.6,219.4
				c4.9,3.8,7.8,7.9,8.2,13.4c0.1,2,3.9,4.2,5.8,3.5c4.2-1.6,8.4-3.5,13.3-5.6c-3.6-6.2-6.9-11.8-10.2-17.2c-0.4-0.6-2-1.1-2.6-0.9
				C-146.8,214.7-151.4,217-156.6,219.4z M-129.8,103.7c-1.8-0.5-4.4-0.9-6.6-1.9c-2-0.8-3.2-0.3-4.4,1.2c-3.4,4.1-3.5,9-3.9,13.9
				c-0.1,0.5,0.6,1.4,1.1,1.6c3.8,1.2,7.6,2.3,11.4,3.3c0.8,0.2,2.4-0.4,2.6-1c1.1-3.5,1.8-7,2.6-10.3c-2.2-0.2-4.1-0.3-6-0.5
				C-131.9,107.9-130.9,105.9-129.8,103.7z M-50.4,111.2c0.7,2.7,1.4,5.5,2.1,8.4c0.5,2.2,1.8,3.2,3.9,2.7c3.6-0.9,7.2-2.1,10.7-3.2
				c0.5-0.2,1.2-1.1,1.1-1.6c-1.1-4.6-2.3-9.1-3.8-13.5c-0.3-0.9-2.4-1.9-3.4-1.7c-2.9,0.5-5.6,1.6-7.9,2.3c1.1,1.9,2.3,3.9,3.5,5.8
				C-46.2,110.6-48.1,110.9-50.4,111.2z M-200.7,131.6c2.3,5.1,3.6,9.9,9.6,10.7c2.6,0.4,10.4-1.2,11.8-3.3c0.2-0.4,0.4-0.9,0.3-1.3
				c-1.2-4.1-2.4-8.1-3.7-12.6C-189,127.4-194.8,129.4-200.7,131.6z M0.7,139.1c3.3,2.6,9,4.5,11.4,4.1c6-0.9,8.6-5,10.3-11.1
				c-5.7-2-11.6-4.1-17.9-6.4C3.1,130.8,1.9,135,0.7,139.1z M-162,203.4c-5.6-10.2-11.1-20.3-16.7-30.4c-0.4,0.1-0.7,0.2-1.1,0.3
				c1.9,5.3-0.5,9.8-3.3,14.2c5.9,3.1,9.4,7.4,11.2,13.4C-170.5,205.5-166.3,206.5-162,203.4z M-16,203.3c4,3.1,8.4,2.3,9.7-2.1
				c1.8-6.3,5.5-10.8,10.5-13.4c-1.3-4.9-2.5-9.4-3.9-14.2C-5.1,183.4-10.5,193.3-16,203.3z M-152.8,198.8
				c-10.2-9.1-13.1-22.2-20.7-32.7c-1.7,0.8-3.3,1.6-5.1,2.4c6.6,11.4,13,22.3,19.5,33.4C-157.1,200.9-155.2,200-152.8,198.8z
				 M-18.9,201.9c6.5-11.2,12.8-22,19.2-33c-1.8-1-3.4-2-4.9-2.8c-7.6,10.7-10.7,23.6-20.6,32.7C-23,199.9-21.1,200.9-18.9,201.9z
				 M-80.4,213.8c-3.8,1.9-4.9,4.4-2.6,6.9c2.9,3.2,6.9,3.9,11.1,3.3c4.2-0.7,8.4-1.7,10.6-6c0.1-0.2,0.2-0.5,0.2-0.7
				c-0.1-3.2,0.2-6.5-0.5-9.6c-0.5-2-2.1-4-3.8-5.4c-2.2-1.8-3.1-1.2-4,1.7c3.9,2.9,4.9,5.5,3.6,9.9c-0.8,2.6-2.2,4.8-5.3,5.2
				C-75.6,219.6-78.2,218.1-80.4,213.8z M-98.2,212.8c-1.6,5.2-4.9,6.9-9,6.1c-2-0.4-4.7-2.4-5.1-4.1c-0.9-4.2-1-8.7,4-10.8
				c-0.7-3.1-2.9-3.3-4.3-1.6c-1.9,2.3-3.4,5.1-4.4,7.9c-0.7,2.1-0.4,4.5-0.1,6.7c0.1,1.3,0.7,2.8,1.6,3.6c4.3,3.8,11.9,4.5,17.1,2
				c2.4-1.1,3.8-2.9,3.3-5.3C-95.2,215.9-96.7,214.7-98.2,212.8z M-184.1,165.8c0.3,0.1,1.7,1,2.7,0.7c2.9-0.9,5.6-2.1,8.3-3.4
				c0.6-0.3,1.2-1.3,1.1-1.9c-0.9-4.1-2.1-8.2-3.2-12.5c-1.2,0.2-2.3,0.5-3.3,0.7c-3.2,0.5-4.7,1.8-4.4,5.4
				C-182.5,158-183.6,161.4-184.1,165.8z M6.2,166.7c-0.7-4.4-1.5-7.4-1.6-10.5c-0.1-5.1,0.1-5.1-5.2-6.3c-0.8-0.2-1.6-0.2-2.6-0.4
				c-0.5,2.5-0.8,4.9-1.4,7.2c-1.7,6.9-1.8,6.9,4.9,9.6c0.7,0.3,1.4,0.7,2,0.7C3.8,166.9,5.4,166.7,6.2,166.7z M-100,102.6
				c7.4,7.3,15.6,7.3,22.4,0.1c-5.3-1.5-9.7-3.9-11.1-9.9C-90.2,98.6-94.4,101.1-100,102.6z M-148.9,63.9c-2.9-0.8-6.1-1.8-9.3-2.6
				c-0.3-0.1-1,0.6-1.3,1.1c-2.7,4.1-3.9,8.5-3.3,13.5c3.6-1.1,6.8-2.1,9.6-2.9C-151.8,70-150.6,67.4-148.9,63.9z M-14.7,76.5
				c0.5-4.7-0.2-8.9-2.8-12.8c-0.5-0.7-1.5-1.9-2-1.7c-3.1,0.7-6.2,1.8-9.1,2.6c1.7,3.5,3,6.2,4.4,9C-21.4,74.5-18.2,75.5-14.7,76.5
				z M-94.1,158.6c-0.4-0.2-0.9-0.4-1.4-0.7c-1.6,1.9-3.2,3.7-4.6,5.8c-1.2,1.7-0.6,2.7,1.6,3.3c1.7,0.4,3.5,1.2,5,2.2
				c2.4,1.6,7.3,1.6,9.7,0c1.5-1,3.2-1.7,5-2.1c1.8-0.5,2.8-1.4,1.6-3c-1.4-2.1-3.2-4-4.9-6c-0.4,0.2-0.8,0.4-1.2,0.6
				c0.6,1.7,1.2,3.4,1.7,4.7c-4.8,5.5-9.7,5.4-14.4,0C-95.4,161.9-94.7,160.2-94.1,158.6z M-127.7,88.9c0.1,0.6,0.2,1.2,0.4,1.9
				c3.2,0.5,6.3,1,9.6,1.6c-0.2-3.5-0.3-5.9-0.4-9.3C-121.7,85.3-124.7,87.1-127.7,88.9z M-59.6,93.3c3.5-0.7,6.6-1.3,9.8-1.9
				c0.1-0.5,0.2-1.1,0.3-1.6c-3-1.8-6.1-3.7-9.6-5.9C-59.4,87.3-59.5,89.8-59.6,93.3z M-107,136.4c-0.3,0.4-0.6,0.8-0.9,1.2
				c2.6,2.2,5.2,4.5,7.9,6.7c0.3,0.2,1.2-0.2,1.9-0.4c-0.2-0.6-0.1-1.5-0.5-1.9c-1.7-1.7-3.5-3.3-5.4-4.7
				C-104.7,136.8-105.9,136.7-107,136.4z M-69,137c-1.7-0.4-2.4-0.8-2.6-0.6c-2.6,2-5.3,4.1-7.8,6.2c-0.2,0.2-0.2,1.1,0,1.3
				c0.4,0.3,1.3,0.7,1.6,0.5C-75,142.2-72.3,139.9-69,137z M-29.5,97.1c-2.9,1.4-4.9,2.3-7,3.3c1.7,2.3,3.2,4.1,4.3,5.6
				C-31.4,103.3-30.6,100.7-29.5,97.1z M-147.6,96.6c0.9,3.6,1.6,6.4,2.3,9.1c1.2-1.7,2.7-3.8,4.4-6.2
				C-143,98.5-145,97.7-147.6,96.6z"/>
			<path class="st3" d="M-110.6,85.5c-0.8-3.1,2.4-3,4.1-3.6c1.3-0.5,3.3,0.1,4.7,0.7c1.4,0.6,2.7,1.8,3.4,3.1
				c1,1.7,2.4,4.2,1.7,5.6c-0.8,1.6-3.4,3-5.3,3.2C-106.7,94.9-110.5,90.7-110.6,85.5z"/>
			<path class="st3" d="M-74.4,94.8c-1.4-0.3-3-0.3-4.1-1c-1.2-0.8-2.1-2.2-2.6-3.5c-0.5-1.4,4.3-7.9,6.5-8.1c2.4-0.1,5,1,7.3,2
				c0.6,0.3,0.6,2.4,0.4,3.6C-67.6,92.2-70.6,94.8-74.4,94.8z"/>
		</g>
	</g>
</g>
<g>
	<g>
		<g>
			<path d="M94.9,169.2c-14.1-0.1-31.3-0.1-45.3-0.1c0.4-0.8,0.7-1.5,1-2.2c0.3-0.6,0.5-1.1,0.7-1.7c-0.9,0.1-1.9,0.1-2.7,0.3
				c-6.1,2.1-12.6,2.9-19.3,1.8c-2.9-0.5-4.6,0.1-5.9,1.8c-2.8,0-5.6,0-8.4,0c-7-6.8-11.9-14.1-9-22.7c1-2.9,2.4-5.6,4.1-8.3
				c1.8-2.8,4.3-5.3,8.9-6.2c0.6-0.1,1-0.4,1.5-0.6c-0.4-0.3-0.9-0.6-1.3-0.9c-4.2-2.7-8.9-5.1-12.6-8.1c-8.2-6.8-8.2-14.8-3.6-22.5
				c4.6-7.9,14.2-11.6,26.1-12.6c0.9-0.1,1.7-0.2,2.6-0.2c-0.5-0.6-1.1-1.1-1.5-1.7c-1.6-3-4.2-5.9-4.4-8.9
				c-0.6-7.3,1.3-14.2,9.7-19.5c5.4-3.4,11.5-5.2,18.7-5.2c1.8,0,3.6,0,5.4,0c4.5,0,4.8,0,3.5-3.2c-4.1-9.9,2.2-17.8,13-23.2
				c0.8-0.4,1.2-1.6,1-2.3c-0.6-1.9-1.9-3.7-2.5-5.6C72,8,81.1,0.3,94.8,0.1c0,2.3,0,4.7,0,7c-1.4,0.4-2.9,0.6-4.3,1.1
				c-5.1,1.8-7.4,5.9-5,9.2c0.7,1,2.6,2,4.2,2.2c0.9,0.1,2.5-1.2,3.3-2.1c0.4-0.4,0-1.3-0.1-2c-0.7,0.4-1.4,0.7-2.1,1.1
				c-0.6,0.3-1.1,0.6-1.7,0.8c-0.4-0.4-1-0.8-1.2-1.3c-1.2-3,1.4-5.5,6.8-6.4c0,11.6,0,23.3,0,34.9c-3.6-0.8-6.9-1.2-9.2,1.7
				c-0.7,0.9-2.1,1.6-3.5,2c-4,1.3-4.1,1.4-1.6,3.9c0.8,0.8,1.7,1.6,2.5,2.3c1.3,1.3,2.6,1.5,4.8,0.6c2.1-0.9,4.6-1.3,7-2 M48,65.1
				c0,0.1-0.1,0.7-0.3,1.3c-1.7,4.5-5.4,5.2-10.1,1.9c-1.5-1.1-2.6-2.4-4-3.6c-0.4-0.3-1.2-0.3-1.8-0.5c-0.1,1.3-1.1,3-0.2,3.7
				c3.8,3.4,8.6,6.1,14.9,7.1c0.7,0.1,1.6,0.2,2.3,0c4.9-1,8.9-7.5,6.3-10.6c-2-2.4-3-4.9-2.2-7.7c0.2-0.8,0.6-1.6,0.9-2.4
				c-1.6,0-3.5-0.3-4.8,0.1c-1.2,0.4-2.4,1.7-2.3,2.6C46.7,59.7,47.4,62.1,48,65.1z M89.8,36.2c-0.4-0.1-0.8-0.1-1.1-0.2
				c0.5-2.5,1.2-5,1.5-7.5c0.1-1-0.9-3-1.1-3c-2.3,0.2-5.3-0.3-5.6,2.5c-0.3,2.8-1.2,5.6-1.9,8.4c-0.8,2.9-2.7,3.8-6.7,3.3
				c-1.7-0.2-3.3-0.9-5-1.3c-1-0.2-2.1-0.3-3.2-0.5c0,1.4-0.8,3.4,0.2,4.1c2.4,1.6,5.6,2.8,8.7,3.8c3.8,1.2,6.5,0.4,8.7-2.2
				c1.3-1.5,2.7-3.1,3.9-4.6C88.7,38.2,89.2,37.2,89.8,36.2z M16.7,108.8c-0.6,3.7-2.6,4.6-7,2.9c-1.1-0.4-2-1.1-3.1-1.6
				c-0.7-0.4-1.4-0.7-2-1c-0.1,0.7-0.5,1.4-0.3,2c0.1,0.6,0.7,1.1,1.2,1.6c3.2,2.7,10.6,4.1,15.3,2.9c1-0.2,2.1-0.8,2.5-1.4
				c1.5-2.5-2-10.3-4.8-12.2c-2.1-1.5-3.8-3.3-5.6-5c-0.5-0.4-0.9-0.9-1.3-1.3c-0.5,0.7-1.5,1.4-1.3,1.9c0.7,1.9,1.9,3.6,2.9,5.4
				C14.4,104.9,15.6,106.9,16.7,108.8z M9.1,152.8c-0.3,1.9,0.3,3,3.8,1.9c3.3-1.1,6-0.2,7.8,1.9c1.9,2.1,1.6,4.1-1.4,5.7
				c-0.8,0.4-1.6,0.9-2.3,1.4c-2.7,1.8,0.3,2.6,1.3,3.7c1.4,1.4,2.2,0.1,3.1-0.6c1.7-1.4,3.5-2.9,5.2-4.3c2.6-2.2,5.2-4.4,1.9-7.4
				c-0.5-0.4-0.6-1-0.9-1.5c-0.7-1.6-2.1-2.2-4.5-2.1c-3.8,0-7.7-0.1-11.4-0.6C9,150.6,8.8,151.2,9.1,152.8z M37.8,94.1
				c1.3,0,2.6,0.2,3.8-0.1c1-0.2,2.6-0.9,2.6-1.4c0-0.7-1-2-1.9-2.1c-7.7-1-15.4-1.3-22.8,1c-2.6,0.8-3.3,2.3-2.9,4.2
				c0.4,1.5,1.3,2.3,3.6,1.3C25.6,94.6,31.7,94.2,37.8,94.1z M60.6,66.1c-0.1,0.4-0.4,0.8-0.5,1.3c-0.9,4.6-5.1,7.8-10.5,9.9
				c-2.4,1-2.2,1.6-1.2,2.7c0.8,0.8,1.7,1.5,2.7,2.2c1.4,1,2.5,1.2,3.5-0.5c1-1.7,2.4-3.6,4.4-4.6c3.6-1.7,5.2-3.9,6.6-6.5
				C66.9,68.4,64.8,66.1,60.6,66.1z M33.5,102.5c-1.2,0.2-3.2,0.1-3.5,0.5c-1.3,2.3-2.6,4.8-3.2,7.2c-0.5,1.9-0.2,3.9,0.1,5.8
				c0.1,0.6,1.1,1.2,1.7,1.8c0.6-0.4,1.3-0.7,1.7-1.2c1.3-1.3,2-3.4,3.7-3.8c4.5-1.2,4.2-3.4,3.4-5.9c-0.2-0.5-0.3-1.1-0.2-1.6
				C37.9,103.1,36.6,102.3,33.5,102.5z M33.7,145.3c-2.4,0.7-3.9,1-5.2,1.6c-1.7,0.8-5.1,1.5-0.3,2.8c1,0.3,1.6,1.3,2.2,2.1
				c1.5,2.1,2.7,4.2,4.5,6.2c0.5,0.5,2.4,0.6,3.6,0.6c0.6,0,1.5-1.1,1.3-1.6c-0.6-2.3-1.3-4.7-2.4-6.9
				C36.5,148.3,34.9,146.8,33.7,145.3z M9.3,147.1c0.4,0.4,1,0.9,1.6,1.4c0.6-0.5,1.4-0.9,1.8-1.5c1.6-2.2,2.6-4.7,4.8-6.6
				c2.2-1.9,5.6-3.1,8.2-4.7c0.8-0.5,0.9-1.7,1.3-2.5c-1-0.1-2-0.5-2.9-0.4C13.7,134.6,12.1,140.9,9.3,147.1z M65.6,45.7
				c1.5,2.8,2.1,5.4,4,7.2c2.6,2.3,6.3,4,9.7,5.9c0.7,0.4,1.7,0.4,2.6,0.6c-0.3-0.7-0.3-1.4-0.8-2c-1.7-1.9-5-3.7-5.2-5.7
				c-0.4-3.8-4.6-4.5-7.8-6.1C67.7,45.5,67,45.7,65.6,45.7z M59.8,57.1c4.8-0.4,7.9,0.6,10.5,2.5c1.5,1.1,2.8,2.4,4.4,3.3
				c0.8,0.5,2.3,0.3,3.5,0.5c-0.2-0.7-0.2-1.6-0.8-2c-2.3-1.7-4.5-3.5-7.2-4.7c-2.7-1.2-5.9-1.9-9.1-2.4c-1-0.1-2.5,1.3-3.8,2
				C58.4,56.6,59.4,56.9,59.8,57.1z M27.6,128.2c0-0.4,0.1-0.7,0.1-1c-0.8-0.4-1.5-0.9-2.4-1.1c-5.5-1.5-10.2-3.5-13.3-7.1
				c-0.6-0.7-2.2-1.1-3.3-1.5c-0.4-0.1-0.9,0-1.4,0c0.1,0.3,0.2,0.7,0.4,1c4.5,4.4,9.4,8.4,16.7,10.5
				C25.2,129,26.5,128.4,27.6,128.2z M39.5,87.4c-0.7-1.1-1.4-1.8-1.7-2.6c-1.5-3.2-2.9-6.4-4.4-9.6c-0.6-1.3-1.4-2.5-2.2-3.7
				c0,0-1.5,0.2-1.6,0.4C27.5,77.7,31.5,84,39.5,87.4z M39,78.8c2.5,2.5,5,5.2,7.8,7.8c0.2,0.2,1.8,0,2.5-0.3
				c0.4-0.2,0.6-1.2,0.4-1.4c-3.1-1.8-4.8-4-5.5-6.8c-0.2-0.6-2.4-1-3.6-1.4C40.1,77.1,39.8,77.6,39,78.8z M26.2,105.2
				c1.4-4.3,2.2-4.8,8.5-4.8c0.9,0,1.9,0.2,2.7,0c0.9-0.3,1.5-0.9,2.3-1.4c-0.7-0.2-1.5-0.6-2.2-0.6c-3.5,0.2-7.1,0.4-10.6,0.9
				c-2.6,0.4-4.6,1.4-1.9,3.5C25.7,103.4,25.8,104.4,26.2,105.2z M21.1,149.2c0.5-0.2,0.7-0.2,0.7-0.2c2-3,5.9-4.2,9.8-5.6
				c0.3-0.1,0.3-1,0.2-1.5c-0.1-0.3-0.9-0.6-1.3-0.6c-3.5,0-9.7,4.2-9.9,6.7C20.5,148.4,20.9,148.8,21.1,149.2z M60.1,60.9
				c-1.5,0.5-2.1,0.8-2.7,1c0.5,0.6,0.8,1.5,1.5,1.7c3.1,1,6.3,1.9,9.5,2.7c0.4,0.1,1.1-0.1,1.6-0.2c-0.2-0.3-0.2-0.8-0.5-0.9
				C66.3,63.7,63.1,62.2,60.1,60.9z M35.9,162.7c0.1,0.1,0.1,0.3,0.2,0.4c2.7-0.7,5.4-1.3,8-2.1c0.5-0.2,0.7-0.9,1-1.4
				c-0.8-0.1-1.7-0.4-2.4-0.2c-3,0.5-6,1.2-9,1.8c-0.6,0.1-1,0.6-1.6,0.9c0.6,0.2,1.2,0.5,1.8,0.6C34.6,162.8,35.3,162.7,35.9,162.7
				z"/>
		</g>
	</g>
	<g>
		<g>
			<path d="M14.7,168.9c-7,6.8-11.9,14.1-9,22.7c1,2.9,2.4,5.6,4.1,8.3c1.8,2.8,4.3,5.3,8.9,6.2c0.6,0.1,1,0.4,1.5,0.6
				c-0.4,0.3-0.9,0.6-1.3,0.9c-4.2,2.7-9,5.1-12.7,8.1c-8.3,6.8-8.2,14.8-3.6,22.5c4.7,7.9,14.3,11.6,26.2,12.6
				c0.9,0.1,1.8,0.2,2.6,0.2c-0.5,0.6-1.1,1.1-1.5,1.7c-1.6,3-4.2,5.9-4.4,8.9c-0.6,7.3,1.3,14.2,9.8,19.5
				c5.4,3.4,11.5,5.2,18.8,5.2c1.8,0,3.6,0,5.4,0c4.6,0,4.8,0,3.5,3.1c-4.1,9.9,2.2,17.8,13,23.2c0.8,0.4,1.2,1.6,1,2.3
				c-0.6,1.9-1.9,3.7-2.5,5.6c-2.6,9.3,6.5,17,20.2,17.2c0-2.3,0-4.6,0-7c-1.4-0.4-2.9-0.6-4.3-1.1c-5.1-1.8-7.4-5.9-5-9.2
				c0.7-1,2.6-2,4.2-2.2c0.9-0.1,2.5,1.2,3.3,2.1c0.4,0.4,0,1.3-0.1,2c-0.7-0.4-1.4-0.7-2.1-1.1c-0.6-0.3-1.1-0.6-1.7-0.9
				c-0.4,0.4-1,0.8-1.2,1.3c-1.2,3,1.4,5.5,6.9,6.4c0-11.6,0-23.2,0-34.9c-3.6,0.8-6.9,1.2-9.3-1.7c-0.7-0.9-2.1-1.6-3.5-2
				c-4-1.3-4.1-1.4-1.6-3.9c0.8-0.8,1.7-1.6,2.6-2.3c1.4-1.3,2.6-1.5,4.8-0.6c2.1,0.9,4.6,1.3,7,2c0-37.9,0-75.8,0.1-113.8
				c0-1.8-0.5-2.2-3.2-2.2c-14.1,0.1-28.2,0.1-42.4,0.1c0.4,0.8,0.7,1.5,1.1,2.2c0.2,0.6,0.5,1.1,0.7,1.7c-0.9-0.1-1.9-0.1-2.7-0.3
				c-6.2-2.1-12.7-2.9-19.4-1.8c-2.9,0.5-4.6-0.1-5.9-1.8C20.4,168.9,17.5,168.9,14.7,168.9z M47.8,273c0-0.1-0.1-0.7-0.3-1.3
				c-1.7-4.5-5.5-5.2-10.1-1.9c-1.5,1.1-2.6,2.4-4,3.6c-0.4,0.3-1.2,0.3-1.8,0.5c-0.1-1.3-1.1-3-0.2-3.7c3.9-3.4,8.7-6.1,14.9-7.1
				c0.7-0.1,1.6-0.2,2.3,0c5,1,8.9,7.5,6.3,10.6c-2,2.4-3,4.9-2.2,7.7c0.2,0.8,0.6,1.6,0.9,2.5c-1.6,0-3.5,0.3-4.8-0.1
				c-1.2-0.4-2.4-1.7-2.3-2.6C46.5,278.4,47.2,276,47.8,273z M89.7,301.9c-0.4,0.1-0.8,0.1-1.1,0.2c0.5,2.5,1.2,5,1.5,7.5
				c0.1,1-0.9,3-1.1,3c-2.3-0.2-5.3,0.3-5.6-2.5c-0.3-2.8-1.2-5.6-1.9-8.4c-0.8-2.9-2.7-3.9-6.8-3.3c-1.7,0.2-3.3,0.9-5,1.3
				c-1,0.2-2.1,0.4-3.2,0.5c0-1.4-0.8-3.4,0.2-4.1c2.4-1.6,5.6-2.8,8.7-3.8c3.8-1.2,6.5-0.4,8.7,2.2c1.3,1.5,2.7,3,3.9,4.6
				C88.7,299.9,89.2,300.9,89.7,301.9z M16.4,229.3c-0.6-3.7-2.6-4.6-7-2.9c-1.1,0.4-2.1,1-3.1,1.6c-0.7,0.4-1.4,0.7-2.1,1
				c-0.1-0.7-0.5-1.4-0.3-2c0.1-0.6,0.7-1.1,1.2-1.6c3.2-2.7,10.7-4.1,15.4-2.9c1,0.2,2.1,0.8,2.5,1.4c1.5,2.5-2,10.3-4.8,12.2
				c-2.1,1.5-3.8,3.3-5.6,5c-0.5,0.4-0.9,0.9-1.4,1.3c-0.5-0.6-1.5-1.4-1.3-1.9c0.7-1.9,1.9-3.6,2.9-5.4
				C14,233.2,15.2,231.2,16.4,229.3z M8.7,185.3c-0.3-1.9,0.3-3,3.8-1.9c3.4,1.1,6,0.2,7.9-1.9c1.9-2.1,1.6-4.1-1.4-5.7
				c-0.8-0.4-1.6-0.9-2.3-1.4c-2.7-1.8,0.3-2.6,1.4-3.7c1.4-1.4,2.3-0.1,3.1,0.6c1.7,1.4,3.5,2.9,5.2,4.3c2.6,2.2,5.2,4.4,1.9,7.4
				c-0.4,0.4-0.6,1-0.9,1.5c-0.7,1.6-2.1,2.2-4.6,2.1c-3.8,0-7.7,0.1-11.5,0.6C8.7,187.5,8.4,186.9,8.7,185.3z M37.6,244
				c1.3,0,2.6-0.2,3.8,0.1c1,0.2,2.6,0.9,2.6,1.5c0,0.7-1,2-1.9,2.1c-7.7,1-15.5,1.3-22.9-1c-2.6-0.8-3.4-2.3-2.9-4.2
				c0.4-1.5,1.3-2.3,3.6-1.3C25.3,243.5,31.4,243.9,37.6,244z M60.4,272c-0.1-0.4-0.4-0.8-0.5-1.3c-0.9-4.6-5.1-7.8-10.5-9.9
				c-2.4-1-2.2-1.6-1.2-2.7c0.8-0.8,1.7-1.5,2.7-2.2c1.4-1,2.5-1.2,3.6,0.5c1.1,1.7,2.4,3.6,4.4,4.6c3.6,1.7,5.2,4,6.6,6.5
				C66.8,269.7,64.6,272,60.4,272z M33.2,235.6c-1.2-0.2-3.3-0.1-3.5-0.5c-1.4-2.3-2.6-4.8-3.2-7.2c-0.5-1.9-0.2-3.9,0.1-5.8
				c0.1-0.6,1.1-1.2,1.7-1.8c0.6,0.4,1.3,0.7,1.7,1.2c1.3,1.3,2,3.4,3.7,3.8c4.6,1.3,4.2,3.4,3.4,5.9c-0.1,0.5-0.3,1.1-0.1,1.6
				C37.6,235,36.3,235.8,33.2,235.6z M33.4,192.8c-2.4-0.7-3.9-1-5.2-1.6c-1.7-0.8-5.1-1.5-0.3-2.8c1-0.3,1.6-1.3,2.2-2.1
				c1.5-2.1,2.8-4.2,4.5-6.2c0.5-0.5,2.4-0.6,3.6-0.6c0.6,0,1.5,1.1,1.3,1.6c-0.6,2.3-1.3,4.7-2.4,6.9
				C36.3,189.8,34.6,191.3,33.4,192.8z M9,191c0.4-0.4,1-0.9,1.7-1.4c0.6,0.5,1.4,0.9,1.8,1.5c1.6,2.2,2.6,4.7,4.8,6.6
				c2.2,1.9,5.6,3.1,8.2,4.7c0.8,0.5,0.9,1.7,1.3,2.5c-1,0.1-2.1,0.5-2.9,0.4C13.3,203.5,11.8,197.2,9,191z M65.5,292.4
				c1.5-2.8,2.1-5.4,4.1-7.1c2.6-2.3,6.4-4,9.7-6c0.7-0.4,1.7-0.4,2.6-0.6c-0.3,0.7-0.3,1.4-0.8,2c-1.8,1.9-5,3.7-5.2,5.7
				c-0.4,3.8-4.6,4.5-7.8,6.1C67.6,292.6,66.8,292.4,65.5,292.4z M59.6,281c4.8,0.4,7.9-0.6,10.6-2.5c1.5-1.1,2.8-2.4,4.4-3.3
				c0.8-0.5,2.3-0.3,3.5-0.5c-0.2,0.7-0.2,1.6-0.8,2c-2.3,1.7-4.5,3.5-7.2,4.7c-2.7,1.2-5.9,1.9-9.1,2.4c-1,0.1-2.5-1.3-3.8-2
				C58.2,281.5,59.3,281.2,59.6,281z M27.3,209.9c0,0.4,0.1,0.7,0.1,1c-0.8,0.4-1.5,0.9-2.4,1.1c-5.5,1.5-10.2,3.5-13.4,7.1
				c-0.6,0.7-2.2,1.1-3.4,1.5c-0.4,0.1-0.9,0-1.4,0c0.1-0.3,0.2-0.7,0.4-1c4.5-4.4,9.4-8.4,16.8-10.5
				C24.9,209.1,26.2,209.7,27.3,209.9z M39.2,250.7c-0.7,1-1.4,1.8-1.8,2.6c-1.5,3.2-2.9,6.4-4.4,9.6c-0.6,1.3-1.4,2.5-2.2,3.7
				c0,0-1.6-0.2-1.6-0.4C27.2,260.4,31.2,254.1,39.2,250.7z M38.8,259.3c2.5-2.5,5.1-5.2,7.8-7.8c0.2-0.2,1.8,0,2.5,0.4
				c0.4,0.2,0.6,1.2,0.4,1.4c-3.1,1.8-4.8,4-5.5,6.8c-0.2,0.6-2.4,1-3.7,1.4C39.9,261,39.6,260.5,38.8,259.3z M25.9,232.9
				c1.4,4.3,2.3,4.8,8.5,4.8c0.9,0,1.9-0.2,2.7,0c0.9,0.3,1.6,1,2.3,1.5c-0.7,0.2-1.5,0.6-2.2,0.6c-3.6-0.2-7.1-0.4-10.6-1
				c-2.6-0.4-4.6-1.4-1.9-3.5C25.4,234.6,25.5,233.7,25.9,232.9z M20.7,188.9c0.5,0.2,0.7,0.2,0.7,0.2c2,3,6,4.2,9.9,5.6
				c0.4,0.1,0.3,1,0.2,1.5c-0.1,0.3-0.9,0.6-1.3,0.6c-3.5,0-9.7-4.2-10-6.7C20.2,189.7,20.5,189.3,20.7,188.9z M59.9,277.2
				c-1.5-0.5-2.1-0.8-2.7-1c0.5-0.6,0.8-1.5,1.5-1.7c3.1-1,6.3-1.9,9.5-2.7c0.4-0.1,1.1,0.1,1.6,0.2c-0.2,0.3-0.2,0.8-0.5,0.9
				C66.2,274.4,62.9,275.9,59.9,277.2z M35.7,175.4c0.1-0.1,0.1-0.3,0.2-0.4c2.7,0.7,5.4,1.3,8,2.1c0.5,0.2,0.7,0.9,1,1.4
				c-0.8,0.1-1.7,0.4-2.4,0.2c-3-0.5-6-1.2-9-1.8c-0.6-0.1-1.1-0.6-1.6-0.9c0.6-0.2,1.2-0.5,1.8-0.6C34.4,175.3,35,175.4,35.7,175.4
				z"/>
		</g>
	</g>
</g>
<g id="Layer_3" class="st0">
	<path class="st4" d="M-74.4,76.1C-78,77-82,77.4-85.1,78.9c-6.2,2.9-13.2,5.2-17.7,9.7c-0.6,0.6-1.3,1.1-2.2,1.4
		c-3.3,1.3-6.6,2.4-9.9,3.7c-2.7,1-4.7,2.4-4.8,4.8c0,0.7-1,1.4-1.9,1.9c-3.7,2.2-5.9,4.8-5.5,8.4c0.1,0.6-1.4,1.4-2.3,1.8
		c-2.9,1.2-6.1,2.1-8.9,3.3c-1,0.4-2,1.4-2,2.2c0.1,3.4-2.6,5.3-5.8,7.5c-3.2,2.3-3.7,5.6-2.9,8.8c0.5,1.8-0.1,3-1.8,4.5
		c-2.1,1.8-2.6,4.5-3.8,6.8c-0.6,1.2-1.4,2.3-2.1,3.5c-0.8,1.4-2.4,2.8-2.2,4.1c0.8,3.6,0.9,7.3,4.7,10.3c1.1,0.9,1.5,2.6,1.1,3.8
		c-0.8,2.7-0.9,5.1,1.5,7.4c0.7,0.7,1.2,1.7,1.1,2.5c-0.6,5.2,3.3,8.6,9.1,11.2c2.9,1.3,5.9,2.3,9.5,3.7c-1.8,1.6-3.4,3.1-5,4.5
		c9.4,0,18.8,0,28.2,0c-3.2-1.2-6.3-2.6-9.6-3.7c-6.4-2.1-12.9-4-19.4-6c0-0.3-0.1-0.6-0.1-1c1.4-0.2,3-0.8,4.1-0.5
		c6.4,1.8,12.8,3.8,19.1,5.8c3,1,5.6,2.4,8.7,3.3c2.6,0.8,5.5,1,8-1.3c-1.6-0.3-2.7-0.4-3.5-0.8c-1.2-0.5-3-1.2-3-1.9
		c-0.1-0.8,1.2-1.9,2.2-2.5c2.3-1.2,8.7-0.9,10.5,0.3c2.8,2,2.5,4.3,0.8,6.7c-0.3,0.5-0.7,1-1,1.4c1.5,0,3.1,0,4.6,0
		c0.6-2.1,2-4.3,1.8-6.3c-0.3-2.7-2.9-5-6.9-5.3c-5.6-0.5-11.4-0.8-15.2,3c-1.4,1.4-2.5,1.5-4.4,0.7c-2.9-1.2-5.7-2.3-8.7-3.3
		c-3.6-1.2-7.4-2.2-12.3-3.6c3.9-1.7,6.8-3.2,10-4.2c7.4-2.3,15.1-3.2,23.2-1.4c8.9,2,15.3,6.1,21.4,10.8c1,0.8,2.8,1.1,4.2,1.6
		c0-0.9,0-1.8,0-2.7c-4.5-3.7-9-7.4-13.4-11c4.4-1.2,4.7-4.2,2.3-7.9c-2.2-3.3-8.9-4.8-12.8-2.3c-1.3,0.8-1.5,2.6-1.7,4
		c0,0.3,2.5,1.2,3.2,1c1.4-0.5,2.4-1.6,3.9-2.7c0.1,0.5,0.6,1.5,0.2,2.3c-1,2.1-3.9,2.4-6.3,2c-1.6-0.3-3.5-1.5-4-2.6
		c-1.3-2.7,1.1-5.4,5-6.3c5.8-1.4,12.5,0.7,14.7,4.8c2.4,4.4,2.4,4.4,8.2,1.9c0.2-0.1,0.4-0.2,0.7-0.2c0-3.6,0-7.1,0-10.7
		c-3-1.1-6-2.2-8.9-3.3c-1.1-0.4-2.7-1-2.9-1.6c-0.2-0.7,0.6-2,1.5-2.4c3.3-1.4,6.9-2.6,10.3-3.9c0-0.9,0-1.8,0-2.7
		c-3.4,0.6-6.7,1.3-10.4,2c-3.6-5.8-5.6-11.9-1.6-17.8c2.7-3.9,7.9-7,12-10.5c0-3.8,0-7.5,0-11.3c-4.3,3.6-9.9,5.8-16.4,6.8
		c-4,0.6-7.3,1.9-9.5,4.5c-1.3,1.5-1,2.4,1,3.3c2.3,1.1,4.7,2.2,6.7,3.5c0.9,0.6,1.6,1.8,1.4,2.6c-0.8,3.9-2,7.7-3,11.4
		c0,0-0.5-0.6-1.2-0.9c-1.7-0.7-3.6-1.2-5.4-1.8c-0.3,1.3-1.3,2.8-0.7,3.9c1.6,3.3,3.9,6.4,6,9.5c0.7,1.1,1.5,2.1,2.1,2.9
		c-5.7,1.2-10.9,2.3-16.1,3.3c-0.9,0.1-2.6-0.5-3.1-1.1c-1.4-1.7-2.1-3.6-3.4-5.4c-7.4-9.8-8.4-20.5-7.8-31.3c0-0.8,1.9-2.1,2.8-2.1
		c4,0.1,8.1,0.3,12,1c2.4,0.4,3.9,0.1,5.8-0.9c2.8-1.5,5.8-3.2,9.1-3.7c8.2-1.3,15-3.9,19.7-8.9C-74.4,92.9-74.4,84.5-74.4,76.1z
		 M-153.9,157.8c1.6-0.6,2.2-1,2.8-1.2c7.9-2.1,15.8-4.2,23.8-6.2c6.7-1.6,6.7-1.5,9.1,3c0.7,1.2,1.6,2.4,2.3,3.7
		c0.9,1.7,0.1,2.8-2.5,3.1c-2.2,0.3-4.6,0.3-6.8,0.6c-0.9,0.1-2.1,0.6-2.3,1.1c-0.2,0.5,0.4,1.4,1.1,1.8c1.9,1.1,4.2,2,6.1,3.2
		c0.9,0.6,2,1.5,1.9,2.3c-0.1,0.7-1.3,1.6-2.4,2c-2.2,0.9-4.5,1.8-6.9,2.2c-1.7,0.3-4.4,0.5-5.4-0.2
		C-139.9,168.2-146.7,163.1-153.9,157.8z M-122.6,107c1.6-1.6,3.1-3.2,4.7-4.8c1-1,2.6-1.9,2.8-3c0.8-3.9,5-5.3,9.2-6.2
		c2.8-0.6,4.7-1.2,6-3.1c0.6-0.9,1.6-1.6,2.6-2.3c4.3-2.9,11-1.4,12.9,2.6c2.2,4.7-2.1,10.7-8.9,11.8c-7.1,1.1-14.1,2.9-19.5,6.8
		c-1,0.8-2.9,1.1-4.4,1.3C-120.8,110.7-121.8,110-122.6,107z M-147.1,139.5c0.4-0.4,0.7-0.9,1.3-1.1c4.7-1.5,9.4-3.1,14.3-4.4
		c0.9-0.2,3,0.5,3.4,1.1c1.8,3,3.2,6.2,4.8,9.3c0.7,1.4,0.1,2.2-2,2.5c-3.1,0.5-6.1,1.2-9.2,1.8c-5.4,1.1-5.4,1.1-8-2.6
		C-144,144-145.5,141.8-147.1,139.5z M-128.5,113.3c-0.2,2.7-0.2,5.1-3.3,7c-1.4,0.9-2.4,2.3-3.2,3.6c-1.7,2.7-3.1,5.5-4.8,8.2
		c-0.4,0.7-1.8,1.1-2.9,1.5c-0.3,0.1-1.3-0.5-1.5-0.9c-1.5-2.4,0.1-7.4,3.2-8.5c3.6-1.3,4.2-3.2,4.2-5.7
		C-136.9,115.1-134.2,113.4-128.5,113.3z M-149.3,167c0.5-0.2,1.1-0.3,1.6-0.5c1.2,1.5,2.7,2.9,3.7,4.4c1.2,1.8,2.4,3.7,3,5.6
		c0.5,1.6,0.4,3.2,0.3,4.9c0,0.1-1.4,0.5-1.5,0.4c-1.1-1.3-2.2-2.6-3.2-4c-0.1-0.1,0-0.2,0-0.3c-0.9-2.4-1.8-4.7-2.6-7.1
		C-148.5,169.3-148.9,168.2-149.3,167z M-154.2,153.4c0-1.1-0.4-2.3,0.1-3.3c1.3-2.5,3.1-4.9,4.6-7.3
		C-147.1,146.7-151.7,149.8-154.2,153.4z"/>
	<path class="st4" d="M-74.1,312.9c-3.6-0.9-7.7-1.3-10.8-2.8c-6.2-2.9-13.2-5.2-17.8-9.6c-0.6-0.5-1.3-1.1-2.2-1.4
		c-3.3-1.3-6.7-2.5-10-3.7c-2.7-1-4.7-2.4-4.8-4.8c0-0.6-1-1.4-1.9-1.9c-3.7-2.2-5.9-4.8-5.6-8.4c0.1-0.6-1.4-1.4-2.3-1.8
		c-2.9-1.2-6.1-2.1-9-3.3c-1-0.4-2.1-1.4-2-2.2c0.1-3.4-2.6-5.3-5.8-7.5c-3.2-2.3-3.7-5.6-2.9-8.8c0.5-1.8-0.1-3-1.9-4.5
		c-2.1-1.8-2.6-4.5-3.9-6.8c-0.6-1.2-1.4-2.3-2.1-3.5c-0.8-1.4-2.4-2.8-2.2-4.1c0.8-3.6,0.9-7.3,4.7-10.3c1.1-0.9,1.5-2.6,1.1-3.8
		c-0.8-2.7-0.9-5.1,1.5-7.4c0.7-0.7,1.2-1.7,1.1-2.5c-0.6-5.2,3.4-8.6,9.1-11.2c2.9-1.3,6-2.3,9.5-3.7c-1.8-1.6-3.4-3.1-5.1-4.5
		c9.5,0,19,0,28.4,0c-3.2,1.2-6.3,2.6-9.6,3.7c-6.4,2.1-13,4-19.5,6c0,0.3-0.1,0.6-0.1,1c1.4,0.2,3,0.8,4.1,0.5
		c6.5-1.8,12.9-3.8,19.2-5.8c3-1,5.7-2.4,8.7-3.3c2.6-0.8,5.5-1,8.1,1.3c-1.6,0.3-2.7,0.4-3.5,0.8c-1.2,0.5-3,1.2-3.1,1.9
		c-0.1,0.8,1.2,1.9,2.3,2.5c2.4,1.2,8.8,0.9,10.5-0.3c2.8-2,2.5-4.3,0.8-6.7c-0.4-0.5-0.7-1-1-1.4c1.5,0,3.1,0,4.6,0
		c0.6,2.1,2,4.3,1.8,6.3c-0.3,2.7-2.9,5-7,5.3c-5.6,0.5-11.5,0.8-15.3-3c-1.4-1.4-2.5-1.5-4.4-0.7c-2.9,1.2-5.8,2.3-8.8,3.3
		c-3.7,1.2-7.4,2.2-12.4,3.6c3.9,1.7,6.8,3.2,10.1,4.2c7.5,2.3,15.2,3.2,23.4,1.4c8.9-2,15.4-6.1,21.5-10.8c1-0.8,2.8-1.1,4.3-1.6
		c0,0.9,0,1.8,0,2.7c-4.5,3.7-9.1,7.4-13.5,11c4.4,1.2,4.8,4.2,2.3,7.9c-2.2,3.3-9,4.8-12.9,2.3c-1.3-0.8-1.5-2.6-1.7-4
		c0-0.3,2.5-1.2,3.3-1c1.4,0.5,2.4,1.6,3.9,2.7c0.1-0.5,0.6-1.5,0.2-2.3c-1-2.1-3.9-2.4-6.3-2c-1.6,0.3-3.5,1.5-4,2.6
		c-1.3,2.7,1.1,5.4,5,6.3c5.8,1.4,12.6-0.7,14.8-4.8c2.4-4.4,2.4-4.4,8.2-1.9c0.2,0.1,0.4,0.2,0.7,0.2c0,3.6,0,7.1,0,10.7
		c-3,1.1-6,2.2-9,3.3c-1.1,0.4-2.7,1-2.9,1.6c-0.2,0.7,0.6,2,1.5,2.4c3.3,1.4,6.9,2.6,10.4,3.9c0,0.9,0,1.8,0,2.7
		c-3.4-0.6-6.8-1.3-10.5-2c-3.7,5.8-5.6,11.9-1.6,17.8c2.7,3.9,8,7,12.1,10.5c0,3.8,0,7.5,0,11.3c-4.4-3.6-10-5.8-16.6-6.8
		c-4.1-0.6-7.3-1.9-9.6-4.5c-1.3-1.5-1-2.4,1-3.3c2.4-1.1,4.7-2.2,6.8-3.5c0.9-0.6,1.6-1.8,1.5-2.6c-0.8-3.9-2-7.7-3-11.4
		c0,0-0.5,0.6-1.2,0.9c-1.8,0.7-3.6,1.2-5.4,1.8c-0.3-1.3-1.3-2.8-0.7-4c1.7-3.3,3.9-6.4,6-9.5c0.7-1.1,1.5-2.1,2.1-2.9
		c-5.7-1.2-10.9-2.3-16.2-3.3c-0.9-0.1-2.6,0.5-3.1,1.1c-1.4,1.7-2.1,3.6-3.4,5.4c-7.5,9.8-8.4,20.5-7.8,31.3c0,0.8,1.9,2.1,2.8,2.1
		c4-0.1,8.1-0.3,12.1-1c2.5-0.4,3.9-0.1,5.8,0.9c2.8,1.5,5.8,3.2,9.1,3.7c8.2,1.4,15.1,3.9,19.8,8.9
		C-74.1,296.1-74.1,304.5-74.1,312.9z M-154.1,231.2c1.6,0.6,2.2,1,2.9,1.2c8,2.1,15.9,4.2,24,6.2c6.8,1.6,6.8,1.5,9.2-3
		c0.7-1.2,1.6-2.4,2.3-3.7c1-1.7,0.1-2.8-2.5-3.1c-2.3-0.3-4.6-0.3-6.8-0.6c-0.9-0.1-2.1-0.6-2.3-1.1c-0.2-0.5,0.4-1.4,1.1-1.8
		c1.9-1.1,4.2-2,6.1-3.2c0.9-0.6,2-1.5,2-2.3c-0.1-0.7-1.3-1.6-2.4-2c-2.2-0.9-4.5-1.8-6.9-2.2c-1.7-0.3-4.5-0.5-5.5,0.2
		C-140.1,220.8-146.9,225.9-154.1,231.2z M-122.7,282c1.6,1.6,3.2,3.2,4.7,4.8c1,1,2.6,1.9,2.8,3c0.8,3.9,5.1,5.3,9.2,6.2
		c2.8,0.6,4.8,1.2,6.1,3.1c0.6,0.9,1.6,1.6,2.6,2.3c4.3,3,11.1,1.5,13-2.6c2.3-4.7-2.1-10.7-9-11.8c-7.2-1.1-14.2-2.9-19.6-6.9
		c-1-0.8-2.9-1.1-4.5-1.4C-120.9,278.3-121.8,279-122.7,282z M-147.4,249.5c0.4,0.4,0.7,0.9,1.3,1.1c4.8,1.5,9.5,3.1,14.4,4.4
		c0.9,0.2,3-0.5,3.4-1.1c1.8-3,3.2-6.2,4.9-9.3c0.8-1.4,0.1-2.2-2-2.5c-3.1-0.5-6.2-1.2-9.2-1.8c-5.5-1.1-5.5-1.1-8,2.6
		C-144.2,245-145.7,247.2-147.4,249.5z M-128.6,275.7c-0.2-2.7-0.2-5.1-3.3-7c-1.5-0.9-2.4-2.3-3.2-3.6c-1.7-2.7-3.1-5.5-4.9-8.2
		c-0.4-0.7-1.9-1.1-2.9-1.5c-0.3-0.1-1.3,0.5-1.6,0.9c-1.5,2.4,0.1,7.4,3.2,8.5c3.6,1.3,4.2,3.2,4.2,5.7
		C-137.1,273.9-134.3,275.6-128.6,275.7z M-149.6,222c0.5,0.2,1.1,0.3,1.6,0.5c1.2-1.5,2.7-2.9,3.7-4.4c1.2-1.8,2.4-3.7,3.1-5.6
		c0.5-1.6,0.4-3.2,0.3-4.9c0-0.1-1.4-0.5-1.5-0.4c-1.1,1.3-2.2,2.6-3.2,4c-0.1,0.1,0,0.2,0,0.3c-0.9,2.4-1.8,4.7-2.7,7.1
		C-148.7,219.7-149.1,220.8-149.6,222z M-154.5,235.6c0,1.1-0.4,2.3,0.1,3.3c1.3,2.5,3.1,4.9,4.6,7.3
		C-147.3,242.3-151.9,239.1-154.5,235.6z"/>
</g>
</svg>
