<?xml version="1.0" encoding="utf-8"?>
<!-- Generator: Adobe Illustrator 27.1.1, SVG Export Plug-In . SVG Version: 6.00 Build 0)  -->
<svg version="1.1" id="Layer_1" xmlns="http://www.w3.org/2000/svg" xmlns:xlink="http://www.w3.org/1999/xlink" x="0px" y="0px"
	 viewBox="0 0 282 236" style="enable-background:new 0 0 282 236;" xml:space="preserve">
<g>
	<path d="M159.9,102.8c-9.3,0-13.5,8.3-13.5,17.1c0,9.9,4.6,17.7,13.9,17.7c9.7,0,13.4-8.9,13.4-17.4
		C173.7,110.9,169.6,102.8,159.9,102.8z"/>
	<path d="M215.8,103.5h-12.1v13.1h12c5.7,0,8.1-2.2,8.1-6.6C223.8,105.9,221.3,103.5,215.8,103.5z"/>
	<path d="M220.6,67.8c-39.9-0.4-79.9-0.4-119.8-0.1c-14.5,0.1-23,9.3-23,23.6c0,21.8,0.1,43.6,0.1,65.5c0,13.5,7.6,21,21.5,21.1
		c24.8,0,49.7-0.2,74.5,0.1c6.9,0.1,14-2,20.5,3.9c4.9,4.5,12,6.8,18.1,10.2c6.3,3.6,12.5,7.3,19.2,11.3c-1.4-5.2-2.7-9.8-3.7-14.4
		c-1.1-4.7-4.8-10.4,3.2-12.8c9.5-2.8,14.2-8.6,14.2-18.3c0-21.1-0.1-42.2,0.3-63.3C246,78.4,237.3,67.9,220.6,67.8z M123,146.4
		l-17.6-22.9l-6.1,5.6v17.3H87.6V94h11.6v22.9c6.9-7,13.6-13.6,22.7-22.9h14.2l-22.5,22.6l23.8,29.9H123z M159.7,147.5
		c-16.3,0-25.6-12.2-25.6-27.5c0-14.4,9.8-27.2,26.1-27.2c16.8,0,25.8,12.9,25.8,27.2C186,134.5,177.1,147.5,159.7,147.5z
		 M234.5,133.7v2.6c0,3.6-0.1,7.6,0.6,10.1h-12c-0.8-2.3-0.9-5.4-0.9-11v-1.7c0-5.3-1.8-7.5-8.8-7.5h-9.7v20.2h-11.5V94h26.1
		c11.1,0,17.4,6,17.4,15c0,6.8-3.6,10.8-8.3,12.4C229.4,122.2,234.5,124.3,234.5,133.7z"/>
	<path d="M86.7,56.2c31.8,0,63.5-0.3,95.3,0.3c8,0.2,10.1-1.7,9.6-9.7c-0.8-15.6-9-25.3-23.8-25.3c-40.9-0.1-81.7-0.2-122.6,0
		C27.1,21.5,16.8,31.7,17,48.1c0.3,22.3,0.3,44.7,0.4,67c0,9.6,3.4,14.3,12,18.4c3,1.5,7.3,5.2,7.1,7.6c-0.6,7-3.1,13.8-5,21
		c0.6-0.3,0.9-0.4,1.2-0.6c7.9-4.4,15.9-8.7,23.7-13.4c3.2-1.9,8.6-4.4,8.7-6.8c0.7-20.2,1.1-40.4,0.2-60.6
		C64.7,67.6,73.6,56.2,86.7,56.2z"/>
</g>
</svg>
