<?xml version="1.0" encoding="utf-8"?>
<!-- Generator: Adobe Illustrator 27.1.1, SVG Export Plug-In . SVG Version: 6.00 Build 0)  -->
<svg version="1.1" id="Layer_1" xmlns="http://www.w3.org/2000/svg" xmlns:xlink="http://www.w3.org/1999/xlink" x="0px" y="0px"
	 viewBox="0 0 302.7 248" style="enable-background:new 0 0 302.7 248;" xml:space="preserve">
<g>
	<path d="M237.6,150.5c0.5-11.7,0.7-23.3,0.8-35c0-18.2,0.1-36.3-0.5-54.5c-0.4-11.1-11.6-19.9-17.5-20.3c-14.6-0.9-29.2-1-43.8-1.1
		c-34.3-0.1-68.7-0.1-103,0.1c-4.4,0-8.8,1.5-13,2.2c-0.8,0.6-1.3,1.2-2,1.5C50.1,48,44.3,54.6,44.3,64.8c0,27.1,0.1,54.2,0.1,81.3
		c0,9.2,5.3,14.6,13.3,18.2c3.4,1.5,9,4.5,8.8,6.4c-0.7,7.1-3.3,13.9-5.2,20.9c-0.3,1.2-0.7,2.4-0.9,3.6c0,0.2,1,0.9,1.2,0.8
		c3.9-2.2,7.7-4.5,11.5-6.7c7.2-4.3,14.4-8.6,21.7-12.7c5.7-3.2,11.4-8.7,17.2-8.9c36.3-1.1,72.7-1,109-1.5
		C228.2,166,237.3,157.5,237.6,150.5z M104.6,130.5h-41v-24.1v-2.2v-7.6V80.9v-2.8h40.8v10.2H75.5v9.9h27.4v10.2H75.5v11.9H106
		L104.6,130.5z M162,130.5h-13.2c-0.7-1.2-1.7-2.8-2.8-4.7c-6.3-10.6-18-30.1-20.5-35.2h-0.1c0.4,6.5,0.4,13.9,0.4,23.2v16.6h-10.9
		V78.1H129c13.8,22.5,19.3,30.7,22.4,36.9h0.1c-0.5-5.5-0.4-15.3-0.4-23.9v-13H162V130.5z M213.6,125.1c-2.3,2.9-5.1,5-10,5.9
		c-1.9,0.4-4,0.6-6.6,0.6c-15.9,0-24.8-11.7-24.8-27c0-15.3,9.4-27.6,27-27.6c15.8,0,22.6,9.1,23.9,16.8h-12
		c-1-2.6-3.8-7.2-11.9-7.2c-10,0-14.4,7.7-14.4,17.4c0,10.3,4.6,18,14.6,18c8.3,0,12.1-4.6,12.1-10.9v-0.8h-12v-9.8H223v30.1h-8.6
		C214.1,129.4,213.8,127,213.6,125.1z"/>
	<path d="M271.1,101.5c-5.6-3.3-12.5-4.4-19-6.2c-0.5-0.1-1.9,1.2-1.9,1.8c-0.1,21.2,0,42.5-0.1,63.7c-0.1,10.5-7.3,17.4-17.7,17.5
		c-18.5,0.2-37,0.1-55.5,0.1c-19.6,0-39.1,0-58.7,0c-0.7,0-1.9,0.7-1.9,0.7c2,5.6,2.5,13,6.4,16.2c4.9,3.9,12.7,5.8,19.3,6
		c27.8,0.6,55.5,0.3,83.3,0.3c0.6,0,1.3,0.2,1.9,0.6c4.3,2.6,8.6,5.2,12.9,7.8c5.9,3.5,11.8,6.9,17.8,10.2c1.2,0.7,2.6,0.9,3.9,1.4
		c0-0.3,0.2-0.7,0.1-1c-1.1-4.4-2.7-8.7-3.3-13.1c-0.3-2.1,0.7-6,2-6.4c7.4-2.3,11.7-7.4,11.9-14.4c0.7-24.5,0.7-48.9,0.8-73.4
		C273.2,109.2,273.4,102.9,271.1,101.5z"/>
</g>
</svg>
