<?xml version="1.0" encoding="utf-8"?>
<!-- Generator: Adobe Illustrator 27.1.1, SVG Export Plug-In . SVG Version: 6.00 Build 0)  -->
<svg version="1.1" id="Layer_1" xmlns="http://www.w3.org/2000/svg" xmlns:xlink="http://www.w3.org/1999/xlink" x="0px" y="0px"
	 viewBox="0 0 302.7 248" style="enable-background:new 0 0 302.7 248;" xml:space="preserve">
<style type="text/css">
	.st0{opacity:0.57;}
</style>
<g>
	<g>
		<path d="M153.6,190.7c-8.9,0-17.7,0-26.6,0c-2.1,0-4.2-0.2-5.7-1.7c-1-0.9-1.8-2.2-2.1-3.5c-0.7-2.9-0.8-5.9-1.5-8.8
			c-0.5-2.2-1.6-4.2-2.5-6.2c-1.2-2.5-2.5-5.1-4-7.4c-2.1-3.1-4.5-6.1-6.8-9.1c-1.5-1.9-3.3-3.6-4.8-5.6c-2.3-2.9-4.5-6-6.6-9
			c-1.2-1.8-2.4-3.6-3.5-5.5c-2.5-4.4-3-9.3-2.5-14.2c0.2-2.2,0.6-4.5,1.5-6.4c1.6-3.2,2.3-6.9,5.2-9.4c2.1-1.8,3.7-4.2,5.8-6.1
			c1.9-1.7,4.2-3.1,6.3-4.6c1.4-1,2.8-2.2,4.4-3.1c7.5-4.2,15.5-7.1,24-8.8c8.3-1.6,16.7-2.1,25-1.7c8.7,0.4,17.2,1.8,25.5,4.8
			c3.8,1.4,7.5,3,11.1,4.7c1.6,0.8,2.8,2.4,4.3,3.1c4.1,1.9,7.2,5,10.5,8c1.7,1.5,3,3.4,4.2,5.3c1.5,2.3,2.7,4.8,3.8,7.3
			c0.5,1.1,0.6,2.4,0.9,3.5c1,3.4,1.4,7,0.8,10.4c-0.5,3-1.7,6-3.2,8.6c-1.9,3.4-4.4,6.4-6.8,9.5c-3.3,4.3-6.8,8.5-10,12.9
			c-2.3,3-4.4,6.1-6.4,9.3c-2,3.2-3.7,6.6-4.4,10.4c-0.5,2.7-0.9,5.4-1.3,8.1c-0.3,2.1-2.3,4.4-4.5,4.9c-1.3,0.3-2.7,0.4-4,0.4
			C171.1,190.7,162.3,190.7,153.6,190.7z M172.6,161.9c0,5.8,0,11.7,0,17.5c0,0.5,0.5,1.2,0.9,1.3c0.9,0.3,1.2-0.3,1.2-1.1
			c0-0.3,0.2-0.6,0.3-0.9c1.1-3.7,1.6-7.6,3.3-11c2.4-4.7,5.4-9.2,8.5-13.6c5.1-7.1,11.6-13.2,16.2-20.7c2-3.3,3.6-6.8,3.5-10.6
			c-0.1-2.6-1-5.2-1.8-7.8c-1.8-6.1-5.9-10.7-10.9-14.4c-3.8-2.9-8.1-5-12.6-6.7c-7.8-2.9-15.9-4.4-24.2-4.8
			c-4.4-0.2-8.9,0.3-13.3,0.7c-9.3,0.9-18.2,3.5-26.4,8.3c-4.4,2.5-8.4,5.6-11.2,9.9c-1.7,2.6-3.1,5.6-4.2,8.5
			c-0.7,1.9-1.3,4.1-1.1,6c0.3,3,1,6.1,2.3,8.7c2.7,5.3,6.7,9.8,10.4,14.4c3.9,4.8,7.7,9.6,11.2,14.6c2.7,3.8,5,8,6.1,12.7
			c0.5,2.3,1.2,4.6,1.9,6.8c0.1,0.4,0.8,0.8,1.2,0.9c0.2,0,0.7-0.6,0.8-1.1c0.1-0.4,0-0.9,0-1.3c0-11,0-22.1,0-33.1
			c0-1.5,0.5-2.6,1.6-3.5c2.7-2.3,5.7-2.7,9-1.7c2.1,0.6,3.9,2.6,3.7,4.1c-0.2,1.3,0.4,1.3,1.3,1.3c2.3,0,4.6,0,6.9,0
			c0.8,0,1.4,0,1.2-1.2c-0.1-0.7,0.4-1.6,0.9-2.2c3-3.4,8.7-3.1,11.8-0.2c1,0.9,1.5,2,1.5,3.4C172.5,150.7,172.6,156.3,172.6,161.9z
			 M148.5,168.1C148.5,168.1,148.5,168.1,148.5,168.1c0,3.7,0,7.3,0,11c0,1.1,0.2,1.7,1.5,1.7c2.5-0.1,5.1,0,7.6,0
			c1,0,1.3-0.4,1.3-1.3c0-7.6,0-15.1,0-22.7c0-1.1-0.5-1.5-1.6-1.5c-2.4,0.1-4.7,0.1-7.1,0c-1.5-0.1-1.8,0.5-1.8,1.8
			C148.6,160.8,148.5,164.5,148.5,168.1z"/>
		<path d="M154.2,193.1c8.3,0,16.6,0,24.9,0c2.3,0,4.4,0.8,6,2.4c1.8,1.8,1.6,3.9-0.4,5.5c-1.7,1.4-3.4,2.4-5.7,1.5
			c-0.5-0.2-1.1,0-1.7,0c-15.2,0-30.4,0-45.6,0c-1.3,0-2.6,0.2-3.9,0.3c-1.9,0.2-5.3-1.8-5.9-3.6c-0.6-2,0.7-4.3,3.3-5.3
			c1.4-0.5,2.9-0.8,4.3-0.8C137.8,193.1,146,193.1,154.2,193.1z"/>
		<path d="M153.8,215.6c-6.9,0-13.9,0-20.8,0c-2.7,0-4.8-1.3-6.2-3.4c-0.5-0.8-0.4-2.6,0.2-3.3c1.7-1.9,3.8-3.2,6.6-3.2
			c13.5,0.1,27,0.1,40.5,0c2,0,3.8,0.6,5.3,1.8c2.2,1.5,2.4,4.1,0.5,6c-1.4,1.4-3.1,2.2-5.1,2.1
			C167.8,215.6,160.8,215.6,153.8,215.6z"/>
		<path d="M197.6,76.6c-1.3,0-2.7-0.4-3.9-1.1c-2.9-1.8-3.6-5.3-1.8-8.3c1.1-1.9,2.3-3.8,3.4-5.6c2.9-4.7,5.8-9.5,8.7-14.4
			c1.3-2.2,3.2-3.3,5.9-3.4l0.2,0c2.3,0,4,1,5,2.7c0.8,1.5,2.1,3.9,0.4,6.5c-2.7,4.3-5.4,8.7-8,13c-1.6,2.6-3.1,5.2-4.7,7.7
			C201.8,75.6,199.8,76.6,197.6,76.6z"/>
		<path d="M210,45.3c1.6,0,3,0.5,3.8,1.9c0.8,1.6,1.6,3.1,0.5,5c-4.3,6.9-8.4,13.9-12.7,20.8c-1.4,2.3-4.5,2.8-7,1.2
			c-2.2-1.4-2.7-3.9-1.3-6.2c4-6.7,8.2-13.3,12.1-20C206.5,46.1,208,45.4,210,45.3z"/>
		<path d="M227.2,103.1c-0.8,0-1.6-0.2-2.3-0.5c-2.1-0.9-3.5-2.8-3.7-5.2c-0.3-2.5,0.5-4.4,2.4-6c6.3-5.2,12.1-10.1,17.7-15
			c1.1-1,2.4-1.5,3.7-1.5c1,0,2,0.3,3,0.8c2.1,1.1,3.1,3,3,5.8c0.2,2-0.8,3.8-2.8,5.4c-5.1,4.2-10.4,8.7-17.3,14.6
			C229.9,102.6,228.6,103.1,227.2,103.1z"/>
		<path d="M249.6,81.6c0.2,1.6-0.7,3-2.2,4.2c-5.8,4.8-11.6,9.7-17.3,14.6c-1.4,1.2-3,1.5-4.6,0.8c-1.7-0.7-2.6-2.2-2.9-4
			c-0.2-1.9,0.4-3.4,1.9-4.7c6-4.9,11.9-9.9,17.7-15c1.7-1.5,3.4-1.4,5.1-0.5C249,77.9,249.7,79.4,249.6,81.6z"/>
		<path d="M153.4,67.9c-3.6,0-6.3-2.5-6.3-6c0-2.4,0-4.8,0-7.2c0-5.3,0-10.8,0-16.1c0-3.4,2.6-4.8,3.7-5.4c0.9-0.5,1.8-0.7,2.7-0.7
			c1.1,0,2.2,0.3,3.2,1c1.5,1,3.4,2.7,3.2,6.1c-0.1,2.5-0.1,5.1-0.1,7.6c0,1.1,0,2.2,0,3.3l0,3.4c0,2.7,0,5.4,0,8.1
			C159.9,65.3,157.2,67.9,153.4,67.9L153.4,67.9z"/>
		<path d="M158.5,50.3c0,3.8,0,7.7,0,11.5c0,2.6-2.1,4.5-5,4.5c-2.8,0-4.8-1.9-4.8-4.5c0-7.8,0-15.6,0-23.4c0-2.2,1.3-3.2,2.9-4.1
			c1.5-0.8,3-0.7,4.4,0.2c1.7,1.1,2.7,2.5,2.6,4.7C158.3,43,158.5,46.7,158.5,50.3z"/>
		<path d="M111.9,75.6c-0.7,0-1.3-0.1-1.9-0.4c-0.7-0.3-2.4-1.1-3.4-2.6c-2.2-3.5-4.5-7-6.6-10.4C98,59.2,96,56,94,53
			c-1.6-2.4-0.8-4.6-0.1-6c1.2-2.2,3.1-3,4.5-3.1l0.1,0c3.5,0.1,5.6,1.2,7.1,3.7c2.7,4.5,5.5,8.9,8.3,13.3c1.1,1.8,2.2,3.5,3.3,5.3
			c1.5,2.4,1.5,4.9,0,7C116.1,74.6,113.9,75.6,111.9,75.6z"/>
		<path d="M98.5,45.3c2.9,0.1,4.6,0.8,5.9,3c3.8,6.3,7.8,12.4,11.7,18.6c1.2,1.9,1.2,3.7,0,5.3c-1.1,1.5-3.7,2.4-5.5,1.7
			c-1-0.4-2.1-1.1-2.7-2c-4.2-6.5-8.3-13.2-12.6-19.7c-1-1.6-0.8-3,0-4.5C96.1,46.1,97.5,45.4,98.5,45.3z"/>
		<path d="M76.4,102.6l-0.3-0.2l-0.1,0c-0.3-0.1-1-0.4-1.6-0.9c-6.3-4.9-12.7-9.7-19-14.6c-2-1.6-2.9-5.2-1.8-7.7
			c0.9-2.2,3.4-3.8,5.8-3.8c0.3,0,0.5,0,0.8,0.1c1,0.2,1.8,0.7,2.2,1c6.3,4.9,12.7,9.8,19,14.6c1.9,1.5,2.8,4.7,1.9,7.1
			c-1.1,2.9-3.2,4.4-6.5,4.4L76.4,102.6z"/>
		<path d="M76.8,101.1c-0.2-0.1-0.9-0.3-1.4-0.7c-6.3-4.9-12.7-9.7-19-14.6c-1.5-1.2-2.1-4-1.3-5.9c0.8-1.8,3-3.1,5-2.8
			c0.5,0.1,1.1,0.4,1.5,0.7c6.3,4.9,12.7,9.7,19,14.6c1.4,1.1,2.1,3.6,1.4,5.4C81.1,99.9,79.5,101.1,76.8,101.1z"/>
	</g>
</g>
<g class="st0">
	<g>
		<path d="M560.8,30.8C573,43.4,590,62.2,601.6,74c7.6-2,13.9-3.7,20.2-5.2c2.6-0.6,5.4-0.7,8.1-0.9c3.8-0.2,7.7-0.4,11.5-0.4
			c9.6,0.1,19.1,1.6,28.2,4.8c4.4,1.6,8.6,3.6,12.7,5.8c3.1,1.7,6.1,3.7,8.9,6c2.4,1.9,4.5,4.3,6.5,6.6c1.8,2.1,3.5,4.3,4.8,6.7
			c2,3.7,2.9,7.9,3.4,12.1c0.5,5-0.7,9.8-3.3,14.1c-2.1,3.3-4.5,6.4-6.8,9.5c-3.3,4.4-6.8,8.7-10.2,13.1c-1.4,1.8-2.7,3.6-4.3,5.6
			c2,2,4.2,4.1,6.3,6.3c10.6,10.5,21.3,21.1,31.9,31.6c0.8,0.8,1.6,1.6,2.3,2.4c2.7,3,4.9,2.5,3,6.2c-0.7,1.4-3.7,4-4.8,5.2
			c-1.1,1.2-2.3,1.6-3.7,0.3c-3-2.8-6.1-5.5-9-8.4C655.2,143.7,603,92.1,551,40.3 M611,82c20.6,20.4,40.9,40.5,61.4,60.8
			c5.5-7.1,11-14,16.2-21.1c2.2-3,3.5-6.6,3.4-10.3c0-2.7-1-5.3-1.7-8c-1.7-6.3-6-10.9-10.9-14.7c-3.9-3-8.4-5.2-13-6.9
			c-7.8-2.8-15.9-4.2-24.1-4.7c-3.2-0.2-6.4,0.2-9.7,0.3C625.3,77.9,618.3,79.7,611,82z"/>
		<path d="M582.9,86.8c2.9,2.7,5.4,5.2,7.9,7.7c0.3,0.3,0.4,1.1,0.2,1.6c-1.4,2.9-3.2,5.6-4.2,8.5c-1.4,4.3-1.9,8.7,0.2,13.1
			c2.3,4.9,5.5,9.2,9,13.4c6.1,7.3,12.4,14.5,16.8,22.9c1.6,3.1,2.6,6.5,3.7,9.8c0.6,1.8,0.9,3.7,1.4,5.6c0.5,0,1.2,0,2,0
			c0-0.7,0-1.4,0-2c0-11.2,0-22.4,0-33.7c0-2.4,2.9-5.5,5.3-5.6c0.4,0,0.8,0.2,1.1,0.5c5.1,4.9,10.2,9.8,15.6,15.1
			c-2.9,0-5.6,0-8.3,0c0,8.7,0,17.1,0,25.7c3.4,0,6.9,0,10.5,0c0-7.7,0-15.4,0-23.5c2.5,2.4,4.6,4.5,6.8,6.5c2.2,2.2,5.3,4,6.5,6.6
			c1.1,2.6,0.3,6,0.3,9c0,0.4,0,0.9,0.1,1.4c0.7,0,1.3,0.1,2,0.1c0.5-2.3,1-4.5,1.5-7.1c0.8,0.8,1.4,1.3,2,1.8c3,2.9,6,5.8,9,8.7
			c1.5,1.4,1.5,2.2,0.1,3.7c-1.6,1.8-3.8,2.6-6.1,2.6c-18.3,0-36.5,0-54.8,0c-2.3,0-4.5-0.6-6-2.5c-0.6-0.7-1.3-1.7-1.3-2.6
			c0.1-4.5-1.2-8.8-2.8-12.9c-1.4-3.5-3.3-6.7-5.4-9.9c-2.1-3.2-4.4-6.2-6.8-9.2c-3.4-4.3-7.1-8.4-10.4-12.8
			c-2.1-2.8-4.1-5.7-5.4-8.9c-1.6-3.9-2.3-8.2-1.7-12.5c0.3-2.4,0.6-4.9,1.6-6.9c1.7-3.3,2.5-7.1,5.5-9.7
			C580.4,90.3,581.5,88.5,582.9,86.8z"/>
		<path d="M639.2,182c8.4,0,16.7-0.1,25.1,0.1c1.9,0,4,0.9,5.6,2c2.4,1.5,2.1,4-0.1,5.8c-1.7,1.4-3.3,2.3-5.6,1.5
			c-0.4-0.2-1,0-1.5,0c-15.7,0-31.3,0-47,0c-0.9,0-1.7,0.1-2.6,0.2c-2.1,0.4-5.7-1.6-6.3-3.6c-0.6-1.9,0.9-4.2,3.4-5.1
			c1.4-0.5,2.9-0.8,4.3-0.8C622.8,182,631,182,639.2,182z"/>
		<path d="M639,204.4c-7,0-14,0-21,0c-2.7,0-4.8-1.3-6.3-3.4c-0.5-0.7-0.3-2.6,0.3-3.3c1.7-1.9,3.8-3.1,6.7-3.1
			c13.5,0.1,27.1,0,40.6,0.1c1.8,0,3.7,0.8,5.3,1.7c2.3,1.3,2.3,3.9,0.4,5.8c-1.4,1.4-3.1,2.2-5.1,2.2
			C652.9,204.4,646,204.4,639,204.4z"/>
	</g>
</g>
</svg>
