<?xml version="1.0" encoding="utf-8"?>
<!-- Generator: Adobe Illustrator 27.1.1, SVG Export Plug-In . SVG Version: 6.00 Build 0)  -->
<svg version="1.1" id="Layer_1" xmlns="http://www.w3.org/2000/svg" xmlns:xlink="http://www.w3.org/1999/xlink" x="0px" y="0px"
	 viewBox="0 0 202.67 348" style="enable-background:new 0 0 202.67 348;" xml:space="preserve">
<g>
	<g>
		<path d="M89.36,266.5c0-10.35,0-34.95,0-44.58c-11.33-2.27-21.9-5.99-31.02-13.05c-17.26-13.37-26.58-30.96-27.05-52.76
			c-0.43-19.99-0.21-40-0.07-60C31.45,61.7,57.4,33.4,92.93,29.71c32.09-3.33,63.46,18.06,71.31,50.78
			c1.38,5.77,2.05,11.83,2.14,17.77c0.27,18.16,0.11,36.33,0.1,54.5c-0.02,34.87-21.64,61.43-55.84,68.63
			c-0.63,0.13-1.25,0.28-2.22,0.5c0,9.5,0,34.29,0,44.63 M108.06,203.12c22.95-4.21,39.96-24.39,40.16-47.21
			c0.18-19.82,0.16-39.65,0.01-59.47c-0.19-26.93-22.28-48.76-49.2-48.86c-27.14-0.1-49.42,21.82-49.6,48.97
			c-0.13,19.49-0.04,38.98-0.02,58.48c0.01,12.73,4.47,23.8,13.03,33.11c7.22,7.85,16,13.09,27.17,15.09c0-15.05-0.03-29.52,0.03-44
			c0.01-2.14,0.15-4.35,0.67-6.41c1.06-4.22,4.04-6.5,8.33-6.57c4.51-0.07,7.63,2.22,8.74,6.67c0.51,2.07,0.65,4.27,0.66,6.41
			C108.08,173.8,108.06,188.26,108.06,203.12z"/>
		<path d="M83.18,90.11c0.17-3.31-0.02-6.69,0.59-9.92c1.6-8.44,7.86-13.84,15.31-13.64c7.44,0.2,13.66,5.32,14.72,13.65
			c0.85,6.69,0.89,13.67-0.03,20.33c-1.2,8.68-8.37,14.07-15.93,13.35c-8.15-0.78-13.92-7.01-14.47-15.79
			c-0.17-2.65-0.03-5.32-0.03-7.98C83.29,90.12,83.23,90.11,83.18,90.11z"/>
	</g>
</g>
<g>
	<g>
		<polygon points="98.53,311.27 61.01,284.03 70.77,272.52 108.29,299.76 		"/>
		<ellipse transform="matrix(0.2138 -0.9769 0.9769 0.2138 -219.9573 284.7304)" cx="66.91" cy="279.02" rx="7.4" ry="8.14"/>
	</g>
	<g>
		<polygon points="88.47,299.75 125.8,272.7 135.55,284.21 98.21,311.27 		"/>
		<ellipse transform="matrix(0.9818 -0.1901 0.1901 0.9818 -50.7097 29.738)" cx="129.65" cy="279.19" rx="8.11" ry="7.39"/>
	</g>
</g>
<polyline points="99.04,285.06 61.53,257.82 71.28,246.31 108.8,273.56 99.04,285.06 "/>
<ellipse transform="matrix(0.2138 -0.9769 0.9769 0.2138 -193.953 264.6315)" cx="67.43" cy="252.81" rx="7.4" ry="8.14"/>
<polyline points="98.73,285.06 88.98,273.55 126.32,246.49 136.06,258.01 98.73,285.06 "/>
<ellipse transform="matrix(0.9818 -0.1901 0.1901 0.9818 -45.7188 29.3582)" cx="130.17" cy="252.99" rx="8.11" ry="7.39"/>
</svg>
